<svg width="491" height="453" viewBox="0 0 491 453" fill="none" xmlns="http://www.w3.org/2000/svg">
<path d="M268 3.5C260.74 3.5 254.711 8.58594 252.906 15.3125C251.061 14.5537 249.112 14 247 14C238.366 14 231.25 21.1162 231.25 29.75V86.1875L226.656 81.5938C220.545 75.4824 210.455 75.4824 204.344 81.5938C198.232 87.7051 198.232 97.7949 204.344 103.906L239.945 139.508C246.118 145.66 254.649 150.5 264.719 150.5H289C309.241 150.5 325.75 133.991 325.75 113.75V50.75C325.75 42.1162 318.634 35 310 35C308.154 35 306.411 35.3896 304.75 35.9844V29.75C304.75 21.1162 297.634 14 289 14C286.888 14 284.939 14.5537 283.094 15.3125C281.289 8.58594 275.26 3.5 268 3.5ZM268 14C270.974 14 273.25 16.2764 273.25 19.25V71.75H283.75V29.75C283.75 26.7764 286.026 24.5 289 24.5C291.974 24.5 294.25 26.7764 294.25 29.75V71.75H304.75V50.75C304.75 47.7764 307.026 45.5 310 45.5C312.974 45.5 315.25 47.7764 315.25 50.75V113.75C315.25 128.311 303.561 140 289 140H264.719C258.033 140 252.291 136.739 247.492 131.961L211.727 96.5234C209.635 94.4316 209.635 91.0684 211.727 88.9766C213.818 86.8848 217.182 86.8848 219.273 88.9766L232.727 102.594L241.75 111.617V29.75C241.75 26.7764 244.026 24.5 247 24.5C249.974 24.5 252.25 26.7764 252.25 29.75V71.75H262.75V19.25C262.75 16.2764 265.026 14 268 14Z" fill="url(#paint0_linear_75_311)"/>
<path d="M59.8828 244.586C55.5352 244.504 51.9258 245.406 49.7109 246.062C49.6494 246.062 49.6084 246.062 49.5469 246.062L36.4219 250.164C21.0205 254.901 10.5 269.175 10.5 285.273V313C10.5 333.241 27.0088 349.75 47.25 349.75H99.2578C105.656 349.894 111.85 346.141 114.352 339.906C115.931 335.948 115.705 331.785 114.188 328.094C117.407 326.392 120.135 323.644 121.57 320.055C123.211 315.933 122.944 311.544 121.242 307.75H141.75C150.384 307.75 157.5 300.634 157.5 292C157.5 283.366 150.384 276.25 141.75 276.25H133.711L135.844 275.594C144.108 273.092 148.846 264.171 146.344 255.906C143.842 247.642 134.921 242.904 126.656 245.406L82.3594 259.023C81.9697 258.039 81.5186 256.973 80.8828 255.906C78.2578 251.518 72.9463 246.555 64.4766 245.078C62.8975 244.811 61.3389 244.606 59.8828 244.586ZM131.906 255.25C133.957 255.476 135.7 256.891 136.336 259.023C137.197 261.853 135.557 264.725 132.727 265.586L96.7969 276.414L98.6016 282.32V286.75H141.75C144.724 286.75 147 289.026 147 292C147 294.974 144.724 297.25 141.75 297.25H107.133L93.3516 291.836C91.3623 291.036 89.3115 290.646 87.2812 290.687L84.4922 269.195L129.773 255.414C130.491 255.188 131.229 255.168 131.906 255.25ZM59.7188 255.414C60.7236 255.414 61.7695 255.414 62.6719 255.578C68.3115 256.562 70.4854 259.023 71.8594 261.32C73.2334 263.617 73.3359 265.258 73.3359 265.258C73.3359 265.36 73.3359 265.483 73.3359 265.586L77.7656 299.383C77.8066 299.547 77.8682 299.711 77.9297 299.875C78.5859 302.644 76.9248 305.289 74.1562 305.945C72.4541 306.355 71.5928 306.13 70.7109 305.617C69.8291 305.104 68.7422 304.018 67.9219 301.68L61.3594 276.25C60.9492 274.691 59.8418 273.42 58.3857 272.784C56.9092 272.148 55.2275 272.21 53.8125 272.969L45.1172 277.727C42.5742 279.121 41.6514 282.32 43.0664 284.863C44.4609 287.406 47.6602 288.329 50.2031 286.914L52.8281 285.437L57.9141 304.797C57.9551 304.961 58.0166 305.125 58.0781 305.289C59.4932 309.35 61.9131 312.61 65.2969 314.641C68.0654 316.302 71.2852 316.937 74.4844 316.609C72.8232 318.147 71.4492 320.116 70.5469 322.352C68.1475 328.36 69.665 334.964 73.9922 339.25H47.25C32.6895 339.25 21 327.561 21 313V285.273C21 273.728 28.5059 263.576 39.5391 260.172L52.6641 256.234C53.7305 255.906 56.7246 255.414 59.7188 255.414ZM88.2656 301.352C88.6553 301.413 89.0244 301.352 89.4141 301.516L108.938 309.391C111.686 310.498 112.998 313.369 111.891 316.117C110.783 318.865 107.748 320.178 105 319.07L85.4766 311.359C85.1895 311.257 85.0664 311.011 84.8203 310.867C86.8916 308.201 88.2246 304.838 88.2656 301.352ZM84.9844 323.008C85.6816 323.008 86.4199 323.069 87.1172 323.336L94.1719 326.125L101.062 328.914L101.719 329.078C104.467 330.186 105.779 333.221 104.672 335.969C103.872 337.978 102.088 339.147 100.078 339.25C100.017 339.25 99.9756 339.25 99.9141 339.25C99.2168 339.27 98.4785 339.188 97.7812 338.922L83.1797 333.016C80.4316 331.908 79.1191 328.873 80.2266 326.125C80.7803 324.751 81.7852 323.869 83.0156 323.336C83.6309 323.069 84.2871 323.008 84.9844 323.008Z" fill="url(#paint1_linear_75_311)"/>
<path d="M410.75 250.5C405.172 250.5 400.271 253.453 397.461 257.883C395.164 256.57 392.56 255.75 389.75 255.75C381.116 255.75 374 262.866 374 271.5V290.695L363.008 304.805C356.302 313.479 356.753 325.928 363.992 334.172L376.461 348.281C383.434 356.218 393.462 360.75 404.023 360.75H431.75C451.991 360.75 468.5 344.241 468.5 324V276.75C468.5 268.116 461.384 261 452.75 261C449.94 261 447.336 261.82 445.039 263.133C442.23 258.703 437.328 255.75 431.75 255.75C428.94 255.75 426.336 256.57 424.039 257.883C421.23 253.453 416.328 250.5 410.75 250.5ZM410.75 261C413.724 261 416 263.276 416 266.25V282H426.5V271.5C426.5 268.526 428.776 266.25 431.75 266.25C434.724 266.25 437 268.526 437 271.5V282H447.5V276.75C447.5 273.776 449.776 271.5 452.75 271.5C455.724 271.5 458 273.776 458 276.75V324C458 338.561 446.311 350.25 431.75 350.25H404.023C396.477 350.25 389.319 347.071 384.336 341.391L371.867 327.117C367.909 322.605 367.704 316.125 371.375 311.367L374 307.922V313.5H384.5V271.5C384.5 268.526 386.776 266.25 389.75 266.25C392.724 266.25 395 268.526 395 271.5V282H405.5V266.25C405.5 263.276 407.776 261 410.75 261Z" fill="url(#paint2_linear_75_311)"/>
<path d="M102.5 125.5L105.594 128.035L102.5 125.5ZM191.812 76.2435C193.051 74.4145 192.572 71.9274 190.743 70.6884L160.938 50.4978C159.109 49.2588 156.622 49.7371 155.383 51.5661C154.144 53.3951 154.623 55.8821 156.452 57.1211L182.945 75.0683L164.998 101.562C163.759 103.391 164.237 105.878 166.066 107.117C167.895 108.356 170.382 107.877 171.621 106.048L191.812 76.2435ZM67.9996 219C71.9995 219.038 71.9994 219.039 71.9994 219.04C71.9994 219.04 71.9994 219.041 71.9994 219.041C71.9994 219.041 71.9994 219.04 71.9995 219.039C71.9995 219.036 71.9996 219.03 71.9997 219.021C72 219.002 72.0005 218.972 72.0013 218.929C72.003 218.843 72.0061 218.709 72.0117 218.528C72.0228 218.166 72.0435 217.617 72.0818 216.897C72.1586 215.456 72.3058 213.331 72.5872 210.643C73.1503 205.263 74.2489 197.642 76.3885 188.748C80.6747 170.929 89.0957 148.172 105.594 128.035L99.4055 122.965C81.9031 144.327 73.0741 168.32 68.6104 186.877C66.3751 196.169 65.2238 204.143 64.6307 209.81C64.334 212.645 64.1766 214.906 64.0932 216.471C64.0515 217.254 64.0283 217.863 64.0154 218.283C64.009 218.493 64.0052 218.656 64.0029 218.77C64.0018 218.826 64.001 218.871 64.0006 218.903C64.0003 218.919 64.0002 218.932 64 218.942C64 218.946 63.9999 218.951 63.9999 218.954C63.9999 218.955 63.9999 218.957 63.9999 218.958C63.9998 218.96 63.9998 218.961 67.9996 219ZM105.594 128.035C122.072 107.922 142.979 95.372 159.878 87.8411C168.313 84.0823 175.703 81.5942 180.97 80.0492C183.602 79.2772 185.699 78.7419 187.126 78.4019C187.839 78.232 188.385 78.111 188.746 78.0337C188.926 77.9951 189.06 77.9674 189.146 77.95C189.189 77.9413 189.219 77.9352 189.238 77.9316C189.247 77.9298 189.253 77.9286 189.256 77.928C189.257 77.9277 189.258 77.9276 189.258 77.9276C189.258 77.9276 189.257 77.9277 189.257 77.9277C189.256 77.9279 189.255 77.9281 188.5 74.0001C187.745 70.072 187.743 70.0723 187.742 70.0726C187.741 70.0728 187.739 70.0731 187.737 70.0735C187.734 70.0741 187.73 70.0749 187.725 70.0758C187.715 70.0777 187.703 70.0802 187.687 70.0834C187.655 70.0897 187.61 70.0985 187.554 70.11C187.441 70.133 187.279 70.1665 187.07 70.2113C186.652 70.3007 186.047 70.4351 185.272 70.6197C183.723 70.9887 181.492 71.5589 178.718 72.3727C173.172 73.9996 165.437 76.6052 156.622 80.5339C139.02 88.3778 116.928 101.577 99.4055 122.965L105.594 128.035Z" fill="url(#paint3_linear_75_311)"/>
<path d="M424.12 141.716L420.565 143.549L424.12 141.716ZM433.872 243.243C435.059 245.106 437.532 245.654 439.395 244.468L469.759 225.127C471.622 223.941 472.17 221.468 470.983 219.605C469.797 217.741 467.324 217.193 465.461 218.38L438.471 235.571L421.28 208.581C420.093 206.718 417.62 206.169 415.757 207.356C413.894 208.543 413.345 211.016 414.532 212.879L433.872 243.243ZM352 72.9321C350.377 76.588 350.376 76.5876 350.375 76.5872C350.375 76.5872 350.374 76.5869 350.374 76.5869C350.374 76.5869 350.375 76.5871 350.376 76.5877C350.379 76.5889 350.384 76.5914 350.393 76.5952C350.409 76.6027 350.437 76.6153 350.476 76.6331C350.554 76.6687 350.676 76.7248 350.84 76.8018C351.168 76.9557 351.664 77.1925 352.309 77.5136C353.601 78.1559 355.493 79.1348 357.849 80.4604C362.563 83.1131 369.121 87.1466 376.436 92.6415C391.088 103.649 408.633 120.413 420.565 143.549L427.675 139.882C415.016 115.337 396.5 97.7091 381.241 86.2454C373.599 80.5045 366.738 76.2824 361.772 73.4883C359.288 72.0906 357.275 71.0483 355.871 70.3504C355.169 70.0014 354.62 69.7383 354.239 69.5597C354.049 69.4705 353.901 69.4023 353.798 69.3551C353.746 69.3316 353.706 69.3132 353.676 69.3001C353.662 69.2935 353.65 69.2882 353.641 69.2843C353.637 69.2823 353.633 69.2806 353.63 69.2793C353.629 69.2786 353.627 69.2779 353.626 69.2775C353.625 69.2769 353.623 69.2763 352 72.9321ZM420.565 143.549C432.483 166.657 435.702 190.83 435.905 209.329C436.007 218.563 435.356 226.334 434.683 231.781C434.347 234.503 434.006 236.64 433.751 238.085C433.624 238.807 433.518 239.356 433.446 239.718C433.41 239.899 433.382 240.033 433.364 240.118C433.355 240.161 433.349 240.192 433.345 240.21C433.343 240.219 433.341 240.225 433.341 240.228C433.34 240.23 433.34 240.23 433.34 240.23C433.34 240.23 433.34 240.23 433.34 240.23C433.341 240.229 433.341 240.228 437.246 241.094C441.151 241.96 441.151 241.958 441.152 241.957C441.152 241.956 441.152 241.954 441.153 241.953C441.153 241.949 441.154 241.945 441.155 241.941C441.157 241.931 441.16 241.918 441.164 241.902C441.171 241.87 441.18 241.826 441.192 241.77C441.216 241.657 441.249 241.495 441.291 241.285C441.375 240.866 441.492 240.258 441.63 239.473C441.906 237.905 442.269 235.631 442.623 232.762C443.332 227.025 444.011 218.892 443.905 209.241C443.693 189.972 440.349 164.456 427.675 139.882L420.565 143.549Z" fill="url(#paint4_linear_75_311)"/>
<path d="M266.5 436L266.571 439.999L266.5 436ZM104.941 373C102.732 373.033 100.968 374.85 101 377.059L101.53 413.055C101.563 415.264 103.38 417.028 105.589 416.996C107.798 416.963 109.562 415.146 109.529 412.937L109.058 380.941L141.055 380.47C143.264 380.437 145.028 378.62 144.996 376.411C144.963 374.202 143.146 372.438 140.937 372.471L104.941 373ZM410 385C407.035 382.315 407.036 382.314 407.037 382.313C407.037 382.313 407.038 382.312 407.038 382.311C407.039 382.311 407.039 382.311 407.038 382.312C407.036 382.314 407.032 382.318 407.025 382.326C407.011 382.341 406.986 382.368 406.951 382.406C406.879 382.482 406.764 382.603 406.606 382.767C406.289 383.093 405.797 383.588 405.128 384.228C403.789 385.507 401.743 387.365 398.97 389.615C393.423 394.114 384.972 400.177 373.465 406.31C350.47 418.566 315.211 431.132 266.429 432.001L266.571 439.999C316.713 439.107 353.205 426.173 377.228 413.37C389.231 406.972 398.107 400.616 404.009 395.828C406.961 393.434 409.17 391.431 410.655 390.011C411.398 389.3 411.961 388.736 412.345 388.34C412.537 388.142 412.685 387.987 412.788 387.877C412.84 387.821 412.88 387.778 412.91 387.745C412.925 387.729 412.937 387.716 412.946 387.706C412.95 387.701 412.954 387.697 412.958 387.693C412.959 387.691 412.961 387.689 412.962 387.688C412.964 387.686 412.965 387.685 410 385ZM266.429 432.001C217.816 432.866 178.114 418.37 150.539 403.633C136.755 396.265 126.023 388.849 118.753 383.289C115.12 380.51 112.354 378.197 110.509 376.59C109.586 375.787 108.893 375.16 108.438 374.74C108.21 374.53 108.041 374.372 107.932 374.269C107.878 374.217 107.838 374.18 107.814 374.157C107.802 374.145 107.793 374.137 107.789 374.132C107.787 374.13 107.785 374.129 107.785 374.129C107.785 374.128 107.785 374.129 107.785 374.129C107.786 374.129 107.787 374.13 105 377C102.214 379.87 102.215 379.871 102.216 379.873C102.217 379.873 102.219 379.875 102.221 379.877C102.224 379.88 102.229 379.884 102.234 379.889C102.245 379.9 102.259 379.914 102.278 379.931C102.314 379.966 102.366 380.016 102.433 380.079C102.567 380.206 102.762 380.389 103.016 380.623C103.525 381.092 104.274 381.769 105.255 382.624C107.218 384.333 110.115 386.754 113.893 389.644C121.448 395.422 132.543 403.085 146.768 410.688C175.212 425.89 216.261 440.895 266.571 439.999L266.429 432.001Z" fill="url(#paint5_linear_75_311)"/>
<path d="M56.3253 166.699L34.7408 150.631L40.8921 142.368C42.0533 140.808 43.2643 139.695 44.5251 139.028C45.784 138.349 47.026 138.067 48.251 138.182C49.4812 138.289 50.6303 138.741 51.6983 139.536C52.5766 140.19 53.2028 140.918 53.5771 141.721C53.9443 142.518 54.1093 143.346 54.0721 144.202C54.0348 145.059 53.839 145.902 53.4845 146.73L53.6953 146.887C54.3076 146.152 55.0896 145.593 56.0413 145.21C56.9912 144.814 58.0199 144.679 59.1276 144.805C60.2352 144.93 61.3371 145.401 62.4332 146.217C63.5504 147.049 64.3537 148.067 64.8433 149.273C65.3258 150.473 65.4182 151.808 65.1203 153.279C64.8225 154.75 64.0589 156.311 62.8297 157.962L56.3253 166.699ZM55.969 160.357L59.0996 156.152C60.1562 154.732 60.6468 153.509 60.5713 152.481C60.494 151.44 60.0268 150.601 59.1696 149.963C58.5302 149.487 57.8363 149.216 57.088 149.15C56.3327 149.08 55.5904 149.226 54.8612 149.589C54.1249 149.948 53.456 150.531 52.8545 151.339L49.6454 155.649L55.969 160.357ZM46.8314 153.554L49.7109 149.686C50.2131 149.012 50.5426 148.313 50.6994 147.589C50.8493 146.859 50.8109 146.17 50.5843 145.521C50.356 144.859 49.9256 144.293 49.2933 143.823C48.4572 143.2 47.5489 142.983 46.5685 143.17C45.5933 143.35 44.6768 144.017 43.819 145.169L40.8767 149.121L46.8314 153.554ZM76.3725 140.431C75.1642 142.054 73.7834 143.205 72.2301 143.883C70.675 144.549 69.0403 144.735 67.3259 144.442C65.6044 144.143 63.8971 143.363 62.2037 142.103C60.5385 140.863 59.3125 139.459 58.5255 137.89C57.7368 136.309 57.4174 134.685 57.5674 133.016C57.7104 131.343 58.3573 129.733 59.508 128.187C60.2508 127.19 61.1133 126.368 62.0956 125.724C63.0761 125.067 64.1537 124.646 65.3286 124.461C66.5087 124.27 67.7617 124.362 69.0874 124.737C70.4062 125.107 71.7752 125.821 73.1945 126.877L74.3644 127.748L64.4861 141.017L61.9145 139.103L69.0702 129.491C68.3342 128.954 67.5666 128.628 66.7673 128.514C65.961 128.394 65.1861 128.489 64.4427 128.798C63.7044 129.1 63.0633 129.616 62.5193 130.347C61.9387 131.127 61.6184 131.953 61.5585 132.826C61.4915 133.693 61.6407 134.52 62.0061 135.305C62.3698 136.078 62.9108 136.738 63.6293 137.283L65.8742 138.955C66.8157 139.656 67.7519 140.085 68.6827 140.243C69.6065 140.395 70.4777 140.296 71.2963 139.944C72.108 139.588 72.8224 138.995 73.4396 138.166C73.8528 137.611 74.1495 137.051 74.3297 136.486C74.5029 135.916 74.5578 135.351 74.4945 134.79C74.4312 134.23 74.234 133.695 73.9028 133.187L76.9553 129.923C77.7294 130.848 78.2324 131.889 78.4643 133.045C78.6943 134.188 78.639 135.391 78.2984 136.656C77.9507 137.915 77.3088 139.173 76.3725 140.431ZM87.6127 125.354C86.849 126.38 85.9785 127.168 85.0012 127.718C84.022 128.256 82.9927 128.494 81.9133 128.433C80.8392 128.365 79.7716 127.937 78.7107 127.147C77.7973 126.467 77.1675 125.736 76.8213 124.954C76.4752 124.172 76.34 123.356 76.4158 122.506C76.4916 121.656 76.7102 120.798 77.0715 119.931C77.431 119.052 77.8616 118.188 78.3631 117.338C78.9709 116.316 79.4558 115.482 79.8179 114.834C80.173 114.181 80.3656 113.658 80.3957 113.266C80.424 112.861 80.2555 112.522 79.8902 112.25L79.8269 112.203C79.033 111.612 78.243 111.39 77.4569 111.536C76.6708 111.683 75.9482 112.199 75.2891 113.084C74.5934 114.019 74.2454 114.912 74.2449 115.763C74.2496 116.607 74.4589 117.331 74.8728 117.934L71.7149 121.12C70.9405 120.106 70.4636 119.031 70.2844 117.892C70.0981 116.749 70.1877 115.587 70.5532 114.407C70.9116 113.221 71.5119 112.063 72.354 110.932C72.9347 110.152 73.604 109.443 74.3621 108.807C75.1201 108.17 75.9479 107.688 76.8455 107.363C77.7361 107.032 78.6835 106.94 79.6879 107.087C80.6975 107.227 81.7398 107.698 82.8148 108.498L93.6492 116.564L90.9188 120.231L88.695 118.576L88.6008 118.702C88.8779 119.269 89.0562 119.91 89.1358 120.624C89.2137 121.326 89.1366 122.083 88.9048 122.893C88.6711 123.691 88.2404 124.511 87.6127 125.354ZM85.5468 122.277C86.117 121.511 86.4602 120.734 86.5765 119.947C86.6858 119.155 86.6 118.42 86.319 117.741C86.0433 117.055 85.6068 116.49 85.0096 116.045L83.102 114.625C83.1114 114.818 83.0511 115.09 82.9209 115.44C82.796 115.784 82.6344 116.155 82.4361 116.554C82.2378 116.952 82.0351 117.342 81.828 117.723C81.6208 118.104 81.4407 118.434 81.2875 118.713C80.9411 119.339 80.6884 119.943 80.5292 120.523C80.3701 121.104 80.3519 121.642 80.4745 122.137C80.5902 122.627 80.8939 123.055 81.3857 123.421C82.0883 123.944 82.8097 124.083 83.5499 123.837C84.2901 123.591 84.9557 123.071 85.5468 122.277ZM86.3347 92.5922L89.2858 94.7891L82.3576 104.095L79.4066 101.898L86.3347 92.5922ZM77.2386 96.7135L80.0789 92.8982L95.2766 104.212C95.7895 104.594 96.2405 104.81 96.6296 104.859C97.0169 104.896 97.3565 104.822 97.6484 104.635C97.9403 104.448 98.204 104.197 98.4394 103.88C98.6172 103.642 98.7618 103.411 98.8731 103.188C98.9897 102.958 99.0732 102.78 99.1235 102.653L102.585 104.231C102.503 104.487 102.364 104.836 102.165 105.278C101.972 105.714 101.682 106.207 101.293 106.758C100.61 107.735 99.8249 108.488 98.9385 109.019C98.0452 109.544 97.0939 109.78 96.0846 109.728C95.0805 109.668 94.0752 109.259 93.0687 108.498L77.2386 96.7135ZM102.342 80.0241L100.132 83.7845C99.7073 83.6213 99.249 83.5476 98.7567 83.5634C98.2697 83.5721 97.7797 83.7096 97.2866 83.9759C96.7935 84.2422 96.3273 84.6705 95.8879 85.2607C95.2968 86.0546 94.972 86.8503 94.9135 87.6476C94.8603 88.4379 95.1103 89.0335 95.6636 89.4345C96.1291 89.792 96.6402 89.9049 97.1968 89.7733C97.7587 89.6347 98.4405 89.2249 99.2422 88.5441L101.888 86.2222C103.359 84.9363 104.729 84.1877 106.001 83.9765C107.277 83.7582 108.497 84.0771 109.662 84.9331C110.676 85.6986 111.353 86.6668 111.693 87.8376C112.032 88.9962 112.032 90.2575 111.693 91.6217C111.355 92.9859 110.683 94.3425 109.679 95.6915C108.204 97.6729 106.602 98.9593 104.873 99.5505C103.138 100.137 101.439 99.9911 99.7764 99.114L102.188 95.1269C103.044 95.5023 103.862 95.5545 104.643 95.2837C105.423 95.0129 106.14 94.4384 106.794 93.5601C107.469 92.6537 107.824 91.7879 107.86 90.9626C107.9 90.1303 107.647 89.5102 107.099 89.1022C106.635 88.7569 106.119 88.651 105.55 88.7844C104.986 88.9108 104.346 89.2863 103.63 89.9107L100.995 92.2405C99.5158 93.5527 98.116 94.2961 96.7957 94.4707C95.4684 94.6401 94.2171 94.2819 93.0419 93.3961C92.039 92.6604 91.3761 91.7465 91.0534 90.6545C90.7289 89.5502 90.7325 88.3571 91.0643 87.0753C91.3943 85.7812 92.0406 84.4877 93.003 83.1949C94.4153 81.2978 95.9309 80.1055 97.5496 79.618C99.1737 79.1235 100.771 79.2588 102.342 80.0241Z" fill="url(#paint6_linear_75_311)"/>
<defs>
<linearGradient id="paint0_linear_75_311" x1="262.755" y1="3.5" x2="262.755" y2="150.5" gradientUnits="userSpaceOnUse">
<stop stop-color="#DADCDC"/>
<stop offset="1" stop-color="#808080"/>
</linearGradient>
<linearGradient id="paint1_linear_75_311" x1="84" y1="244.581" x2="84" y2="349.754" gradientUnits="userSpaceOnUse">
<stop stop-color="#DADCDC"/>
<stop offset="1" stop-color="#808080"/>
</linearGradient>
<linearGradient id="paint2_linear_75_311" x1="413.378" y1="250.5" x2="413.378" y2="360.75" gradientUnits="userSpaceOnUse">
<stop stop-color="#DADCDC"/>
<stop offset="1" stop-color="#808080"/>
</linearGradient>
<linearGradient id="paint3_linear_75_311" x1="52.0221" y1="200.289" x2="186.731" y2="85.257" gradientUnits="userSpaceOnUse">
<stop stop-color="#1B5E4A"/>
<stop offset="1" stop-color="#6DBECB"/>
</linearGradient>
<linearGradient id="paint4_linear_75_311" x1="375.516" y1="65.6956" x2="427.616" y2="235.001" gradientUnits="userSpaceOnUse">
<stop stop-color="#1B5E4A"/>
<stop offset="1" stop-color="#6DBECB"/>
</linearGradient>
<linearGradient id="paint5_linear_75_311" x1="355.256" y1="419.314" x2="180.373" y2="391.122" gradientUnits="userSpaceOnUse">
<stop stop-color="#1B5E4A"/>
<stop offset="1" stop-color="#6DBECB"/>
</linearGradient>
<linearGradient id="paint6_linear_75_311" x1="44.4664" y1="161.18" x2="105.453" y2="79.2589" gradientUnits="userSpaceOnUse">
<stop stop-color="#347B71"/>
<stop offset="1" stop-color="#6DBECB"/>
</linearGradient>
</defs>
</svg>
