<svg width="1169" height="421" viewBox="0 0 1169 421" fill="none" xmlns="http://www.w3.org/2000/svg">
<rect x="32.5" y="16.5" width="195" height="295" rx="24.5" fill="#282828" stroke="url(#paint0_linear_76_756)" stroke-width="5"/>
<rect x="40.5" y="16.5" width="195" height="295" rx="24.5" fill="#282828" stroke="url(#paint1_linear_76_756)" stroke-width="5"/>
<rect x="50.5" y="18.5" width="191" height="291" rx="22.5" fill="#282828" stroke="url(#paint2_linear_76_756)" stroke-width="9"/>
<rect x="59.5" y="27.5" width="173" height="274" rx="14.5" fill="#282828" stroke="url(#paint3_linear_76_756)"/>
<mask id="mask0_76_756" style="mask-type:alpha" maskUnits="userSpaceOnUse" x="60" y="27" width="174" height="275">
<rect x="60.5" y="27.5" width="173" height="274" rx="16.5" fill="#282224" stroke="url(#paint4_linear_76_756)"/>
</mask>
<g mask="url(#mask0_76_756)">
<path d="M199.378 247.675L200.782 255.422C200.834 255.714 200.971 255.907 201.123 255.907C201.276 255.907 201.412 255.714 201.465 255.422L202.869 247.675C204.005 241.403 206.434 236.459 209.515 234.146L213.32 231.289C213.463 231.181 213.559 230.904 213.559 230.593C213.559 230.283 213.463 230.005 213.32 229.898L209.514 227.04C206.434 224.727 204.005 219.783 202.869 213.512L201.465 205.764C201.412 205.473 201.276 205.28 201.123 205.28C200.971 205.28 200.834 205.473 200.782 205.764L199.378 213.512C198.242 219.783 195.813 224.727 192.732 227.04L188.926 229.898C188.783 230.005 188.688 230.283 188.688 230.593C188.688 230.904 188.783 231.181 188.926 231.289L192.732 234.146C195.813 236.459 198.242 241.402 199.378 247.675Z" fill="url(#paint5_linear_76_756)" fill-opacity="0.35"/>
<path d="M230.235 280.398L226.429 277.541C223.348 275.228 220.919 270.284 219.783 264.013L218.38 256.265C218.327 255.974 218.19 255.781 218.038 255.781C217.885 255.781 217.749 255.974 217.696 256.265L216.292 264.012C215.156 270.284 212.728 275.228 209.647 277.541L205.841 280.398C205.698 280.505 205.603 280.783 205.603 281.093C205.603 281.404 205.698 281.682 205.841 281.789L209.647 284.647C212.728 286.96 215.156 291.903 216.292 298.175L217.696 305.923C217.749 306.214 217.885 306.408 218.038 306.408C218.19 306.408 218.327 306.214 218.38 305.923L219.783 298.175C220.919 291.903 223.348 286.959 226.429 284.647L230.235 281.789C230.378 281.682 230.473 281.404 230.473 281.093C230.473 280.783 230.378 280.505 230.235 280.398Z" fill="url(#paint6_linear_76_756)" fill-opacity="0.35"/>
<path d="M249.932 247.26L247.345 245.318C245.252 243.746 243.601 240.386 242.829 236.124L241.875 230.859C241.839 230.661 241.746 230.529 241.643 230.529C241.539 230.529 241.446 230.661 241.41 230.859L240.457 236.124C239.685 240.386 238.034 243.746 235.94 245.318L233.354 247.26C233.256 247.333 233.192 247.521 233.192 247.732C233.192 247.943 233.256 248.132 233.354 248.205L235.94 250.147C238.034 251.719 239.685 255.079 240.457 259.341L241.41 264.607C241.446 264.805 241.539 264.937 241.643 264.937C241.746 264.937 241.839 264.805 241.875 264.607L242.829 259.341C243.601 255.078 245.251 251.719 247.345 250.147L249.932 248.205C250.029 248.132 250.094 247.943 250.094 247.732C250.094 247.521 250.029 247.333 249.932 247.26Z" fill="url(#paint7_linear_76_756)" fill-opacity="0.35"/>
<path d="M230.36 210.981L228.556 209.627C227.095 208.53 225.944 206.187 225.406 203.214L224.74 199.541C224.715 199.403 224.65 199.311 224.578 199.311C224.506 199.311 224.441 199.403 224.416 199.541L223.751 203.213C223.212 206.186 222.061 208.53 220.6 209.626L218.796 210.981C218.728 211.031 218.683 211.163 218.683 211.31C218.683 211.457 218.728 211.589 218.796 211.64L220.6 212.995C222.061 214.091 223.212 216.435 223.751 219.409L224.416 223.081C224.441 223.219 224.506 223.311 224.578 223.311C224.65 223.311 224.715 223.219 224.74 223.081L225.406 219.408C225.944 216.435 227.095 214.091 228.556 212.995L230.36 211.64C230.428 211.59 230.473 211.458 230.473 211.311C230.473 211.164 230.428 211.032 230.36 210.981Z" fill="url(#paint8_linear_76_756)" fill-opacity="0.35"/>
<path d="M208.23 309.023L205.96 307.32C204.123 305.941 202.675 302.993 201.997 299.253L201.16 294.633C201.129 294.46 201.047 294.344 200.957 294.344C200.866 294.344 200.784 294.46 200.753 294.633L199.916 299.253C199.239 302.992 197.79 305.941 195.953 307.32L193.684 309.023C193.598 309.087 193.542 309.253 193.542 309.438C193.542 309.623 193.599 309.789 193.684 309.853L195.953 311.556C197.79 312.935 199.238 315.884 199.916 319.623L200.753 324.243C200.784 324.417 200.866 324.532 200.957 324.532C201.047 324.532 201.129 324.417 201.16 324.243L201.997 319.623C202.675 315.884 204.123 312.936 205.96 311.556L208.23 309.853C208.315 309.789 208.372 309.623 208.372 309.438C208.372 309.253 208.315 309.087 208.23 309.023Z" fill="url(#paint9_linear_76_756)" fill-opacity="0.35"/>
<path d="M137.403 247.675L138.806 255.422C138.859 255.714 138.996 255.907 139.148 255.907C139.301 255.907 139.437 255.714 139.49 255.422L140.894 247.675C142.03 241.403 144.458 236.459 147.539 234.146L151.345 231.289C151.488 231.181 151.583 230.904 151.583 230.593C151.583 230.283 151.488 230.005 151.345 229.898L147.539 227.04C144.458 224.727 142.029 219.783 140.894 213.512L139.49 205.764C139.437 205.473 139.301 205.28 139.148 205.28C138.996 205.28 138.859 205.473 138.806 205.764L137.403 213.512C136.267 219.783 133.838 224.727 130.757 227.04L126.951 229.898C126.808 230.005 126.713 230.283 126.713 230.593C126.713 230.904 126.808 231.181 126.951 231.289L130.757 234.146C133.838 236.459 136.267 241.402 137.403 247.675Z" fill="url(#paint10_linear_76_756)" fill-opacity="0.35"/>
<path d="M168.259 280.398L164.454 277.541C161.373 275.228 158.944 270.284 157.808 264.013L156.404 256.265C156.352 255.974 156.215 255.781 156.063 255.781C155.91 255.781 155.774 255.974 155.721 256.265L154.317 264.012C153.181 270.284 150.752 275.228 147.671 277.541L143.866 280.398C143.722 280.505 143.627 280.783 143.627 281.093C143.627 281.404 143.722 281.682 143.866 281.789L147.672 284.647C150.752 286.96 153.181 291.903 154.317 298.175L155.721 305.923C155.774 306.214 155.91 306.408 156.063 306.408C156.215 306.408 156.352 306.214 156.404 305.923L157.808 298.175C158.944 291.903 161.373 286.959 164.454 284.647L168.26 281.789C168.403 281.682 168.498 281.404 168.498 281.093C168.498 280.783 168.402 280.505 168.259 280.398Z" fill="url(#paint11_linear_76_756)" fill-opacity="0.35"/>
<path d="M187.957 247.26L185.37 245.318C183.276 243.746 181.626 240.386 180.854 236.124L179.9 230.859C179.864 230.661 179.771 230.529 179.667 230.529C179.564 230.529 179.471 230.661 179.435 230.859L178.481 236.124C177.709 240.386 176.059 243.746 173.965 245.318L171.378 247.26C171.281 247.333 171.216 247.521 171.216 247.732C171.216 247.943 171.281 248.132 171.378 248.205L173.965 250.147C176.059 251.719 177.709 255.079 178.481 259.341L179.435 264.607C179.471 264.805 179.564 264.937 179.667 264.937C179.771 264.937 179.864 264.805 179.9 264.607L180.854 259.341C181.626 255.078 183.276 251.719 185.37 250.147L187.957 248.205C188.054 248.132 188.119 247.943 188.119 247.732C188.119 247.521 188.054 247.333 187.957 247.26Z" fill="url(#paint12_linear_76_756)" fill-opacity="0.35"/>
<path d="M168.385 210.981L166.581 209.627C165.12 208.53 163.969 206.187 163.43 203.214L162.765 199.541C162.74 199.403 162.675 199.311 162.603 199.311C162.531 199.311 162.466 199.403 162.441 199.541L161.776 203.213C161.237 206.186 160.086 208.53 158.625 209.626L156.821 210.981C156.753 211.031 156.708 211.163 156.708 211.31C156.708 211.457 156.753 211.589 156.821 211.64L158.625 212.995C160.086 214.091 161.237 216.435 161.776 219.409L162.441 223.081C162.466 223.219 162.531 223.311 162.603 223.311C162.675 223.311 162.74 223.219 162.765 223.081L163.43 219.408C163.969 216.435 165.12 214.091 166.581 212.995L168.385 211.64C168.453 211.59 168.498 211.458 168.498 211.311C168.498 211.164 168.453 211.032 168.385 210.981Z" fill="url(#paint13_linear_76_756)" fill-opacity="0.35"/>
<path d="M146.254 309.023L143.985 307.32C142.148 305.941 140.7 302.993 140.022 299.253L139.185 294.633C139.153 294.46 139.072 294.344 138.981 294.344C138.89 294.344 138.809 294.46 138.777 294.633L137.941 299.253C137.263 302.992 135.815 305.941 133.978 307.32L131.709 309.023C131.623 309.087 131.567 309.253 131.567 309.438C131.567 309.623 131.623 309.789 131.709 309.853L133.978 311.556C135.815 312.935 137.263 315.884 137.941 319.623L138.777 324.243C138.809 324.417 138.89 324.532 138.981 324.532C139.072 324.532 139.154 324.417 139.185 324.243L140.022 319.623C140.699 315.884 142.147 312.936 143.985 311.556L146.254 309.853C146.34 309.789 146.396 309.623 146.396 309.438C146.396 309.253 146.34 309.087 146.254 309.023Z" fill="url(#paint14_linear_76_756)" fill-opacity="0.35"/>
<path d="M75.4275 247.675L76.8311 255.422C76.8839 255.714 77.0203 255.907 77.1728 255.907C77.3253 255.907 77.4618 255.714 77.5145 255.422L78.9182 247.675C80.0544 241.403 82.4832 236.459 85.564 234.146L89.3699 231.289C89.5129 231.181 89.608 230.904 89.608 230.593C89.608 230.283 89.5129 230.005 89.3699 229.898L85.5638 227.04C82.483 224.727 80.0542 219.783 78.9182 213.512L77.5145 205.764C77.4618 205.473 77.3253 205.28 77.1728 205.28C77.0203 205.28 76.8839 205.473 76.8311 205.764L75.4275 213.512C74.2913 219.783 71.8627 224.727 68.7816 227.04L64.9756 229.898C64.8325 230.005 64.7375 230.283 64.7375 230.593C64.7375 230.904 64.8325 231.181 64.9756 231.289L68.7814 234.146C71.8625 236.459 74.2913 241.402 75.4275 247.675Z" fill="url(#paint15_linear_76_756)" fill-opacity="0.35"/>
<path d="M106.284 280.398L102.478 277.541C99.3974 275.228 96.9686 270.284 95.8326 264.013L94.4289 256.265C94.3762 255.974 94.2398 255.781 94.0873 255.781C93.9347 255.781 93.7983 255.974 93.7456 256.265L92.3419 264.012C91.2057 270.284 88.7769 275.228 85.6961 277.541L81.8902 280.398C81.7472 280.505 81.6521 280.783 81.6521 281.093C81.6521 281.404 81.7472 281.682 81.8902 281.789L85.6963 284.647C88.7771 286.96 91.2057 291.903 92.3419 298.175L93.7456 305.923C93.7983 306.214 93.9347 306.408 94.0873 306.408C94.2398 306.408 94.3762 306.214 94.4289 305.923L95.8326 298.175C96.9688 291.903 99.3974 286.959 102.478 284.647L106.284 281.789C106.427 281.682 106.522 281.404 106.522 281.093C106.522 280.783 106.427 280.505 106.284 280.398Z" fill="url(#paint16_linear_76_756)" fill-opacity="0.35"/>
<path d="M125.982 247.26L123.395 245.318C121.301 243.746 119.651 240.386 118.878 236.124L117.925 230.859C117.889 230.661 117.796 230.529 117.692 230.529C117.589 230.529 117.496 230.661 117.46 230.859L116.506 236.124C115.734 240.386 114.084 243.746 111.99 245.318L109.403 247.26C109.306 247.333 109.241 247.521 109.241 247.732C109.241 247.943 109.306 248.132 109.403 248.205L111.99 250.147C114.084 251.719 115.734 255.079 116.506 259.341L117.46 264.607C117.496 264.805 117.589 264.937 117.692 264.937C117.796 264.937 117.889 264.805 117.925 264.607L118.878 259.341C119.651 255.078 121.301 251.719 123.395 250.147L125.982 248.205C126.079 248.132 126.144 247.943 126.144 247.732C126.144 247.521 126.079 247.333 125.982 247.26Z" fill="url(#paint17_linear_76_756)" fill-opacity="0.35"/>
<path d="M106.41 210.981L104.605 209.627C103.145 208.53 101.993 206.187 101.455 203.214L100.789 199.541C100.765 199.403 100.7 199.311 100.628 199.311C100.555 199.311 100.49 199.403 100.466 199.541L99.8002 203.213C99.2616 206.186 98.1102 208.53 96.6497 209.626L94.8453 210.981C94.7775 211.031 94.7325 211.163 94.7325 211.31C94.7325 211.457 94.7775 211.589 94.8453 211.64L96.6495 212.995C98.1102 214.091 99.2616 216.435 99.8002 219.409L100.466 223.081C100.49 223.219 100.555 223.311 100.628 223.311C100.7 223.311 100.765 223.219 100.789 223.081L101.455 219.408C101.994 216.435 103.145 214.091 104.606 212.995L106.41 211.64C106.478 211.59 106.523 211.458 106.523 211.311C106.523 211.164 106.478 211.032 106.41 210.981Z" fill="url(#paint18_linear_76_756)" fill-opacity="0.35"/>
<path d="M84.2789 309.023L82.0095 307.32C80.1726 305.941 78.7243 302.993 78.0465 299.253L77.2097 294.633C77.1782 294.46 77.0969 294.344 77.0059 294.344C76.915 294.344 76.8337 294.46 76.8022 294.633L75.9654 299.253C75.288 302.992 73.8397 305.941 72.0023 307.32L69.7334 309.023C69.6478 309.087 69.5914 309.253 69.5914 309.438C69.5914 309.623 69.648 309.789 69.7334 309.853L72.0025 311.556C73.8395 312.935 75.2878 315.884 75.9654 319.623L76.8022 324.243C76.8337 324.417 76.915 324.532 77.0059 324.532C77.0969 324.532 77.1784 324.417 77.2097 324.243L78.0467 319.623C78.7241 315.884 80.1722 312.936 82.0093 311.556L84.2789 309.853C84.3643 309.789 84.4209 309.623 84.4209 309.438C84.4209 309.253 84.3645 309.087 84.2789 309.023Z" fill="url(#paint19_linear_76_756)" fill-opacity="0.35"/>
<path d="M63.9214 249.548L61.3347 247.606C59.241 246.034 57.5904 242.674 56.8182 238.412L55.8644 233.147C55.8283 232.949 55.7357 232.818 55.6321 232.818C55.5285 232.818 55.4358 232.949 55.3998 233.147L54.4461 238.412C53.6739 242.674 52.0233 246.034 49.9294 247.606L47.343 249.548C47.2458 249.621 47.181 249.81 47.181 250.021C47.181 250.232 47.2458 250.421 47.343 250.494L49.9296 252.435C52.0233 254.007 53.6739 257.367 54.4461 261.629L55.3998 266.895C55.4358 267.093 55.5285 267.225 55.6321 267.225C55.7357 267.225 55.8283 267.093 55.8644 266.895L56.8182 261.629C57.5904 257.367 59.2408 254.007 61.3347 252.435L63.9214 250.494C64.0185 250.421 64.0833 250.232 64.0833 250.021C64.0833 249.81 64.0185 249.621 63.9214 249.548Z" fill="url(#paint20_linear_76_756)" fill-opacity="0.35"/>
<path d="M201.055 115.168L202.459 122.915C202.512 123.207 202.648 123.4 202.801 123.4C202.953 123.4 203.09 123.207 203.142 122.915L204.546 115.168C205.682 108.896 208.111 103.952 211.192 101.639L214.998 98.7817C215.141 98.6743 215.236 98.3966 215.236 98.0861C215.236 97.7757 215.141 97.498 214.998 97.3905L211.192 94.5331C208.111 92.2202 205.682 87.2765 204.546 81.0049L203.142 73.2575C203.09 72.9663 202.953 72.7728 202.801 72.7728C202.648 72.7728 202.512 72.9663 202.459 73.2575L201.055 81.0049C199.919 87.2765 197.491 92.2202 194.41 94.5331L190.603 97.3905C190.46 97.498 190.365 97.7757 190.365 98.0861C190.365 98.3966 190.46 98.6743 190.603 98.7817L194.409 101.639C197.49 103.952 199.919 108.895 201.055 115.168Z" fill="url(#paint21_linear_76_756)" fill-opacity="0.35"/>
<path d="M231.912 147.891L228.106 145.034C225.025 142.721 222.597 137.777 221.461 131.506L220.057 123.758C220.004 123.467 219.868 123.274 219.715 123.274C219.563 123.274 219.426 123.467 219.373 123.758L217.97 131.505C216.834 137.777 214.405 142.721 211.324 145.034L207.518 147.891C207.375 147.998 207.28 148.276 207.28 148.586C207.28 148.897 207.375 149.175 207.518 149.282L211.324 152.14C214.405 154.453 216.834 159.396 217.97 165.668L219.373 173.416C219.426 173.707 219.563 173.901 219.715 173.901C219.868 173.901 220.004 173.707 220.057 173.416L221.461 165.668C222.597 159.396 225.025 154.452 228.106 152.14L231.912 149.282C232.055 149.175 232.15 148.897 232.15 148.586C232.15 148.276 232.055 147.998 231.912 147.891Z" fill="url(#paint22_linear_76_756)" fill-opacity="0.35"/>
<path d="M245.344 184.067L243.539 182.712C242.079 181.615 240.927 179.272 240.389 176.299L239.723 172.627C239.698 172.489 239.634 172.397 239.561 172.397C239.489 172.397 239.424 172.489 239.399 172.627L238.734 176.299C238.195 179.272 237.044 181.616 235.584 182.712L233.779 184.067C233.712 184.117 233.666 184.249 233.666 184.396C233.666 184.543 233.712 184.675 233.779 184.726L235.583 186.081C237.044 187.177 238.195 189.521 238.734 192.494L239.4 196.167C239.424 196.305 239.489 196.397 239.562 196.397C239.634 196.397 239.699 196.305 239.723 196.167L240.389 192.494C240.928 189.521 242.079 187.177 243.54 186.081L245.344 184.726C245.412 184.675 245.457 184.543 245.457 184.396C245.457 184.249 245.412 184.117 245.344 184.067Z" fill="url(#paint23_linear_76_756)" fill-opacity="0.35"/>
<path d="M232.037 78.4743L230.233 77.1198C228.772 76.0234 227.621 73.6799 227.083 70.7068L226.417 67.0346C226.392 66.8961 226.328 66.8044 226.255 66.8044C226.183 66.8044 226.118 66.8961 226.093 67.0341L225.428 70.7059C224.889 73.679 223.738 76.0229 222.277 77.1194L220.473 78.4738C220.405 78.5245 220.36 78.6564 220.36 78.8035C220.36 78.9507 220.405 79.0825 220.473 79.1332L222.277 80.4881C223.738 81.5845 224.889 83.9284 225.428 86.902L226.093 90.5742C226.118 90.7122 226.183 90.8039 226.255 90.8039C226.328 90.8039 226.392 90.7122 226.417 90.5742L227.083 86.9016C227.621 83.928 228.773 81.5845 230.233 80.4885L232.038 79.1336C232.105 79.083 232.15 78.9511 232.15 78.8039C232.15 78.6568 232.105 78.5249 232.037 78.4743Z" fill="url(#paint24_linear_76_756)" fill-opacity="0.35"/>
<path d="M209.907 176.516L207.637 174.813C205.8 173.434 204.352 170.486 203.674 166.746L202.837 162.126C202.806 161.953 202.725 161.837 202.634 161.837C202.543 161.837 202.461 161.953 202.43 162.126L201.593 166.746C200.916 170.486 199.468 173.434 197.63 174.813L195.361 176.516C195.276 176.58 195.219 176.746 195.219 176.931C195.219 177.116 195.276 177.282 195.361 177.346L197.63 179.05C199.467 180.429 200.916 183.377 201.593 187.117L202.43 191.736C202.461 191.91 202.543 192.025 202.634 192.025C202.725 192.025 202.806 191.91 202.837 191.736L203.674 187.116C204.352 183.377 205.8 180.429 207.637 179.05L209.907 177.346C209.992 177.282 210.049 177.116 210.049 176.931C210.049 176.746 209.992 176.58 209.907 176.516Z" fill="url(#paint25_linear_76_756)" fill-opacity="0.35"/>
<path d="M139.08 115.168L140.484 122.915C140.536 123.207 140.673 123.4 140.825 123.4C140.978 123.4 141.114 123.207 141.167 122.915L142.571 115.168C143.707 108.896 146.136 103.952 149.217 101.639L153.022 98.7817C153.166 98.6743 153.261 98.3966 153.261 98.0861C153.261 97.7757 153.166 97.498 153.022 97.3905L149.216 94.5331C146.136 92.2202 143.707 87.2765 142.571 81.0049L141.167 73.2575C141.114 72.9663 140.978 72.7728 140.825 72.7728C140.673 72.7728 140.536 72.9663 140.484 73.2575L139.08 81.0049C137.944 87.2765 135.515 92.2202 132.434 94.5331L128.628 97.3905C128.485 97.498 128.39 97.7757 128.39 98.0861C128.39 98.3966 128.485 98.6743 128.628 98.7817L132.434 101.639C135.515 103.952 137.944 108.895 139.08 115.168Z" fill="url(#paint26_linear_76_756)" fill-opacity="0.35"/>
<path d="M169.937 147.891L166.131 145.034C163.05 142.721 160.621 137.777 159.485 131.506L158.082 123.758C158.029 123.467 157.892 123.274 157.74 123.274C157.587 123.274 157.451 123.467 157.398 123.758L155.994 131.505C154.858 137.777 152.43 142.721 149.349 145.034L145.543 147.891C145.4 147.998 145.305 148.276 145.305 148.586C145.305 148.897 145.4 149.175 145.543 149.282L149.349 152.14C152.43 154.453 154.858 159.396 155.994 165.668L157.398 173.416C157.451 173.707 157.587 173.901 157.74 173.901C157.892 173.901 158.029 173.707 158.082 173.416L159.485 165.668C160.621 159.396 163.05 154.452 166.131 152.14L169.937 149.282C170.08 149.175 170.175 148.897 170.175 148.586C170.175 148.276 170.08 147.998 169.937 147.891Z" fill="url(#paint27_linear_76_756)" fill-opacity="0.35"/>
<path d="M189.634 114.753L187.047 112.811C184.954 111.239 183.303 107.879 182.531 103.617L181.577 98.3519C181.541 98.1541 181.448 98.0222 181.345 98.0222C181.241 98.0222 181.148 98.1541 181.112 98.3519L180.159 103.617C179.387 107.879 177.736 111.239 175.642 112.811L173.056 114.753C172.958 114.826 172.894 115.014 172.894 115.225C172.894 115.436 172.958 115.625 173.056 115.698L175.642 117.639C177.736 119.212 179.387 122.572 180.159 126.834L181.112 132.1C181.148 132.298 181.241 132.43 181.345 132.43C181.448 132.43 181.541 132.298 181.577 132.1L182.531 126.834C183.303 122.571 184.953 119.212 187.047 117.64L189.634 115.698C189.731 115.625 189.796 115.436 189.796 115.225C189.796 115.014 189.731 114.826 189.634 114.753Z" fill="url(#paint28_linear_76_756)" fill-opacity="0.35"/>
<path d="M183.368 184.067L181.564 182.712C180.103 181.615 178.952 179.272 178.414 176.299L177.748 172.627C177.723 172.489 177.658 172.397 177.586 172.397C177.514 172.397 177.449 172.489 177.424 172.627L176.759 176.299C176.22 179.272 175.069 181.616 173.608 182.712L171.804 184.067C171.736 184.117 171.691 184.249 171.691 184.396C171.691 184.543 171.736 184.675 171.804 184.726L173.608 186.081C175.069 187.177 176.22 189.521 176.759 192.494L177.424 196.167C177.449 196.305 177.514 196.397 177.586 196.397C177.659 196.397 177.723 196.305 177.748 196.167L178.414 192.494C178.952 189.521 180.104 187.177 181.564 186.081L183.369 184.726C183.436 184.675 183.481 184.543 183.481 184.396C183.481 184.249 183.436 184.117 183.368 184.067Z" fill="url(#paint29_linear_76_756)" fill-opacity="0.35"/>
<path d="M170.062 78.4743L168.258 77.1198C166.797 76.0234 165.646 73.6799 165.108 70.7068L164.442 67.0346C164.417 66.8961 164.352 66.8044 164.28 66.8044C164.208 66.8044 164.143 66.8961 164.118 67.0341L163.453 70.7059C162.914 73.679 161.763 76.0229 160.302 77.1194L158.498 78.4738C158.43 78.5245 158.385 78.6564 158.385 78.8035C158.385 78.9507 158.43 79.0825 158.498 79.1332L160.302 80.4881C161.763 81.5845 162.914 83.9284 163.453 86.902L164.118 90.5742C164.143 90.7122 164.208 90.8039 164.28 90.8039C164.352 90.8039 164.417 90.7122 164.442 90.5742L165.108 86.9016C165.646 83.928 166.797 81.5845 168.258 80.4885L170.062 79.1336C170.13 79.083 170.175 78.9511 170.175 78.8039C170.175 78.6568 170.13 78.5249 170.062 78.4743Z" fill="url(#paint30_linear_76_756)" fill-opacity="0.35"/>
<path d="M147.931 176.516L145.662 174.813C143.825 173.434 142.377 170.486 141.699 166.746L140.862 162.126C140.831 161.953 140.749 161.837 140.658 161.837C140.568 161.837 140.486 161.953 140.455 162.126L139.618 166.746C138.941 170.486 137.492 173.434 135.655 174.813L133.386 176.516C133.3 176.58 133.244 176.746 133.244 176.931C133.244 177.116 133.301 177.282 133.386 177.346L135.655 179.05C137.492 180.429 138.94 183.377 139.618 187.117L140.455 191.736C140.486 191.91 140.568 192.025 140.658 192.025C140.749 192.025 140.831 191.91 140.862 191.736L141.699 187.116C142.377 183.377 143.825 180.429 145.662 179.05L147.931 177.346C148.017 177.282 148.073 177.116 148.073 176.931C148.073 176.746 148.017 176.58 147.931 176.516Z" fill="url(#paint31_linear_76_756)" fill-opacity="0.35"/>
<path d="M77.1048 115.168L78.5084 122.915C78.5612 123.207 78.6976 123.4 78.8501 123.4C79.0026 123.4 79.1391 123.207 79.1918 122.915L80.5955 115.168C81.7317 108.896 84.1605 103.952 87.2413 101.639L91.0472 98.7817C91.1902 98.6743 91.2853 98.3966 91.2853 98.0861C91.2853 97.7757 91.1902 97.498 91.0472 97.3905L87.2411 94.5331C84.1603 92.2202 81.7315 87.2765 80.5955 81.0049L79.1918 73.2575C79.1391 72.9663 79.0026 72.7728 78.8501 72.7728C78.6976 72.7728 78.5612 72.9663 78.5084 73.2575L77.1048 81.0049C75.9686 87.2765 73.54 92.2202 70.459 94.5331L66.6529 97.3905C66.5098 97.498 66.4148 97.7757 66.4148 98.0861C66.4148 98.3966 66.5098 98.6743 66.6529 98.7817L70.4587 101.639C73.5398 103.952 75.9686 108.895 77.1048 115.168Z" fill="url(#paint32_linear_76_756)" fill-opacity="0.35"/>
<path d="M107.961 147.891L104.156 145.034C101.075 142.721 98.646 137.777 97.51 131.506L96.1063 123.758C96.0536 123.467 95.9172 123.274 95.7646 123.274C95.6121 123.274 95.4757 123.467 95.423 123.758L94.0193 131.505C92.8831 137.777 90.4543 142.721 87.3735 145.034L83.5676 147.891C83.4246 147.998 83.3295 148.276 83.3295 148.586C83.3295 148.897 83.4246 149.175 83.5676 149.282L87.3737 152.14C90.4545 154.453 92.8831 159.396 94.0193 165.668L95.423 173.416C95.4757 173.707 95.6121 173.901 95.7646 173.901C95.9172 173.901 96.0536 173.707 96.1063 173.416L97.51 165.668C98.6462 159.396 101.075 154.452 104.156 152.14L107.962 149.282C108.105 149.175 108.2 148.897 108.2 148.586C108.2 148.276 108.105 147.998 107.961 147.891Z" fill="url(#paint33_linear_76_756)" fill-opacity="0.35"/>
<path d="M127.659 114.753L125.072 112.811C122.979 111.239 121.328 107.879 120.556 103.617L119.602 98.3519C119.566 98.1541 119.473 98.0222 119.37 98.0222C119.266 98.0222 119.173 98.1541 119.137 98.3519L118.184 103.617C117.411 107.879 115.761 111.239 113.667 112.811L111.081 114.753C110.983 114.826 110.919 115.014 110.919 115.225C110.919 115.436 110.983 115.625 111.081 115.698L113.667 117.639C115.761 119.212 117.411 122.572 118.184 126.834L119.137 132.1C119.173 132.298 119.266 132.43 119.37 132.43C119.473 132.43 119.566 132.298 119.602 132.1L120.556 126.834C121.328 122.571 122.978 119.212 125.072 117.64L127.659 115.698C127.756 115.625 127.821 115.436 127.821 115.225C127.821 115.014 127.756 114.826 127.659 114.753Z" fill="url(#paint34_linear_76_756)" fill-opacity="0.35"/>
<path d="M121.393 184.067L119.589 182.712C118.128 181.615 116.977 179.272 116.438 176.299L115.773 172.627C115.748 172.489 115.683 172.397 115.611 172.397C115.538 172.397 115.474 172.489 115.449 172.627L114.783 176.299C114.245 179.272 113.093 181.616 111.633 182.712L109.829 184.067C109.761 184.117 109.716 184.249 109.716 184.396C109.716 184.543 109.761 184.675 109.829 184.726L111.633 186.081C113.094 187.177 114.245 189.521 114.783 192.494L115.449 196.167C115.474 196.305 115.539 196.397 115.611 196.397C115.683 196.397 115.748 196.305 115.773 196.167L116.438 192.494C116.977 189.521 118.128 187.177 119.589 186.081L121.393 184.726C121.461 184.675 121.506 184.543 121.506 184.396C121.506 184.249 121.461 184.117 121.393 184.067Z" fill="url(#paint35_linear_76_756)" fill-opacity="0.35"/>
<path d="M108.087 78.4743L106.282 77.1198C104.822 76.0234 103.671 73.6799 103.132 70.7068L102.467 67.0346C102.442 66.8961 102.377 66.8044 102.305 66.8044C102.233 66.8044 102.168 66.8961 102.143 67.0341L101.477 70.7059C100.939 73.679 99.7874 76.0229 98.3269 77.1194L96.5226 78.4738C96.4548 78.5245 96.4097 78.6564 96.4097 78.8035C96.4097 78.9507 96.4548 79.0825 96.5226 79.1332L98.3267 80.4881C99.7874 81.5845 100.939 83.9284 101.477 86.902L102.143 90.5742C102.168 90.7122 102.233 90.8039 102.305 90.8039C102.377 90.8039 102.442 90.7122 102.467 90.5742L103.132 86.9016C103.671 83.928 104.822 81.5845 106.283 80.4885L108.087 79.1336C108.155 79.083 108.2 78.9511 108.2 78.8039C108.2 78.6568 108.155 78.5249 108.087 78.4743Z" fill="url(#paint36_linear_76_756)" fill-opacity="0.35"/>
<path d="M85.9561 176.516L83.6867 174.813C81.8497 173.434 80.4014 170.486 79.7236 166.746L78.8869 162.126C78.8553 161.953 78.774 161.837 78.6831 161.837C78.5921 161.837 78.5109 161.953 78.4793 162.126L77.6426 166.746C76.9652 170.486 75.5169 173.434 73.6795 174.813L71.4105 176.516C71.3249 176.58 71.2685 176.746 71.2685 176.931C71.2685 177.116 71.3252 177.282 71.4105 177.346L73.6797 179.05C75.5167 180.429 76.965 183.377 77.6426 187.117L78.4793 191.736C78.5109 191.91 78.5921 192.025 78.6831 192.025C78.774 192.025 78.8555 191.91 78.8869 191.736L79.7238 187.116C80.4012 183.377 81.8493 180.429 83.6865 179.05L85.9561 177.346C86.0415 177.282 86.0981 177.116 86.0981 176.931C86.0981 176.746 86.0417 176.58 85.9561 176.516Z" fill="url(#paint37_linear_76_756)" fill-opacity="0.35"/>
<path d="M65.5987 117.041L63.0121 115.099C60.9184 113.527 59.2678 110.167 58.4956 105.905L57.5417 100.64C57.5057 100.442 57.413 100.311 57.3094 100.311C57.2058 100.311 57.1132 100.442 57.0771 100.64L56.1235 105.905C55.3513 110.167 53.7007 113.527 51.6068 115.099L49.0203 117.041C48.9232 117.114 48.8584 117.303 48.8584 117.514C48.8584 117.724 48.9232 117.914 49.0203 117.986L51.607 119.928C53.7007 121.5 55.3513 124.86 56.1235 129.122L57.0771 134.388C57.1132 134.586 57.2058 134.718 57.3094 134.718C57.413 134.718 57.5057 134.586 57.5417 134.388L58.4956 129.122C59.2678 124.86 60.9181 121.5 63.0121 119.928L65.5987 117.986C65.6959 117.914 65.7607 117.724 65.7607 117.514C65.7607 117.303 65.6959 117.114 65.5987 117.041Z" fill="url(#paint38_linear_76_756)" fill-opacity="0.35"/>
<path d="M230.235 17.556L226.429 14.699C223.348 12.3861 220.919 7.44238 219.783 1.17082L218.38 -6.5766C218.327 -6.86784 218.19 -7.06128 218.038 -7.06128C217.885 -7.06128 217.749 -6.86784 217.696 -6.5766L216.292 1.17039C215.156 7.44239 212.728 12.3861 209.647 14.699L205.841 17.556C205.698 17.6634 205.603 17.9411 205.603 18.2516C205.603 18.562 205.698 18.8397 205.841 18.9472L209.647 21.805C212.728 24.1179 215.156 29.0617 216.292 35.3332L217.696 43.0811C217.749 43.3723 217.885 43.5658 218.038 43.5658C218.19 43.5658 218.327 43.3723 218.38 43.0811L219.783 35.3332C220.919 29.0617 223.348 24.1175 226.429 21.805L230.235 18.9472C230.378 18.8397 230.473 18.562 230.473 18.2516C230.473 17.9411 230.378 17.6634 230.235 17.556Z" fill="url(#paint39_linear_76_756)" fill-opacity="0.35"/>
<path d="M243.666 53.7319L241.862 52.377C240.402 51.2806 239.25 48.9371 238.712 45.9644L238.046 42.2922C238.021 42.1542 237.956 42.0625 237.884 42.0625C237.812 42.0625 237.747 42.1542 237.722 42.2922L237.057 45.9644C236.518 48.9375 235.367 51.281 233.907 52.377L232.102 53.7319C232.034 53.7825 231.989 53.9144 231.989 54.0616C231.989 54.2087 232.034 54.3406 232.102 54.3912L233.906 55.7461C235.367 56.8426 236.518 59.1865 237.057 62.1596L237.722 65.8323C237.747 65.9702 237.812 66.0619 237.884 66.0619C237.957 66.0619 238.021 65.9702 238.046 65.8323L238.712 62.1596C239.251 59.1865 240.402 56.8426 241.862 55.7461L243.667 54.3912C243.734 54.3406 243.779 54.2087 243.779 54.0616C243.779 53.9144 243.734 53.7825 243.666 53.7319Z" fill="url(#paint40_linear_76_756)" fill-opacity="0.35"/>
<path d="M208.23 46.1814L205.96 44.4785C204.123 43.0996 202.675 40.1513 201.997 36.4115L201.16 31.7917C201.129 31.6184 201.047 31.5027 200.957 31.5027C200.866 31.5027 200.784 31.6184 200.753 31.7917L199.916 36.411C199.239 40.1509 197.79 43.0992 195.953 44.4785L193.684 46.1814C193.598 46.2452 193.542 46.4111 193.542 46.5963C193.542 46.7814 193.599 46.9473 193.684 47.0111L195.953 48.7149C197.79 50.0938 199.238 53.042 199.916 56.7819L200.753 61.4016C200.784 61.5754 200.866 61.6907 200.957 61.6907C201.047 61.6907 201.129 61.5754 201.16 61.4016L201.997 56.7815C202.675 53.042 204.123 50.0942 205.96 48.7149L208.23 47.0111C208.315 46.9473 208.372 46.7814 208.372 46.5963C208.372 46.4111 208.315 46.2452 208.23 46.1814Z" fill="url(#paint41_linear_76_756)" fill-opacity="0.35"/>
<path d="M168.259 17.556L164.454 14.699C161.373 12.3861 158.944 7.44238 157.808 1.17082L156.404 -6.5766C156.352 -6.86784 156.215 -7.06128 156.063 -7.06128C155.91 -7.06128 155.774 -6.86784 155.721 -6.5766L154.317 1.17039C153.181 7.44239 150.752 12.3861 147.671 14.699L143.866 17.556C143.722 17.6634 143.627 17.9411 143.627 18.2516C143.627 18.562 143.722 18.8397 143.866 18.9472L147.672 21.805C150.752 24.1179 153.181 29.0617 154.317 35.3332L155.721 43.0811C155.774 43.3723 155.91 43.5658 156.063 43.5658C156.215 43.5658 156.352 43.3723 156.404 43.0811L157.808 35.3332C158.944 29.0617 161.373 24.1175 164.454 21.805L168.26 18.9472C168.403 18.8397 168.498 18.562 168.498 18.2516C168.498 17.9411 168.402 17.6634 168.259 17.556Z" fill="url(#paint42_linear_76_756)" fill-opacity="0.35"/>
<path d="M181.691 53.7319L179.887 52.377C178.426 51.2806 177.275 48.9371 176.736 45.9644L176.071 42.2922C176.046 42.1542 175.981 42.0625 175.909 42.0625C175.837 42.0625 175.772 42.1542 175.747 42.2922L175.081 45.9644C174.543 48.9375 173.391 51.281 171.931 52.377L170.127 53.7319C170.059 53.7825 170.014 53.9144 170.014 54.0616C170.014 54.2087 170.059 54.3406 170.127 54.3912L171.931 55.7461C173.392 56.8426 174.543 59.1865 175.081 62.1596L175.747 65.8323C175.772 65.9702 175.837 66.0619 175.909 66.0619C175.981 66.0619 176.046 65.9702 176.071 65.8323L176.737 62.1596C177.275 59.1865 178.426 56.8426 179.887 55.7461L181.691 54.3912C181.759 54.3406 181.804 54.2087 181.804 54.0616C181.804 53.9144 181.759 53.7825 181.691 53.7319Z" fill="url(#paint43_linear_76_756)" fill-opacity="0.35"/>
<path d="M146.254 46.1814L143.985 44.4785C142.148 43.0996 140.7 40.1513 140.022 36.4115L139.185 31.7917C139.153 31.6184 139.072 31.5027 138.981 31.5027C138.89 31.5027 138.809 31.6184 138.777 31.7917L137.941 36.411C137.263 40.1509 135.815 43.0992 133.978 44.4785L131.709 46.1814C131.623 46.2452 131.567 46.4111 131.567 46.5963C131.567 46.7814 131.623 46.9473 131.709 47.0111L133.978 48.7149C135.815 50.0938 137.263 53.042 137.941 56.7819L138.777 61.4016C138.809 61.5754 138.89 61.6907 138.981 61.6907C139.072 61.6907 139.154 61.5754 139.185 61.4016L140.022 56.7815C140.699 53.042 142.147 50.0942 143.985 48.7149L146.254 47.0111C146.34 46.9473 146.396 46.7814 146.396 46.5963C146.396 46.4111 146.34 46.2452 146.254 46.1814Z" fill="url(#paint44_linear_76_756)" fill-opacity="0.35"/>
<path d="M106.284 17.556L102.478 14.699C99.3974 12.3861 96.9686 7.44238 95.8326 1.17082L94.4289 -6.5766C94.3762 -6.86784 94.2398 -7.06128 94.0873 -7.06128C93.9347 -7.06128 93.7983 -6.86784 93.7456 -6.5766L92.3419 1.17039C91.2057 7.44239 88.7769 12.3861 85.6961 14.699L81.8902 17.556C81.7472 17.6634 81.6521 17.9411 81.6521 18.2516C81.6521 18.562 81.7472 18.8397 81.8902 18.9472L85.6963 21.805C88.7771 24.1179 91.2057 29.0617 92.3419 35.3332L93.7456 43.0811C93.7983 43.3723 93.9347 43.5658 94.0873 43.5658C94.2398 43.5658 94.3762 43.3723 94.4289 43.0811L95.8326 35.3332C96.9688 29.0617 99.3974 24.1175 102.478 21.805L106.284 18.9472C106.427 18.8397 106.522 18.562 106.522 18.2516C106.522 17.9411 106.427 17.6634 106.284 17.556Z" fill="url(#paint45_linear_76_756)" fill-opacity="0.35"/>
<path d="M119.716 53.7319L117.911 52.377C116.451 51.2806 115.3 48.9371 114.761 45.9644L114.095 42.2922C114.071 42.1542 114.006 42.0625 113.934 42.0625C113.861 42.0625 113.796 42.1542 113.772 42.2922L113.106 45.9644C112.567 48.9375 111.416 51.281 109.956 52.377L108.152 53.7319C108.084 53.7825 108.039 53.9144 108.039 54.0616C108.039 54.2087 108.084 54.3406 108.152 54.3912L109.956 55.7461C111.416 56.8426 112.568 59.1865 113.106 62.1596L113.772 65.8323C113.797 65.9702 113.861 66.0619 113.934 66.0619C114.006 66.0619 114.071 65.9702 114.096 65.8323L114.761 62.1596C115.3 59.1865 116.451 56.8426 117.912 55.7461L119.716 54.3912C119.784 54.3406 119.829 54.2087 119.829 54.0616C119.829 53.9144 119.784 53.7825 119.716 53.7319Z" fill="url(#paint46_linear_76_756)" fill-opacity="0.35"/>
<path d="M84.2789 46.1814L82.0095 44.4785C80.1726 43.0996 78.7243 40.1513 78.0465 36.4115L77.2097 31.7917C77.1782 31.6184 77.0969 31.5027 77.0059 31.5027C76.915 31.5027 76.8337 31.6184 76.8022 31.7917L75.9654 36.411C75.288 40.1509 73.8397 43.0992 72.0023 44.4785L69.7334 46.1814C69.6478 46.2452 69.5914 46.4111 69.5914 46.5963C69.5914 46.7814 69.648 46.9473 69.7334 47.0111L72.0025 48.7149C73.8395 50.0938 75.2878 53.042 75.9654 56.7819L76.8022 61.4016C76.8337 61.5754 76.915 61.6907 77.0059 61.6907C77.0969 61.6907 77.1784 61.5754 77.2097 61.4016L78.0467 56.7815C78.7241 53.042 80.1722 50.0942 82.0093 48.7149L84.2789 47.0111C84.3643 46.9473 84.4209 46.7814 84.4209 46.5963C84.4209 46.4111 84.3645 46.2452 84.2789 46.1814Z" fill="url(#paint47_linear_76_756)" fill-opacity="0.35"/>
</g>
<path d="M193.5 95.5C205.537 114.071 203.615 160.275 180.279 183.604C160.878 203 155 206 133.5 198.5" fill="#167C8B"/>
<path d="M98 238.5C85.9647 219.924 87.3849 168.731 110.718 145.398C135 124 140 121.5 160.5 131.5" fill="#167C8B"/>
<path d="M147.346 205.614C137.269 205.614 127.255 201.407 117.358 192.984C115.172 191.123 114.908 187.846 116.768 185.663C118.632 183.477 121.906 183.215 124.089 185.073C135.075 194.424 152.475 204.06 176.606 179.931C197.766 158.779 200.621 115.371 189.785 98.6491C188.224 96.2434 188.91 93.0272 191.318 91.4668C193.726 89.9064 196.94 90.5901 198.5 93C212.164 114.081 208.902 162.336 183.952 187.275C171.728 199.497 159.491 205.614 147.346 205.614Z" fill="url(#paint48_linear_76_756)"/>
<path d="M172.257 137.543C179.861 149.281 175.122 168.881 160.38 183.628C145.633 198.37 133.197 195.947 122.749 187.051" fill="#282224"/>
<path d="M137.537 201.39C130.723 201.39 123.952 198.6 117.383 193.007C115.197 191.148 114.933 187.869 116.795 185.688C118.654 183.503 121.935 183.241 124.114 185.1C131.018 190.973 140.735 195.928 154.709 181.957C167.45 169.211 172.262 152.191 165.898 142.369C164.34 139.961 165.028 136.745 167.434 135.184C169.839 133.628 173.058 134.314 174.618 136.72C183.732 150.789 178.447 172.903 162.052 189.301C154 197.351 145.734 201.39 137.537 201.39Z" fill="url(#paint49_linear_76_756)"/>
<path d="M97.9308 242.335C96.2294 242.335 94.5632 241.502 93.5678 239.964C79.9099 218.886 82.1017 166.668 107.045 141.726C129.412 119.368 151.819 117.45 173.643 136.017C175.829 137.877 176.093 141.155 174.233 143.338C172.372 145.526 169.095 145.788 166.912 143.928C155.926 134.58 138.533 124.94 114.391 149.071C93.2374 170.227 91.4528 217.598 102.285 234.318C103.846 236.726 103.16 239.942 100.752 241.5C99.8776 242.065 98.8991 242.335 97.9308 242.335Z" fill="url(#paint50_linear_76_756)"/>
<path d="M120.749 189.459C113.137 177.72 117.875 158.125 132.618 143.378C147.369 128.632 159.805 131.054 170.253 139.95" fill="#282224"/>
<path d="M120.753 194.653C119.054 194.653 117.385 193.819 116.39 192.284C107.267 178.217 112.549 156.105 128.945 139.705C143.697 124.956 159.144 123.67 173.619 135.995C175.804 137.854 176.068 141.132 174.207 143.314C172.347 145.499 169.065 145.759 166.887 143.902C159.984 138.026 150.263 133.077 136.289 147.049C123.547 159.797 118.74 176.813 125.106 186.631C126.666 189.037 125.98 192.255 123.575 193.815C122.702 194.382 121.723 194.653 120.753 194.653Z" fill="url(#paint51_linear_76_756)"/>
<path d="M282 168.094V158H337V168.094H282ZM282 189V178.906H337V189H282Z" fill="white"/>
<rect x="504.983" y="4.19078" width="194" height="294" rx="24" transform="rotate(9.63564 504.983 4.19078)" fill="#242424" stroke="url(#paint52_linear_76_756)" stroke-width="6"/>
<path d="M492.75 189.761L650.492 216.542" stroke="url(#paint53_linear_76_756)"/>
<path d="M597.518 38.6659C590.361 37.4507 583.565 41.4557 580.66 47.7853C578.968 46.7283 577.139 45.8563 575.057 45.5027C566.545 44.0576 558.338 49.8823 556.893 58.3943L547.446 114.036L543.686 108.738C538.684 101.69 528.737 100.001 521.689 105.003C514.64 110.005 512.952 119.953 517.954 127.001L547.094 168.059C552.15 175.158 559.751 181.357 569.678 183.043L593.617 187.107C613.572 190.495 632.612 176.982 636 157.027L646.545 94.9156C647.99 86.4036 642.165 78.1967 633.653 76.7515C631.833 76.4426 630.05 76.535 628.312 76.8433L629.356 70.6968C630.801 62.1849 624.976 53.9779 616.464 52.5328C614.382 52.1792 612.368 52.399 610.422 52.8382C609.768 45.9044 604.676 39.881 597.518 38.6659ZM595.761 49.0178C598.692 49.5155 600.556 52.1408 600.058 55.0724L591.27 106.832L601.622 108.589L608.652 67.1818C609.15 64.2501 611.775 62.3869 614.707 62.8846C617.639 63.3824 619.502 66.0077 619.004 68.9393L611.974 110.347L622.326 112.104L625.841 91.4006C626.339 88.4689 628.964 86.6057 631.896 87.1034C634.827 87.6011 636.691 90.2264 636.193 93.1581L625.648 155.269C623.211 169.624 609.729 179.192 595.374 176.755L571.436 172.691C564.844 171.572 559.729 167.396 555.798 161.882L526.468 120.958C524.756 118.545 525.319 115.23 527.731 113.517C530.144 111.805 533.46 112.368 535.172 114.781L546.156 130.457L553.542 140.864L567.245 60.1518C567.742 57.2201 570.368 55.3569 573.299 55.8546C576.231 56.3523 578.094 58.9776 577.597 61.9093L570.567 103.317L580.918 105.074L589.706 53.3149C590.204 50.3832 592.829 48.52 595.761 49.0178Z" fill="url(#paint54_linear_76_756)"/>
<rect x="430.01" y="18.353" width="194" height="294" rx="24" fill="#242424" stroke="url(#paint55_linear_76_756)" stroke-width="6"/>
<path d="M449.01 203.353H609.01" stroke="url(#paint56_linear_76_756)"/>
<path d="M504.892 62.9389C500.545 62.8569 496.935 63.7592 494.721 64.4155C494.659 64.4155 494.618 64.4155 494.556 64.4155L481.431 68.5171C466.03 73.2544 455.51 87.5278 455.51 103.626V131.353C455.51 151.594 472.018 168.103 492.26 168.103H544.267C550.666 168.247 556.859 164.494 559.361 158.259C560.94 154.301 560.715 150.138 559.197 146.447C562.417 144.745 565.144 141.997 566.58 138.408C568.221 134.286 567.954 129.897 566.252 126.103H586.76C595.393 126.103 602.51 118.987 602.51 110.353C602.51 101.719 595.393 94.603 586.76 94.603H578.721L580.853 93.9467C589.118 91.4448 593.855 82.5239 591.353 74.2592C588.851 65.9946 579.93 61.2573 571.666 63.7592L527.369 77.3764C526.979 76.3921 526.528 75.3257 525.892 74.2592C523.267 69.8706 517.956 64.9077 509.486 63.4311C507.907 63.1645 506.348 62.9594 504.892 62.9389ZM576.916 73.603C578.967 73.8286 580.71 75.2436 581.346 77.3764C582.207 80.2065 580.566 83.0776 577.736 83.9389L541.806 94.7671L543.611 100.673V105.103H586.76C589.733 105.103 592.01 107.379 592.01 110.353C592.01 113.327 589.733 115.603 586.76 115.603H552.142L538.361 110.189C536.372 109.389 534.321 108.999 532.291 109.041L529.502 87.5483L574.783 73.7671C575.501 73.5415 576.239 73.521 576.916 73.603ZM504.728 73.7671C505.733 73.7671 506.779 73.7671 507.681 73.9311C513.321 74.9155 515.495 77.3764 516.869 79.6733C518.243 81.9702 518.346 83.6108 518.346 83.6108C518.346 83.7133 518.346 83.8364 518.346 83.9389L522.775 117.736C522.816 117.9 522.878 118.064 522.939 118.228C523.596 120.997 521.934 123.642 519.166 124.298C517.464 124.708 516.602 124.483 515.721 123.97C514.839 123.457 513.752 122.371 512.931 120.033L506.369 94.603C505.959 93.0444 504.851 91.7729 503.395 91.1372C501.919 90.5014 500.237 90.563 498.822 91.3217L490.127 96.0796C487.584 97.4741 486.661 100.673 488.076 103.216C489.471 105.759 492.67 106.682 495.213 105.267L497.838 103.79L502.924 123.15C502.965 123.314 503.026 123.478 503.088 123.642C504.503 127.703 506.923 130.963 510.306 132.994C513.075 134.655 516.295 135.291 519.494 134.962C517.833 136.5 516.459 138.469 515.556 140.705C513.157 146.713 514.675 153.317 519.002 157.603H492.26C477.699 157.603 466.01 145.914 466.01 131.353V103.626C466.01 92.0805 473.515 81.9292 484.549 78.5249L497.674 74.5874C498.74 74.2592 501.734 73.7671 504.728 73.7671ZM533.275 119.705C533.665 119.766 534.034 119.705 534.424 119.869L553.947 127.744C556.695 128.851 558.008 131.722 556.9 134.47C555.793 137.218 552.758 138.531 550.01 137.423L530.486 129.712C530.199 129.61 530.076 129.364 529.83 129.22C531.901 126.554 533.234 123.191 533.275 119.705ZM529.994 141.361C530.691 141.361 531.43 141.422 532.127 141.689L539.181 144.478L546.072 147.267L546.728 147.431C549.476 148.539 550.789 151.574 549.681 154.322C548.882 156.332 547.097 157.5 545.088 157.603C545.026 157.603 544.985 157.603 544.924 157.603C544.226 157.624 543.488 157.541 542.791 157.275L528.189 151.369C525.441 150.261 524.129 147.226 525.236 144.478C525.79 143.104 526.795 142.222 528.025 141.689C528.64 141.422 529.297 141.361 529.994 141.361Z" fill="url(#paint57_linear_76_756)"/>
<rect x="363.484" y="37.8789" width="194" height="294" rx="24" transform="rotate(-10.212 363.484 37.8789)" fill="#242424" stroke="url(#paint58_linear_76_756)" stroke-width="6"/>
<path d="M414.982 216.58L572.448 188.213" stroke="url(#paint59_linear_76_756)"/>
<path d="M460.784 60.4867C455.294 61.4757 450.994 65.251 449.014 70.1086C446.521 69.2241 443.812 68.8785 441.047 69.3767C432.55 70.9074 426.809 79.1725 428.339 87.6695L431.742 106.561L423.426 122.395C418.364 132.122 421.015 144.293 429.601 151.123L444.374 162.798C452.643 169.373 463.316 172.055 473.71 170.183L500.998 165.267C520.918 161.678 534.239 142.504 530.65 122.584L522.273 76.0823C520.742 67.5853 512.477 61.8434 503.98 63.3741C501.215 63.8722 498.797 65.1413 496.769 66.8402C493.219 62.9788 487.872 60.9415 482.382 61.9304C479.617 62.4285 477.199 63.6976 475.171 65.3965C471.621 61.5351 466.274 59.4978 460.784 60.4867ZM462.645 70.8204C465.572 70.2932 468.216 72.1299 468.743 75.0564L471.535 90.5569L481.869 88.6954L480.008 78.3617C479.48 75.4352 481.317 72.7913 484.244 72.2641C487.17 71.7369 489.814 73.5736 490.341 76.5001L492.203 86.8338L502.536 84.9722L501.606 79.8054C501.078 76.8789 502.915 74.235 505.842 73.7078C508.768 73.1806 511.412 75.0173 511.939 77.9438L520.316 124.445C522.898 138.775 513.466 152.352 499.136 154.933L471.849 159.849C464.421 161.187 456.814 159.328 450.902 154.62L436.101 142.784C431.405 139.045 430.055 132.704 432.824 127.371L434.797 123.514L435.785 129.004L446.119 127.143L438.673 85.8079C438.146 82.8814 439.982 80.2375 442.909 79.7103C445.835 79.1831 448.479 81.0199 449.007 83.9464L450.868 94.28L461.202 92.4185L458.409 76.918C457.882 73.9915 459.719 71.3476 462.645 70.8204Z" fill="url(#paint60_linear_76_756)"/>
<path d="M750.212 185.832V138.159H761.028V185.832H750.212ZM731.784 167.403V156.587H779.457V167.403H731.784Z" fill="white"/>
<rect x="907.368" y="11.8038" width="194" height="294" rx="24" transform="rotate(10.484 907.368 11.8038)" fill="#242424" stroke="url(#paint61_linear_76_756)" stroke-width="6"/>
<path d="M892.388 197.173L1049.72 226.286" stroke="url(#paint62_linear_76_756)"/>
<g clip-path="url(#clip0_76_756)">
<path d="M990.594 148.637C1011.27 152.464 1031.21 138.754 1035.04 118.074C1038.87 97.3936 1025.15 77.4562 1004.47 73.6294C983.795 69.8025 963.857 83.5136 960.03 104.193C956.204 124.873 969.914 144.811 990.594 148.637Z" fill="url(#paint63_linear_76_756)"/>
<path d="M911.891 157.727C911.195 161.492 912.006 165.304 914.175 168.459C916.345 171.614 919.614 173.735 923.38 174.432C927.145 175.129 930.957 174.318 934.112 172.148L960.823 153.778C968.35 160.272 977.439 164.634 987.296 166.459C1002.07 169.193 1017.03 166.01 1029.42 157.494C1041.8 148.978 1050.12 136.149 1052.86 121.371C1055.59 106.593 1052.41 91.6354 1043.89 79.252C1035.38 66.8685 1022.55 58.5429 1007.77 55.8083C992.994 53.0736 978.037 56.2573 965.653 64.7735C953.27 73.2892 944.944 86.1178 942.21 100.896C940.385 110.753 941.207 120.801 944.577 130.153L917.865 148.523C914.71 150.693 912.588 153.962 911.891 157.727ZM1005.9 65.9184C1030.83 70.532 1047.36 94.5689 1042.75 119.5C1038.14 144.432 1014.1 160.962 989.167 156.348C964.235 151.735 947.706 127.698 952.319 102.766C956.933 77.8345 980.97 61.3048 1005.9 65.9184ZM922.968 155.754C925.464 154.037 928.88 154.669 930.598 157.165C932.314 159.663 931.682 163.079 929.186 164.796C926.69 166.512 923.273 165.88 921.556 163.383C919.839 160.887 920.472 157.47 922.968 155.754Z" fill="url(#paint64_linear_76_756)"/>
</g>
<rect x="794.814" y="42.5261" width="194" height="294" rx="24" transform="rotate(-8.29208 794.814 42.5261)" fill="#242424" stroke="url(#paint65_linear_76_756)" stroke-width="6"/>
<path d="M840.296 222.852L998.623 199.777" stroke="url(#paint66_linear_76_756)"/>
<g clip-path="url(#clip1_76_756)">
<path d="M857.982 100.905C857.889 100.981 857.805 101.045 857.713 101.12C853.793 94.4173 847.207 88.1548 847.207 88.1548L850.445 84.8487C853.823 86.2319 860.506 90.9934 863.717 93.6136C862.451 96.3371 860.542 98.7809 857.982 100.905Z" fill="url(#paint67_linear_76_756)"/>
<path d="M828.286 180.587C828.316 176.987 825.205 154.685 846.671 131.583C851.046 125.697 850.917 120.152 850.033 114.799C849.61 112.249 849.777 112.043 849.777 112.043C849.624 111.314 849.993 110.577 850.66 110.283C850.66 110.283 850.921 110.048 853.344 108.751C857.64 106.447 867.569 97.4299 869.564 89.0101C870.023 87.0779 870.001 84.4387 870.001 84.4387C870.107 83.3509 870.918 82.4813 871.973 82.3275L875.88 81.7582L927.547 74.2281L960.914 69.3651L960.76 67.1698L971.816 61.0203L976.864 60.2845L977.828 66.9002L981.207 66.4078L983.229 80.2784L978.181 81.0141L979.178 87.858L948.368 92.3485C940.925 93.4332 937.447 106.929 937.067 116.87C937.012 118.204 937.022 119.192 937.022 119.192C936.777 121.782 935.54 123.351 933.191 123.694C933.191 123.694 931.015 124.011 927.712 124.492L922.794 136.892C921.419 140.362 918.356 142.808 914.744 143.335C914.713 143.339 914.678 143.344 914.653 143.348L887.607 147.29C874.274 149.233 871.465 157.476 872.859 174.65C873.372 178.166 869.072 181.441 866.368 181.835C863.669 182.228 834.847 186.429 831.961 186.849C829.079 187.269 828.26 184.177 828.286 180.587ZM913.732 88.0133L887.503 91.836C886.017 92.0526 884.995 93.4659 885.218 94.9978C885.441 96.5249 886.823 97.5877 888.31 97.3711L914.539 93.5483C916.026 93.3317 917.047 91.9184 916.825 90.3914C916.602 88.8595 915.219 87.7966 913.732 88.0133ZM915.991 103.507L889.761 107.33C888.275 107.547 887.253 108.96 887.476 110.487C887.698 112.014 889.081 113.077 890.567 112.86L916.797 109.038C918.283 108.821 919.305 107.408 919.082 105.881C918.86 104.354 917.477 103.291 915.991 103.507ZM913.894 138.076L913.909 138.073L913.975 138.064C915.771 137.802 917.304 136.584 917.984 134.853L921.746 125.362C913.811 126.518 903.781 127.98 898.687 128.722C899.806 130.673 901.291 132.726 903 134.037C904.015 134.816 902.555 137.205 900.941 136.508C900.128 136.16 896.374 135.531 893.156 130.409C890.269 132.54 888.055 136.935 887.513 141.92L913.894 138.075L913.894 138.076Z" fill="url(#paint68_linear_76_756)"/>
</g>
<path d="M10.7844 369.455V408H3.80185V369.455H10.7844ZM24.8579 391.061V408H18.0447V379.091H24.5567V384.003H24.8955C25.5605 382.385 26.6208 381.098 28.0763 380.145C29.5443 379.191 31.3574 378.714 33.5155 378.714C35.5106 378.714 37.2484 379.141 38.729 379.994C40.2221 380.848 41.3765 382.083 42.192 383.702C43.0202 385.321 43.4279 387.284 43.4154 389.593V408H36.6022V390.647C36.6022 388.715 36.1003 387.203 35.0965 386.111C34.1053 385.02 32.7313 384.474 30.9747 384.474C29.7827 384.474 28.7224 384.737 27.7939 385.264C26.878 385.779 26.1565 386.525 25.6295 387.504C25.1151 388.483 24.8579 389.668 24.8579 391.061ZM50.3415 408V379.091H57.1547V408H50.3415ZM53.767 374.988C52.6879 374.988 51.7594 374.63 50.9814 373.915C50.2035 373.187 49.8145 372.315 49.8145 371.299C49.8145 370.27 50.2035 369.398 50.9814 368.683C51.7594 367.955 52.6879 367.591 53.767 367.591C54.8586 367.591 55.7871 367.955 56.5525 368.683C57.3304 369.398 57.7194 370.27 57.7194 371.299C57.7194 372.315 57.3304 373.187 56.5525 373.915C55.7871 374.63 54.8586 374.988 53.767 374.988ZM78.5966 379.091V384.361H61.9776V379.091H78.5966ZM66.0806 372.165H72.8938V399.305C72.8938 400.221 73.0318 400.923 73.3079 401.413C73.5965 401.889 73.9729 402.216 74.4371 402.391C74.9014 402.567 75.4158 402.655 75.9805 402.655C76.4071 402.655 76.796 402.623 77.1474 402.561C77.5112 402.498 77.7873 402.442 77.9755 402.391L79.1236 407.718C78.7597 407.843 78.239 407.981 77.5614 408.132C76.8964 408.282 76.0808 408.37 75.1147 408.395C73.4083 408.445 71.8712 408.188 70.5036 407.624C69.1359 407.046 68.0505 406.156 67.2475 404.951C66.457 403.746 66.0681 402.241 66.0806 400.434V372.165ZM84.2947 408V379.091H91.1079V408H84.2947ZM87.7201 374.988C86.641 374.988 85.7125 374.63 84.9346 373.915C84.1566 373.187 83.7677 372.315 83.7677 371.299C83.7677 370.27 84.1566 369.398 84.9346 368.683C85.7125 367.955 86.641 367.591 87.7201 367.591C88.8117 367.591 89.7402 367.955 90.5056 368.683C91.2835 369.398 91.6725 370.27 91.6725 371.299C91.6725 372.315 91.2835 373.187 90.5056 373.915C89.7402 374.63 88.8117 374.988 87.7201 374.988ZM106.433 408.583C104.601 408.583 102.951 408.257 101.483 407.605C100.027 406.94 98.8731 405.961 98.0199 404.669C97.1792 403.376 96.7589 401.783 96.7589 399.888C96.7589 398.257 97.06 396.908 97.6623 395.842C98.2646 394.775 99.0864 393.922 100.128 393.282C101.169 392.642 102.342 392.159 103.647 391.833C104.965 391.494 106.326 391.249 107.732 391.099C109.425 390.923 110.799 390.766 111.853 390.628C112.907 390.478 113.673 390.252 114.15 389.951C114.639 389.637 114.884 389.154 114.884 388.501V388.388C114.884 386.971 114.463 385.873 113.623 385.095C112.782 384.317 111.571 383.928 109.99 383.928C108.321 383.928 106.998 384.292 106.019 385.02C105.053 385.747 104.4 386.607 104.061 387.598L97.6999 386.695C98.2018 384.938 99.0299 383.47 100.184 382.29C101.339 381.098 102.75 380.208 104.419 379.618C106.088 379.016 107.932 378.714 109.952 378.714C111.345 378.714 112.732 378.878 114.112 379.204C115.492 379.53 116.753 380.07 117.895 380.822C119.037 381.563 119.953 382.573 120.643 383.853C121.345 385.132 121.697 386.732 121.697 388.652V408H115.147V404.029H114.921C114.507 404.832 113.924 405.585 113.171 406.287C112.431 406.977 111.496 407.536 110.366 407.962C109.25 408.376 107.939 408.583 106.433 408.583ZM108.202 403.577C109.57 403.577 110.755 403.307 111.759 402.768C112.763 402.216 113.535 401.488 114.074 400.585C114.626 399.681 114.902 398.696 114.902 397.63V394.223C114.689 394.399 114.325 394.562 113.811 394.712C113.309 394.863 112.744 394.995 112.117 395.108C111.489 395.221 110.868 395.321 110.254 395.409C109.639 395.497 109.105 395.572 108.654 395.635C107.637 395.773 106.728 395.998 105.925 396.312C105.122 396.626 104.488 397.065 104.024 397.63C103.56 398.182 103.327 398.897 103.327 399.775C103.327 401.03 103.785 401.977 104.701 402.617C105.617 403.257 106.784 403.577 108.202 403.577ZM135.361 369.455V408H128.548V369.455H135.361ZM168.876 408H155.815V369.455H169.14C172.967 369.455 176.254 370.226 179.002 371.77C181.762 373.3 183.883 375.502 185.364 378.376C186.844 381.249 187.584 384.687 187.584 388.69C187.584 392.705 186.838 396.155 185.345 399.041C183.864 401.927 181.725 404.142 178.927 405.685C176.141 407.228 172.791 408 168.876 408ZM162.797 401.958H168.538C171.223 401.958 173.462 401.469 175.257 400.49C177.051 399.499 178.4 398.025 179.303 396.067C180.207 394.098 180.658 391.638 180.658 388.69C180.658 385.741 180.207 383.294 179.303 381.349C178.4 379.392 177.063 377.93 175.294 376.964C173.538 375.985 171.354 375.496 168.745 375.496H162.797V401.958ZM206.716 408.565C203.818 408.565 201.314 407.962 199.206 406.758C197.111 405.541 195.499 403.822 194.369 401.601C193.24 399.367 192.676 396.739 192.676 393.715C192.676 390.741 193.24 388.131 194.369 385.885C195.511 383.627 197.105 381.87 199.15 380.615C201.195 379.348 203.598 378.714 206.358 378.714C208.14 378.714 209.821 379.003 211.402 379.58C212.996 380.145 214.401 381.023 215.618 382.215C216.848 383.407 217.814 384.925 218.517 386.77C219.219 388.602 219.571 390.785 219.571 393.32V395.409H195.875V390.816H213.04C213.027 389.511 212.745 388.351 212.193 387.335C211.641 386.306 210.869 385.496 209.878 384.907C208.899 384.317 207.757 384.022 206.453 384.022C205.06 384.022 203.836 384.361 202.782 385.038C201.728 385.703 200.907 386.582 200.317 387.673C199.74 388.752 199.445 389.938 199.432 391.23V395.239C199.432 396.921 199.74 398.364 200.354 399.568C200.969 400.76 201.829 401.676 202.933 402.316C204.037 402.943 205.33 403.257 206.81 403.257C207.801 403.257 208.698 403.119 209.502 402.843C210.305 402.554 211.001 402.134 211.591 401.582C212.18 401.03 212.626 400.346 212.927 399.531L219.288 400.246C218.887 401.927 218.122 403.395 216.992 404.65C215.876 405.892 214.445 406.858 212.701 407.548C210.957 408.226 208.962 408.565 206.716 408.565ZM237.945 408.565C235.059 408.565 232.581 407.931 230.51 406.664C228.453 405.396 226.865 403.646 225.749 401.413C224.645 399.167 224.093 396.582 224.093 393.658C224.093 390.722 224.657 388.131 225.786 385.885C226.916 383.627 228.509 381.87 230.567 380.615C232.637 379.348 235.084 378.714 237.907 378.714C240.253 378.714 242.33 379.147 244.137 380.013C245.956 380.866 247.405 382.077 248.485 383.646C249.564 385.201 250.178 387.021 250.329 389.104H243.817C243.553 387.711 242.926 386.55 241.935 385.622C240.956 384.681 239.645 384.21 238.001 384.21C236.608 384.21 235.385 384.587 234.331 385.339C233.277 386.08 232.455 387.146 231.866 388.539C231.288 389.932 231 391.601 231 393.545C231 395.515 231.288 397.209 231.866 398.627C232.443 400.032 233.252 401.118 234.294 401.883C235.347 402.636 236.583 403.012 238.001 403.012C239.005 403.012 239.902 402.824 240.693 402.448C241.496 402.059 242.167 401.5 242.706 400.773C243.246 400.045 243.616 399.16 243.817 398.119H250.329C250.166 400.164 249.564 401.977 248.522 403.558C247.481 405.127 246.063 406.356 244.269 407.247C242.474 408.125 240.366 408.565 237.945 408.565ZM262.134 398.928L262.116 390.703H263.207L273.597 379.091H281.558L268.778 393.32H267.367L262.134 398.928ZM255.924 408V369.455H262.737V408H255.924ZM274.067 408L264.657 394.844L269.249 390.045L282.217 408H274.067Z" fill="white"/>
<path d="M382.541 408.527C380.697 408.514 378.896 408.194 377.14 407.567C375.383 406.927 373.802 405.892 372.397 404.462C370.991 403.019 369.875 401.105 369.047 398.721C368.218 396.325 367.811 393.357 367.823 389.819C367.823 386.519 368.174 383.577 368.877 380.992C369.58 378.407 370.59 376.224 371.907 374.442C373.225 372.648 374.812 371.28 376.669 370.339C378.539 369.398 380.628 368.928 382.936 368.928C385.358 368.928 387.504 369.404 389.373 370.358C391.255 371.312 392.774 372.616 393.928 374.273C395.082 375.916 395.797 377.773 396.074 379.844H389.204C388.853 378.363 388.131 377.184 387.039 376.305C385.96 375.415 384.593 374.969 382.936 374.969C380.264 374.969 378.206 376.13 376.763 378.451C375.333 380.772 374.611 383.959 374.599 388.012H374.862C375.477 386.908 376.274 385.961 377.252 385.17C378.231 384.38 379.335 383.771 380.565 383.344C381.807 382.905 383.118 382.686 384.499 382.686C386.757 382.686 388.783 383.225 390.578 384.304C392.385 385.383 393.815 386.87 394.869 388.765C395.923 390.647 396.444 392.805 396.431 395.239C396.444 397.774 395.866 400.051 394.7 402.071C393.533 404.079 391.908 405.66 389.825 406.814C387.742 407.969 385.314 408.54 382.541 408.527ZM382.504 402.881C383.871 402.881 385.095 402.548 386.174 401.883C387.253 401.218 388.106 400.321 388.733 399.192C389.361 398.062 389.668 396.795 389.656 395.39C389.668 394.01 389.367 392.761 388.752 391.645C388.15 390.528 387.315 389.643 386.249 388.991C385.182 388.338 383.965 388.012 382.598 388.012C381.581 388.012 380.634 388.207 379.756 388.596C378.877 388.984 378.112 389.524 377.46 390.214C376.807 390.892 376.293 391.682 375.916 392.586C375.552 393.476 375.364 394.43 375.352 395.446C375.364 396.789 375.678 398.025 376.293 399.154C376.907 400.283 377.754 401.187 378.833 401.864C379.913 402.542 381.136 402.881 382.504 402.881ZM416.316 408V369.455H431.071C433.857 369.455 436.172 369.894 438.016 370.772C439.873 371.638 441.26 372.824 442.176 374.329C443.104 375.835 443.568 377.541 443.568 379.449C443.568 381.017 443.267 382.359 442.665 383.476C442.063 384.58 441.253 385.478 440.237 386.168C439.221 386.858 438.085 387.353 436.83 387.654V388.031C438.198 388.106 439.509 388.527 440.764 389.292C442.031 390.045 443.066 391.111 443.869 392.491C444.673 393.872 445.074 395.54 445.074 397.498C445.074 399.493 444.591 401.287 443.625 402.881C442.659 404.462 441.203 405.71 439.258 406.626C437.314 407.542 434.867 408 431.918 408H416.316ZM423.298 402.165H430.808C433.342 402.165 435.168 401.682 436.285 400.716C437.414 399.738 437.979 398.483 437.979 396.952C437.979 395.81 437.696 394.781 437.132 393.865C436.567 392.937 435.764 392.209 434.722 391.682C433.681 391.143 432.439 390.873 430.996 390.873H423.298V402.165ZM423.298 385.848H430.205C431.41 385.848 432.495 385.628 433.461 385.189C434.428 384.737 435.187 384.104 435.739 383.288C436.303 382.46 436.586 381.481 436.586 380.352C436.586 378.859 436.059 377.629 435.005 376.663C433.963 375.697 432.414 375.214 430.356 375.214H423.298V385.848ZM459.166 408.583C457.334 408.583 455.684 408.257 454.216 407.605C452.761 406.94 451.607 405.961 450.753 404.669C449.913 403.376 449.492 401.783 449.492 399.888C449.492 398.257 449.793 396.908 450.396 395.842C450.998 394.775 451.82 393.922 452.861 393.282C453.903 392.642 455.076 392.159 456.381 391.833C457.698 391.494 459.06 391.249 460.465 391.099C462.159 390.923 463.533 390.766 464.587 390.628C465.641 390.478 466.406 390.252 466.883 389.951C467.372 389.637 467.617 389.154 467.617 388.501V388.388C467.617 386.971 467.197 385.873 466.356 385.095C465.515 384.317 464.304 383.928 462.723 383.928C461.055 383.928 459.731 384.292 458.752 385.02C457.786 385.747 457.134 386.607 456.795 387.598L450.433 386.695C450.935 384.938 451.763 383.47 452.918 382.29C454.072 381.098 455.484 380.208 457.152 379.618C458.821 379.016 460.666 378.714 462.686 378.714C464.079 378.714 465.465 378.878 466.845 379.204C468.225 379.53 469.486 380.07 470.628 380.822C471.77 381.563 472.686 382.573 473.376 383.853C474.079 385.132 474.43 386.732 474.43 388.652V408H467.88V404.029H467.655C467.241 404.832 466.657 405.585 465.904 406.287C465.164 406.977 464.229 407.536 463.1 407.962C461.983 408.376 460.672 408.583 459.166 408.583ZM460.935 403.577C462.303 403.577 463.489 403.307 464.493 402.768C465.496 402.216 466.268 401.488 466.808 400.585C467.36 399.681 467.636 398.696 467.636 397.63V394.223C467.422 394.399 467.059 394.562 466.544 394.712C466.042 394.863 465.478 394.995 464.85 395.108C464.223 395.221 463.602 395.321 462.987 395.409C462.372 395.497 461.839 395.572 461.387 395.635C460.371 395.773 459.461 395.998 458.658 396.312C457.855 396.626 457.221 397.065 456.757 397.63C456.293 398.182 456.061 398.897 456.061 399.775C456.061 401.03 456.519 401.977 457.435 402.617C458.351 403.257 459.518 403.577 460.935 403.577ZM504.13 386.732L497.919 387.41C497.743 386.782 497.436 386.193 496.997 385.641C496.57 385.089 495.993 384.643 495.265 384.304C494.537 383.966 493.646 383.796 492.592 383.796C491.175 383.796 489.983 384.104 489.016 384.718C488.063 385.333 487.592 386.13 487.605 387.109C487.592 387.949 487.9 388.633 488.527 389.16C489.167 389.687 490.221 390.12 491.689 390.459L496.62 391.513C499.355 392.103 501.388 393.037 502.718 394.317C504.061 395.597 504.738 397.272 504.751 399.342C504.738 401.162 504.205 402.768 503.151 404.161C502.11 405.541 500.66 406.62 498.803 407.398C496.946 408.176 494.813 408.565 492.404 408.565C488.866 408.565 486.018 407.824 483.859 406.344C481.701 404.851 480.415 402.774 480.001 400.114L486.645 399.474C486.946 400.779 487.586 401.764 488.565 402.429C489.543 403.094 490.817 403.426 492.385 403.426C494.004 403.426 495.303 403.094 496.281 402.429C497.273 401.764 497.768 400.942 497.768 399.963C497.768 399.135 497.448 398.451 496.808 397.912C496.181 397.372 495.202 396.958 493.872 396.67L488.941 395.635C486.168 395.057 484.117 394.085 482.787 392.717C481.457 391.337 480.798 389.593 480.81 387.485C480.798 385.703 481.281 384.16 482.26 382.855C483.251 381.538 484.625 380.521 486.381 379.806C488.151 379.078 490.19 378.714 492.498 378.714C495.886 378.714 498.552 379.436 500.497 380.879C502.455 382.322 503.665 384.273 504.13 386.732ZM510.369 408V379.091H517.182V408H510.369ZM513.794 374.988C512.715 374.988 511.787 374.63 511.009 373.915C510.231 373.187 509.842 372.315 509.842 371.299C509.842 370.27 510.231 369.398 511.009 368.683C511.787 367.955 512.715 367.591 513.794 367.591C514.886 367.591 515.814 367.955 516.58 368.683C517.358 369.398 517.747 370.27 517.747 371.299C517.747 372.315 517.358 373.187 516.58 373.915C515.814 374.63 514.886 374.988 513.794 374.988ZM536.798 408.565C533.912 408.565 531.434 407.931 529.364 406.664C527.306 405.396 525.719 403.646 524.602 401.413C523.498 399.167 522.946 396.582 522.946 393.658C522.946 390.722 523.511 388.131 524.64 385.885C525.769 383.627 527.363 381.87 529.42 380.615C531.491 379.348 533.938 378.714 536.761 378.714C539.107 378.714 541.184 379.147 542.99 380.013C544.81 380.866 546.259 382.077 547.338 383.646C548.417 385.201 549.032 387.021 549.183 389.104H542.67C542.407 387.711 541.78 386.55 540.788 385.622C539.81 384.681 538.498 384.21 536.855 384.21C535.462 384.21 534.239 384.587 533.185 385.339C532.131 386.08 531.309 387.146 530.719 388.539C530.142 389.932 529.853 391.601 529.853 393.545C529.853 395.515 530.142 397.209 530.719 398.627C531.296 400.032 532.106 401.118 533.147 401.883C534.201 402.636 535.437 403.012 536.855 403.012C537.859 403.012 538.756 402.824 539.546 402.448C540.349 402.059 541.02 401.5 541.56 400.773C542.1 400.045 542.47 399.16 542.67 398.119H549.183C549.019 400.164 548.417 401.977 547.376 403.558C546.334 405.127 544.916 406.356 543.122 407.247C541.328 408.125 539.22 408.565 536.798 408.565ZM601.218 382.46H594.179C593.978 381.306 593.608 380.283 593.068 379.392C592.529 378.489 591.858 377.723 591.055 377.096C590.252 376.469 589.336 375.998 588.307 375.684C587.29 375.358 586.193 375.195 585.013 375.195C582.918 375.195 581.061 375.722 579.442 376.776C577.823 377.817 576.556 379.348 575.64 381.368C574.724 383.376 574.266 385.829 574.266 388.727C574.266 391.676 574.724 394.16 575.64 396.18C576.569 398.188 577.836 399.706 579.442 400.735C581.061 401.751 582.911 402.26 584.994 402.26C586.149 402.26 587.228 402.109 588.231 401.808C589.248 401.494 590.157 401.036 590.96 400.434C591.776 399.832 592.46 399.091 593.012 398.213C593.577 397.335 593.966 396.331 594.179 395.202L601.218 395.239C600.954 397.071 600.384 398.79 599.505 400.396C598.639 402.002 597.504 403.42 596.099 404.65C594.693 405.867 593.05 406.821 591.168 407.511C589.285 408.188 587.196 408.527 584.9 408.527C581.512 408.527 578.488 407.743 575.828 406.174C573.168 404.606 571.073 402.341 569.542 399.38C568.011 396.419 567.246 392.868 567.246 388.727C567.246 384.574 568.018 381.023 569.561 378.075C571.104 375.113 573.206 372.849 575.866 371.28C578.526 369.712 581.537 368.928 584.9 368.928C587.046 368.928 589.041 369.229 590.885 369.831C592.73 370.433 594.373 371.318 595.816 372.485C597.259 373.639 598.445 375.057 599.373 376.738C600.315 378.407 600.929 380.314 601.218 382.46ZM615.63 408.583C613.798 408.583 612.148 408.257 610.68 407.605C609.225 406.94 608.07 405.961 607.217 404.669C606.376 403.376 605.956 401.783 605.956 399.888C605.956 398.257 606.257 396.908 606.86 395.842C607.462 394.775 608.284 393.922 609.325 393.282C610.367 392.642 611.54 392.159 612.845 391.833C614.162 391.494 615.523 391.249 616.929 391.099C618.623 390.923 619.997 390.766 621.051 390.628C622.105 390.478 622.87 390.252 623.347 389.951C623.836 389.637 624.081 389.154 624.081 388.501V388.388C624.081 386.971 623.66 385.873 622.82 385.095C621.979 384.317 620.768 383.928 619.187 383.928C617.519 383.928 616.195 384.292 615.216 385.02C614.25 385.747 613.597 386.607 613.259 387.598L606.897 386.695C607.399 384.938 608.227 383.47 609.382 382.29C610.536 381.098 611.948 380.208 613.616 379.618C615.285 379.016 617.13 378.714 619.15 378.714C620.542 378.714 621.929 378.878 623.309 379.204C624.689 379.53 625.95 380.07 627.092 380.822C628.234 381.563 629.15 382.573 629.84 383.853C630.543 385.132 630.894 386.732 630.894 388.652V408H624.344V404.029H624.118C623.704 404.832 623.121 405.585 622.368 406.287C621.628 406.977 620.693 407.536 619.564 407.962C618.447 408.376 617.136 408.583 615.63 408.583ZM617.399 403.577C618.767 403.577 619.953 403.307 620.956 402.768C621.96 402.216 622.732 401.488 623.271 400.585C623.824 399.681 624.1 398.696 624.1 397.63V394.223C623.886 394.399 623.522 394.562 623.008 394.712C622.506 394.863 621.941 394.995 621.314 395.108C620.687 395.221 620.066 395.321 619.451 395.409C618.836 395.497 618.303 395.572 617.851 395.635C616.835 395.773 615.925 395.998 615.122 396.312C614.319 396.626 613.685 397.065 613.221 397.63C612.757 398.182 612.525 398.897 612.525 399.775C612.525 401.03 612.983 401.977 613.899 402.617C614.815 403.257 615.981 403.577 617.399 403.577ZM637.745 408V379.091H644.351V383.909H644.652C645.179 382.24 646.083 380.954 647.362 380.051C648.655 379.135 650.129 378.677 651.785 378.677C652.162 378.677 652.582 378.696 653.046 378.733C653.523 378.758 653.918 378.802 654.232 378.865V385.132C653.943 385.032 653.486 384.944 652.858 384.869C652.243 384.781 651.647 384.737 651.07 384.737C649.828 384.737 648.711 385.007 647.72 385.547C646.741 386.074 645.97 386.808 645.405 387.749C644.84 388.69 644.558 389.775 644.558 391.005V408H637.745ZM668.296 408.508C666.025 408.508 663.992 407.925 662.198 406.758C660.404 405.591 658.986 403.897 657.945 401.676C656.903 399.455 656.382 396.758 656.382 393.583C656.382 390.371 656.909 387.661 657.963 385.452C659.03 383.232 660.467 381.556 662.273 380.427C664.08 379.285 666.094 378.714 668.315 378.714C670.009 378.714 671.402 379.003 672.493 379.58C673.585 380.145 674.451 380.829 675.09 381.632C675.73 382.422 676.226 383.169 676.577 383.871H676.86V369.455H683.692V408H676.991V403.445H676.577C676.226 404.148 675.718 404.895 675.053 405.685C674.388 406.463 673.509 407.128 672.418 407.68C671.326 408.232 669.952 408.508 668.296 408.508ZM670.197 402.918C671.64 402.918 672.87 402.529 673.886 401.751C674.902 400.961 675.674 399.863 676.201 398.458C676.728 397.052 676.991 395.415 676.991 393.545C676.991 391.676 676.728 390.051 676.201 388.671C675.686 387.291 674.921 386.218 673.905 385.452C672.901 384.687 671.665 384.304 670.197 384.304C668.679 384.304 667.411 384.7 666.395 385.49C665.379 386.281 664.613 387.372 664.099 388.765C663.585 390.158 663.327 391.751 663.327 393.545C663.327 395.352 663.585 396.965 664.099 398.382C664.626 399.788 665.398 400.898 666.414 401.714C667.443 402.517 668.704 402.918 670.197 402.918ZM713.801 386.732L707.59 387.41C707.414 386.782 707.107 386.193 706.667 385.641C706.241 385.089 705.664 384.643 704.936 384.304C704.208 383.966 703.317 383.796 702.263 383.796C700.845 383.796 699.653 384.104 698.687 384.718C697.734 385.333 697.263 386.13 697.276 387.109C697.263 387.949 697.571 388.633 698.198 389.16C698.838 389.687 699.892 390.12 701.36 390.459L706.291 391.513C709.026 392.103 711.059 393.037 712.389 394.317C713.732 395.597 714.409 397.272 714.422 399.342C714.409 401.162 713.876 402.768 712.822 404.161C711.78 405.541 710.331 406.62 708.474 407.398C706.617 408.176 704.484 408.565 702.075 408.565C698.537 408.565 695.689 407.824 693.53 406.344C691.372 404.851 690.086 402.774 689.672 400.114L696.316 399.474C696.617 400.779 697.257 401.764 698.236 402.429C699.214 403.094 700.488 403.426 702.056 403.426C703.675 403.426 704.974 403.094 705.952 402.429C706.943 401.764 707.439 400.942 707.439 399.963C707.439 399.135 707.119 398.451 706.479 397.912C705.852 397.372 704.873 396.958 703.543 396.67L698.612 395.635C695.839 395.057 693.788 394.085 692.458 392.717C691.128 391.337 690.469 389.593 690.481 387.485C690.469 385.703 690.952 384.16 691.931 382.855C692.922 381.538 694.296 380.521 696.052 379.806C697.822 379.078 699.861 378.714 702.169 378.714C705.557 378.714 708.223 379.436 710.168 380.879C712.126 382.322 713.336 384.273 713.801 386.732Z" fill="white"/>
<path d="M796.729 400.848V395.296L813.085 369.455H817.714V377.359H814.891L803.881 394.806V395.108H826.711V400.848H796.729ZM815.117 408V399.154L815.192 396.67V369.455H821.78V408H815.117ZM846.247 408V369.455H860.702C863.663 369.455 866.147 370.007 868.155 371.111C870.175 372.215 871.699 373.733 872.728 375.665C873.77 377.585 874.29 379.768 874.29 382.215C874.29 384.687 873.77 386.883 872.728 388.803C871.687 390.722 870.15 392.234 868.117 393.338C866.085 394.43 863.581 394.976 860.608 394.976H851.028V389.235H859.667C861.398 389.235 862.816 388.934 863.92 388.332C865.024 387.73 865.84 386.902 866.367 385.848C866.906 384.794 867.176 383.583 867.176 382.215C867.176 380.848 866.906 379.643 866.367 378.602C865.84 377.56 865.018 376.751 863.901 376.174C862.797 375.584 861.373 375.289 859.629 375.289H853.23V408H846.247ZM892.25 408.565C889.427 408.565 886.981 407.944 884.91 406.701C882.84 405.459 881.234 403.721 880.092 401.488C878.963 399.254 878.398 396.645 878.398 393.658C878.398 390.672 878.963 388.056 880.092 385.81C881.234 383.564 882.84 381.82 884.91 380.578C886.981 379.336 889.427 378.714 892.25 378.714C895.074 378.714 897.52 379.336 899.591 380.578C901.661 381.82 903.261 383.564 904.39 385.81C905.532 388.056 906.103 390.672 906.103 393.658C906.103 396.645 905.532 399.254 904.39 401.488C903.261 403.721 901.661 405.459 899.591 406.701C897.52 407.944 895.074 408.565 892.25 408.565ZM892.288 403.107C893.819 403.107 895.099 402.686 896.128 401.846C897.156 400.992 897.922 399.85 898.424 398.42C898.938 396.99 899.195 395.396 899.195 393.64C899.195 391.87 898.938 390.271 898.424 388.84C897.922 387.397 897.156 386.249 896.128 385.396C895.099 384.543 893.819 384.116 892.288 384.116C890.72 384.116 889.415 384.543 888.373 385.396C887.344 386.249 886.573 387.397 886.058 388.84C885.556 390.271 885.305 391.87 885.305 393.64C885.305 395.396 885.556 396.99 886.058 398.42C886.573 399.85 887.344 400.992 888.373 401.846C889.415 402.686 890.72 403.107 892.288 403.107ZM917.024 408L908.855 379.091H915.8L920.882 399.418H921.145L926.34 379.091H933.21L938.404 399.305H938.687L943.693 379.091H950.657L942.47 408H935.374L929.954 388.464H929.558L924.138 408H917.024ZM967.384 408.565C964.486 408.565 961.982 407.962 959.874 406.758C957.779 405.541 956.167 403.822 955.037 401.601C953.908 399.367 953.343 396.739 953.343 393.715C953.343 390.741 953.908 388.131 955.037 385.885C956.179 383.627 957.773 381.87 959.818 380.615C961.863 379.348 964.266 378.714 967.026 378.714C968.808 378.714 970.489 379.003 972.07 379.58C973.664 380.145 975.069 381.023 976.286 382.215C977.516 383.407 978.482 384.925 979.185 386.77C979.887 388.602 980.239 390.785 980.239 393.32V395.409H956.543V390.816H973.708C973.695 389.511 973.413 388.351 972.861 387.335C972.309 386.306 971.537 385.496 970.546 384.907C969.567 384.317 968.425 384.022 967.12 384.022C965.728 384.022 964.504 384.361 963.45 385.038C962.396 385.703 961.575 386.582 960.985 387.673C960.408 388.752 960.113 389.938 960.1 391.23V395.239C960.1 396.921 960.408 398.364 961.022 399.568C961.637 400.76 962.497 401.676 963.601 402.316C964.705 402.943 965.997 403.257 967.478 403.257C968.469 403.257 969.366 403.119 970.169 402.843C970.973 402.554 971.669 402.134 972.259 401.582C972.848 401.03 973.294 400.346 973.595 399.531L979.956 400.246C979.555 401.927 978.79 403.395 977.66 404.65C976.544 405.892 975.113 406.858 973.369 407.548C971.625 408.226 969.63 408.565 967.384 408.565ZM986.003 408V379.091H992.609V383.909H992.91C993.437 382.24 994.34 380.954 995.62 380.051C996.913 379.135 998.387 378.677 1000.04 378.677C1000.42 378.677 1000.84 378.696 1001.3 378.733C1001.78 378.758 1002.18 378.802 1002.49 378.865V385.132C1002.2 385.032 1001.74 384.944 1001.12 384.869C1000.5 384.781 999.905 384.737 999.328 384.737C998.086 384.737 996.969 385.007 995.978 385.547C994.999 386.074 994.227 386.808 993.663 387.749C993.098 388.69 992.816 389.775 992.816 391.005V408H986.003ZM1053.46 382.46H1046.42C1046.22 381.306 1045.85 380.283 1045.31 379.392C1044.77 378.489 1044.1 377.723 1043.29 377.096C1042.49 376.469 1041.57 375.998 1040.55 375.684C1039.53 375.358 1038.43 375.195 1037.25 375.195C1035.16 375.195 1033.3 375.722 1031.68 376.776C1030.06 377.817 1028.8 379.348 1027.88 381.368C1026.96 383.376 1026.51 385.829 1026.51 388.727C1026.51 391.676 1026.96 394.16 1027.88 396.18C1028.81 398.188 1030.08 399.706 1031.68 400.735C1033.3 401.751 1035.15 402.26 1037.23 402.26C1038.39 402.26 1039.47 402.109 1040.47 401.808C1041.49 401.494 1042.4 401.036 1043.2 400.434C1044.02 399.832 1044.7 399.091 1045.25 398.213C1045.82 397.335 1046.2 396.331 1046.42 395.202L1053.46 395.239C1053.19 397.071 1052.62 398.79 1051.74 400.396C1050.88 402.002 1049.74 403.42 1048.34 404.65C1046.93 405.867 1045.29 406.821 1043.41 407.511C1041.52 408.188 1039.44 408.527 1037.14 408.527C1033.75 408.527 1030.73 407.743 1028.07 406.174C1025.41 404.606 1023.31 402.341 1021.78 399.38C1020.25 396.419 1019.49 392.868 1019.49 388.727C1019.49 384.574 1020.26 381.023 1021.8 378.075C1023.34 375.113 1025.45 372.849 1028.11 371.28C1030.77 369.712 1033.78 368.928 1037.14 368.928C1039.28 368.928 1041.28 369.229 1043.12 369.831C1044.97 370.433 1046.61 371.318 1048.06 372.485C1049.5 373.639 1050.68 375.057 1051.61 376.738C1052.55 378.407 1053.17 380.314 1053.46 382.46ZM1067.87 408.583C1066.04 408.583 1064.39 408.257 1062.92 407.605C1061.46 406.94 1060.31 405.961 1059.46 404.669C1058.62 403.376 1058.2 401.783 1058.2 399.888C1058.2 398.257 1058.5 396.908 1059.1 395.842C1059.7 394.775 1060.52 393.922 1061.56 393.282C1062.61 392.642 1063.78 392.159 1065.08 391.833C1066.4 391.494 1067.76 391.249 1069.17 391.099C1070.86 390.923 1072.24 390.766 1073.29 390.628C1074.34 390.478 1075.11 390.252 1075.59 389.951C1076.08 389.637 1076.32 389.154 1076.32 388.501V388.388C1076.32 386.971 1075.9 385.873 1075.06 385.095C1074.22 384.317 1073.01 383.928 1071.43 383.928C1069.76 383.928 1068.43 384.292 1067.46 385.02C1066.49 385.747 1065.84 386.607 1065.5 387.598L1059.14 386.695C1059.64 384.938 1060.47 383.47 1061.62 382.29C1062.78 381.098 1064.19 380.208 1065.86 379.618C1067.52 379.016 1069.37 378.714 1071.39 378.714C1072.78 378.714 1074.17 378.878 1075.55 379.204C1076.93 379.53 1078.19 380.07 1079.33 380.822C1080.47 381.563 1081.39 382.573 1082.08 383.853C1082.78 385.132 1083.13 386.732 1083.13 388.652V408H1076.58V404.029H1076.36C1075.94 404.832 1075.36 405.585 1074.61 406.287C1073.87 406.977 1072.93 407.536 1071.8 407.962C1070.69 408.376 1069.38 408.583 1067.87 408.583ZM1069.64 403.577C1071.01 403.577 1072.19 403.307 1073.2 402.768C1074.2 402.216 1074.97 401.488 1075.51 400.585C1076.06 399.681 1076.34 398.696 1076.34 397.63V394.223C1076.13 394.399 1075.76 394.562 1075.25 394.712C1074.75 394.863 1074.18 394.995 1073.55 395.108C1072.93 395.221 1072.3 395.321 1071.69 395.409C1071.08 395.497 1070.54 395.572 1070.09 395.635C1069.07 395.773 1068.16 395.998 1067.36 396.312C1066.56 396.626 1065.92 397.065 1065.46 397.63C1065 398.182 1064.76 398.897 1064.76 399.775C1064.76 401.03 1065.22 401.977 1066.14 402.617C1067.05 403.257 1068.22 403.577 1069.64 403.577ZM1089.98 408V379.091H1096.59V383.909H1096.89C1097.42 382.24 1098.32 380.954 1099.6 380.051C1100.89 379.135 1102.37 378.677 1104.02 378.677C1104.4 378.677 1104.82 378.696 1105.29 378.733C1105.76 378.758 1106.16 378.802 1106.47 378.865V385.132C1106.18 385.032 1105.72 384.944 1105.1 384.869C1104.48 384.781 1103.89 384.737 1103.31 384.737C1102.07 384.737 1100.95 385.007 1099.96 385.547C1098.98 386.074 1098.21 386.808 1097.64 387.749C1097.08 388.69 1096.8 389.775 1096.8 391.005V408H1089.98ZM1120.54 408.508C1118.26 408.508 1116.23 407.925 1114.44 406.758C1112.64 405.591 1111.23 403.897 1110.18 401.676C1109.14 399.455 1108.62 396.758 1108.62 393.583C1108.62 390.371 1109.15 387.661 1110.2 385.452C1111.27 383.232 1112.71 381.556 1114.51 380.427C1116.32 379.285 1118.33 378.714 1120.55 378.714C1122.25 378.714 1123.64 379.003 1124.73 379.58C1125.82 380.145 1126.69 380.829 1127.33 381.632C1127.97 382.422 1128.47 383.169 1128.82 383.871H1129.1V369.455H1135.93V408H1129.23V403.445H1128.82C1128.47 404.148 1127.96 404.895 1127.29 405.685C1126.63 406.463 1125.75 407.128 1124.66 407.68C1123.57 408.232 1122.19 408.508 1120.54 408.508ZM1122.44 402.918C1123.88 402.918 1125.11 402.529 1126.13 401.751C1127.14 400.961 1127.91 399.863 1128.44 398.458C1128.97 397.052 1129.23 395.415 1129.23 393.545C1129.23 391.676 1128.97 390.051 1128.44 388.671C1127.93 387.291 1127.16 386.218 1126.14 385.452C1125.14 384.687 1123.9 384.304 1122.44 384.304C1120.92 384.304 1119.65 384.7 1118.63 385.49C1117.62 386.281 1116.85 387.372 1116.34 388.765C1115.82 390.158 1115.57 391.751 1115.57 393.545C1115.57 395.352 1115.82 396.965 1116.34 398.382C1116.87 399.788 1117.64 400.898 1118.65 401.714C1119.68 402.517 1120.94 402.918 1122.44 402.918ZM1166.04 386.732L1159.83 387.41C1159.65 386.782 1159.35 386.193 1158.91 385.641C1158.48 385.089 1157.9 384.643 1157.18 384.304C1156.45 383.966 1155.56 383.796 1154.5 383.796C1153.08 383.796 1151.89 384.104 1150.93 384.718C1149.97 385.333 1149.5 386.13 1149.52 387.109C1149.5 387.949 1149.81 388.633 1150.44 389.16C1151.08 389.687 1152.13 390.12 1153.6 390.459L1158.53 391.513C1161.27 392.103 1163.3 393.037 1164.63 394.317C1165.97 395.597 1166.65 397.272 1166.66 399.342C1166.65 401.162 1166.12 402.768 1165.06 404.161C1164.02 405.541 1162.57 406.62 1160.71 407.398C1158.86 408.176 1156.72 408.565 1154.31 408.565C1150.78 408.565 1147.93 407.824 1145.77 406.344C1143.61 404.851 1142.33 402.774 1141.91 400.114L1148.56 399.474C1148.86 400.779 1149.5 401.764 1150.47 402.429C1151.45 403.094 1152.73 403.426 1154.3 403.426C1155.91 403.426 1157.21 403.094 1158.19 402.429C1159.18 401.764 1159.68 400.942 1159.68 399.963C1159.68 399.135 1159.36 398.451 1158.72 397.912C1158.09 397.372 1157.11 396.958 1155.78 396.67L1150.85 395.635C1148.08 395.057 1146.03 394.085 1144.7 392.717C1143.37 391.337 1142.71 389.593 1142.72 387.485C1142.71 385.703 1143.19 384.16 1144.17 382.855C1145.16 381.538 1146.54 380.521 1148.29 379.806C1150.06 379.078 1152.1 378.714 1154.41 378.714C1157.8 378.714 1160.46 379.436 1162.41 380.879C1164.36 382.322 1165.58 384.273 1166.04 386.732Z" fill="white"/>
<defs>
<linearGradient id="paint0_linear_76_756" x1="130" y1="14" x2="130" y2="314" gradientUnits="userSpaceOnUse">
<stop stop-color="#6DBECB"/>
<stop offset="1" stop-color="#406E75"/>
</linearGradient>
<linearGradient id="paint1_linear_76_756" x1="138" y1="14" x2="138" y2="314" gradientUnits="userSpaceOnUse">
<stop stop-color="#6DBECB"/>
<stop offset="1" stop-color="#406E75"/>
</linearGradient>
<linearGradient id="paint2_linear_76_756" x1="146" y1="14" x2="146" y2="314" gradientUnits="userSpaceOnUse">
<stop stop-color="#6DBECB"/>
<stop offset="1" stop-color="#406E75"/>
</linearGradient>
<linearGradient id="paint3_linear_76_756" x1="146" y1="27" x2="146" y2="302" gradientUnits="userSpaceOnUse">
<stop stop-color="#6DBECB"/>
<stop offset="1" stop-color="#406E75"/>
</linearGradient>
<linearGradient id="paint4_linear_76_756" x1="147" y1="27" x2="147" y2="302" gradientUnits="userSpaceOnUse">
<stop stop-color="#6DBECB"/>
<stop offset="1" stop-color="#406E75"/>
</linearGradient>
<linearGradient id="paint5_linear_76_756" x1="201.123" y1="205.28" x2="201.123" y2="255.907" gradientUnits="userSpaceOnUse">
<stop stop-color="white"/>
<stop offset="1" stop-color="#999999"/>
</linearGradient>
<linearGradient id="paint6_linear_76_756" x1="218.038" y1="255.781" x2="218.038" y2="306.408" gradientUnits="userSpaceOnUse">
<stop stop-color="white"/>
<stop offset="1" stop-color="#999999"/>
</linearGradient>
<linearGradient id="paint7_linear_76_756" x1="241.643" y1="230.529" x2="241.643" y2="264.937" gradientUnits="userSpaceOnUse">
<stop stop-color="white"/>
<stop offset="1" stop-color="#999999"/>
</linearGradient>
<linearGradient id="paint8_linear_76_756" x1="224.578" y1="199.311" x2="224.578" y2="223.311" gradientUnits="userSpaceOnUse">
<stop stop-color="white"/>
<stop offset="1" stop-color="#999999"/>
</linearGradient>
<linearGradient id="paint9_linear_76_756" x1="200.957" y1="294.344" x2="200.957" y2="324.532" gradientUnits="userSpaceOnUse">
<stop stop-color="white"/>
<stop offset="1" stop-color="#999999"/>
</linearGradient>
<linearGradient id="paint10_linear_76_756" x1="139.148" y1="205.28" x2="139.148" y2="255.907" gradientUnits="userSpaceOnUse">
<stop stop-color="white"/>
<stop offset="1" stop-color="#999999"/>
</linearGradient>
<linearGradient id="paint11_linear_76_756" x1="156.063" y1="255.781" x2="156.063" y2="306.408" gradientUnits="userSpaceOnUse">
<stop stop-color="white"/>
<stop offset="1" stop-color="#999999"/>
</linearGradient>
<linearGradient id="paint12_linear_76_756" x1="179.668" y1="230.529" x2="179.668" y2="264.937" gradientUnits="userSpaceOnUse">
<stop stop-color="white"/>
<stop offset="1" stop-color="#999999"/>
</linearGradient>
<linearGradient id="paint13_linear_76_756" x1="162.603" y1="199.311" x2="162.603" y2="223.311" gradientUnits="userSpaceOnUse">
<stop stop-color="white"/>
<stop offset="1" stop-color="#999999"/>
</linearGradient>
<linearGradient id="paint14_linear_76_756" x1="138.981" y1="294.344" x2="138.981" y2="324.532" gradientUnits="userSpaceOnUse">
<stop stop-color="white"/>
<stop offset="1" stop-color="#999999"/>
</linearGradient>
<linearGradient id="paint15_linear_76_756" x1="77.1727" y1="205.28" x2="77.1727" y2="255.907" gradientUnits="userSpaceOnUse">
<stop stop-color="white"/>
<stop offset="1" stop-color="#999999"/>
</linearGradient>
<linearGradient id="paint16_linear_76_756" x1="94.0873" y1="255.781" x2="94.0873" y2="306.408" gradientUnits="userSpaceOnUse">
<stop stop-color="white"/>
<stop offset="1" stop-color="#999999"/>
</linearGradient>
<linearGradient id="paint17_linear_76_756" x1="117.692" y1="230.529" x2="117.692" y2="264.937" gradientUnits="userSpaceOnUse">
<stop stop-color="white"/>
<stop offset="1" stop-color="#999999"/>
</linearGradient>
<linearGradient id="paint18_linear_76_756" x1="100.628" y1="199.311" x2="100.628" y2="223.311" gradientUnits="userSpaceOnUse">
<stop stop-color="white"/>
<stop offset="1" stop-color="#999999"/>
</linearGradient>
<linearGradient id="paint19_linear_76_756" x1="77.0062" y1="294.344" x2="77.0062" y2="324.532" gradientUnits="userSpaceOnUse">
<stop stop-color="white"/>
<stop offset="1" stop-color="#999999"/>
</linearGradient>
<linearGradient id="paint20_linear_76_756" x1="55.6322" y1="232.818" x2="55.6322" y2="267.225" gradientUnits="userSpaceOnUse">
<stop stop-color="white"/>
<stop offset="1" stop-color="#999999"/>
</linearGradient>
<linearGradient id="paint21_linear_76_756" x1="202.801" y1="72.7728" x2="202.801" y2="123.4" gradientUnits="userSpaceOnUse">
<stop stop-color="white"/>
<stop offset="1" stop-color="#999999"/>
</linearGradient>
<linearGradient id="paint22_linear_76_756" x1="219.715" y1="123.274" x2="219.715" y2="173.901" gradientUnits="userSpaceOnUse">
<stop stop-color="white"/>
<stop offset="1" stop-color="#999999"/>
</linearGradient>
<linearGradient id="paint23_linear_76_756" x1="239.562" y1="172.397" x2="239.562" y2="196.397" gradientUnits="userSpaceOnUse">
<stop stop-color="white"/>
<stop offset="1" stop-color="#999999"/>
</linearGradient>
<linearGradient id="paint24_linear_76_756" x1="226.255" y1="66.8044" x2="226.255" y2="90.8039" gradientUnits="userSpaceOnUse">
<stop stop-color="white"/>
<stop offset="1" stop-color="#999999"/>
</linearGradient>
<linearGradient id="paint25_linear_76_756" x1="202.634" y1="161.837" x2="202.634" y2="192.025" gradientUnits="userSpaceOnUse">
<stop stop-color="white"/>
<stop offset="1" stop-color="#999999"/>
</linearGradient>
<linearGradient id="paint26_linear_76_756" x1="140.825" y1="72.7728" x2="140.825" y2="123.4" gradientUnits="userSpaceOnUse">
<stop stop-color="white"/>
<stop offset="1" stop-color="#999999"/>
</linearGradient>
<linearGradient id="paint27_linear_76_756" x1="157.74" y1="123.274" x2="157.74" y2="173.901" gradientUnits="userSpaceOnUse">
<stop stop-color="white"/>
<stop offset="1" stop-color="#999999"/>
</linearGradient>
<linearGradient id="paint28_linear_76_756" x1="181.345" y1="98.0222" x2="181.345" y2="132.43" gradientUnits="userSpaceOnUse">
<stop stop-color="white"/>
<stop offset="1" stop-color="#999999"/>
</linearGradient>
<linearGradient id="paint29_linear_76_756" x1="177.586" y1="172.397" x2="177.586" y2="196.397" gradientUnits="userSpaceOnUse">
<stop stop-color="white"/>
<stop offset="1" stop-color="#999999"/>
</linearGradient>
<linearGradient id="paint30_linear_76_756" x1="164.28" y1="66.8044" x2="164.28" y2="90.8039" gradientUnits="userSpaceOnUse">
<stop stop-color="white"/>
<stop offset="1" stop-color="#999999"/>
</linearGradient>
<linearGradient id="paint31_linear_76_756" x1="140.659" y1="161.837" x2="140.659" y2="192.025" gradientUnits="userSpaceOnUse">
<stop stop-color="white"/>
<stop offset="1" stop-color="#999999"/>
</linearGradient>
<linearGradient id="paint32_linear_76_756" x1="78.85" y1="72.7728" x2="78.85" y2="123.4" gradientUnits="userSpaceOnUse">
<stop stop-color="white"/>
<stop offset="1" stop-color="#999999"/>
</linearGradient>
<linearGradient id="paint33_linear_76_756" x1="95.7647" y1="123.274" x2="95.7647" y2="173.901" gradientUnits="userSpaceOnUse">
<stop stop-color="white"/>
<stop offset="1" stop-color="#999999"/>
</linearGradient>
<linearGradient id="paint34_linear_76_756" x1="119.37" y1="98.0222" x2="119.37" y2="132.43" gradientUnits="userSpaceOnUse">
<stop stop-color="white"/>
<stop offset="1" stop-color="#999999"/>
</linearGradient>
<linearGradient id="paint35_linear_76_756" x1="115.611" y1="172.397" x2="115.611" y2="196.397" gradientUnits="userSpaceOnUse">
<stop stop-color="white"/>
<stop offset="1" stop-color="#999999"/>
</linearGradient>
<linearGradient id="paint36_linear_76_756" x1="102.305" y1="66.8044" x2="102.305" y2="90.8039" gradientUnits="userSpaceOnUse">
<stop stop-color="white"/>
<stop offset="1" stop-color="#999999"/>
</linearGradient>
<linearGradient id="paint37_linear_76_756" x1="78.6833" y1="161.837" x2="78.6833" y2="192.025" gradientUnits="userSpaceOnUse">
<stop stop-color="white"/>
<stop offset="1" stop-color="#999999"/>
</linearGradient>
<linearGradient id="paint38_linear_76_756" x1="57.3095" y1="100.311" x2="57.3095" y2="134.718" gradientUnits="userSpaceOnUse">
<stop stop-color="white"/>
<stop offset="1" stop-color="#999999"/>
</linearGradient>
<linearGradient id="paint39_linear_76_756" x1="218.038" y1="-7.06128" x2="218.038" y2="43.5658" gradientUnits="userSpaceOnUse">
<stop stop-color="white"/>
<stop offset="1" stop-color="#999999"/>
</linearGradient>
<linearGradient id="paint40_linear_76_756" x1="237.884" y1="42.0625" x2="237.884" y2="66.0619" gradientUnits="userSpaceOnUse">
<stop stop-color="white"/>
<stop offset="1" stop-color="#999999"/>
</linearGradient>
<linearGradient id="paint41_linear_76_756" x1="200.957" y1="31.5027" x2="200.957" y2="61.6907" gradientUnits="userSpaceOnUse">
<stop stop-color="white"/>
<stop offset="1" stop-color="#999999"/>
</linearGradient>
<linearGradient id="paint42_linear_76_756" x1="156.063" y1="-7.06128" x2="156.063" y2="43.5658" gradientUnits="userSpaceOnUse">
<stop stop-color="white"/>
<stop offset="1" stop-color="#999999"/>
</linearGradient>
<linearGradient id="paint43_linear_76_756" x1="175.909" y1="42.0625" x2="175.909" y2="66.0619" gradientUnits="userSpaceOnUse">
<stop stop-color="white"/>
<stop offset="1" stop-color="#999999"/>
</linearGradient>
<linearGradient id="paint44_linear_76_756" x1="138.981" y1="31.5027" x2="138.981" y2="61.6907" gradientUnits="userSpaceOnUse">
<stop stop-color="white"/>
<stop offset="1" stop-color="#999999"/>
</linearGradient>
<linearGradient id="paint45_linear_76_756" x1="94.0873" y1="-7.06128" x2="94.0873" y2="43.5658" gradientUnits="userSpaceOnUse">
<stop stop-color="white"/>
<stop offset="1" stop-color="#999999"/>
</linearGradient>
<linearGradient id="paint46_linear_76_756" x1="113.934" y1="42.0625" x2="113.934" y2="66.0619" gradientUnits="userSpaceOnUse">
<stop stop-color="white"/>
<stop offset="1" stop-color="#999999"/>
</linearGradient>
<linearGradient id="paint47_linear_76_756" x1="77.0062" y1="31.5027" x2="77.0062" y2="61.6907" gradientUnits="userSpaceOnUse">
<stop stop-color="white"/>
<stop offset="1" stop-color="#999999"/>
</linearGradient>
<linearGradient id="paint48_linear_76_756" x1="161.006" y1="90.6299" x2="161.006" y2="205.614" gradientUnits="userSpaceOnUse">
<stop stop-color="#5DA3AF"/>
<stop offset="1" stop-color="#6DBECB"/>
</linearGradient>
<linearGradient id="paint49_linear_76_756" x1="147.305" y1="134.351" x2="147.305" y2="201.39" gradientUnits="userSpaceOnUse">
<stop stop-color="#5DA3AF"/>
<stop offset="1" stop-color="#6DBECB"/>
</linearGradient>
<linearGradient id="paint50_linear_76_756" x1="130.35" y1="123.391" x2="130.35" y2="242.335" gradientUnits="userSpaceOnUse">
<stop stop-color="#5DA3AF"/>
<stop offset="1" stop-color="#6DBECB"/>
</linearGradient>
<linearGradient id="paint51_linear_76_756" x1="143.697" y1="127.611" x2="143.697" y2="194.653" gradientUnits="userSpaceOnUse">
<stop stop-color="#5DA3AF"/>
<stop offset="1" stop-color="#6DBECB"/>
</linearGradient>
<linearGradient id="paint52_linear_76_756" x1="602.528" y1="0.730957" x2="602.528" y2="300.731" gradientUnits="userSpaceOnUse">
<stop stop-color="#B1B3B3"/>
<stop offset="1" stop-color="#4C4D4D"/>
</linearGradient>
<linearGradient id="paint53_linear_76_756" x1="494.875" y1="191.136" x2="652.618" y2="217.917" gradientUnits="userSpaceOnUse">
<stop stop-color="#999999"/>
<stop offset="0.5" stop-color="white"/>
<stop offset="0.99" stop-color="#999999"/>
</linearGradient>
<linearGradient id="paint54_linear_76_756" x1="592.347" y1="37.788" x2="567.742" y2="182.714" gradientUnits="userSpaceOnUse">
<stop stop-color="#DADCDC"/>
<stop offset="1" stop-color="#808080"/>
</linearGradient>
<linearGradient id="paint55_linear_76_756" x1="527.01" y1="15.353" x2="527.01" y2="315.353" gradientUnits="userSpaceOnUse">
<stop stop-color="#B1B3B3"/>
<stop offset="1" stop-color="#4C4D4D"/>
</linearGradient>
<linearGradient id="paint56_linear_76_756" x1="451.335" y1="204.353" x2="611.335" y2="204.353" gradientUnits="userSpaceOnUse">
<stop stop-color="#999999"/>
<stop offset="0.5" stop-color="white"/>
<stop offset="0.99" stop-color="#999999"/>
</linearGradient>
<linearGradient id="paint57_linear_76_756" x1="529.01" y1="62.9337" x2="529.01" y2="168.107" gradientUnits="userSpaceOnUse">
<stop stop-color="#DADCDC"/>
<stop offset="1" stop-color="#808080"/>
</linearGradient>
<linearGradient id="paint58_linear_76_756" x1="460" y1="35.4583" x2="460" y2="335.458" gradientUnits="userSpaceOnUse">
<stop stop-color="#B1B3B3"/>
<stop offset="1" stop-color="#4C4D4D"/>
</linearGradient>
<linearGradient id="paint59_linear_76_756" x1="417.448" y1="217.151" x2="574.914" y2="188.785" gradientUnits="userSpaceOnUse">
<stop stop-color="#999999"/>
<stop offset="0.5" stop-color="white"/>
<stop offset="0.99" stop-color="#999999"/>
</linearGradient>
<linearGradient id="paint60_linear_76_756" x1="463.371" y1="60.0207" x2="482.917" y2="168.524" gradientUnits="userSpaceOnUse">
<stop stop-color="#DADCDC"/>
<stop offset="1" stop-color="#808080"/>
</linearGradient>
<linearGradient id="paint61_linear_76_756" x1="1004.96" y1="8.30798" x2="1004.96" y2="308.308" gradientUnits="userSpaceOnUse">
<stop stop-color="#3FD4A7"/>
<stop offset="1" stop-color="#1B5E4A"/>
</linearGradient>
<linearGradient id="paint62_linear_76_756" x1="894.492" y1="198.579" x2="1051.82" y2="227.693" gradientUnits="userSpaceOnUse">
<stop stop-color="#1B5E4A"/>
<stop offset="0.508" stop-color="#3FD4A7"/>
<stop offset="0.99" stop-color="#1B5E4A"/>
</linearGradient>
<linearGradient id="paint63_linear_76_756" x1="990.594" y1="148.637" x2="1004.47" y2="73.6294" gradientUnits="userSpaceOnUse">
<stop stop-color="#1B5E4A"/>
<stop offset="1" stop-color="#3FD4A7"/>
</linearGradient>
<linearGradient id="paint64_linear_76_756" x1="974.181" y1="183.833" x2="998.2" y2="54.0368" gradientUnits="userSpaceOnUse">
<stop stop-color="#1B5E4A"/>
<stop offset="1" stop-color="#3FD4A7"/>
</linearGradient>
<linearGradient id="paint65_linear_76_756" x1="891.412" y1="39.9901" x2="891.412" y2="339.99" gradientUnits="userSpaceOnUse">
<stop stop-color="#D57E3C"/>
<stop offset="1" stop-color="#673D1D"/>
</linearGradient>
<linearGradient id="paint66_linear_76_756" x1="842.741" y1="223.506" x2="1001.07" y2="200.431" gradientUnits="userSpaceOnUse">
<stop stop-color="#68321D"/>
<stop offset="0.508" stop-color="#D5673C"/>
<stop offset="0.99" stop-color="#68321D"/>
</linearGradient>
<linearGradient id="paint67_linear_76_756" x1="854.496" y1="84.2583" x2="856.97" y2="101.229" gradientUnits="userSpaceOnUse">
<stop stop-color="#D57E3C"/>
<stop offset="1" stop-color="#673D1D"/>
</linearGradient>
<linearGradient id="paint68_linear_76_756" x1="897.121" y1="71.9066" x2="912.169" y2="175.16" gradientUnits="userSpaceOnUse">
<stop stop-color="#D57E3C"/>
<stop offset="1" stop-color="#673D1D"/>
</linearGradient>
<clipPath id="clip0_76_756">
<rect width="132" height="132" fill="white" transform="translate(1039.08 195.843) rotate(-169.516)"/>
</clipPath>
<clipPath id="clip1_76_756">
<rect width="168" height="168" fill="white" transform="matrix(-0.989546 0.144219 0.144219 0.989546 975.652 28.2969)"/>
</clipPath>
</defs>
</svg>
