<svg width="80" height="89" viewBox="0 0 80 89" fill="none" xmlns="http://www.w3.org/2000/svg">
<path d="M39.9436 0.763916C38.6437 0.763916 37.3436 1.05521 36.3367 1.63779L4.18677 20.235C2.17256 21.4001 2.17256 23.2426 4.18677 24.4077L36.3367 43.0049C38.3509 44.1701 41.536 44.1701 43.55 43.0049L75.7 24.4077C77.7142 23.2428 77.7142 21.4001 75.7 20.2352L43.55 1.638C42.5429 1.055 41.2432 0.763916 39.9436 0.763916ZM39.7701 11.942C41.6671 11.9624 43.3728 12.397 44.8867 13.2452C45.9222 13.8257 46.6005 14.4876 46.9211 15.2316C47.2311 15.9698 47.2494 16.9428 46.9758 18.1498L46.6391 19.3508C46.416 20.2101 46.3697 20.8283 46.5001 21.205C46.6201 21.5763 46.9175 21.8949 47.393 22.1614L48.1065 22.5609L41.1115 26.4798L40.3342 26.0448C39.4675 25.5594 38.9148 25.0109 38.6751 24.3989C38.425 23.7812 38.4667 22.7987 38.8001 21.4513L39.1208 20.2415C39.3075 19.521 39.3256 18.9302 39.1756 18.4697C39.0381 18.0017 38.7264 17.6314 38.2402 17.3591C37.5004 16.9445 36.6141 16.7959 35.582 16.9123C34.5389 17.023 33.4621 17.3896 32.3513 18.012C31.3048 18.5981 30.3545 19.332 29.4994 20.2135C28.6339 21.0895 27.8914 22.0917 27.2712 23.2207L22.2935 20.4315C23.4128 19.3076 24.5125 18.3247 25.5929 17.4822C26.6734 16.6403 27.8142 15.8826 29.0155 15.2091C32.1675 13.4433 35.0988 12.393 37.809 12.059C38.4842 11.974 39.1381 11.9348 39.7706 11.9418L39.7701 11.942ZM50.453 23.8757L56.0968 27.0378L49.1018 30.9567L43.4578 27.7948L50.453 23.8757ZM2.03997 27.9306C0.829131 27.898 0.00598145 28.8432 0.00598145 30.5152V63.7055C0.00598145 66.0316 1.59924 68.7911 3.61344 69.9544L34.5379 87.8124C36.5521 88.9754 38.1453 88.0557 38.1453 85.7298V52.5388C38.1453 50.2127 36.5521 47.4538 34.5379 46.2903L3.61344 28.4326C3.04728 28.1053 2.51374 27.9428 2.03997 27.9302V27.9306ZM77.972 27.931C77.4984 27.9436 76.9653 28.1057 76.3989 28.433L45.4735 46.2908C43.4593 47.454 41.866 50.2135 41.866 52.5396V85.7308C41.866 88.0565 43.4593 88.9758 45.4735 87.8124L76.3991 69.9552C78.4133 68.7919 80.006 66.0329 80.006 63.7068V30.5156C80.006 28.844 79.183 27.899 77.972 27.9314V27.931ZM10.2963 41.3489C11.6755 41.6364 12.9352 41.9883 14.0751 42.404C15.2148 42.8199 16.3151 43.3337 17.3753 43.9457C20.1562 45.5516 22.2763 47.3814 23.7353 49.4352C25.1942 51.4768 25.9237 53.6543 25.9237 55.9682C25.9237 57.1552 25.7017 58.0927 25.257 58.7809C24.8124 59.4569 24.0543 60.0248 22.983 60.4845L21.8886 60.8886C21.1136 61.1921 20.6062 61.5048 20.3669 61.8273C20.1276 62.1371 20.008 62.5643 20.008 63.1094V63.9271L13.836 60.3632V59.4729C13.836 58.4795 14.0237 57.71 14.4 57.1641C14.7762 56.6059 15.5686 56.0823 16.7767 55.5925L17.8711 55.1703C18.5208 54.9156 18.9938 54.5953 19.2901 54.2091C19.5974 53.8296 19.7515 53.3613 19.7515 52.804C19.7515 51.9564 19.4779 51.1381 18.9306 50.3499C18.3834 49.5493 17.62 48.8661 16.6397 48.2999C15.7163 47.767 14.7189 47.397 13.6474 47.1903C12.5761 46.9714 11.4589 46.9264 10.2963 47.0546V41.3489ZM67.0265 43.1604C67.3468 43.1604 67.6436 43.1952 67.9172 43.2642C69.3762 43.6212 70.1057 44.9564 70.1057 47.2703C70.1057 48.4573 69.8834 49.6516 69.4389 50.8531C68.9944 52.0423 68.2363 53.4855 67.165 55.1821L66.0705 56.8498C65.2956 58.0485 64.7881 58.9468 64.5488 59.5453C64.3095 60.1315 64.19 60.6972 64.19 61.2424V62.06L58.0179 65.6237V64.7334C58.0179 63.74 58.2061 62.7529 58.582 61.7727C58.9587 60.7804 59.7505 59.3418 60.9586 57.4573L62.0531 55.7714C62.7028 54.7662 63.1757 53.8995 63.4721 53.1712C63.7793 52.4363 63.9334 51.7901 63.9334 51.2328C63.9334 50.385 63.6598 49.8829 63.113 49.7263C62.5658 49.5579 61.8018 49.7562 60.8216 50.3219C59.8983 50.855 58.9013 51.6373 57.8298 52.6676C56.7585 53.6863 55.6413 54.9306 54.4787 56.4013V50.6955C55.8579 49.3906 57.1171 48.2877 58.2566 47.3873C59.3967 46.4869 60.4971 45.7309 61.5568 45.1191C63.8168 43.8142 65.6399 43.1613 67.0269 43.1602L67.0265 43.1604ZM13.8358 63.053L20.008 66.6163V73.0853L13.836 69.5221V63.0533L13.8358 63.053ZM64.19 64.7494V71.2182L58.0179 74.7815V68.3131L64.19 64.7494Z" fill="url(#paint0_linear_87_1142)"/>
<defs>
<linearGradient id="paint0_linear_87_1142" x1="40.006" y1="0.763916" x2="40.006" y2="88.3156" gradientUnits="userSpaceOnUse">
<stop stop-color="#3FD4CD"/>
<stop offset="1" stop-color="#216E6A"/>
</linearGradient>
</defs>
</svg>
