<svg width="769" height="752" viewBox="0 0 769 752" fill="none" xmlns="http://www.w3.org/2000/svg">
<path d="M403.5 11.5625C395.506 11.5625 388.866 17.1631 386.879 24.5703C384.846 23.7347 382.701 23.125 380.375 23.125C370.868 23.125 363.031 30.9613 363.031 40.4688V102.617L357.973 97.5586C351.243 90.8289 340.132 90.8289 333.402 97.5586C326.673 104.288 326.673 115.399 333.402 122.129L372.606 161.333C379.404 168.108 388.798 173.438 399.887 173.438H426.625C448.914 173.438 467.094 155.258 467.094 132.969V63.5938C467.094 54.0863 459.257 46.25 449.75 46.25C447.718 46.25 445.798 46.6791 443.969 47.334V40.4688C443.969 30.9613 436.132 23.125 426.625 23.125C424.299 23.125 422.154 23.7347 420.121 24.5703C418.134 17.1631 411.494 11.5625 403.5 11.5625ZM403.5 23.125C406.775 23.125 409.281 25.6317 409.281 28.9062V86.7188H420.844V40.4688C420.844 37.1942 423.35 34.6875 426.625 34.6875C429.9 34.6875 432.406 37.1942 432.406 40.4688V86.7188H443.969V63.5938C443.969 60.3192 446.475 57.8125 449.75 57.8125C453.025 57.8125 455.531 60.3192 455.531 63.5938V132.969C455.531 149.003 442.659 161.875 426.625 161.875H399.887C392.525 161.875 386.201 158.284 380.917 153.022L341.532 113.999C339.229 111.696 339.229 107.992 341.532 105.688C343.836 103.385 347.539 103.385 349.843 105.688L364.657 120.684L374.594 130.62V40.4688C374.594 37.1942 377.1 34.6875 380.375 34.6875C383.65 34.6875 386.156 37.1942 386.156 40.4688V86.7188H397.719V28.9062C397.719 25.6317 400.225 23.125 403.5 23.125Z" fill="url(#paint0_linear_79_758)"/>
<path d="M60.9424 445.288C56.1548 445.198 52.1802 446.191 49.7412 446.914C49.6735 446.914 49.6283 446.914 49.5605 446.914L35.1074 451.431C18.1476 456.647 6.5625 472.365 6.5625 490.093V520.625C6.5625 542.914 24.7418 561.094 47.0312 561.094H104.302C111.348 561.252 118.168 557.119 120.923 550.254C122.662 545.895 122.413 541.311 120.742 537.246C124.288 535.372 127.291 532.345 128.872 528.393C130.679 523.854 130.385 519.022 128.511 514.844H151.094C160.601 514.844 168.438 507.007 168.438 497.5C168.438 487.992 160.601 480.156 151.094 480.156H142.241L144.59 479.433C153.691 476.678 158.907 466.855 156.152 457.754C153.397 448.653 143.574 443.436 134.473 446.191L85.6934 461.186C85.2643 460.102 84.7675 458.928 84.0674 457.754C81.1768 452.921 75.3278 447.456 66.001 445.83C64.2621 445.536 62.5458 445.311 60.9424 445.288ZM140.254 457.031C142.512 457.28 144.432 458.838 145.132 461.186C146.08 464.303 144.274 467.464 141.157 468.413L101.592 480.337L103.579 486.841V491.719H151.094C154.368 491.719 156.875 494.225 156.875 497.5C156.875 500.774 154.368 503.281 151.094 503.281H112.974L97.7979 497.319C95.6073 496.438 93.349 496.009 91.1133 496.055L88.042 472.388L137.905 457.212C138.696 456.963 139.509 456.941 140.254 457.031ZM60.7617 457.212C61.8683 457.212 63.02 457.212 64.0137 457.392C70.224 458.476 72.6178 461.186 74.1309 463.716C75.6439 466.245 75.7568 468.052 75.7568 468.052C75.7568 468.165 75.7568 468.3 75.7568 468.413L80.6348 505.63C80.6799 505.81 80.7477 505.991 80.8154 506.172C81.5381 509.22 79.7089 512.134 76.6602 512.856C74.7858 513.308 73.8373 513.06 72.8662 512.495C71.8951 511.93 70.6982 510.734 69.7949 508.159L62.5684 480.156C62.1167 478.44 60.8972 477.04 59.2938 476.34C57.6678 475.64 55.816 475.707 54.2578 476.543L44.6826 481.782C41.8823 483.318 40.8661 486.841 42.4243 489.641C43.96 492.441 47.4829 493.458 50.2832 491.899L53.1738 490.273L58.7744 511.592C58.8196 511.772 58.8873 511.953 58.9551 512.134C60.5133 516.605 63.1781 520.196 66.9043 522.432C69.953 524.261 73.4985 524.961 77.0215 524.6C75.1923 526.293 73.6792 528.461 72.6855 530.923C70.0433 537.54 71.7145 544.811 76.4795 549.531H47.0312C30.9973 549.531 18.125 536.659 18.125 520.625V490.093C18.125 477.378 26.3904 466.2 38.54 462.451L52.9932 458.115C54.1675 457.754 57.4646 457.212 60.7617 457.212ZM92.1973 507.798C92.6263 507.865 93.0328 507.798 93.4619 507.978L114.961 516.65C117.987 517.87 119.432 521.031 118.213 524.058C116.993 527.084 113.651 528.529 110.625 527.309L89.126 518.818C88.8098 518.705 88.6743 518.434 88.4033 518.276C90.6842 515.34 92.1521 511.637 92.1973 507.798ZM88.584 531.645C89.3518 531.645 90.1648 531.713 90.9326 532.007L98.7012 535.078L106.289 538.149L107.012 538.33C110.038 539.549 111.483 542.892 110.264 545.918C109.383 548.131 107.418 549.418 105.205 549.531C105.137 549.531 105.092 549.531 105.024 549.531C104.257 549.554 103.444 549.463 102.676 549.17L86.5967 542.666C83.5706 541.446 82.1252 538.104 83.3447 535.078C83.9545 533.565 85.061 532.594 86.416 532.007C87.0935 531.713 87.8162 531.645 88.584 531.645Z" fill="url(#paint1_linear_79_758)"/>
<path d="M670.719 488.5C664.576 488.5 659.179 491.734 656.085 496.586C653.556 495.148 650.688 494.25 647.594 494.25C638.086 494.25 630.25 502.044 630.25 511.5V532.523L618.146 547.977C610.761 557.478 611.258 571.111 619.229 580.141L632.96 595.594C640.638 604.286 651.681 609.25 663.312 609.25H693.844C716.133 609.25 734.312 591.169 734.312 569V517.25C734.312 507.794 726.476 500 716.969 500C713.875 500 711.007 500.898 708.478 502.336C705.384 497.484 699.986 494.25 693.844 494.25C690.75 494.25 687.882 495.148 685.353 496.586C682.259 491.734 676.861 488.5 670.719 488.5ZM670.719 500C673.993 500 676.5 502.493 676.5 505.75V523H688.062V511.5C688.062 508.243 690.569 505.75 693.844 505.75C697.118 505.75 699.625 508.243 699.625 511.5V523H711.187V517.25C711.187 513.993 713.694 511.5 716.969 511.5C720.243 511.5 722.75 513.993 722.75 517.25V569C722.75 584.947 709.878 597.75 693.844 597.75H663.312C655.001 597.75 647.12 594.269 641.632 588.047L627.901 572.414C623.543 567.473 623.317 560.375 627.359 555.164L630.25 551.391V557.5H641.812V511.5C641.812 508.243 644.319 505.75 647.594 505.75C650.868 505.75 653.375 508.243 653.375 511.5V523H664.937V505.75C664.937 502.493 667.444 500 670.719 500Z" fill="url(#paint2_linear_79_758)"/>
<path d="M142.845 225.049L145.939 227.584L142.845 225.049ZM281.267 146.384C282.506 144.555 282.028 142.068 280.199 140.829L250.394 120.639C248.565 119.4 246.077 119.878 244.838 121.707C243.599 123.536 244.078 126.023 245.907 127.262L272.4 145.209L254.453 171.703C253.214 173.532 253.692 176.019 255.521 177.258C257.35 178.497 259.837 178.018 261.076 176.189L281.267 146.384ZM88.6444 371.941C92.6442 371.979 92.6442 371.98 92.6442 371.981C92.6442 371.981 92.6442 371.981 92.6442 371.981C92.6442 371.98 92.6442 371.978 92.6443 371.975C92.6443 371.968 92.6445 371.957 92.6447 371.94C92.6452 371.908 92.6461 371.855 92.6475 371.784C92.6503 371.642 92.6554 371.423 92.6644 371.13C92.6823 370.545 92.7156 369.665 92.7768 368.516C92.8992 366.217 93.1335 362.84 93.5799 358.574C94.4731 350.04 96.2141 337.967 99.6029 323.879C106.387 295.675 119.734 259.57 145.939 227.584L139.751 222.514C112.541 255.726 98.7867 293.066 91.8247 322.008C88.3403 336.494 86.5466 348.92 85.6234 357.741C85.1616 362.153 84.9172 365.667 84.7881 368.091C84.7235 369.302 84.6878 370.242 84.6681 370.885C84.6583 371.207 84.6525 371.455 84.6491 371.625C84.6474 371.71 84.6463 371.776 84.6456 371.823C84.6453 371.846 84.645 371.864 84.6449 371.877C84.6448 371.884 84.6447 371.89 84.6447 371.894C84.6446 371.896 84.6446 371.898 84.6446 371.899C84.6446 371.901 84.6446 371.903 88.6444 371.941ZM145.939 227.584C172.125 195.623 205.31 175.72 232.059 163.799C245.419 157.846 257.128 153.903 265.482 151.453C269.657 150.228 272.99 149.377 275.267 148.835C276.406 148.563 277.28 148.369 277.863 148.245C278.154 148.182 278.373 148.137 278.515 148.108C278.586 148.094 278.639 148.083 278.671 148.077C278.688 148.073 278.699 148.071 278.706 148.07C278.709 148.069 278.711 148.069 278.712 148.069C278.712 148.069 278.712 148.069 278.712 148.069C278.711 148.069 278.711 148.069 277.955 144.141C277.2 140.213 277.198 140.213 277.196 140.214C277.195 140.214 277.193 140.214 277.191 140.215C277.187 140.215 277.182 140.216 277.175 140.218C277.162 140.22 277.143 140.224 277.12 140.228C277.074 140.238 277.008 140.251 276.923 140.268C276.753 140.303 276.507 140.354 276.187 140.422C275.547 140.559 274.614 140.766 273.414 141.052C271.014 141.624 267.548 142.509 263.23 143.776C254.597 146.309 242.544 150.369 228.803 156.492C201.351 168.726 166.981 189.277 139.751 222.514L145.939 227.584Z" fill="url(#paint3_linear_79_758)"/>
<path d="M648.124 250.525L651.679 248.692L648.124 250.525ZM665.371 408.801C666.558 410.664 669.03 411.213 670.894 410.026L701.257 390.686C703.121 389.499 703.669 387.026 702.482 385.163C701.295 383.3 698.823 382.751 696.96 383.938L669.97 401.129L652.778 374.139C651.592 372.276 649.119 371.728 647.256 372.915C645.392 374.101 644.844 376.574 646.031 378.437L665.371 408.801ZM534.82 142.464C533.197 146.119 533.196 146.119 533.195 146.119C533.196 146.119 533.195 146.119 533.196 146.119C533.196 146.119 533.198 146.12 533.201 146.121C533.207 146.124 533.218 146.129 533.233 146.135C533.262 146.149 533.31 146.17 533.375 146.2C533.505 146.259 533.704 146.351 533.969 146.475C534.499 146.724 535.292 147.104 536.323 147.616C538.384 148.641 541.391 150.197 545.129 152.3C552.608 156.508 562.997 162.899 574.582 171.602C597.775 189.025 625.615 215.608 644.569 252.359L651.679 248.692C631.998 210.533 603.187 183.085 579.387 165.205C567.475 156.257 556.782 149.677 549.052 145.328C545.186 143.153 542.058 141.533 539.885 140.453C538.798 139.912 537.95 139.507 537.368 139.233C537.076 139.096 536.851 138.993 536.696 138.922C536.619 138.887 536.558 138.859 536.516 138.84C536.495 138.831 536.478 138.823 536.466 138.818C536.46 138.815 536.455 138.813 536.451 138.811C536.449 138.81 536.447 138.81 536.446 138.809C536.445 138.808 536.443 138.808 534.82 142.464ZM644.569 252.359C663.508 289.081 668.6 327.44 668.922 356.724C669.083 371.349 668.053 383.661 666.986 392.301C666.452 396.62 665.91 400.017 665.504 402.322C665.301 403.474 665.132 404.354 665.015 404.938C664.957 405.23 664.911 405.449 664.881 405.591C664.866 405.662 664.855 405.714 664.848 405.747C664.845 405.763 664.842 405.775 664.841 405.781C664.84 405.784 664.84 405.786 664.839 405.787C664.839 405.788 664.839 405.787 664.839 405.788C664.839 405.787 664.84 405.786 668.745 406.652C672.65 407.518 672.65 407.517 672.651 407.515C672.651 407.514 672.651 407.512 672.652 407.51C672.653 407.505 672.654 407.5 672.655 407.493C672.658 407.48 672.662 407.462 672.667 407.439C672.677 407.393 672.691 407.327 672.709 407.243C672.745 407.073 672.796 406.826 672.86 406.505C672.988 405.864 673.169 404.925 673.383 403.71C673.811 401.281 674.374 397.748 674.925 393.282C676.028 384.353 677.087 371.679 676.922 356.636C676.591 326.583 671.373 286.879 651.679 248.692L644.569 252.359Z" fill="url(#paint4_linear_79_758)"/>
<path d="M400.496 712.857L400.425 708.858L400.496 712.857ZM146.715 616.166C144.506 616.199 142.741 618.016 142.774 620.224L143.304 656.221C143.336 658.429 145.153 660.194 147.362 660.161C149.571 660.129 151.335 658.312 151.303 656.103L150.832 624.106L182.828 623.635C185.037 623.603 186.802 621.786 186.769 619.577C186.737 617.368 184.92 615.604 182.711 615.636L146.715 616.166ZM625.941 632.734C622.975 630.05 622.976 630.048 622.977 630.047C622.977 630.047 622.978 630.047 622.978 630.047C622.977 630.047 622.976 630.048 622.974 630.051C622.969 630.056 622.96 630.066 622.947 630.08C622.92 630.109 622.877 630.156 622.816 630.221C622.695 630.35 622.505 630.55 622.247 630.817C621.729 631.35 620.936 632.147 619.864 633.172C617.719 635.222 614.458 638.182 610.05 641.758C601.234 648.909 587.836 658.518 569.617 668.228C533.197 687.639 477.452 707.487 400.425 708.858L400.567 716.857C478.954 715.461 535.932 695.247 573.38 675.288C592.095 665.313 605.918 655.411 615.09 647.971C619.676 644.251 623.1 641.146 625.392 638.955C626.538 637.859 627.401 636.992 627.986 636.39C628.278 636.089 628.5 635.855 628.654 635.691C628.73 635.61 628.789 635.546 628.831 635.5C628.852 635.477 628.869 635.459 628.882 635.445C628.888 635.439 628.893 635.433 628.897 635.428C628.899 635.426 628.901 635.424 628.902 635.423C628.904 635.42 628.906 635.419 625.941 632.734ZM400.425 708.858C323.567 710.226 260.81 687.307 217.24 664.021C195.459 652.379 178.495 640.657 166.993 631.86C161.243 627.463 156.861 623.799 153.928 621.245C152.461 619.968 151.357 618.969 150.626 618.295C150.26 617.958 149.988 617.703 149.81 617.534C149.721 617.45 149.655 617.387 149.613 617.347C149.593 617.327 149.578 617.313 149.569 617.304C149.564 617.3 149.561 617.297 149.56 617.296C149.559 617.295 149.559 617.295 149.559 617.295C149.559 617.295 149.56 617.296 146.773 620.166C143.987 623.035 143.988 623.037 143.99 623.039C143.991 623.04 143.994 623.042 143.996 623.044C144 623.048 144.006 623.054 144.014 623.062C144.029 623.076 144.05 623.096 144.077 623.122C144.131 623.174 144.209 623.248 144.311 623.345C144.514 623.537 144.813 623.817 145.205 624.179C145.989 624.901 147.149 625.951 148.675 627.279C151.725 629.935 156.238 633.707 162.133 638.215C173.92 647.23 191.247 659.199 213.469 671.077C257.908 694.827 322.012 718.255 400.567 716.857L400.425 708.858Z" fill="url(#paint5_linear_79_758)"/>
<path d="M83.4615 276.358L61.877 260.289L68.0283 252.026C69.1896 250.467 70.4005 249.353 71.6613 248.687C72.9203 248.008 74.1622 247.726 75.3872 247.84C76.6174 247.948 77.7665 248.399 78.8345 249.195C79.7128 249.848 80.3391 250.577 80.7133 251.38C81.0806 252.177 81.2455 253.004 81.2083 253.861C81.1711 254.718 80.9752 255.56 80.6208 256.389L80.8316 256.545C81.4439 255.811 82.2258 255.252 83.1775 254.868C84.1274 254.473 85.1562 254.338 86.2638 254.463C87.3715 254.589 88.4733 255.06 89.5694 255.876C90.6866 256.708 91.49 257.726 91.9795 258.931C92.4621 260.131 92.5544 261.467 92.2565 262.938C91.9587 264.409 91.1952 265.97 89.9659 267.621L83.4615 276.358ZM83.1052 270.016L86.2358 265.81C87.2924 264.391 87.783 263.167 87.7075 262.139C87.6302 261.099 87.163 260.26 86.3058 259.622C85.6664 259.146 84.9726 258.875 84.2243 258.809C83.469 258.738 82.7267 258.885 81.9974 259.248C81.2611 259.606 80.5922 260.189 79.9907 260.997L76.7816 265.308L83.1052 270.016ZM73.9676 263.213L76.8472 259.345C77.3493 258.671 77.6788 257.971 77.8357 257.247C77.9855 256.518 77.9471 255.829 77.7206 255.18C77.4922 254.518 77.0619 253.952 76.4295 253.481C75.5934 252.859 74.6851 252.641 73.7047 252.829C72.7296 253.009 71.8131 253.675 70.9552 254.828L68.0129 258.78L73.9676 263.213ZM103.509 250.09C102.3 251.713 100.92 252.863 99.3663 253.542C97.8112 254.208 96.1765 254.394 94.4621 254.1C92.7407 253.802 91.0333 253.022 89.34 251.761C87.6748 250.522 86.4487 249.118 85.6618 247.549C84.873 245.968 84.5537 244.343 84.7037 242.675C84.8466 241.001 85.4935 239.392 86.6442 237.846C87.387 236.848 88.2495 236.027 89.2318 235.382C90.2123 234.725 91.29 234.305 92.4648 234.12C93.6449 233.928 94.8979 234.02 96.2237 234.396C97.5424 234.766 98.9114 235.479 100.331 236.536L101.501 237.407L91.6223 250.676L89.0508 248.761L96.2064 239.15C95.4704 238.613 94.7028 238.287 93.9035 238.172C93.0972 238.053 92.3224 238.147 91.5789 238.456C90.8407 238.759 90.1996 239.275 89.6556 240.006C89.075 240.786 88.7547 241.612 88.6947 242.485C88.6277 243.352 88.7769 244.179 89.1424 244.964C89.506 245.737 90.0471 246.396 90.7655 246.942L93.0104 248.613C93.9519 249.314 94.8881 249.744 95.8189 249.902C96.7427 250.054 97.6139 249.955 98.4326 249.603C99.2442 249.246 99.9586 248.653 100.576 247.824C100.989 247.269 101.286 246.709 101.466 246.145C101.639 245.575 101.694 245.009 101.631 244.449C101.567 243.889 101.37 243.354 101.039 242.846L104.092 239.581C104.866 240.507 105.369 241.548 105.6 242.703C105.831 243.846 105.775 245.05 105.435 246.314C105.087 247.574 104.445 248.832 103.509 250.09ZM114.749 235.013C113.985 236.039 113.115 236.827 112.137 237.377C111.158 237.915 110.129 238.153 109.05 238.092C107.975 238.024 106.908 237.595 105.847 236.805C104.933 236.125 104.304 235.394 103.958 234.613C103.611 233.831 103.476 233.015 103.552 232.165C103.628 231.315 103.846 230.457 104.208 229.59C104.567 228.711 104.998 227.847 105.499 226.997C106.107 225.975 106.592 225.14 106.954 224.493C107.309 223.84 107.502 223.317 107.532 222.924C107.56 222.52 107.392 222.181 107.026 221.909L106.963 221.862C106.169 221.271 105.379 221.049 104.593 221.195C103.807 221.342 103.084 221.857 102.425 222.743C101.73 223.677 101.382 224.57 101.381 225.422C101.386 226.266 101.595 226.99 102.009 227.593L98.8511 230.778C98.0767 229.765 97.5999 228.689 97.4206 227.551C97.2344 226.408 97.324 225.246 97.6894 224.066C98.0478 222.88 98.6481 221.722 99.4903 220.59C100.071 219.811 100.74 219.102 101.498 218.465C102.256 217.828 103.084 217.347 103.982 217.022C104.872 216.691 105.82 216.599 106.824 216.746C107.834 216.886 108.876 217.356 109.951 218.157L120.785 226.222L118.055 229.89L115.831 228.235L115.737 228.361C116.014 228.928 116.192 229.568 116.272 230.283C116.35 230.985 116.273 231.741 116.041 232.551C115.807 233.349 115.377 234.17 114.749 235.013ZM112.683 231.935C113.253 231.169 113.596 230.393 113.713 229.606C113.822 228.814 113.736 228.078 113.455 227.4C113.18 226.714 112.743 226.149 112.146 225.704L110.238 224.284C110.248 224.476 110.187 224.748 110.057 225.099C109.932 225.443 109.771 225.814 109.572 226.212C109.374 226.611 109.171 227 108.964 227.381C108.757 227.762 108.577 228.092 108.424 228.371C108.077 228.998 107.825 229.602 107.665 230.182C107.506 230.762 107.488 231.3 107.611 231.796C107.726 232.286 108.03 232.714 108.522 233.08C109.225 233.603 109.946 233.742 110.686 233.495C111.426 233.249 112.092 232.729 112.683 231.935ZM113.471 202.251L116.422 204.448L109.494 213.754L106.543 211.557L113.471 202.251ZM104.375 206.372L107.215 202.557L122.413 213.871C122.926 214.253 123.377 214.468 123.766 214.518C124.153 214.555 124.493 214.48 124.785 214.294C125.077 214.107 125.34 213.855 125.576 213.539C125.753 213.3 125.898 213.069 126.009 212.847C126.126 212.617 126.209 212.438 126.26 212.312L129.721 213.89C129.64 214.146 129.5 214.495 129.302 214.937C129.109 215.372 128.818 215.866 128.429 216.417C127.746 217.394 126.961 218.147 126.075 218.677C125.181 219.203 124.23 219.439 123.221 219.387C122.217 219.327 121.211 218.917 120.205 218.157L104.375 206.372ZM129.478 189.683L127.268 193.443C126.844 193.28 126.385 193.206 125.893 193.222C125.406 193.231 124.916 193.368 124.423 193.635C123.93 193.901 123.463 194.329 123.024 194.919C122.433 195.713 122.108 196.509 122.05 197.306C121.997 198.097 122.247 198.692 122.8 199.093C123.265 199.451 123.776 199.564 124.333 199.432C124.895 199.293 125.577 198.884 126.378 198.203L129.024 195.881C130.495 194.595 131.866 193.846 133.137 193.635C134.413 193.417 135.634 193.736 136.798 194.592C137.812 195.357 138.489 196.325 138.829 197.496C139.168 198.655 139.168 199.916 138.83 201.28C138.491 202.645 137.82 204.001 136.815 205.35C135.34 207.332 133.738 208.618 132.01 209.209C130.274 209.795 128.575 209.65 126.913 208.773L129.324 204.786C130.18 205.161 130.999 205.213 131.779 204.942C132.559 204.672 133.276 204.097 133.93 203.219C134.605 202.312 134.96 201.447 134.996 200.621C135.037 199.789 134.783 199.169 134.235 198.761C133.771 198.416 133.255 198.31 132.686 198.443C132.122 198.57 131.483 198.945 130.767 199.569L128.131 201.899C126.652 203.211 125.252 203.955 123.932 204.129C122.605 204.299 121.353 203.941 120.178 203.055C119.175 202.319 118.512 201.405 118.19 200.313C117.865 199.209 117.869 198.016 118.201 196.734C118.531 195.44 119.177 194.146 120.139 192.854C121.552 190.957 123.067 189.764 124.686 189.277C126.31 188.782 127.907 188.917 129.478 189.683Z" fill="url(#paint6_linear_79_758)"/>
<path d="M533.457 345.26L548.591 323.01L557.109 328.803C558.717 329.897 559.881 331.059 560.6 332.29C561.332 333.519 561.667 334.748 561.605 335.977C561.55 337.21 561.148 338.378 560.399 339.479C559.783 340.384 559.082 341.041 558.296 341.449C557.515 341.85 556.695 342.05 555.838 342.049C554.98 342.049 554.13 341.889 553.288 341.57L553.14 341.787C553.9 342.368 554.492 343.125 554.915 344.06C555.351 344.992 555.53 346.014 555.452 347.126C555.373 348.238 554.95 349.359 554.181 350.489C553.398 351.64 552.415 352.486 551.232 353.027C550.053 353.56 548.723 353.709 547.241 353.475C545.758 353.24 544.166 352.543 542.464 351.386L533.457 345.26ZM539.779 344.633L544.114 347.582C545.577 348.577 546.82 349.015 547.844 348.896C548.88 348.774 549.699 348.271 550.3 347.388C550.748 346.729 550.989 346.024 551.023 345.273C551.062 344.516 550.884 343.78 550.489 343.067C550.1 342.347 549.489 341.704 548.656 341.137L544.213 338.115L539.779 344.633ZM546.186 335.214L550.173 337.926C550.868 338.399 551.581 338.698 552.311 338.824C553.046 338.943 553.733 338.875 554.372 338.621C555.023 338.365 555.57 337.91 556.014 337.259C556.6 336.397 556.778 335.48 556.549 334.508C556.327 333.542 555.623 332.655 554.435 331.847L550.361 329.076L546.186 335.214ZM560.557 364.168C558.884 363.031 557.675 361.7 556.931 360.177C556.2 358.652 555.944 357.027 556.164 355.301C556.389 353.569 557.095 351.829 558.282 350.084C559.45 348.367 560.801 347.083 562.334 346.229C563.88 345.374 565.49 344.986 567.163 345.064C568.841 345.136 570.477 345.713 572.07 346.797C573.099 347.497 573.956 348.323 574.642 349.277C575.34 350.229 575.806 351.288 576.041 352.454C576.283 353.624 576.244 354.88 575.926 356.221C575.612 357.554 574.958 358.952 573.963 360.415L573.142 361.621L559.464 352.318L561.267 349.667L571.176 356.406C571.681 355.648 571.973 354.867 572.054 354.064C572.139 353.253 572.011 352.483 571.671 351.753C571.337 351.029 570.794 350.41 570.041 349.898C569.237 349.351 568.398 349.066 567.523 349.044C566.654 349.014 565.834 349.198 565.065 349.597C564.308 349.993 563.673 350.562 563.158 351.303L561.584 353.617C560.924 354.587 560.535 355.541 560.417 356.478C560.304 357.407 560.44 358.273 560.826 359.076C561.217 359.872 561.84 360.56 562.695 361.142C563.267 361.531 563.839 361.803 564.411 361.959C564.988 362.108 565.555 362.139 566.112 362.052C566.669 361.965 567.195 361.745 567.689 361.392L571.08 364.303C570.188 365.116 569.17 365.662 568.026 365.943C566.893 366.222 565.688 366.218 564.411 365.932C563.138 365.638 561.853 365.05 560.557 364.168ZM576.099 374.756C575.042 374.036 574.217 373.2 573.626 372.247C573.047 371.292 572.765 370.274 572.78 369.193C572.802 368.117 573.185 367.032 573.929 365.938C574.569 364.996 575.273 364.336 576.039 363.957C576.805 363.578 577.615 363.408 578.467 363.447C579.32 363.487 580.186 363.669 581.068 363.993C581.961 364.314 582.843 364.708 583.714 365.172C584.76 365.736 585.615 366.185 586.278 366.519C586.945 366.846 587.476 367.016 587.869 367.03C588.275 367.041 588.606 366.858 588.862 366.481L588.906 366.416C589.463 365.598 589.651 364.799 589.471 364.02C589.291 363.241 588.745 362.541 587.833 361.92C586.869 361.265 585.962 360.955 585.112 360.991C584.268 361.032 583.554 361.272 582.969 361.711L579.652 358.692C580.631 357.875 581.686 357.352 582.815 357.125C583.95 356.89 585.114 356.93 586.309 357.245C587.509 357.552 588.692 358.103 589.858 358.896C590.662 359.443 591.398 360.081 592.067 360.811C592.735 361.541 593.251 362.348 593.615 363.231C593.983 364.107 594.116 365.049 594.011 366.059C593.915 367.074 593.489 368.135 592.736 369.243L585.139 380.412L581.358 377.84L582.918 375.548L582.787 375.459C582.233 375.76 581.6 375.966 580.89 376.076C580.192 376.183 579.433 376.139 578.614 375.941C577.806 375.742 576.968 375.347 576.099 374.756ZM579.086 372.56C579.875 373.097 580.666 373.407 581.457 373.49C582.253 373.565 582.984 373.448 583.651 373.138C584.324 372.834 584.87 372.373 585.289 371.758L586.626 369.791C586.434 369.809 586.16 369.76 585.804 369.645C585.455 369.535 585.077 369.389 584.671 369.208C584.264 369.027 583.867 368.841 583.477 368.651C583.088 368.46 582.75 368.294 582.465 368.153C581.824 367.834 581.21 367.607 580.624 367.473C580.037 367.338 579.499 367.343 579.009 367.487C578.524 367.623 578.11 367.945 577.765 368.452C577.272 369.176 577.165 369.903 577.442 370.632C577.719 371.361 578.267 372.004 579.086 372.56ZM608.777 372.082L606.708 375.124L597.115 368.599L599.184 365.557L608.777 372.082ZM604.272 363.169L608.204 365.844L597.549 381.511C597.189 382.04 596.993 382.499 596.96 382.89C596.94 383.279 597.029 383.615 597.228 383.899C597.427 384.182 597.689 384.435 598.015 384.657C598.261 384.824 598.498 384.959 598.726 385.06C598.96 385.167 599.142 385.243 599.27 385.288L597.842 388.813C597.582 388.743 597.228 388.618 596.777 388.439C596.334 388.265 595.829 387.995 595.262 387.63C594.257 386.989 593.471 386.237 592.903 385.374C592.34 384.504 592.063 383.564 592.073 382.553C592.089 381.548 592.456 380.526 593.172 379.488L604.272 363.169ZM622.016 387.538L618.165 385.491C618.31 385.059 618.364 384.598 618.327 384.107C618.298 383.621 618.14 383.137 617.852 382.656C617.565 382.175 617.118 381.727 616.509 381.313C615.691 380.757 614.882 380.466 614.083 380.442C613.291 380.422 612.707 380.697 612.33 381.267C611.992 381.748 611.901 382.263 612.057 382.814C612.219 383.369 612.657 384.033 613.372 384.805L615.804 387.349C617.152 388.763 617.958 390.101 618.223 391.362C618.496 392.628 618.229 393.861 617.424 395.061C616.702 396.106 615.764 396.824 614.609 397.214C613.466 397.602 612.205 397.656 610.828 397.376C609.451 397.096 608.067 396.483 606.676 395.537C604.633 394.148 603.28 392.602 602.616 390.9C601.956 389.191 602.029 387.487 602.834 385.789L606.921 388.028C606.582 388.9 606.565 389.72 606.869 390.488C607.172 391.256 607.777 391.948 608.682 392.564C609.617 393.199 610.497 393.517 611.323 393.517C612.156 393.523 612.765 393.243 613.149 392.678C613.474 392.2 613.558 391.68 613.401 391.117C613.25 390.559 612.848 389.936 612.194 389.247L609.754 386.713C608.379 385.292 607.577 383.925 607.346 382.613C607.12 381.294 607.425 380.029 608.26 378.817C608.952 377.784 609.837 377.082 610.914 376.713C612.004 376.342 613.196 376.295 614.491 376.572C615.798 376.846 617.117 377.437 618.45 378.343C620.406 379.673 621.661 381.136 622.218 382.733C622.781 384.334 622.714 385.936 622.016 387.538Z" fill="url(#paint7_linear_79_758)"/>
<path d="M431.262 520.221L431.391 524.602C430.676 524.748 430.046 524.997 429.502 525.349C428.949 525.702 428.485 526.134 428.11 526.645C427.734 527.156 427.458 527.735 427.281 528.381C427.097 529.019 427.015 529.706 427.037 530.44C427.075 531.744 427.437 532.89 428.122 533.878C428.8 534.866 429.776 535.627 431.05 536.16C432.316 536.694 433.851 536.934 435.655 536.881C437.49 536.827 439.028 536.497 440.269 535.89C441.501 535.275 442.423 534.459 443.034 533.441C443.637 532.415 443.919 531.253 443.881 529.957C443.86 529.239 443.747 528.57 443.541 527.951C443.327 527.324 443.026 526.766 442.636 526.277C442.247 525.781 441.773 525.369 441.217 525.041C440.66 524.706 440.028 524.482 439.321 524.37L439.216 519.988C440.361 520.119 441.441 520.443 442.457 520.96C443.472 521.469 444.375 522.15 445.166 523.002C445.949 523.855 446.573 524.86 447.037 526.019C447.493 527.178 447.742 528.472 447.784 529.901C447.846 532.01 447.413 533.906 446.485 535.59C445.558 537.274 444.186 538.62 442.371 539.627C440.556 540.633 438.36 541.175 435.783 541.25C433.198 541.326 430.974 540.911 429.111 540.004C427.24 539.097 425.792 537.831 424.767 536.204C423.743 534.577 423.2 532.717 423.138 530.624C423.099 529.289 423.25 528.042 423.591 526.883C423.932 525.724 424.453 524.685 425.153 523.765C425.845 522.846 426.706 522.082 427.735 521.474C428.757 520.858 429.932 520.44 431.262 520.221ZM447.168 508.104C447.219 509.861 446.878 511.396 446.142 512.707C445.407 514.018 444.355 515.049 442.985 515.801C441.616 516.544 440.002 516.943 438.143 516.998C436.285 517.052 434.646 516.749 433.228 516.087C431.809 515.417 430.694 514.449 429.884 513.184C429.073 511.918 428.641 510.406 428.59 508.649C428.538 506.892 428.88 505.358 429.616 504.047C430.351 502.736 431.407 501.708 432.784 500.964C434.161 500.213 435.779 499.81 437.638 499.755C439.496 499.701 441.131 500.008 442.542 500.678C443.952 501.34 445.063 502.304 445.874 503.57C446.685 504.836 447.116 506.347 447.168 508.104ZM443.77 508.181C443.742 507.228 443.457 506.439 442.915 505.814C442.365 505.189 441.641 504.734 440.741 504.447C439.842 504.153 438.845 504.022 437.752 504.054C436.651 504.087 435.66 504.276 434.779 504.622C433.89 504.961 433.19 505.458 432.677 506.114C432.165 506.77 431.923 507.575 431.951 508.527C431.98 509.503 432.269 510.308 432.819 510.94C433.369 511.565 434.097 512.024 435.005 512.318C435.904 512.605 436.905 512.731 438.006 512.699C439.099 512.667 440.086 512.482 440.967 512.143C441.848 511.797 442.545 511.296 443.057 510.64C443.561 509.977 443.799 509.157 443.77 508.181ZM438.554 484.649L428.129 484.954L428.005 480.714L445.997 480.186L446.118 484.298L442.92 484.392L442.925 484.579C443.945 484.955 444.788 485.599 445.456 486.509C446.123 487.412 446.477 488.539 446.516 489.89C446.551 491.069 446.32 492.119 445.823 493.041C445.319 493.954 444.57 494.68 443.577 495.217C442.577 495.754 441.359 496.044 439.922 496.086L428.466 496.422L428.341 492.182L439.141 491.865C440.281 491.831 441.178 491.493 441.831 490.848C442.485 490.204 442.796 489.374 442.767 488.359C442.748 487.734 442.578 487.133 442.257 486.556C441.935 485.98 441.468 485.513 440.855 485.156C440.235 484.791 439.468 484.622 438.554 484.649ZM435.203 471.895L445.745 471.585L445.869 475.826L427.877 476.354L427.758 472.301L430.815 472.211L430.809 472C429.79 471.616 428.97 470.979 428.35 470.091C427.73 469.195 427.4 468.075 427.36 466.732C427.324 465.49 427.558 464.401 428.062 463.464C428.565 462.519 429.313 461.778 430.306 461.241C431.298 460.696 432.513 460.406 433.95 460.372L445.406 460.036L445.53 464.276L434.73 464.593C433.528 464.628 432.596 464.968 431.935 465.613C431.274 466.25 430.959 467.115 430.991 468.208C431.013 468.95 431.196 469.605 431.541 470.173C431.878 470.734 432.356 471.169 432.975 471.479C433.593 471.782 434.336 471.92 435.203 471.895ZM427.024 447.268L430.304 447.172L430.607 457.515L427.327 457.612L427.024 447.268ZM422.942 455.185L422.817 450.944L439.708 450.449C440.278 450.432 440.713 450.333 441.013 450.152C441.304 449.964 441.5 449.724 441.601 449.432C441.702 449.14 441.747 448.818 441.737 448.466C441.729 448.201 441.703 447.959 441.657 447.742C441.612 447.517 441.571 447.346 441.537 447.23L444.831 446.418C444.915 446.642 445.011 446.964 445.117 447.382C445.223 447.794 445.292 448.3 445.326 448.9C445.388 449.962 445.256 450.923 444.93 451.784C444.595 452.646 444.061 453.338 443.326 453.86C442.59 454.374 441.66 454.643 440.536 454.668L422.942 455.185ZM445.035 435.412C445.088 437.216 444.759 438.785 444.048 440.119C443.329 441.445 442.288 442.48 440.927 443.223C439.557 443.967 437.932 444.366 436.05 444.422C434.199 444.476 432.564 444.172 431.146 443.51C429.719 442.841 428.597 441.881 427.779 440.631C426.953 439.381 426.514 437.898 426.464 436.18C426.431 435.071 426.58 434.019 426.911 433.024C427.233 432.022 427.754 431.132 428.474 430.352C429.193 429.565 430.12 428.936 431.255 428.465C432.383 427.995 433.735 427.736 435.313 427.69L436.613 427.652L437.045 442.399L434.187 442.483L433.874 431.8C433.062 431.832 432.345 432.029 431.722 432.391C431.092 432.753 430.602 433.248 430.254 433.876C429.904 434.496 429.742 435.212 429.766 436.024C429.791 436.891 430.024 437.646 430.465 438.29C430.898 438.933 431.46 439.429 432.15 439.776C432.832 440.116 433.576 440.277 434.38 440.262L436.875 440.188C437.922 440.158 438.814 439.94 439.552 439.535C440.283 439.131 440.837 438.579 441.216 437.881C441.586 437.182 441.757 436.372 441.73 435.45C441.712 434.833 441.61 434.278 441.424 433.783C441.229 433.288 440.955 432.863 440.601 432.506C440.246 432.149 439.813 431.884 439.299 431.711L439.628 427.739C440.682 427.958 441.61 428.408 442.411 429.088C443.205 429.76 443.832 430.633 444.294 431.706C444.747 432.779 444.994 434.014 445.035 435.412ZM444.344 423.834L426.352 424.362L426.231 420.251L429.23 420.163L429.224 419.975C428.176 419.678 427.359 419.139 426.774 418.359C426.18 417.571 425.868 416.662 425.838 415.631C425.831 415.397 425.835 415.135 425.85 414.846C425.857 414.548 425.877 414.302 425.91 414.105L429.811 413.991C429.754 414.172 429.707 414.459 429.672 414.851C429.629 415.235 429.612 415.607 429.623 415.966C429.645 416.739 429.834 417.429 430.188 418.036C430.533 418.636 431.004 419.103 431.6 419.437C432.196 419.771 432.877 419.927 433.642 419.904L444.22 419.594L444.344 423.834ZM430.307 396.924L430.842 400.777C430.455 400.898 430.093 401.1 429.758 401.383C429.422 401.659 429.155 402.026 428.958 402.485C428.76 402.945 428.671 403.502 428.69 404.158C428.716 405.041 428.929 405.777 429.329 406.367C429.729 406.949 430.234 407.227 430.843 407.202C431.366 407.194 431.786 406.99 432.103 406.59C432.419 406.182 432.669 405.519 432.853 404.599L433.419 401.51C433.736 399.797 434.281 398.515 435.053 397.664C435.825 396.805 436.855 396.353 438.144 396.307C439.276 396.282 440.285 396.584 441.172 397.215C442.05 397.838 442.748 398.72 443.266 399.862C443.784 401.003 444.065 402.324 444.109 403.823C444.173 406.025 443.765 407.811 442.883 409.182C441.993 410.552 440.724 411.39 439.076 411.697L438.556 407.573C439.363 407.362 439.964 406.946 440.36 406.325C440.756 405.703 440.94 404.905 440.911 403.929C440.882 402.921 440.651 402.119 440.219 401.522C439.787 400.917 439.267 400.624 438.658 400.642C438.142 400.657 437.723 400.868 437.398 401.276C437.074 401.677 436.834 402.293 436.679 403.127L436.125 406.214C435.816 407.951 435.248 409.245 434.421 410.098C433.587 410.951 432.513 411.393 431.201 411.424C430.092 411.464 429.123 411.191 428.293 410.606C427.455 410.013 426.797 409.177 426.32 408.096C425.835 407.009 425.571 405.746 425.529 404.309C425.467 402.201 425.868 400.528 426.73 399.292C427.592 398.047 428.785 397.258 430.307 396.924Z" fill="url(#paint8_linear_79_758)"/>
<g clip-path="url(#clip0_79_758)">
<path d="M334.48 313.487C334.359 313.557 334.251 313.615 334.131 313.685C330.845 305.263 324.414 296.861 324.414 296.861L328.74 293.649C332.372 295.856 339.189 302.549 342.404 306.148C340.451 309.049 337.811 311.511 334.48 313.487Z" fill="url(#paint9_linear_79_758)"/>
<path d="M285.807 399.701C286.497 395.566 286.986 369.354 315.881 346.702C321.985 340.731 322.847 334.331 322.807 328.014C322.785 325.005 323.014 324.799 323.014 324.799C322.971 323.933 323.53 323.152 324.351 322.935C324.351 322.935 324.694 322.713 327.716 321.664C333.076 319.796 346.137 311.238 349.967 301.92C350.847 299.782 351.303 296.743 351.303 296.743C351.623 295.511 352.714 294.659 353.955 294.675L358.551 294.732L419.336 295.492L458.592 295.982L458.815 293.43L472.65 288.374L478.589 288.448L478.491 296.231L482.466 296.281L482.263 312.599L476.324 312.525L476.223 320.577L439.975 320.124C431.219 320.015 424.759 334.9 422.51 346.261C422.204 347.786 422.035 348.924 422.035 348.924C421.282 351.857 419.573 353.436 416.809 353.402C416.809 353.402 414.249 353.37 410.363 353.321L402.448 366.683C400.234 370.422 396.266 372.677 392.016 372.624C391.98 372.624 391.939 372.623 391.909 372.623L360.09 372.225C344.404 372.029 339.672 380.996 338.144 400.999C338.092 405.135 332.551 408.117 329.37 408.077C326.195 408.037 292.287 407.614 288.891 407.571C285.5 407.529 285.122 403.823 285.807 399.701ZM400.938 308.825L370.08 308.44C368.331 308.418 366.898 309.857 366.876 311.659C366.853 313.455 368.25 314.93 369.999 314.951L400.857 315.337C402.605 315.359 404.038 313.92 404.061 312.123C404.083 310.321 402.687 308.847 400.938 308.825ZM400.71 327.054L369.852 326.668C368.103 326.646 366.671 328.085 366.648 329.882C366.626 331.678 368.022 333.152 369.771 333.174L400.629 333.56C402.378 333.582 403.81 332.143 403.833 330.346C403.855 328.55 402.459 327.075 400.71 327.054ZM391.998 366.422L392.016 366.422L392.093 366.423C394.206 366.449 396.191 365.328 397.288 363.461L403.344 353.233C394.009 353.117 382.209 352.969 376.216 352.894C377.147 355.341 378.481 357.973 380.207 359.791C381.233 360.873 379.118 363.353 377.389 362.257C376.518 361.709 372.315 360.302 369.548 353.826C365.841 355.749 362.494 360.4 360.961 366.034L391.998 366.421L391.998 366.422Z" fill="url(#paint10_linear_79_758)"/>
</g>
<path d="M382.5 232.5L379.52 232.153L382.5 232.5ZM400.891 187.197C400.447 185.601 398.794 184.666 397.197 185.109L371.182 192.336C369.586 192.779 368.651 194.433 369.094 196.029C369.538 197.626 371.192 198.56 372.788 198.117L395.912 191.693L402.336 214.818C402.779 216.414 404.433 217.349 406.029 216.906C407.626 216.462 408.56 214.808 408.117 213.212L400.891 187.197ZM398 270C399.993 267.758 399.994 267.758 399.995 267.759C399.995 267.759 399.995 267.76 399.996 267.76C399.996 267.76 399.996 267.761 399.996 267.761C399.996 267.761 399.995 267.76 399.993 267.758C399.989 267.754 399.98 267.746 399.968 267.735C399.943 267.712 399.901 267.674 399.845 267.622C399.732 267.516 399.559 267.352 399.336 267.132C398.888 266.691 398.238 266.027 397.459 265.16C395.898 263.422 393.838 260.887 391.855 257.72C387.869 251.354 384.338 242.67 385.48 232.847L379.52 232.153C378.162 243.83 382.381 253.896 386.77 260.905C388.974 264.425 391.258 267.235 392.994 269.168C393.864 270.137 394.601 270.891 395.127 271.409C395.391 271.668 395.602 271.869 395.752 272.009C395.827 272.078 395.886 272.133 395.929 272.172C395.951 272.192 395.968 272.207 395.981 272.219C395.987 272.225 395.993 272.23 395.997 272.234C395.999 272.235 396.001 272.237 396.003 272.239C396.004 272.239 396.005 272.24 396.005 272.241C396.006 272.241 396.007 272.242 398 270ZM385.48 232.847C386.682 222.507 390.434 211.684 393.951 203.354C395.701 199.21 397.374 195.726 398.608 193.281C399.224 192.06 399.73 191.1 400.079 190.45C400.254 190.125 400.39 189.877 400.48 189.713C400.526 189.631 400.56 189.569 400.582 189.53C400.593 189.51 400.601 189.495 400.606 189.486C400.608 189.482 400.61 189.479 400.611 189.477C400.612 189.476 400.612 189.476 400.612 189.476C400.612 189.476 400.612 189.476 400.612 189.476C400.612 189.476 400.612 189.476 398 188C395.388 186.524 395.388 186.524 395.388 186.525C395.388 186.525 395.387 186.526 395.387 186.527C395.386 186.528 395.385 186.529 395.384 186.531C395.382 186.535 395.379 186.54 395.375 186.547C395.368 186.56 395.357 186.579 395.344 186.604C395.316 186.652 395.277 186.723 395.227 186.814C395.126 186.998 394.979 187.265 394.794 187.611C394.422 188.302 393.893 189.307 393.251 190.578C391.969 193.118 390.236 196.728 388.424 201.021C384.816 209.566 380.818 220.993 379.52 232.153L385.48 232.847Z" fill="url(#paint11_linear_79_758)"/>
<path d="M206 370.5L204.016 368.25L206 370.5ZM166.431 449.557C167.843 450.424 169.69 449.981 170.557 448.569L184.678 425.556C185.545 424.144 185.103 422.297 183.69 421.43C182.278 420.564 180.431 421.006 179.564 422.418L167.012 442.874L146.556 430.322C145.144 429.455 143.297 429.897 142.43 431.31C141.564 432.722 142.006 434.569 143.418 435.436L166.431 449.557ZM295 341C295.784 338.104 295.782 338.104 295.78 338.103C295.779 338.103 295.777 338.102 295.775 338.102C295.771 338.101 295.767 338.1 295.762 338.098C295.753 338.096 295.741 338.093 295.726 338.089C295.696 338.081 295.656 338.071 295.606 338.058C295.506 338.033 295.365 337.999 295.184 337.957C294.823 337.874 294.303 337.762 293.635 337.637C292.298 337.387 290.364 337.085 287.91 336.857C283.003 336.401 276.005 336.243 267.531 337.403C250.551 339.727 227.741 347.331 204.016 368.25L207.984 372.75C230.759 352.669 252.449 345.523 268.344 343.347C276.307 342.257 282.841 342.412 287.355 342.831C289.612 343.04 291.362 343.316 292.531 343.535C293.116 343.644 293.555 343.739 293.839 343.804C293.981 343.837 294.084 343.862 294.147 343.878C294.179 343.886 294.201 343.892 294.212 343.895C294.218 343.896 294.221 343.897 294.222 343.897C294.222 343.897 294.222 343.897 294.221 343.897C294.221 343.897 294.219 343.897 294.219 343.897C294.218 343.896 294.216 343.896 295 341ZM204.016 368.25C180.353 389.114 170.511 408.744 166.661 423.361C164.741 430.652 164.324 436.648 164.399 440.866C164.436 442.974 164.596 444.637 164.752 445.795C164.831 446.374 164.908 446.827 164.968 447.147C164.998 447.307 165.024 447.433 165.044 447.526C165.054 447.572 165.062 447.609 165.068 447.638C165.072 447.653 165.075 447.665 165.077 447.675C165.078 447.68 165.079 447.684 165.08 447.688C165.081 447.69 165.081 447.693 165.081 447.694C165.082 447.696 165.082 447.699 168 447C170.918 446.301 170.918 446.303 170.918 446.305C170.919 446.306 170.919 446.307 170.919 446.308C170.92 446.31 170.92 446.311 170.92 446.312C170.92 446.314 170.92 446.313 170.92 446.31C170.918 446.305 170.915 446.291 170.91 446.268C170.901 446.224 170.885 446.146 170.864 446.036C170.822 445.815 170.762 445.466 170.699 444.994C170.572 444.051 170.431 442.62 170.398 440.759C170.332 437.04 170.696 431.598 172.464 424.889C175.989 411.506 185.147 392.886 207.984 372.75L204.016 368.25Z" fill="url(#paint12_linear_79_758)"/>
<g clip-path="url(#clip1_79_758)">
<path d="M394.312 638.61C414.992 642.437 434.929 628.726 438.756 608.046C442.583 587.366 428.872 567.429 408.192 563.602C387.512 559.775 367.575 573.486 363.748 594.166C359.921 614.846 373.632 634.783 394.312 638.61Z" fill="url(#paint13_linear_79_758)"/>
<path d="M315.609 647.7C314.912 651.465 315.724 655.276 317.893 658.431C320.063 661.587 323.331 663.708 327.097 664.405C330.863 665.102 334.675 664.291 337.829 662.121L364.541 643.751C372.067 650.244 381.156 654.607 391.014 656.431C405.792 659.166 420.75 655.982 433.133 647.466C445.516 638.95 453.843 626.122 456.577 611.344C459.312 596.566 456.128 581.608 447.612 569.225C439.096 556.841 426.268 548.516 411.49 545.781C396.712 543.046 381.754 546.23 369.371 554.746C356.988 563.262 348.662 576.09 345.927 590.868C344.103 600.726 344.925 610.774 348.294 620.126L321.583 638.495C318.427 640.665 316.306 643.934 315.609 647.7ZM409.619 555.891C434.551 560.505 451.081 584.542 446.467 609.473C441.854 634.405 417.817 650.935 392.885 646.321C367.953 641.707 351.423 617.671 356.037 592.739C360.651 567.807 384.688 551.277 409.619 555.891ZM326.686 645.726C329.182 644.01 332.598 644.642 334.316 647.138C336.032 649.636 335.4 653.052 332.904 654.768C330.408 656.485 326.991 655.852 325.274 653.356C323.557 650.86 324.19 647.443 326.686 645.726Z" fill="url(#paint14_linear_79_758)"/>
</g>
<path d="M588.5 396.5L586.433 398.674L588.5 396.5ZM632.506 483.601C633.943 484.427 635.776 483.931 636.602 482.494L650.051 459.082C650.876 457.646 650.381 455.812 648.944 454.987C647.507 454.161 645.674 454.657 644.848 456.094L632.893 476.904L612.083 464.949C610.646 464.124 608.812 464.62 607.987 466.056C607.162 467.493 607.657 469.327 609.094 470.152L632.506 483.601ZM497 348C496.204 350.892 496.204 350.892 496.203 350.892C496.204 350.892 496.204 350.892 496.204 350.892C496.205 350.893 496.207 350.893 496.21 350.894C496.215 350.895 496.224 350.898 496.237 350.901C496.261 350.908 496.299 350.919 496.351 350.933C496.454 350.962 496.61 351.007 496.817 351.066C497.23 351.186 497.846 351.367 498.646 351.609C500.245 352.094 502.577 352.826 505.487 353.808C511.308 355.771 519.432 358.729 528.622 362.702C547.055 370.67 569.557 382.628 586.433 398.674L590.568 394.326C572.943 377.568 549.696 365.276 531.003 357.195C521.631 353.143 513.349 350.127 507.404 348.122C504.431 347.12 502.041 346.369 500.388 345.868C499.561 345.617 498.919 345.428 498.481 345.302C498.262 345.239 498.094 345.191 497.979 345.158C497.921 345.142 497.877 345.13 497.847 345.121C497.832 345.117 497.82 345.114 497.812 345.112C497.807 345.11 497.804 345.11 497.802 345.109C497.8 345.109 497.799 345.108 497.799 345.108C497.798 345.108 497.797 345.108 497 348ZM586.433 398.674C601.241 412.754 612.423 433.434 619.934 450.815C623.674 459.469 626.472 467.229 628.334 472.822C629.264 475.618 629.96 477.869 630.421 479.416C630.652 480.19 630.825 480.787 630.938 481.188C630.995 481.389 631.037 481.54 631.065 481.64C631.079 481.69 631.089 481.727 631.096 481.751C631.099 481.763 631.101 481.772 631.103 481.777C631.103 481.779 631.104 481.781 631.104 481.782C631.104 481.783 631.104 481.783 631.104 481.783C631.104 481.783 631.104 481.783 634 481C636.896 480.217 636.896 480.216 636.896 480.215C636.896 480.215 636.895 480.214 636.895 480.212C636.895 480.21 636.894 480.207 636.893 480.203C636.89 480.195 636.887 480.183 636.883 480.168C636.875 480.138 636.863 480.095 636.848 480.039C636.817 479.928 636.771 479.764 636.711 479.551C636.59 479.125 636.41 478.501 636.171 477.701C635.693 476.099 634.979 473.788 634.026 470.927C632.123 465.208 629.264 457.281 625.442 448.435C617.828 430.816 606.259 409.246 590.568 394.326L586.433 398.674Z" fill="url(#paint15_linear_79_758)"/>
<path d="M392.653 387.598C391.879 386.133 390.063 385.573 388.599 386.347L364.726 398.961C363.261 399.735 362.701 401.55 363.475 403.015C364.249 404.48 366.064 405.04 367.529 404.266L388.749 393.054L399.961 414.274C400.735 415.739 402.55 416.299 404.015 415.525C405.48 414.751 406.04 412.936 405.266 411.471L392.653 387.598ZM398.675 532.358C406.849 516.266 409.011 504.373 407.743 494.169C406.489 484.082 401.89 475.989 397.524 467.779C393.114 459.488 388.735 450.764 387.016 438.815C385.297 426.864 386.214 411.445 392.867 389.884L387.133 388.115C380.287 410.304 379.203 426.636 381.077 439.669C382.953 452.705 387.761 462.199 392.226 470.596C396.735 479.073 400.698 486.137 401.789 494.909C402.864 503.564 401.151 514.234 393.325 529.641L398.675 532.358Z" fill="url(#paint16_linear_79_758)"/>
<defs>
<linearGradient id="paint0_linear_79_758" x1="397.724" y1="11.5625" x2="397.724" y2="173.438" gradientUnits="userSpaceOnUse">
<stop stop-color="#DADCDC"/>
<stop offset="1" stop-color="#808080"/>
</linearGradient>
<linearGradient id="paint1_linear_79_758" x1="87.5" y1="445.282" x2="87.5" y2="561.098" gradientUnits="userSpaceOnUse">
<stop stop-color="#DADCDC"/>
<stop offset="1" stop-color="#808080"/>
</linearGradient>
<linearGradient id="paint2_linear_79_758" x1="673.613" y1="488.5" x2="673.613" y2="609.25" gradientUnits="userSpaceOnUse">
<stop stop-color="#DADCDC"/>
<stop offset="1" stop-color="#808080"/>
</linearGradient>
<linearGradient id="paint3_linear_79_758" x1="63.5431" y1="342.546" x2="275.176" y2="161.826" gradientUnits="userSpaceOnUse">
<stop stop-color="#1B5E4A"/>
<stop offset="1" stop-color="#6DBECB"/>
</linearGradient>
<linearGradient id="paint4_linear_79_758" x1="571.764" y1="131.095" x2="653.616" y2="397.08" gradientUnits="userSpaceOnUse">
<stop stop-color="#1B5E4A"/>
<stop offset="1" stop-color="#6DBECB"/>
</linearGradient>
<linearGradient id="paint5_linear_79_758" x1="539.935" y1="686.643" x2="265.188" y2="642.352" gradientUnits="userSpaceOnUse">
<stop stop-color="#1B5E4A"/>
<stop offset="1" stop-color="#6DBECB"/>
</linearGradient>
<linearGradient id="paint6_linear_79_758" x1="71.1183" y1="270.478" x2="138.662" y2="179.749" gradientUnits="userSpaceOnUse">
<stop stop-color="#347B71"/>
<stop offset="1" stop-color="#6DBECB"/>
</linearGradient>
<linearGradient id="paint7_linear_79_758" x1="584" y1="314" x2="569.375" y2="387.458" gradientUnits="userSpaceOnUse">
<stop stop-color="#96592A"/>
<stop offset="1" stop-color="#D57E3C"/>
</linearGradient>
<linearGradient id="paint8_linear_79_758" x1="436.307" y1="377.742" x2="441.151" y2="542.851" gradientUnits="userSpaceOnUse">
<stop stop-color="#FF0000"/>
<stop offset="1" stop-color="#BA0000"/>
</linearGradient>
<linearGradient id="paint9_linear_79_758" x1="333.506" y1="293.709" x2="333.257" y2="313.674" gradientUnits="userSpaceOnUse">
<stop stop-color="#D57E3C"/>
<stop offset="1" stop-color="#673D1D"/>
</linearGradient>
<linearGradient id="paint10_linear_79_758" x1="384.772" y1="287.276" x2="383.254" y2="408.75" gradientUnits="userSpaceOnUse">
<stop stop-color="#D57E3C"/>
<stop offset="1" stop-color="#673D1D"/>
</linearGradient>
<linearGradient id="paint11_linear_79_758" x1="382.5" y1="229" x2="398" y2="229" gradientUnits="userSpaceOnUse">
<stop stop-color="#814C24"/>
<stop offset="1" stop-color="#D57E3C"/>
</linearGradient>
<linearGradient id="paint12_linear_79_758" x1="231.5" y1="394" x2="209.433" y2="367.561" gradientUnits="userSpaceOnUse">
<stop stop-color="#814C24"/>
<stop offset="1" stop-color="#D57E3C"/>
</linearGradient>
<linearGradient id="paint13_linear_79_758" x1="394.312" y1="638.61" x2="408.192" y2="563.602" gradientUnits="userSpaceOnUse">
<stop stop-color="#1B5E4A"/>
<stop offset="1" stop-color="#3FD4A7"/>
</linearGradient>
<linearGradient id="paint14_linear_79_758" x1="377.898" y1="673.806" x2="401.917" y2="544.009" gradientUnits="userSpaceOnUse">
<stop stop-color="#1B5E4A"/>
<stop offset="1" stop-color="#3FD4A7"/>
</linearGradient>
<linearGradient id="paint15_linear_79_758" x1="585.659" y1="393.735" x2="565.5" y2="414.5" gradientUnits="userSpaceOnUse">
<stop stop-color="#814C24"/>
<stop offset="1" stop-color="#D57E3C"/>
</linearGradient>
<linearGradient id="paint16_linear_79_758" x1="390.989" y1="388.958" x2="396.989" y2="530.958" gradientUnits="userSpaceOnUse">
<stop stop-color="#FF0000"/>
<stop offset="1" stop-color="#8F0000"/>
</linearGradient>
<clipPath id="clip0_79_758">
<rect width="195.597" height="195.597" fill="white" transform="matrix(-0.999922 -0.0124954 -0.0124954 0.999922 483.026 251.444)"/>
</clipPath>
<clipPath id="clip1_79_758">
<rect width="132" height="132" fill="white" transform="translate(442.796 685.815) rotate(-169.516)"/>
</clipPath>
</defs>
</svg>
