<svg width="200" height="300" viewBox="0 0 200 300" fill="none" xmlns="http://www.w3.org/2000/svg">
<rect x="4.5" y="4.5" width="191" height="291" rx="22.5" fill="#282828" stroke="url(#paint0_linear_38_9)" stroke-width="9"/>
<mask id="mask0_38_9" style="mask-type:alpha" maskUnits="userSpaceOnUse" x="13" y="13" width="174" height="275">
<rect x="13.5" y="13.5" width="173" height="274" rx="16.5" fill="#282224" stroke="url(#paint1_linear_38_9)"/>
</mask>
<g mask="url(#mask0_38_9)">
<path d="M152.378 175.875L153.782 181.858C153.834 182.083 153.971 182.232 154.123 182.232C154.276 182.232 154.412 182.083 154.465 181.858L155.869 175.875C157.005 171.032 159.434 167.215 162.515 165.429L166.32 163.223C166.463 163.14 166.559 162.925 166.559 162.686C166.559 162.446 166.463 162.232 166.32 162.149L162.514 159.942C159.434 158.156 157.005 154.339 155.869 149.496L154.465 143.514C154.412 143.289 154.276 143.14 154.123 143.14C153.971 143.14 153.834 143.289 153.782 143.514L152.378 149.496C151.242 154.339 148.813 158.156 145.732 159.942L141.926 162.149C141.783 162.232 141.688 162.446 141.688 162.686C141.688 162.925 141.783 163.14 141.926 163.223L145.732 165.429C148.813 167.215 151.242 171.032 152.378 175.875Z" fill="url(#paint2_linear_38_9)" fill-opacity="0.35"/>
<path d="M183.235 201.143L179.429 198.937C176.348 197.151 173.919 193.333 172.783 188.491L171.38 182.509C171.327 182.284 171.19 182.134 171.038 182.134C170.885 182.134 170.749 182.284 170.696 182.509L169.292 188.49C168.156 193.333 165.728 197.151 162.647 198.937L158.841 201.143C158.698 201.226 158.603 201.44 158.603 201.68C158.603 201.919 158.698 202.134 158.841 202.217L162.647 204.423C165.728 206.209 168.156 210.027 169.292 214.869L170.696 220.852C170.749 221.077 170.885 221.226 171.038 221.226C171.19 221.226 171.327 221.077 171.38 220.852L172.783 214.869C173.919 210.027 176.348 206.209 179.429 204.423L183.235 202.217C183.378 202.134 183.473 201.919 183.473 201.68C183.473 201.44 183.378 201.226 183.235 201.143Z" fill="url(#paint3_linear_38_9)" fill-opacity="0.35"/>
<path d="M202.932 175.555L200.345 174.056C198.252 172.842 196.601 170.248 195.829 166.957L194.875 162.891C194.839 162.738 194.746 162.637 194.643 162.637C194.539 162.637 194.446 162.738 194.41 162.891L193.457 166.956C192.685 170.248 191.034 172.842 188.94 174.056L186.354 175.555C186.256 175.611 186.192 175.757 186.192 175.92C186.192 176.083 186.256 176.229 186.354 176.285L188.94 177.784C191.034 178.998 192.685 181.593 193.457 184.884L194.41 188.95C194.446 189.102 194.539 189.204 194.643 189.204C194.746 189.204 194.839 189.102 194.875 188.95L195.829 184.884C196.601 181.592 198.251 178.998 200.345 177.784L202.932 176.285C203.029 176.229 203.094 176.083 203.094 175.92C203.094 175.757 203.029 175.611 202.932 175.555Z" fill="url(#paint4_linear_38_9)" fill-opacity="0.35"/>
<path d="M196.666 229.076L194.862 228.03C193.402 227.183 192.25 225.373 191.712 223.078L191.046 220.243C191.021 220.136 190.957 220.065 190.884 220.065C190.812 220.065 190.747 220.136 190.722 220.243L190.057 223.078C189.518 225.374 188.367 227.183 186.907 228.03L185.102 229.076C185.034 229.115 184.989 229.217 184.989 229.33C184.989 229.444 185.034 229.546 185.102 229.585L186.906 230.631C188.367 231.478 189.518 233.288 190.057 235.583L190.722 238.419C190.747 238.526 190.812 238.596 190.884 238.596C190.957 238.596 191.022 238.526 191.046 238.419L191.712 235.583C192.251 233.288 193.402 231.478 194.863 230.631L196.667 229.585C196.734 229.546 196.78 229.444 196.78 229.33C196.78 229.217 196.734 229.115 196.666 229.076Z" fill="url(#paint5_linear_38_9)" fill-opacity="0.35"/>
<path d="M183.36 147.542L181.556 146.496C180.095 145.65 178.944 143.84 178.406 141.545L177.74 138.709C177.715 138.602 177.65 138.531 177.578 138.531C177.506 138.531 177.441 138.602 177.416 138.709L176.751 141.544C176.212 143.84 175.061 145.65 173.6 146.496L171.796 147.542C171.728 147.581 171.683 147.683 171.683 147.797C171.683 147.91 171.728 148.012 171.796 148.051L173.6 149.097C175.061 149.944 176.212 151.754 176.751 154.05L177.416 156.885C177.441 156.992 177.506 157.063 177.578 157.063C177.65 157.063 177.715 156.992 177.74 156.885L178.406 154.049C178.944 151.753 180.095 149.944 181.556 149.098L183.36 148.051C183.428 148.012 183.473 147.911 183.473 147.797C183.473 147.683 183.428 147.581 183.36 147.542Z" fill="url(#paint6_linear_38_9)" fill-opacity="0.35"/>
<path d="M161.23 223.246L158.96 221.931C157.123 220.866 155.675 218.59 154.997 215.702L154.16 212.135C154.129 212.001 154.047 211.911 153.957 211.911C153.866 211.911 153.784 212.001 153.753 212.135L152.916 215.701C152.239 218.589 150.79 220.866 148.953 221.931L146.684 223.246C146.598 223.295 146.542 223.423 146.542 223.566C146.542 223.709 146.599 223.837 146.684 223.886L148.953 225.202C150.79 226.267 152.238 228.543 152.916 231.431L153.753 234.998C153.784 235.132 153.866 235.221 153.957 235.221C154.047 235.221 154.129 235.132 154.16 234.998L154.997 231.431C155.675 228.543 157.123 226.267 158.96 225.202L161.23 223.886C161.315 223.837 161.371 223.709 161.371 223.566C161.371 223.423 161.315 223.295 161.23 223.246Z" fill="url(#paint7_linear_38_9)" fill-opacity="0.35"/>
<path d="M90.4027 175.875L91.8064 181.858C91.8592 182.083 91.9956 182.232 92.1481 182.232C92.3006 182.232 92.437 182.083 92.4898 181.858L93.8935 175.875C95.0297 171.032 97.4584 167.215 100.539 165.429L104.345 163.223C104.488 163.14 104.583 162.925 104.583 162.686C104.583 162.446 104.488 162.232 104.345 162.149L100.539 159.942C97.4582 158.156 95.0295 154.339 93.8935 149.496L92.4898 143.514C92.437 143.289 92.3006 143.14 92.1481 143.14C91.9956 143.14 91.8592 143.289 91.8064 143.514L90.4027 149.496C89.2665 154.339 86.838 158.156 83.7569 159.942L79.9509 162.149C79.8078 162.232 79.7128 162.446 79.7128 162.686C79.7128 162.925 79.8078 163.14 79.9509 163.223L83.7567 165.429C86.8378 167.215 89.2665 171.032 90.4027 175.875Z" fill="url(#paint8_linear_38_9)" fill-opacity="0.35"/>
<path d="M121.259 201.143L117.454 198.937C114.373 197.151 111.944 193.333 110.808 188.491L109.404 182.509C109.352 182.284 109.215 182.134 109.063 182.134C108.91 182.134 108.774 182.284 108.721 182.509L107.317 188.49C106.181 193.333 103.752 197.151 100.671 198.937L96.8656 201.143C96.7225 201.226 96.6275 201.44 96.6275 201.68C96.6275 201.919 96.7225 202.134 96.8656 202.217L100.672 204.423C103.752 206.209 106.181 210.027 107.317 214.869L108.721 220.852C108.774 221.077 108.91 221.226 109.063 221.226C109.215 221.226 109.352 221.077 109.404 220.852L110.808 214.869C111.944 210.027 114.373 206.209 117.454 204.423L121.26 202.217C121.403 202.134 121.498 201.919 121.498 201.68C121.498 201.44 121.403 201.226 121.259 201.143Z" fill="url(#paint9_linear_38_9)" fill-opacity="0.35"/>
<path d="M140.957 175.555L138.37 174.056C136.276 172.842 134.626 170.248 133.854 166.957L132.9 162.891C132.864 162.738 132.771 162.637 132.667 162.637C132.564 162.637 132.471 162.738 132.435 162.891L131.481 166.956C130.709 170.248 129.059 172.842 126.965 174.056L124.378 175.555C124.281 175.611 124.216 175.757 124.216 175.92C124.216 176.083 124.281 176.229 124.378 176.285L126.965 177.784C129.059 178.998 130.709 181.593 131.481 184.884L132.435 188.95C132.471 189.102 132.564 189.204 132.667 189.204C132.771 189.204 132.864 189.102 132.9 188.95L133.854 184.884C134.626 181.592 136.276 178.998 138.37 177.784L140.957 176.285C141.054 176.229 141.119 176.083 141.119 175.92C141.119 175.757 141.054 175.611 140.957 175.555Z" fill="url(#paint10_linear_38_9)" fill-opacity="0.35"/>
<path d="M134.691 229.076L132.887 228.03C131.426 227.183 130.275 225.373 129.736 223.078L129.071 220.243C129.046 220.136 128.981 220.065 128.909 220.065C128.836 220.065 128.772 220.136 128.747 220.243L128.081 223.078C127.543 225.374 126.391 227.183 124.931 228.03L123.127 229.076C123.059 229.115 123.014 229.217 123.014 229.33C123.014 229.444 123.059 229.546 123.127 229.585L124.931 230.631C126.392 231.478 127.543 233.288 128.081 235.583L128.747 238.419C128.772 238.526 128.837 238.596 128.909 238.596C128.981 238.596 129.046 238.526 129.071 238.419L129.737 235.583C130.275 233.288 131.426 231.478 132.887 230.631L134.691 229.585C134.759 229.546 134.804 229.444 134.804 229.33C134.804 229.217 134.759 229.115 134.691 229.076Z" fill="url(#paint11_linear_38_9)" fill-opacity="0.35"/>
<path d="M121.385 147.542L119.58 146.496C118.12 145.65 116.969 143.84 116.43 141.545L115.765 138.709C115.74 138.602 115.675 138.531 115.603 138.531C115.531 138.531 115.466 138.602 115.441 138.709L114.776 141.544C114.237 143.84 113.085 145.65 111.625 146.496L109.821 147.542C109.753 147.581 109.708 147.683 109.708 147.797C109.708 147.91 109.753 148.012 109.821 148.051L111.625 149.097C113.085 149.944 114.237 151.754 114.776 154.05L115.441 156.885C115.466 156.992 115.531 157.063 115.603 157.063C115.675 157.063 115.74 156.992 115.765 156.885L116.43 154.049C116.969 151.753 118.12 149.944 119.581 149.098L121.385 148.051C121.453 148.012 121.498 147.911 121.498 147.797C121.498 147.683 121.453 147.581 121.385 147.542Z" fill="url(#paint12_linear_38_9)" fill-opacity="0.35"/>
<path d="M99.2542 223.246L96.9848 221.931C95.1478 220.866 93.6995 218.59 93.0217 215.702L92.1849 212.135C92.1534 212.001 92.0721 211.911 91.9812 211.911C91.8902 211.911 91.8089 212.001 91.7774 212.135L90.9406 215.701C90.2632 218.589 88.8149 220.866 86.9776 221.931L84.7086 223.246C84.623 223.295 84.5666 223.423 84.5666 223.566C84.5666 223.709 84.6232 223.837 84.7086 223.886L86.9778 225.202C88.8147 226.267 90.263 228.543 90.9406 231.431L91.7774 234.998C91.8089 235.132 91.8902 235.221 91.9812 235.221C92.0721 235.221 92.1536 235.132 92.1849 234.998L93.0219 231.431C93.6993 228.543 95.1474 226.267 96.9845 225.202L99.2542 223.886C99.3395 223.837 99.3962 223.709 99.3962 223.566C99.3962 223.423 99.3397 223.295 99.2542 223.246Z" fill="url(#paint13_linear_38_9)" fill-opacity="0.35"/>
<path d="M28.4275 175.875L29.8311 181.858C29.8839 182.083 30.0203 182.232 30.1728 182.232C30.3253 182.232 30.4618 182.083 30.5145 181.858L31.9182 175.875C33.0544 171.032 35.4832 167.215 38.564 165.429L42.3699 163.223C42.5129 163.14 42.608 162.925 42.608 162.686C42.608 162.446 42.5129 162.232 42.3699 162.149L38.5638 159.942C35.483 158.156 33.0542 154.339 31.9182 149.496L30.5145 143.514C30.4618 143.289 30.3253 143.14 30.1728 143.14C30.0203 143.14 29.8839 143.289 29.8311 143.514L28.4275 149.496C27.2913 154.339 24.8627 158.156 21.7816 159.942L17.9756 162.149C17.8325 162.232 17.7375 162.446 17.7375 162.686C17.7375 162.925 17.8325 163.14 17.9756 163.223L21.7814 165.429C24.8625 167.215 27.2913 171.032 28.4275 175.875Z" fill="url(#paint14_linear_38_9)" fill-opacity="0.35"/>
<path d="M59.284 201.143L55.4784 198.937C52.3973 197.151 49.9686 193.333 48.8326 188.491L47.4289 182.509C47.3762 182.284 47.2397 182.134 47.0872 182.134C46.9347 182.134 46.7983 182.284 46.7455 182.509L45.3418 188.49C44.2056 193.333 41.7769 197.151 38.696 198.937L34.8902 201.143C34.7471 201.226 34.6521 201.44 34.6521 201.68C34.6521 201.919 34.7471 202.134 34.8902 202.217L38.6963 204.423C41.7771 206.209 44.2056 210.027 45.3418 214.869L46.7455 220.852C46.7983 221.077 46.9347 221.226 47.0872 221.226C47.2397 221.226 47.3762 221.077 47.4289 220.852L48.8326 214.869C49.9688 210.027 52.3973 206.209 55.4782 204.423L59.2842 202.217C59.4273 202.134 59.5223 201.919 59.5223 201.68C59.5223 201.44 59.4271 201.226 59.284 201.143Z" fill="url(#paint15_linear_38_9)" fill-opacity="0.35"/>
<path d="M78.9816 175.555L76.395 174.056C74.3012 172.842 72.6507 170.248 71.8785 166.957L70.9246 162.891C70.8886 162.738 70.7959 162.637 70.6923 162.637C70.5887 162.637 70.496 162.738 70.46 162.891L69.5063 166.956C68.7341 170.248 67.0836 172.842 64.9896 174.056L62.4032 175.555C62.3061 175.611 62.2413 175.757 62.2413 175.92C62.2413 176.083 62.3061 176.229 62.4032 176.285L64.9899 177.784C67.0836 178.998 68.7341 181.593 69.5063 184.884L70.46 188.95C70.496 189.102 70.5887 189.204 70.6923 189.204C70.7959 189.204 70.8886 189.102 70.9246 188.95L71.8785 184.884C72.6507 181.592 74.301 178.998 76.395 177.784L78.9816 176.285C79.0788 176.229 79.1435 176.083 79.1435 175.92C79.1435 175.757 79.0788 175.611 78.9816 175.555Z" fill="url(#paint16_linear_38_9)" fill-opacity="0.35"/>
<path d="M72.7158 229.076L70.9114 228.03C69.4509 227.183 68.2997 225.373 67.7611 223.078L67.0955 220.243C67.0706 220.136 67.0058 220.065 66.9335 220.065C66.8613 220.065 66.7965 220.136 66.7716 220.243L66.106 223.078C65.5674 225.374 64.4162 227.183 62.9559 228.03L61.1515 229.076C61.0837 229.115 61.0387 229.217 61.0387 229.33C61.0387 229.444 61.0837 229.546 61.1515 229.585L62.9557 230.631C64.4164 231.478 65.5676 233.288 66.1062 235.583L66.7718 238.419C66.7967 238.526 66.8615 238.596 66.9338 238.596C67.006 238.596 67.0708 238.526 67.0957 238.419L67.7613 235.583C68.2999 233.288 69.4511 231.478 70.9118 230.631L72.716 229.585C72.7838 229.546 72.8288 229.444 72.8288 229.33C72.8288 229.217 72.7838 229.115 72.7158 229.076Z" fill="url(#paint17_linear_38_9)" fill-opacity="0.35"/>
<path d="M59.4096 147.542L57.6052 146.496C56.1447 145.65 54.9935 143.84 54.4551 141.545L53.7895 138.709C53.7646 138.602 53.6998 138.531 53.6275 138.531C53.5553 138.531 53.4905 138.602 53.4656 138.709L52.8002 141.544C52.2616 143.84 51.1102 145.65 49.6497 146.496L47.8453 147.542C47.7775 147.581 47.7325 147.683 47.7325 147.797C47.7325 147.91 47.7775 148.012 47.8453 148.051L49.6495 149.097C51.1102 149.944 52.2616 151.754 52.8002 154.05L53.4656 156.885C53.4905 156.992 53.5553 157.063 53.6275 157.063C53.6998 157.063 53.7646 156.992 53.7895 156.885L54.4551 154.049C54.9937 151.753 56.1449 149.944 57.6056 149.098L59.4098 148.051C59.4776 148.012 59.5226 147.911 59.5226 147.797C59.5226 147.683 59.4776 147.581 59.4096 147.542Z" fill="url(#paint18_linear_38_9)" fill-opacity="0.35"/>
<path d="M37.2789 223.246L35.0095 221.931C33.1726 220.866 31.7243 218.59 31.0465 215.702L30.2097 212.135C30.1782 212.001 30.0969 211.911 30.0059 211.911C29.915 211.911 29.8337 212.001 29.8022 212.135L28.9654 215.701C28.288 218.589 26.8397 220.866 25.0023 221.931L22.7334 223.246C22.6478 223.295 22.5914 223.423 22.5914 223.566C22.5914 223.709 22.648 223.837 22.7334 223.886L25.0025 225.202C26.8395 226.267 28.2878 228.543 28.9654 231.431L29.8022 234.998C29.8337 235.132 29.915 235.221 30.0059 235.221C30.0969 235.221 30.1784 235.132 30.2097 234.998L31.0467 231.431C31.7241 228.543 33.1722 226.267 35.0093 225.202L37.2789 223.886C37.3643 223.837 37.4209 223.709 37.4209 223.566C37.4209 223.423 37.3645 223.295 37.2789 223.246Z" fill="url(#paint19_linear_38_9)" fill-opacity="0.35"/>
<path d="M16.9214 177.322L14.3347 175.823C12.241 174.609 10.5904 172.015 9.81823 168.724L8.86436 164.658C8.82833 164.505 8.73566 164.404 8.63206 164.404C8.52846 164.404 8.43579 164.505 8.39976 164.658L7.4461 168.723C6.6739 172.015 5.02334 174.609 2.9294 175.823L0.342978 177.322C0.24581 177.378 0.18103 177.524 0.18103 177.687C0.18103 177.85 0.24581 177.996 0.342978 178.052L2.92962 179.551C5.02334 180.765 6.6739 183.36 7.4461 186.651L8.39976 190.717C8.43579 190.869 8.52846 190.971 8.63206 190.971C8.73566 190.971 8.82833 190.869 8.86436 190.717L9.81823 186.651C10.5904 183.359 12.2408 180.765 14.3347 179.551L16.9214 178.052C17.0185 177.996 17.0833 177.85 17.0833 177.687C17.0833 177.524 17.0185 177.378 16.9214 177.322Z" fill="url(#paint20_linear_38_9)" fill-opacity="0.35"/>
<path d="M152.378 276.514L153.782 282.496C153.834 282.721 153.971 282.87 154.123 282.87C154.276 282.87 154.412 282.721 154.465 282.496L155.869 276.514C157.005 271.671 159.434 267.853 162.515 266.067L166.32 263.861C166.463 263.778 166.559 263.564 166.559 263.324C166.559 263.084 166.463 262.87 166.32 262.787L162.514 260.581C159.434 258.795 157.005 254.977 155.869 250.135L154.465 244.153C154.412 243.928 154.276 243.778 154.123 243.778C153.971 243.778 153.834 243.928 153.782 244.153L152.378 250.135C151.242 254.977 148.813 258.795 145.732 260.581L141.926 262.787C141.783 262.87 141.688 263.084 141.688 263.324C141.688 263.564 141.783 263.778 141.926 263.861L145.732 266.067C148.813 267.853 151.242 271.67 152.378 276.514Z" fill="url(#paint21_linear_38_9)" fill-opacity="0.35"/>
<path d="M183.235 301.781L179.429 299.575C176.348 297.789 173.919 293.971 172.783 289.129L171.38 283.147C171.327 282.922 171.19 282.772 171.038 282.772C170.885 282.772 170.749 282.922 170.696 283.147L169.292 289.129C168.156 293.971 165.728 297.789 162.647 299.575L158.841 301.781C158.698 301.864 158.603 302.078 158.603 302.318C158.603 302.558 158.698 302.772 158.841 302.855L162.647 305.062C165.728 306.848 168.156 310.665 169.292 315.507L170.696 321.49C170.749 321.715 170.885 321.864 171.038 321.864C171.19 321.864 171.327 321.715 171.38 321.49L172.783 315.507C173.919 310.665 176.348 306.847 179.429 305.062L183.235 302.855C183.378 302.772 183.473 302.558 183.473 302.318C183.473 302.078 183.378 301.864 183.235 301.781Z" fill="url(#paint22_linear_38_9)" fill-opacity="0.35"/>
<path d="M202.932 276.193L200.345 274.694C198.252 273.48 196.601 270.886 195.829 267.595L194.875 263.529C194.839 263.376 194.746 263.275 194.643 263.275C194.539 263.275 194.446 263.376 194.41 263.529L193.457 267.594C192.685 270.886 191.034 273.48 188.94 274.694L186.354 276.193C186.256 276.249 186.192 276.395 186.192 276.558C186.192 276.721 186.256 276.867 186.354 276.923L188.94 278.422C191.034 279.636 192.685 282.231 193.457 285.522L194.41 289.588C194.446 289.741 194.539 289.842 194.643 289.842C194.746 289.842 194.839 289.741 194.875 289.588L195.829 285.522C196.601 282.23 198.251 279.636 200.345 278.422L202.932 276.923C203.029 276.867 203.094 276.721 203.094 276.558C203.094 276.395 203.029 276.249 202.932 276.193Z" fill="url(#paint23_linear_38_9)" fill-opacity="0.35"/>
<path d="M183.36 248.18L181.556 247.135C180.095 246.288 178.944 244.478 178.406 242.183L177.74 239.347C177.715 239.24 177.65 239.17 177.578 239.17C177.506 239.17 177.441 239.24 177.416 239.347L176.751 242.182C176.212 244.478 175.061 246.288 173.6 247.134L171.796 248.18C171.728 248.219 171.683 248.321 171.683 248.435C171.683 248.548 171.728 248.65 171.796 248.689L173.6 249.735C175.061 250.582 176.212 252.392 176.751 254.688L177.416 257.523C177.441 257.63 177.506 257.701 177.578 257.701C177.65 257.701 177.715 257.63 177.74 257.523L178.406 254.688C178.944 252.392 180.095 250.582 181.556 249.736L183.36 248.69C183.428 248.65 183.473 248.549 183.473 248.435C183.473 248.321 183.428 248.22 183.36 248.18Z" fill="url(#paint24_linear_38_9)" fill-opacity="0.35"/>
<path d="M90.4027 276.514L91.8064 282.496C91.8592 282.721 91.9956 282.87 92.1481 282.87C92.3006 282.87 92.437 282.721 92.4898 282.496L93.8935 276.514C95.0297 271.671 97.4584 267.853 100.539 266.067L104.345 263.861C104.488 263.778 104.583 263.564 104.583 263.324C104.583 263.084 104.488 262.87 104.345 262.787L100.539 260.581C97.4582 258.795 95.0295 254.977 93.8935 250.135L92.4898 244.153C92.437 243.928 92.3006 243.778 92.1481 243.778C91.9956 243.778 91.8592 243.928 91.8064 244.153L90.4027 250.135C89.2665 254.977 86.838 258.795 83.7569 260.581L79.9509 262.787C79.8078 262.87 79.7128 263.084 79.7128 263.324C79.7128 263.564 79.8078 263.778 79.9509 263.861L83.7567 266.067C86.8378 267.853 89.2665 271.67 90.4027 276.514Z" fill="url(#paint25_linear_38_9)" fill-opacity="0.35"/>
<path d="M121.259 301.781L117.454 299.575C114.373 297.789 111.944 293.971 110.808 289.129L109.404 283.147C109.352 282.922 109.215 282.772 109.063 282.772C108.91 282.772 108.774 282.922 108.721 283.147L107.317 289.129C106.181 293.971 103.752 297.789 100.671 299.575L96.8656 301.781C96.7225 301.864 96.6275 302.078 96.6275 302.318C96.6275 302.558 96.7225 302.772 96.8656 302.855L100.672 305.062C103.752 306.848 106.181 310.665 107.317 315.507L108.721 321.49C108.774 321.715 108.91 321.864 109.063 321.864C109.215 321.864 109.352 321.715 109.404 321.49L110.808 315.507C111.944 310.665 114.373 306.847 117.454 305.062L121.26 302.855C121.403 302.772 121.498 302.558 121.498 302.318C121.498 302.078 121.403 301.864 121.259 301.781Z" fill="url(#paint26_linear_38_9)" fill-opacity="0.35"/>
<path d="M140.957 276.193L138.37 274.694C136.276 273.48 134.626 270.886 133.854 267.595L132.9 263.529C132.864 263.376 132.771 263.275 132.667 263.275C132.564 263.275 132.471 263.376 132.435 263.529L131.481 267.594C130.709 270.886 129.059 273.48 126.965 274.694L124.378 276.193C124.281 276.249 124.216 276.395 124.216 276.558C124.216 276.721 124.281 276.867 124.378 276.923L126.965 278.422C129.059 279.636 130.709 282.231 131.481 285.522L132.435 289.588C132.471 289.741 132.564 289.842 132.667 289.842C132.771 289.842 132.864 289.741 132.9 289.588L133.854 285.522C134.626 282.23 136.276 279.636 138.37 278.422L140.957 276.923C141.054 276.867 141.119 276.721 141.119 276.558C141.119 276.395 141.054 276.249 140.957 276.193Z" fill="url(#paint27_linear_38_9)" fill-opacity="0.35"/>
<path d="M121.385 248.18L119.58 247.135C118.12 246.288 116.969 244.478 116.43 242.183L115.765 239.347C115.74 239.24 115.675 239.17 115.603 239.17C115.531 239.17 115.466 239.24 115.441 239.347L114.776 242.182C114.237 244.478 113.085 246.288 111.625 247.134L109.821 248.18C109.753 248.219 109.708 248.321 109.708 248.435C109.708 248.548 109.753 248.65 109.821 248.689L111.625 249.735C113.085 250.582 114.237 252.392 114.776 254.688L115.441 257.523C115.466 257.63 115.531 257.701 115.603 257.701C115.675 257.701 115.74 257.63 115.765 257.523L116.43 254.688C116.969 252.392 118.12 250.582 119.581 249.736L121.385 248.69C121.453 248.65 121.498 248.549 121.498 248.435C121.498 248.321 121.453 248.22 121.385 248.18Z" fill="url(#paint28_linear_38_9)" fill-opacity="0.35"/>
<path d="M28.4275 276.514L29.8311 282.496C29.8839 282.721 30.0203 282.87 30.1728 282.87C30.3253 282.87 30.4618 282.721 30.5145 282.496L31.9182 276.514C33.0544 271.671 35.4832 267.853 38.564 266.067L42.3699 263.861C42.5129 263.778 42.608 263.564 42.608 263.324C42.608 263.084 42.5129 262.87 42.3699 262.787L38.5638 260.581C35.483 258.795 33.0542 254.977 31.9182 250.135L30.5145 244.153C30.4618 243.928 30.3253 243.778 30.1728 243.778C30.0203 243.778 29.8839 243.928 29.8311 244.153L28.4275 250.135C27.2913 254.977 24.8627 258.795 21.7816 260.581L17.9756 262.787C17.8325 262.87 17.7375 263.084 17.7375 263.324C17.7375 263.564 17.8325 263.778 17.9756 263.861L21.7814 266.067C24.8625 267.853 27.2913 271.67 28.4275 276.514Z" fill="url(#paint29_linear_38_9)" fill-opacity="0.35"/>
<path d="M59.284 301.781L55.4784 299.575C52.3973 297.789 49.9686 293.971 48.8326 289.129L47.4289 283.147C47.3762 282.922 47.2397 282.772 47.0872 282.772C46.9347 282.772 46.7983 282.922 46.7455 283.147L45.3418 289.129C44.2056 293.971 41.7769 297.789 38.696 299.575L34.8902 301.781C34.7471 301.864 34.6521 302.078 34.6521 302.318C34.6521 302.558 34.7471 302.772 34.8902 302.855L38.6963 305.062C41.7771 306.848 44.2056 310.665 45.3418 315.507L46.7455 321.49C46.7983 321.715 46.9347 321.864 47.0872 321.864C47.2397 321.864 47.3762 321.715 47.4289 321.49L48.8326 315.507C49.9688 310.665 52.3973 306.847 55.4782 305.062L59.2842 302.855C59.4273 302.772 59.5223 302.558 59.5223 302.318C59.5223 302.078 59.4271 301.864 59.284 301.781Z" fill="url(#paint30_linear_38_9)" fill-opacity="0.35"/>
<path d="M78.9816 276.193L76.395 274.694C74.3012 273.48 72.6507 270.886 71.8785 267.595L70.9246 263.529C70.8886 263.376 70.7959 263.275 70.6923 263.275C70.5887 263.275 70.496 263.376 70.46 263.529L69.5063 267.594C68.7341 270.886 67.0836 273.48 64.9896 274.694L62.4032 276.193C62.3061 276.249 62.2413 276.395 62.2413 276.558C62.2413 276.721 62.3061 276.867 62.4032 276.923L64.9899 278.422C67.0836 279.636 68.7341 282.231 69.5063 285.522L70.46 289.588C70.496 289.741 70.5887 289.842 70.6923 289.842C70.7959 289.842 70.8886 289.741 70.9246 289.588L71.8785 285.522C72.6507 282.23 74.301 279.636 76.395 278.422L78.9816 276.923C79.0788 276.867 79.1435 276.721 79.1435 276.558C79.1435 276.395 79.0788 276.249 78.9816 276.193Z" fill="url(#paint31_linear_38_9)" fill-opacity="0.35"/>
<path d="M59.4096 248.18L57.6052 247.135C56.1447 246.288 54.9935 244.478 54.4551 242.183L53.7895 239.347C53.7646 239.24 53.6998 239.17 53.6275 239.17C53.5553 239.17 53.4905 239.24 53.4656 239.347L52.8002 242.182C52.2616 244.478 51.1102 246.288 49.6497 247.134L47.8453 248.18C47.7775 248.219 47.7325 248.321 47.7325 248.435C47.7325 248.548 47.7775 248.65 47.8453 248.689L49.6495 249.735C51.1102 250.582 52.2616 252.392 52.8002 254.688L53.4656 257.523C53.4905 257.63 53.5553 257.701 53.6275 257.701C53.6998 257.701 53.7646 257.63 53.7895 257.523L54.4551 254.688C54.9937 252.392 56.1449 250.582 57.6056 249.736L59.4098 248.69C59.4776 248.65 59.5226 248.549 59.5226 248.435C59.5226 248.321 59.4776 248.22 59.4096 248.18Z" fill="url(#paint32_linear_38_9)" fill-opacity="0.35"/>
<path d="M16.9214 277.96L14.3347 276.461C12.241 275.247 10.5904 272.653 9.81823 269.362L8.86436 265.296C8.82833 265.143 8.73566 265.042 8.63206 265.042C8.52846 265.042 8.43579 265.143 8.39976 265.296L7.4461 269.361C6.6739 272.653 5.02334 275.247 2.9294 276.461L0.342978 277.96C0.24581 278.016 0.18103 278.162 0.18103 278.325C0.18103 278.488 0.24581 278.634 0.342978 278.69L2.92962 280.189C5.02334 281.403 6.6739 283.998 7.4461 287.289L8.39976 291.355C8.43579 291.507 8.52846 291.609 8.63206 291.609C8.73566 291.609 8.82833 291.507 8.86436 291.355L9.81823 287.289C10.5904 283.997 12.2408 281.403 14.3347 280.189L16.9214 278.69C17.0185 278.634 17.0833 278.488 17.0833 278.325C17.0833 278.162 17.0185 278.016 16.9214 277.96Z" fill="url(#paint33_linear_38_9)" fill-opacity="0.35"/>
<path d="M154.055 73.5599L155.459 79.5421C155.512 79.7673 155.648 79.9167 155.801 79.9167C155.953 79.9167 156.09 79.7673 156.142 79.5421L157.546 73.5599C158.682 68.717 161.111 64.8993 164.192 63.1137L167.998 60.9074C168.141 60.8244 168.236 60.61 168.236 60.3703C168.236 60.1306 168.141 59.9161 167.998 59.8332L164.192 57.6268C161.111 55.8409 158.682 52.0236 157.546 47.181L156.142 41.1988C156.09 40.9739 155.953 40.8246 155.801 40.8246C155.648 40.8246 155.512 40.9739 155.459 41.1988L154.055 47.181C152.919 52.0236 150.491 55.8409 147.41 57.6268L143.604 59.8332C143.46 59.9161 143.365 60.1306 143.365 60.3703C143.365 60.61 143.46 60.8244 143.604 60.9074L147.409 63.1137C150.49 64.8993 152.919 68.7166 154.055 73.5599Z" fill="url(#paint34_linear_38_9)" fill-opacity="0.35"/>
<path d="M184.912 98.8271L181.106 96.621C178.025 94.8351 175.597 91.0178 174.461 86.1752L173.057 80.193C173.004 79.9681 172.868 79.8188 172.715 79.8188C172.563 79.8188 172.426 79.9681 172.373 80.193L170.97 86.1749C169.834 91.0178 167.405 94.8351 164.324 96.621L160.518 98.8271C160.375 98.91 160.28 99.1244 160.28 99.3642C160.28 99.6039 160.375 99.8183 160.518 99.9013L164.324 102.108C167.405 103.894 169.834 107.711 170.97 112.554L172.373 118.536C172.426 118.761 172.563 118.911 172.715 118.911C172.868 118.911 173.004 118.761 173.057 118.536L174.461 112.554C175.597 107.711 178.025 103.894 181.106 102.108L184.912 99.9013C185.055 99.8183 185.15 99.6039 185.15 99.3642C185.15 99.1244 185.055 98.91 184.912 98.8271Z" fill="url(#paint35_linear_38_9)" fill-opacity="0.35"/>
<path d="M198.344 126.76L196.539 125.714C195.079 124.867 193.927 123.058 193.389 120.763L192.723 117.927C192.698 117.821 192.634 117.75 192.561 117.75C192.489 117.75 192.424 117.821 192.399 117.927L191.734 120.763C191.195 123.058 190.044 124.868 188.584 125.714L186.779 126.76C186.712 126.799 186.667 126.901 186.667 127.015C186.667 127.128 186.712 127.23 186.779 127.269L188.583 128.316C190.044 129.162 191.195 130.972 191.734 133.268L192.4 136.104C192.425 136.21 192.489 136.281 192.562 136.281C192.634 136.281 192.699 136.21 192.724 136.104L193.389 133.268C193.928 130.972 195.079 129.162 196.54 128.316L198.344 127.269C198.412 127.23 198.457 127.128 198.457 127.015C198.457 126.901 198.412 126.799 198.344 126.76Z" fill="url(#paint36_linear_38_9)" fill-opacity="0.35"/>
<path d="M185.037 45.2269L183.233 44.181C181.772 43.3344 180.621 41.5249 180.083 39.2292L179.417 36.3937C179.392 36.2868 179.328 36.216 179.255 36.216C179.183 36.216 179.118 36.2868 179.093 36.3933L178.428 39.2285C177.889 41.5242 176.738 43.3341 175.277 44.1807L173.473 45.2265C173.405 45.2657 173.36 45.3675 173.36 45.4811C173.36 45.5947 173.405 45.6965 173.473 45.7357L175.277 46.7819C176.738 47.6285 177.889 49.4383 178.428 51.7344L179.093 54.5699C179.118 54.6764 179.183 54.7472 179.255 54.7472C179.328 54.7472 179.392 54.6764 179.417 54.5699L180.083 51.734C180.621 49.438 181.773 47.6285 183.233 46.7822L185.038 45.736C185.105 45.6969 185.15 45.5951 185.15 45.4814C185.15 45.3678 185.105 45.266 185.037 45.2269Z" fill="url(#paint37_linear_38_9)" fill-opacity="0.35"/>
<path d="M162.907 120.93L160.637 119.615C158.8 118.551 157.352 116.274 156.674 113.386L155.837 109.819C155.806 109.685 155.725 109.596 155.634 109.596C155.543 109.596 155.461 109.685 155.43 109.819L154.593 113.386C153.916 116.274 152.467 118.55 150.63 119.615L148.361 120.93C148.276 120.979 148.219 121.108 148.219 121.25C148.219 121.393 148.276 121.522 148.361 121.571L150.63 122.886C152.467 123.951 153.916 126.228 154.593 129.115L155.43 132.682C155.461 132.817 155.543 132.906 155.634 132.906C155.725 132.906 155.806 132.817 155.837 132.682L156.674 129.115C157.352 126.228 158.8 123.951 160.637 122.886L162.907 121.571C162.992 121.522 163.049 121.393 163.049 121.25C163.049 121.108 162.992 120.979 162.907 120.93Z" fill="url(#paint38_linear_38_9)" fill-opacity="0.35"/>
<path d="M92.08 73.5599L93.4837 79.5421C93.5364 79.7673 93.6728 79.9167 93.8254 79.9167C93.9779 79.9167 94.1143 79.7673 94.167 79.5421L95.5707 73.5599C96.7069 68.717 99.1357 64.8993 102.217 63.1137L106.022 60.9074C106.165 60.8244 106.26 60.61 106.26 60.3703C106.26 60.1306 106.165 59.9161 106.022 59.8332L102.216 57.6268C99.1355 55.8409 96.7067 52.0236 95.5707 47.181L94.167 41.1988C94.1143 40.9739 93.9779 40.8246 93.8254 40.8246C93.6728 40.8246 93.5364 40.9739 93.4837 41.1988L92.08 47.181C90.9438 52.0236 88.5152 55.8409 85.4342 57.6268L81.6281 59.8332C81.485 59.9161 81.39 60.1306 81.39 60.3703C81.39 60.61 81.485 60.8244 81.6281 60.9074L85.434 63.1137C88.515 64.8993 90.9438 68.7166 92.08 73.5599Z" fill="url(#paint39_linear_38_9)" fill-opacity="0.35"/>
<path d="M122.937 98.8271L119.131 96.621C116.05 94.8351 113.621 91.0178 112.485 86.1752L111.082 80.193C111.029 79.9681 110.892 79.8188 110.74 79.8188C110.587 79.8188 110.451 79.9681 110.398 80.193L108.994 86.1749C107.858 91.0178 105.429 94.8351 102.349 96.621L98.5428 98.8271C98.3997 98.91 98.3047 99.1244 98.3047 99.3642C98.3047 99.6039 98.3997 99.8183 98.5428 99.9013L102.349 102.108C105.43 103.894 107.858 107.711 108.994 112.554L110.398 118.536C110.451 118.761 110.587 118.911 110.74 118.911C110.892 118.911 111.029 118.761 111.082 118.536L112.485 112.554C113.621 107.711 116.05 103.894 119.131 102.108L122.937 99.9013C123.08 99.8183 123.175 99.6039 123.175 99.3642C123.175 99.1244 123.08 98.91 122.937 98.8271Z" fill="url(#paint40_linear_38_9)" fill-opacity="0.35"/>
<path d="M142.634 73.2395L140.047 71.7401C137.954 70.5264 136.303 67.932 135.531 64.641L134.577 60.5755C134.541 60.4228 134.448 60.321 134.345 60.321C134.241 60.321 134.148 60.4228 134.112 60.5755L133.159 64.6406C132.386 67.932 130.736 70.5264 128.642 71.7401L126.056 73.2395C125.958 73.2958 125.894 73.4414 125.894 73.6043C125.894 73.7671 125.958 73.9131 126.056 73.9694L128.642 75.4684C130.736 76.6825 132.386 79.277 133.159 82.568L134.112 86.6341C134.148 86.7868 134.241 86.8886 134.345 86.8886C134.448 86.8886 134.541 86.7868 134.577 86.6341L135.531 82.568C136.303 79.2766 137.953 76.6825 140.047 75.4688L142.634 73.9694C142.731 73.9131 142.796 73.7671 142.796 73.6043C142.796 73.4414 142.731 73.2958 142.634 73.2395Z" fill="url(#paint41_linear_38_9)" fill-opacity="0.35"/>
<path d="M136.368 126.76L134.564 125.714C133.103 124.867 131.952 123.058 131.414 120.763L130.748 117.927C130.723 117.821 130.658 117.75 130.586 117.75C130.514 117.75 130.449 117.821 130.424 117.927L129.758 120.763C129.22 123.058 128.069 124.868 126.608 125.714L124.804 126.76C124.736 126.799 124.691 126.901 124.691 127.015C124.691 127.128 124.736 127.23 124.804 127.269L126.608 128.316C128.069 129.162 129.22 130.972 129.759 133.268L130.424 136.104C130.449 136.21 130.514 136.281 130.586 136.281C130.659 136.281 130.723 136.21 130.748 136.104L131.414 133.268C131.952 130.972 133.104 129.162 134.564 128.316L136.368 127.269C136.436 127.23 136.481 127.128 136.481 127.015C136.481 126.901 136.436 126.799 136.368 126.76Z" fill="url(#paint42_linear_38_9)" fill-opacity="0.35"/>
<path d="M123.062 45.2269L121.258 44.181C119.797 43.3344 118.646 41.5249 118.108 39.2292L117.442 36.3937C117.417 36.2868 117.352 36.216 117.28 36.216C117.208 36.216 117.143 36.2868 117.118 36.3933L116.453 39.2285C115.914 41.5242 114.763 43.3341 113.302 44.1807L111.498 45.2265C111.43 45.2657 111.385 45.3675 111.385 45.4811C111.385 45.5947 111.43 45.6965 111.498 45.7357L113.302 46.7819C114.763 47.6285 115.914 49.4383 116.453 51.7344L117.118 54.5699C117.143 54.6764 117.208 54.7472 117.28 54.7472C117.352 54.7472 117.417 54.6764 117.442 54.5699L118.108 51.734C118.646 49.438 119.797 47.6285 121.258 46.7822L123.062 45.736C123.13 45.6969 123.175 45.5951 123.175 45.4814C123.175 45.3678 123.13 45.266 123.062 45.2269Z" fill="url(#paint43_linear_38_9)" fill-opacity="0.35"/>
<path d="M100.931 120.93L98.6621 119.615C96.8251 118.551 95.3768 116.274 94.699 113.386L93.8622 109.819C93.8307 109.685 93.7494 109.596 93.6585 109.596C93.5675 109.596 93.4862 109.685 93.4547 109.819L92.6179 113.386C91.9405 116.274 90.4923 118.55 88.6549 119.615L86.3859 120.93C86.3003 120.979 86.2439 121.108 86.2439 121.25C86.2439 121.393 86.3005 121.522 86.3859 121.571L88.6551 122.886C90.492 123.951 91.9403 126.228 92.6179 129.115L93.4547 132.682C93.4862 132.817 93.5675 132.906 93.6585 132.906C93.7494 132.906 93.8309 132.817 93.8622 132.682L94.6992 129.115C95.3766 126.228 96.8247 123.951 98.6619 122.886L100.931 121.571C101.017 121.522 101.073 121.393 101.073 121.25C101.073 121.108 101.017 120.979 100.931 120.93Z" fill="url(#paint44_linear_38_9)" fill-opacity="0.35"/>
<path d="M30.1048 73.5599L31.5084 79.5421C31.5612 79.7673 31.6976 79.9167 31.8501 79.9167C32.0026 79.9167 32.1391 79.7673 32.1918 79.5421L33.5955 73.5599C34.7317 68.717 37.1605 64.8993 40.2413 63.1137L44.0472 60.9074C44.1902 60.8244 44.2853 60.61 44.2853 60.3703C44.2853 60.1306 44.1902 59.9161 44.0472 59.8332L40.2411 57.6268C37.1603 55.8409 34.7315 52.0236 33.5955 47.181L32.1918 41.1988C32.1391 40.9739 32.0026 40.8246 31.8501 40.8246C31.6976 40.8246 31.5612 40.9739 31.5084 41.1988L30.1048 47.181C28.9686 52.0236 26.54 55.8409 23.459 57.6268L19.6529 59.8332C19.5098 59.9161 19.4148 60.1306 19.4148 60.3703C19.4148 60.61 19.5098 60.8244 19.6529 60.9074L23.4587 63.1137C26.5398 64.8993 28.9686 68.7166 30.1048 73.5599Z" fill="url(#paint45_linear_38_9)" fill-opacity="0.35"/>
<path d="M60.9615 98.8271L57.1558 96.621C54.0748 94.8351 51.646 91.0178 50.51 86.1752L49.1063 80.193C49.0536 79.9681 48.9172 79.8188 48.7646 79.8188C48.6121 79.8188 48.4757 79.9681 48.423 80.193L47.0193 86.1749C45.8831 91.0178 43.4543 94.8351 40.3735 96.621L36.5676 98.8271C36.4246 98.91 36.3295 99.1244 36.3295 99.3642C36.3295 99.6039 36.4246 99.8183 36.5676 99.9013L40.3737 102.108C43.4545 103.894 45.8831 107.711 47.0193 112.554L48.423 118.536C48.4757 118.761 48.6121 118.911 48.7646 118.911C48.9172 118.911 49.0536 118.761 49.1063 118.536L50.51 112.554C51.6462 107.711 54.0748 103.894 57.1556 102.108L60.9617 99.9013C61.1047 99.8183 61.1998 99.6039 61.1998 99.3642C61.1998 99.1244 61.1045 98.91 60.9615 98.8271Z" fill="url(#paint46_linear_38_9)" fill-opacity="0.35"/>
<path d="M80.6589 73.2395L78.0723 71.7401C75.9785 70.5264 74.328 67.932 73.5558 64.641L72.6019 60.5755C72.5659 60.4228 72.4732 60.321 72.3696 60.321C72.266 60.321 72.1733 60.4228 72.1373 60.5755L71.1836 64.6406C70.4115 67.932 68.7609 70.5264 66.6669 71.7401L64.0805 73.2395C63.9834 73.2958 63.9186 73.4414 63.9186 73.6043C63.9186 73.7671 63.9834 73.9131 64.0805 73.9694L66.6672 75.4684C68.7609 76.6825 70.4115 79.277 71.1836 82.568L72.1373 86.6341C72.1733 86.7868 72.266 86.8886 72.3696 86.8886C72.4732 86.8886 72.5659 86.7868 72.6019 86.6341L73.5558 82.568C74.328 79.2766 75.9783 76.6825 78.0723 75.4688L80.6589 73.9694C80.7561 73.9131 80.8208 73.7671 80.8208 73.6043C80.8208 73.4414 80.7561 73.2958 80.6589 73.2395Z" fill="url(#paint47_linear_38_9)" fill-opacity="0.35"/>
<path d="M74.393 126.76L72.5886 125.714C71.1281 124.867 69.9769 123.058 69.4383 120.763L68.7727 117.927C68.7478 117.821 68.683 117.75 68.6107 117.75C68.5384 117.75 68.4737 117.821 68.4488 117.927L67.7832 120.763C67.2446 123.058 66.0934 124.868 64.6331 125.714L62.8287 126.76C62.7609 126.799 62.7159 126.901 62.7159 127.015C62.7159 127.128 62.7609 127.23 62.8287 127.269L64.6329 128.316C66.0936 129.162 67.2448 130.972 67.7834 133.268L68.449 136.104C68.4739 136.21 68.5387 136.281 68.6109 136.281C68.6832 136.281 68.748 136.21 68.7729 136.104L69.4385 133.268C69.9771 130.972 71.1283 129.162 72.589 128.316L74.3932 127.269C74.461 127.23 74.506 127.128 74.506 127.015C74.506 126.901 74.461 126.799 74.393 126.76Z" fill="url(#paint48_linear_38_9)" fill-opacity="0.35"/>
<path d="M61.0868 45.2269L59.2825 44.181C57.8219 43.3344 56.6707 41.5249 56.1323 39.2292L55.4667 36.3937C55.4419 36.2868 55.3771 36.216 55.3048 36.216C55.2325 36.216 55.1677 36.2868 55.1428 36.3933L54.4775 39.2285C53.9389 41.5242 52.7874 43.3341 51.3269 44.1807L49.5226 45.2265C49.4548 45.2657 49.4097 45.3675 49.4097 45.4811C49.4097 45.5947 49.4548 45.6965 49.5226 45.7357L51.3267 46.7819C52.7874 47.6285 53.9389 49.4383 54.4775 51.7344L55.1428 54.5699C55.1677 54.6764 55.2325 54.7472 55.3048 54.7472C55.3771 54.7472 55.4419 54.6764 55.4667 54.5699L56.1323 51.734C56.6709 49.438 57.8221 47.6285 59.2829 46.7822L61.087 45.736C61.1548 45.6969 61.1999 45.5951 61.1999 45.4814C61.1999 45.3678 61.1548 45.266 61.0868 45.2269Z" fill="url(#paint49_linear_38_9)" fill-opacity="0.35"/>
<path d="M38.9561 120.93L36.6867 119.615C34.8498 118.551 33.4015 116.274 32.7237 113.386L31.8869 109.819C31.8554 109.685 31.7741 109.596 31.6831 109.596C31.5922 109.596 31.5109 109.685 31.4793 109.819L30.6426 113.386C29.9652 116.274 28.5169 118.55 26.6795 119.615L24.4106 120.93C24.325 120.979 24.2686 121.108 24.2686 121.25C24.2686 121.393 24.3252 121.522 24.4106 121.571L26.6797 122.886C28.5167 123.951 29.965 126.228 30.6426 129.115L31.4793 132.682C31.5109 132.817 31.5922 132.906 31.6831 132.906C31.7741 132.906 31.8556 132.817 31.8869 132.682L32.7239 129.115C33.4013 126.228 34.8493 123.951 36.6865 122.886L38.9561 121.571C39.0415 121.522 39.0981 121.393 39.0981 121.25C39.0981 121.108 39.0417 120.979 38.9561 120.93Z" fill="url(#paint50_linear_38_9)" fill-opacity="0.35"/>
<path d="M18.5987 75.0064L16.0121 73.5071C13.9184 72.2933 12.2678 69.6989 11.4956 66.4079L10.5417 62.3424C10.5057 62.1897 10.413 62.0879 10.3094 62.0879C10.2058 62.0879 10.1132 62.1897 10.0771 62.3424L9.12347 66.4076C8.35127 69.6989 6.7007 72.2933 4.60677 73.5071L2.02035 75.0064C1.92318 75.0627 1.8584 75.2084 1.8584 75.3712C1.8584 75.5341 1.92318 75.6801 2.02035 75.7364L4.60698 77.2354C6.7007 78.4495 8.35127 81.0439 9.12347 84.3349L10.0771 88.401C10.1132 88.5538 10.2058 88.6556 10.3094 88.6556C10.413 88.6556 10.5057 88.5538 10.5417 88.401L11.4956 84.3349C12.2678 81.0436 13.9181 78.4495 16.0121 77.2357L18.5987 75.7364C18.6959 75.6801 18.7607 75.5341 18.7607 75.3712C18.7607 75.2084 18.6959 75.0627 18.5987 75.0064Z" fill="url(#paint51_linear_38_9)" fill-opacity="0.35"/>
<path d="M183.235 -1.81115L179.429 -4.01717C176.348 -5.80309 173.919 -9.6204 172.783 -14.463L171.38 -20.4452C171.327 -20.6701 171.19 -20.8194 171.038 -20.8194C170.885 -20.8194 170.749 -20.6701 170.696 -20.4452L169.292 -14.4633C168.156 -9.62039 165.728 -5.80309 162.647 -4.01717L158.841 -1.81115C158.698 -1.7282 158.603 -1.51377 158.603 -1.27405C158.603 -1.03433 158.698 -0.8199 158.841 -0.736959L162.647 1.46974C165.728 3.25566 168.156 7.07296 169.292 11.9156L170.696 17.8981C170.749 18.123 170.885 18.2723 171.038 18.2723C171.19 18.2723 171.327 18.123 171.38 17.8981L172.783 11.9156C173.919 7.07296 176.348 3.25533 179.429 1.46974L183.235 -0.736959C183.378 -0.8199 183.473 -1.03433 183.473 -1.27405C183.473 -1.51377 183.378 -1.7282 183.235 -1.81115Z" fill="url(#paint52_linear_38_9)" fill-opacity="0.35"/>
<path d="M196.666 26.1221L194.862 25.0759C193.402 24.2293 192.25 22.4197 191.712 20.1244L191.046 17.2889C191.021 17.1823 190.957 17.1115 190.884 17.1115C190.812 17.1115 190.747 17.1823 190.722 17.2889L190.057 20.1244C189.518 22.4201 188.367 24.2296 186.907 25.0759L185.102 26.1221C185.034 26.1612 184.989 26.263 184.989 26.3766C184.989 26.4902 185.034 26.5921 185.102 26.6312L186.906 27.6774C188.367 28.524 189.518 30.3338 190.057 32.6295L190.722 35.4654C190.747 35.5719 190.812 35.6427 190.884 35.6427C190.957 35.6427 191.022 35.5719 191.046 35.4654L191.712 32.6295C192.251 30.3338 193.402 28.524 194.863 27.6774L196.667 26.6312C196.734 26.5921 196.78 26.4902 196.78 26.3766C196.78 26.263 196.734 26.1612 196.666 26.1221Z" fill="url(#paint53_linear_38_9)" fill-opacity="0.35"/>
<path d="M161.23 20.292L158.96 18.9771C157.123 17.9123 155.675 15.6358 154.997 12.7481L154.16 9.18096C154.129 9.04711 154.047 8.95776 153.957 8.95776C153.866 8.95776 153.784 9.04711 153.753 9.18096L152.916 12.7478C152.239 15.6355 150.79 17.912 148.953 18.9771L146.684 20.292C146.598 20.3412 146.542 20.4693 146.542 20.6123C146.542 20.7553 146.599 20.8834 146.684 20.9326L148.953 22.2482C150.79 23.3129 152.238 25.5894 152.916 28.4772L153.753 32.0443C153.784 32.1785 153.866 32.2675 153.957 32.2675C154.047 32.2675 154.129 32.1785 154.16 32.0443L154.997 28.4768C155.675 25.5894 157.123 23.3133 158.96 22.2482L161.23 20.9326C161.315 20.8834 161.371 20.7553 161.371 20.6123C161.371 20.4693 161.315 20.3412 161.23 20.292Z" fill="url(#paint54_linear_38_9)" fill-opacity="0.35"/>
<path d="M121.259 -1.81115L117.454 -4.01717C114.373 -5.80309 111.944 -9.6204 110.808 -14.463L109.404 -20.4452C109.352 -20.6701 109.215 -20.8194 109.063 -20.8194C108.91 -20.8194 108.774 -20.6701 108.721 -20.4452L107.317 -14.4633C106.181 -9.62039 103.752 -5.80309 100.671 -4.01717L96.8656 -1.81115C96.7225 -1.7282 96.6275 -1.51377 96.6275 -1.27405C96.6275 -1.03433 96.7225 -0.8199 96.8656 -0.736959L100.672 1.46974C103.752 3.25566 106.181 7.07296 107.317 11.9156L108.721 17.8981C108.774 18.123 108.91 18.2723 109.063 18.2723C109.215 18.2723 109.352 18.123 109.404 17.8981L110.808 11.9156C111.944 7.07296 114.373 3.25533 117.454 1.46974L121.26 -0.736959C121.403 -0.8199 121.498 -1.03433 121.498 -1.27405C121.498 -1.51377 121.403 -1.7282 121.259 -1.81115Z" fill="url(#paint55_linear_38_9)" fill-opacity="0.35"/>
<path d="M134.691 26.1221L132.887 25.0759C131.426 24.2293 130.275 22.4197 129.736 20.1244L129.071 17.2889C129.046 17.1823 128.981 17.1115 128.909 17.1115C128.836 17.1115 128.772 17.1823 128.747 17.2889L128.081 20.1244C127.543 22.4201 126.391 24.2296 124.931 25.0759L123.127 26.1221C123.059 26.1612 123.014 26.263 123.014 26.3766C123.014 26.4902 123.059 26.5921 123.127 26.6312L124.931 27.6774C126.392 28.524 127.543 30.3338 128.081 32.6295L128.747 35.4654C128.772 35.5719 128.837 35.6427 128.909 35.6427C128.981 35.6427 129.046 35.5719 129.071 35.4654L129.737 32.6295C130.275 30.3338 131.426 28.524 132.887 27.6774L134.691 26.6312C134.759 26.5921 134.804 26.4902 134.804 26.3766C134.804 26.263 134.759 26.1612 134.691 26.1221Z" fill="url(#paint56_linear_38_9)" fill-opacity="0.35"/>
<path d="M99.2542 20.292L96.9848 18.9771C95.1478 17.9123 93.6995 15.6358 93.0217 12.7481L92.1849 9.18096C92.1534 9.04711 92.0721 8.95776 91.9812 8.95776C91.8902 8.95776 91.8089 9.04711 91.7774 9.18096L90.9406 12.7478C90.2632 15.6355 88.8149 17.912 86.9776 18.9771L84.7086 20.292C84.623 20.3412 84.5666 20.4693 84.5666 20.6123C84.5666 20.7553 84.6232 20.8834 84.7086 20.9326L86.9778 22.2482C88.8147 23.3129 90.263 25.5894 90.9406 28.4772L91.7774 32.0443C91.8089 32.1785 91.8902 32.2675 91.9812 32.2675C92.0721 32.2675 92.1536 32.1785 92.1849 32.0443L93.0219 28.4768C93.6993 25.5894 95.1474 23.3133 96.9845 22.2482L99.2542 20.9326C99.3395 20.8834 99.3962 20.7553 99.3962 20.6123C99.3962 20.4693 99.3397 20.3412 99.2542 20.292Z" fill="url(#paint57_linear_38_9)" fill-opacity="0.35"/>
<path d="M59.284 -1.81115L55.4784 -4.01717C52.3973 -5.80309 49.9686 -9.6204 48.8326 -14.463L47.4289 -20.4452C47.3762 -20.6701 47.2397 -20.8194 47.0872 -20.8194C46.9347 -20.8194 46.7983 -20.6701 46.7455 -20.4452L45.3418 -14.4633C44.2056 -9.62039 41.7769 -5.80309 38.696 -4.01717L34.8902 -1.81115C34.7471 -1.7282 34.6521 -1.51377 34.6521 -1.27405C34.6521 -1.03433 34.7471 -0.8199 34.8902 -0.736959L38.6963 1.46974C41.7771 3.25566 44.2056 7.07296 45.3418 11.9156L46.7455 17.8981C46.7983 18.123 46.9347 18.2723 47.0872 18.2723C47.2397 18.2723 47.3762 18.123 47.4289 17.8981L48.8326 11.9156C49.9688 7.07296 52.3973 3.25533 55.4782 1.46974L59.2842 -0.736959C59.4273 -0.8199 59.5223 -1.03433 59.5223 -1.27405C59.5223 -1.51377 59.4271 -1.7282 59.284 -1.81115Z" fill="url(#paint58_linear_38_9)" fill-opacity="0.35"/>
<path d="M72.7158 26.1221L70.9114 25.0759C69.4509 24.2293 68.2997 22.4197 67.7611 20.1244L67.0955 17.2889C67.0706 17.1823 67.0058 17.1115 66.9335 17.1115C66.8613 17.1115 66.7965 17.1823 66.7716 17.2889L66.106 20.1244C65.5674 22.4201 64.4162 24.2296 62.9559 25.0759L61.1515 26.1221C61.0837 26.1612 61.0387 26.263 61.0387 26.3766C61.0387 26.4902 61.0837 26.5921 61.1515 26.6312L62.9557 27.6774C64.4164 28.524 65.5676 30.3338 66.1062 32.6295L66.7718 35.4654C66.7967 35.5719 66.8615 35.6427 66.9338 35.6427C67.006 35.6427 67.0708 35.5719 67.0957 35.4654L67.7613 32.6295C68.2999 30.3338 69.4511 28.524 70.9118 27.6774L72.716 26.6312C72.7838 26.5921 72.8288 26.4902 72.8288 26.3766C72.8288 26.263 72.7838 26.1612 72.7158 26.1221Z" fill="url(#paint59_linear_38_9)" fill-opacity="0.35"/>
<path d="M37.2789 20.292L35.0095 18.9771C33.1726 17.9123 31.7243 15.6358 31.0465 12.7481L30.2097 9.18096C30.1782 9.04711 30.0969 8.95776 30.0059 8.95776C29.915 8.95776 29.8337 9.04711 29.8022 9.18096L28.9654 12.7478C28.288 15.6355 26.8397 17.912 25.0023 18.9771L22.7334 20.292C22.6478 20.3412 22.5914 20.4693 22.5914 20.6123C22.5914 20.7553 22.648 20.8834 22.7334 20.9326L25.0025 22.2482C26.8395 23.3129 28.2878 25.5894 28.9654 28.4772L29.8022 32.0443C29.8337 32.1785 29.915 32.2675 30.0059 32.2675C30.0969 32.2675 30.1784 32.1785 30.2097 32.0443L31.0467 28.4768C31.7241 25.5894 33.1722 23.3133 35.0093 22.2482L37.2789 20.9326C37.3643 20.8834 37.4209 20.7553 37.4209 20.6123C37.4209 20.4693 37.3645 20.3412 37.2789 20.292Z" fill="url(#paint60_linear_38_9)" fill-opacity="0.35"/>
</g>
<rect x="13.5" y="13.5" width="173" height="274" rx="14.5" stroke="url(#paint61_linear_38_9)"/>
<path d="M147.5 81.5C159.537 100.071 157.615 146.275 134.279 169.604C114.878 189 109 192 87.5 184.5" fill="#167C8B"/>
<path d="M52 224.5C39.9647 205.924 41.3849 154.731 64.7182 131.398C89 110 94 107.5 114.5 117.5" fill="#167C8B"/>
<path d="M101.346 191.614C91.2694 191.614 81.2555 187.407 71.3579 178.984C69.1721 177.123 68.9084 173.846 70.7679 171.663C72.6315 169.477 75.9058 169.215 78.0891 171.073C89.0753 180.424 106.475 190.06 130.606 165.931C151.766 144.779 154.621 101.371 143.785 84.6491C142.224 82.2434 142.91 79.0272 145.318 77.4668C147.726 75.9064 150.94 76.5901 152.5 79C166.164 100.081 162.902 148.336 137.952 173.275C125.728 185.497 113.491 191.614 101.346 191.614Z" fill="url(#paint62_linear_38_9)"/>
<path d="M126.257 123.543C133.861 135.281 129.122 154.881 114.38 169.628C99.6333 184.37 87.1968 181.948 76.7487 173.051" fill="#282224"/>
<path d="M91.5374 187.39C84.7231 187.39 77.9523 184.6 71.383 179.007C69.1972 177.148 68.9335 173.869 70.7951 171.688C72.6545 169.503 75.9351 169.241 78.1142 171.1C85.018 176.973 94.7346 181.929 108.709 167.957C121.45 155.211 126.262 138.191 119.898 128.369C118.34 125.961 119.028 122.745 121.434 121.185C123.839 119.628 127.058 120.314 128.618 122.72C137.732 136.789 132.447 158.903 116.053 175.301C108 183.351 99.7336 187.39 91.5374 187.39Z" fill="url(#paint63_linear_38_9)"/>
<path d="M51.9308 228.335C50.2294 228.335 48.5632 227.502 47.5678 225.964C33.9099 204.886 36.1017 152.668 61.0449 127.726C83.4119 105.368 105.819 103.45 127.643 122.017C129.829 123.877 130.093 127.155 128.233 129.338C126.372 131.526 123.095 131.788 120.912 129.928C109.926 120.58 92.5325 110.94 68.3912 135.071C47.2374 156.227 45.4528 203.598 56.2854 220.318C57.8458 222.726 57.16 225.942 54.7522 227.5C53.8776 228.065 52.8991 228.335 51.9308 228.335Z" fill="url(#paint64_linear_38_9)"/>
<path d="M74.7487 175.459C67.1365 163.72 71.8754 144.125 86.6179 129.378C101.369 114.632 113.805 117.054 124.253 125.95" fill="#282224"/>
<path d="M74.7529 180.652C73.0535 180.652 71.3853 179.819 70.3899 178.284C61.2672 164.217 66.5486 142.105 82.9446 125.705C97.6974 110.956 113.144 109.67 127.619 121.994C129.804 123.854 130.068 127.132 128.207 129.314C126.347 131.499 123.065 131.759 120.887 129.902C113.984 124.026 104.263 119.077 90.289 133.049C77.5474 145.797 72.7399 162.812 79.1056 172.631C80.666 175.037 79.9802 178.255 77.5745 179.815C76.7015 180.382 75.723 180.652 74.7529 180.652Z" fill="url(#paint65_linear_38_9)"/>
<defs>
<linearGradient id="paint0_linear_38_9" x1="100" y1="0" x2="100" y2="300" gradientUnits="userSpaceOnUse">
<stop stop-color="#6DBECB"/>
<stop offset="1" stop-color="#406E75"/>
</linearGradient>
<linearGradient id="paint1_linear_38_9" x1="100" y1="13" x2="100" y2="288" gradientUnits="userSpaceOnUse">
<stop stop-color="#6DBECB"/>
<stop offset="1" stop-color="#406E75"/>
</linearGradient>
<linearGradient id="paint2_linear_38_9" x1="154.123" y1="143.14" x2="154.123" y2="182.232" gradientUnits="userSpaceOnUse">
<stop stop-color="white"/>
<stop offset="1" stop-color="#999999"/>
</linearGradient>
<linearGradient id="paint3_linear_38_9" x1="171.038" y1="182.134" x2="171.038" y2="221.226" gradientUnits="userSpaceOnUse">
<stop stop-color="white"/>
<stop offset="1" stop-color="#999999"/>
</linearGradient>
<linearGradient id="paint4_linear_38_9" x1="194.643" y1="162.637" x2="194.643" y2="189.204" gradientUnits="userSpaceOnUse">
<stop stop-color="white"/>
<stop offset="1" stop-color="#999999"/>
</linearGradient>
<linearGradient id="paint5_linear_38_9" x1="190.884" y1="220.065" x2="190.884" y2="238.596" gradientUnits="userSpaceOnUse">
<stop stop-color="white"/>
<stop offset="1" stop-color="#999999"/>
</linearGradient>
<linearGradient id="paint6_linear_38_9" x1="177.578" y1="138.531" x2="177.578" y2="157.063" gradientUnits="userSpaceOnUse">
<stop stop-color="white"/>
<stop offset="1" stop-color="#999999"/>
</linearGradient>
<linearGradient id="paint7_linear_38_9" x1="153.957" y1="211.911" x2="153.957" y2="235.221" gradientUnits="userSpaceOnUse">
<stop stop-color="white"/>
<stop offset="1" stop-color="#999999"/>
</linearGradient>
<linearGradient id="paint8_linear_38_9" x1="92.148" y1="143.14" x2="92.148" y2="182.232" gradientUnits="userSpaceOnUse">
<stop stop-color="white"/>
<stop offset="1" stop-color="#999999"/>
</linearGradient>
<linearGradient id="paint9_linear_38_9" x1="109.063" y1="182.134" x2="109.063" y2="221.226" gradientUnits="userSpaceOnUse">
<stop stop-color="white"/>
<stop offset="1" stop-color="#999999"/>
</linearGradient>
<linearGradient id="paint10_linear_38_9" x1="132.668" y1="162.637" x2="132.668" y2="189.204" gradientUnits="userSpaceOnUse">
<stop stop-color="white"/>
<stop offset="1" stop-color="#999999"/>
</linearGradient>
<linearGradient id="paint11_linear_38_9" x1="128.909" y1="220.065" x2="128.909" y2="238.596" gradientUnits="userSpaceOnUse">
<stop stop-color="white"/>
<stop offset="1" stop-color="#999999"/>
</linearGradient>
<linearGradient id="paint12_linear_38_9" x1="115.603" y1="138.531" x2="115.603" y2="157.063" gradientUnits="userSpaceOnUse">
<stop stop-color="white"/>
<stop offset="1" stop-color="#999999"/>
</linearGradient>
<linearGradient id="paint13_linear_38_9" x1="91.9814" y1="211.911" x2="91.9814" y2="235.221" gradientUnits="userSpaceOnUse">
<stop stop-color="white"/>
<stop offset="1" stop-color="#999999"/>
</linearGradient>
<linearGradient id="paint14_linear_38_9" x1="30.1727" y1="143.14" x2="30.1727" y2="182.232" gradientUnits="userSpaceOnUse">
<stop stop-color="white"/>
<stop offset="1" stop-color="#999999"/>
</linearGradient>
<linearGradient id="paint15_linear_38_9" x1="47.0872" y1="182.134" x2="47.0872" y2="221.226" gradientUnits="userSpaceOnUse">
<stop stop-color="white"/>
<stop offset="1" stop-color="#999999"/>
</linearGradient>
<linearGradient id="paint16_linear_38_9" x1="70.6924" y1="162.637" x2="70.6924" y2="189.204" gradientUnits="userSpaceOnUse">
<stop stop-color="white"/>
<stop offset="1" stop-color="#999999"/>
</linearGradient>
<linearGradient id="paint17_linear_38_9" x1="66.9338" y1="220.065" x2="66.9338" y2="238.596" gradientUnits="userSpaceOnUse">
<stop stop-color="white"/>
<stop offset="1" stop-color="#999999"/>
</linearGradient>
<linearGradient id="paint18_linear_38_9" x1="53.6275" y1="138.531" x2="53.6275" y2="157.063" gradientUnits="userSpaceOnUse">
<stop stop-color="white"/>
<stop offset="1" stop-color="#999999"/>
</linearGradient>
<linearGradient id="paint19_linear_38_9" x1="30.0062" y1="211.911" x2="30.0062" y2="235.221" gradientUnits="userSpaceOnUse">
<stop stop-color="white"/>
<stop offset="1" stop-color="#999999"/>
</linearGradient>
<linearGradient id="paint20_linear_38_9" x1="8.63216" y1="164.404" x2="8.63216" y2="190.971" gradientUnits="userSpaceOnUse">
<stop stop-color="white"/>
<stop offset="1" stop-color="#999999"/>
</linearGradient>
<linearGradient id="paint21_linear_38_9" x1="154.123" y1="243.778" x2="154.123" y2="282.87" gradientUnits="userSpaceOnUse">
<stop stop-color="white"/>
<stop offset="1" stop-color="#999999"/>
</linearGradient>
<linearGradient id="paint22_linear_38_9" x1="171.038" y1="282.772" x2="171.038" y2="321.864" gradientUnits="userSpaceOnUse">
<stop stop-color="white"/>
<stop offset="1" stop-color="#999999"/>
</linearGradient>
<linearGradient id="paint23_linear_38_9" x1="194.643" y1="263.275" x2="194.643" y2="289.842" gradientUnits="userSpaceOnUse">
<stop stop-color="white"/>
<stop offset="1" stop-color="#999999"/>
</linearGradient>
<linearGradient id="paint24_linear_38_9" x1="177.578" y1="239.17" x2="177.578" y2="257.701" gradientUnits="userSpaceOnUse">
<stop stop-color="white"/>
<stop offset="1" stop-color="#999999"/>
</linearGradient>
<linearGradient id="paint25_linear_38_9" x1="92.148" y1="243.778" x2="92.148" y2="282.87" gradientUnits="userSpaceOnUse">
<stop stop-color="white"/>
<stop offset="1" stop-color="#999999"/>
</linearGradient>
<linearGradient id="paint26_linear_38_9" x1="109.063" y1="282.772" x2="109.063" y2="321.864" gradientUnits="userSpaceOnUse">
<stop stop-color="white"/>
<stop offset="1" stop-color="#999999"/>
</linearGradient>
<linearGradient id="paint27_linear_38_9" x1="132.668" y1="263.275" x2="132.668" y2="289.842" gradientUnits="userSpaceOnUse">
<stop stop-color="white"/>
<stop offset="1" stop-color="#999999"/>
</linearGradient>
<linearGradient id="paint28_linear_38_9" x1="115.603" y1="239.17" x2="115.603" y2="257.701" gradientUnits="userSpaceOnUse">
<stop stop-color="white"/>
<stop offset="1" stop-color="#999999"/>
</linearGradient>
<linearGradient id="paint29_linear_38_9" x1="30.1727" y1="243.778" x2="30.1727" y2="282.87" gradientUnits="userSpaceOnUse">
<stop stop-color="white"/>
<stop offset="1" stop-color="#999999"/>
</linearGradient>
<linearGradient id="paint30_linear_38_9" x1="47.0872" y1="282.772" x2="47.0872" y2="321.864" gradientUnits="userSpaceOnUse">
<stop stop-color="white"/>
<stop offset="1" stop-color="#999999"/>
</linearGradient>
<linearGradient id="paint31_linear_38_9" x1="70.6924" y1="263.275" x2="70.6924" y2="289.842" gradientUnits="userSpaceOnUse">
<stop stop-color="white"/>
<stop offset="1" stop-color="#999999"/>
</linearGradient>
<linearGradient id="paint32_linear_38_9" x1="53.6275" y1="239.17" x2="53.6275" y2="257.701" gradientUnits="userSpaceOnUse">
<stop stop-color="white"/>
<stop offset="1" stop-color="#999999"/>
</linearGradient>
<linearGradient id="paint33_linear_38_9" x1="8.63216" y1="265.042" x2="8.63216" y2="291.609" gradientUnits="userSpaceOnUse">
<stop stop-color="white"/>
<stop offset="1" stop-color="#999999"/>
</linearGradient>
<linearGradient id="paint34_linear_38_9" x1="155.801" y1="40.8246" x2="155.801" y2="79.9167" gradientUnits="userSpaceOnUse">
<stop stop-color="white"/>
<stop offset="1" stop-color="#999999"/>
</linearGradient>
<linearGradient id="paint35_linear_38_9" x1="172.715" y1="79.8188" x2="172.715" y2="118.911" gradientUnits="userSpaceOnUse">
<stop stop-color="white"/>
<stop offset="1" stop-color="#999999"/>
</linearGradient>
<linearGradient id="paint36_linear_38_9" x1="192.562" y1="117.75" x2="192.562" y2="136.281" gradientUnits="userSpaceOnUse">
<stop stop-color="white"/>
<stop offset="1" stop-color="#999999"/>
</linearGradient>
<linearGradient id="paint37_linear_38_9" x1="179.255" y1="36.216" x2="179.255" y2="54.7472" gradientUnits="userSpaceOnUse">
<stop stop-color="white"/>
<stop offset="1" stop-color="#999999"/>
</linearGradient>
<linearGradient id="paint38_linear_38_9" x1="155.634" y1="109.596" x2="155.634" y2="132.906" gradientUnits="userSpaceOnUse">
<stop stop-color="white"/>
<stop offset="1" stop-color="#999999"/>
</linearGradient>
<linearGradient id="paint39_linear_38_9" x1="93.8252" y1="40.8246" x2="93.8252" y2="79.9167" gradientUnits="userSpaceOnUse">
<stop stop-color="white"/>
<stop offset="1" stop-color="#999999"/>
</linearGradient>
<linearGradient id="paint40_linear_38_9" x1="110.74" y1="79.8188" x2="110.74" y2="118.911" gradientUnits="userSpaceOnUse">
<stop stop-color="white"/>
<stop offset="1" stop-color="#999999"/>
</linearGradient>
<linearGradient id="paint41_linear_38_9" x1="134.345" y1="60.321" x2="134.345" y2="86.8886" gradientUnits="userSpaceOnUse">
<stop stop-color="white"/>
<stop offset="1" stop-color="#999999"/>
</linearGradient>
<linearGradient id="paint42_linear_38_9" x1="130.586" y1="117.75" x2="130.586" y2="136.281" gradientUnits="userSpaceOnUse">
<stop stop-color="white"/>
<stop offset="1" stop-color="#999999"/>
</linearGradient>
<linearGradient id="paint43_linear_38_9" x1="117.28" y1="36.216" x2="117.28" y2="54.7472" gradientUnits="userSpaceOnUse">
<stop stop-color="white"/>
<stop offset="1" stop-color="#999999"/>
</linearGradient>
<linearGradient id="paint44_linear_38_9" x1="93.6587" y1="109.596" x2="93.6587" y2="132.906" gradientUnits="userSpaceOnUse">
<stop stop-color="white"/>
<stop offset="1" stop-color="#999999"/>
</linearGradient>
<linearGradient id="paint45_linear_38_9" x1="31.85" y1="40.8246" x2="31.85" y2="79.9167" gradientUnits="userSpaceOnUse">
<stop stop-color="white"/>
<stop offset="1" stop-color="#999999"/>
</linearGradient>
<linearGradient id="paint46_linear_38_9" x1="48.7647" y1="79.8188" x2="48.7647" y2="118.911" gradientUnits="userSpaceOnUse">
<stop stop-color="white"/>
<stop offset="1" stop-color="#999999"/>
</linearGradient>
<linearGradient id="paint47_linear_38_9" x1="72.3697" y1="60.321" x2="72.3697" y2="86.8886" gradientUnits="userSpaceOnUse">
<stop stop-color="white"/>
<stop offset="1" stop-color="#999999"/>
</linearGradient>
<linearGradient id="paint48_linear_38_9" x1="68.6109" y1="117.75" x2="68.6109" y2="136.281" gradientUnits="userSpaceOnUse">
<stop stop-color="white"/>
<stop offset="1" stop-color="#999999"/>
</linearGradient>
<linearGradient id="paint49_linear_38_9" x1="55.3048" y1="36.216" x2="55.3048" y2="54.7472" gradientUnits="userSpaceOnUse">
<stop stop-color="white"/>
<stop offset="1" stop-color="#999999"/>
</linearGradient>
<linearGradient id="paint50_linear_38_9" x1="31.6833" y1="109.596" x2="31.6833" y2="132.906" gradientUnits="userSpaceOnUse">
<stop stop-color="white"/>
<stop offset="1" stop-color="#999999"/>
</linearGradient>
<linearGradient id="paint51_linear_38_9" x1="10.3095" y1="62.0879" x2="10.3095" y2="88.6556" gradientUnits="userSpaceOnUse">
<stop stop-color="white"/>
<stop offset="1" stop-color="#999999"/>
</linearGradient>
<linearGradient id="paint52_linear_38_9" x1="171.038" y1="-20.8194" x2="171.038" y2="18.2723" gradientUnits="userSpaceOnUse">
<stop stop-color="white"/>
<stop offset="1" stop-color="#999999"/>
</linearGradient>
<linearGradient id="paint53_linear_38_9" x1="190.884" y1="17.1115" x2="190.884" y2="35.6427" gradientUnits="userSpaceOnUse">
<stop stop-color="white"/>
<stop offset="1" stop-color="#999999"/>
</linearGradient>
<linearGradient id="paint54_linear_38_9" x1="153.957" y1="8.95776" x2="153.957" y2="32.2675" gradientUnits="userSpaceOnUse">
<stop stop-color="white"/>
<stop offset="1" stop-color="#999999"/>
</linearGradient>
<linearGradient id="paint55_linear_38_9" x1="109.063" y1="-20.8194" x2="109.063" y2="18.2723" gradientUnits="userSpaceOnUse">
<stop stop-color="white"/>
<stop offset="1" stop-color="#999999"/>
</linearGradient>
<linearGradient id="paint56_linear_38_9" x1="128.909" y1="17.1115" x2="128.909" y2="35.6427" gradientUnits="userSpaceOnUse">
<stop stop-color="white"/>
<stop offset="1" stop-color="#999999"/>
</linearGradient>
<linearGradient id="paint57_linear_38_9" x1="91.9814" y1="8.95776" x2="91.9814" y2="32.2675" gradientUnits="userSpaceOnUse">
<stop stop-color="white"/>
<stop offset="1" stop-color="#999999"/>
</linearGradient>
<linearGradient id="paint58_linear_38_9" x1="47.0872" y1="-20.8194" x2="47.0872" y2="18.2723" gradientUnits="userSpaceOnUse">
<stop stop-color="white"/>
<stop offset="1" stop-color="#999999"/>
</linearGradient>
<linearGradient id="paint59_linear_38_9" x1="66.9338" y1="17.1115" x2="66.9338" y2="35.6427" gradientUnits="userSpaceOnUse">
<stop stop-color="white"/>
<stop offset="1" stop-color="#999999"/>
</linearGradient>
<linearGradient id="paint60_linear_38_9" x1="30.0062" y1="8.95776" x2="30.0062" y2="32.2675" gradientUnits="userSpaceOnUse">
<stop stop-color="white"/>
<stop offset="1" stop-color="#999999"/>
</linearGradient>
<linearGradient id="paint61_linear_38_9" x1="100" y1="13" x2="100" y2="288" gradientUnits="userSpaceOnUse">
<stop stop-color="#6DBECB"/>
<stop offset="1" stop-color="#406E75"/>
</linearGradient>
<linearGradient id="paint62_linear_38_9" x1="115.006" y1="76.6299" x2="115.006" y2="191.614" gradientUnits="userSpaceOnUse">
<stop stop-color="#5DA3AF"/>
<stop offset="1" stop-color="#6DBECB"/>
</linearGradient>
<linearGradient id="paint63_linear_38_9" x1="101.305" y1="120.351" x2="101.305" y2="187.39" gradientUnits="userSpaceOnUse">
<stop stop-color="#5DA3AF"/>
<stop offset="1" stop-color="#6DBECB"/>
</linearGradient>
<linearGradient id="paint64_linear_38_9" x1="84.3497" y1="109.391" x2="84.3497" y2="228.335" gradientUnits="userSpaceOnUse">
<stop stop-color="#5DA3AF"/>
<stop offset="1" stop-color="#6DBECB"/>
</linearGradient>
<linearGradient id="paint65_linear_38_9" x1="97.6965" y1="113.611" x2="97.6965" y2="180.652" gradientUnits="userSpaceOnUse">
<stop stop-color="#5DA3AF"/>
<stop offset="1" stop-color="#6DBECB"/>
</linearGradient>
</defs>
</svg>
