<svg width="200" height="300" viewBox="0 0 200 300" fill="none" xmlns="http://www.w3.org/2000/svg">
<rect x="3" y="3" width="194" height="294" rx="24" fill="#242424" stroke="url(#paint0_linear_9_814)" stroke-width="6"/>
<path d="M22 188H182" stroke="url(#paint1_linear_9_814)"/>
<path d="M94.75 42.5C89.1719 42.5 84.2705 45.4531 81.4609 49.8828C79.1641 48.5703 76.5596 47.75 73.75 47.75C65.1162 47.75 58 54.8662 58 63.5V82.6953L47.0078 96.8047C40.3017 105.479 40.7529 117.928 47.9922 126.172L60.4609 140.281C67.4336 148.218 77.4619 152.75 88.0234 152.75H115.75C135.991 152.75 152.5 136.241 152.5 116V68.75C152.5 60.1162 145.384 53 136.75 53C133.94 53 131.336 53.8203 129.039 55.1328C126.229 50.7031 121.328 47.75 115.75 47.75C112.94 47.75 110.336 48.5703 108.039 49.8828C105.229 45.4531 100.328 42.5 94.75 42.5ZM94.75 53C97.7236 53 100 55.2764 100 58.25V74H110.5V63.5C110.5 60.5264 112.776 58.25 115.75 58.25C118.724 58.25 121 60.5264 121 63.5V74H131.5V68.75C131.5 65.7764 133.776 63.5 136.75 63.5C139.724 63.5 142 65.7764 142 68.75V116C142 130.561 130.311 142.25 115.75 142.25H88.0234C80.4766 142.25 73.3193 139.071 68.3359 133.391L55.8672 119.117C51.9092 114.605 51.7041 108.125 55.375 103.367L58 99.9219V105.5H68.5V63.5C68.5 60.5264 70.7764 58.25 73.75 58.25C76.7236 58.25 79 60.5264 79 63.5V74H89.5V58.25C89.5 55.2764 91.7764 53 94.75 53Z" fill="url(#paint2_linear_9_814)"/>
<defs>
<linearGradient id="paint0_linear_9_814" x1="100" y1="0" x2="100" y2="300" gradientUnits="userSpaceOnUse">
<stop stop-color="#B1B3B3"/>
<stop offset="1" stop-color="#4C4D4D"/>
</linearGradient>
<linearGradient id="paint1_linear_9_814" x1="24.3256" y1="189" x2="184.326" y2="189" gradientUnits="userSpaceOnUse">
<stop stop-color="#999999"/>
<stop offset="0.5" stop-color="white"/>
<stop offset="0.99" stop-color="#999999"/>
</linearGradient>
<linearGradient id="paint2_linear_9_814" x1="97.3783" y1="42.5" x2="97.3783" y2="152.75" gradientUnits="userSpaceOnUse">
<stop stop-color="#DADCDC"/>
<stop offset="1" stop-color="#808080"/>
</linearGradient>
</defs>
</svg>
