<svg width="200" height="300" viewBox="0 0 200 300" fill="none" xmlns="http://www.w3.org/2000/svg">
<rect x="3" y="3" width="194" height="294" rx="24" fill="#242424" stroke="url(#paint0_linear_12_946)" stroke-width="6"/>
<path d="M22 188H182" stroke="url(#paint1_linear_12_946)"/>
<path d="M42.9125 16.9208L46.0004 35.3303L31.6295 21.9122H31.6288L26.9744 26.5656L39.7323 40.2304L22.3439 37.4905L39.8403 62.7614L59.4162 61.3124L114.694 120.518L98.4411 117.234L124.248 137.634L85.1715 132.881L113.283 144.584L99.0517 150.212L120.374 156.842L109.131 165.263L169.703 172.182L179.144 175.119L177.391 169.481L175.795 164.347L168.985 103.845L160.387 114.8L154.239 95.0238L148.581 109.334L136.901 78.3001L136.28 114.988L115.111 84.6485L118.597 103.107L66.8746 54.8169L68.4006 34.2L42.9132 16.9195L42.9125 16.9208ZM104.074 34.6586L151.46 86.5033L161.689 91.4714L158.268 70.7401L104.074 34.6586ZM83.3629 38.9119L114.232 77.1735L126.343 76.8631L121.417 65.1772L83.3632 38.9116L83.3629 38.9119ZM28.9513 81.6842L68.2645 150.354L86.6567 156.916L83.8898 144.855L28.9513 81.6842ZM59.537 89.3474L75.084 116.943L90.8811 123.16L85.1602 109.327L59.537 89.3474ZM153.537 113.67L169.714 165.688L117.696 149.512L143.382 139.355L153.537 113.67V113.67Z" fill="white"/>
<path d="M42.9125 16.9208L46.0004 35.3303L31.6295 21.9122H31.6288L26.9744 26.5656L39.7323 40.2304L22.3439 37.4905L39.8403 62.7614L59.4162 61.3124L114.694 120.518L98.4411 117.234L124.248 137.634L85.1715 132.881L113.283 144.584L99.0517 150.212L120.374 156.842L109.131 165.263L169.703 172.182L179.144 175.119L177.391 169.481L175.795 164.347L168.985 103.845L160.387 114.8L154.239 95.0238L148.581 109.334L136.901 78.3001L136.28 114.988L115.111 84.6485L118.597 103.107L66.8746 54.8169L68.4006 34.2L42.9132 16.9195L42.9125 16.9208ZM104.074 34.6586L151.46 86.5033L161.689 91.4714L158.268 70.7401L104.074 34.6586ZM83.3629 38.9119L114.232 77.1735L126.343 76.8631L121.417 65.1772L83.3632 38.9116L83.3629 38.9119ZM28.9513 81.6842L68.2645 150.354L86.6567 156.916L83.8898 144.855L28.9513 81.6842ZM59.537 89.3474L75.084 116.943L90.8811 123.16L85.1602 109.327L59.537 89.3474ZM153.537 113.67L169.714 165.688L117.696 149.512L143.382 139.355L153.537 113.67V113.67Z" fill="url(#paint2_linear_12_946)"/>
<defs>
<linearGradient id="paint0_linear_12_946" x1="100" y1="0" x2="100" y2="300" gradientUnits="userSpaceOnUse">
<stop stop-color="#E97451"/>
<stop offset="1" stop-color="#424A4A"/>
</linearGradient>
<linearGradient id="paint1_linear_12_946" x1="24.3256" y1="189" x2="184.326" y2="189" gradientUnits="userSpaceOnUse">
<stop stop-color="#424A4A"/>
<stop offset="0.508" stop-color="#E97451"/>
<stop offset="0.99" stop-color="#424A4A"/>
</linearGradient>
<linearGradient id="paint2_linear_12_946" x1="100.744" y1="16.9195" x2="100.744" y2="175.119" gradientUnits="userSpaceOnUse">
<stop stop-color="#E97451"/>
<stop offset="1" stop-color="#424A4A"/>
</linearGradient>
</defs>
</svg>
