<svg width="200" height="300" viewBox="0 0 200 300" fill="none" xmlns="http://www.w3.org/2000/svg">
<rect x="3" y="3" width="194" height="294" rx="24" fill="#242424" stroke="url(#paint0_linear_2_20)" stroke-width="6"/>
<path d="M22 188H182" stroke="url(#paint1_linear_2_20)"/>
<path d="M100 21.5C92.7402 21.5 86.7109 26.5859 84.9063 33.3125C83.0606 32.5537 81.1123 32 79 32C70.3662 32 63.25 39.1162 63.25 47.75V104.188L58.6562 99.5938C52.5449 93.4824 42.4551 93.4824 36.3438 99.5938C30.2324 105.705 30.2324 115.795 36.3438 121.906L71.9453 157.508C78.1182 163.66 86.6494 168.5 96.7188 168.5H121C141.241 168.5 157.75 151.991 157.75 131.75V68.75C157.75 60.1162 150.634 53 142 53C140.154 53 138.411 53.3896 136.75 53.9844V47.75C136.75 39.1162 129.634 32 121 32C118.888 32 116.939 32.5537 115.094 33.3125C113.289 26.5859 107.26 21.5 100 21.5ZM100 32C102.974 32 105.25 34.2764 105.25 37.25V89.75H115.75V47.75C115.75 44.7764 118.026 42.5 121 42.5C123.974 42.5 126.25 44.7764 126.25 47.75V89.75H136.75V68.75C136.75 65.7764 139.026 63.5 142 63.5C144.974 63.5 147.25 65.7764 147.25 68.75V131.75C147.25 146.311 135.561 158 121 158H96.7188C90.0332 158 84.291 154.739 79.4922 149.961L43.7266 114.523C41.6348 112.432 41.6348 109.068 43.7266 106.977C45.8184 104.885 49.1816 104.885 51.2734 106.977L64.7266 120.594L73.75 129.617V47.75C73.75 44.7764 76.0264 42.5 79 42.5C81.9736 42.5 84.25 44.7764 84.25 47.75V89.75H94.75V37.25C94.75 34.2764 97.0264 32 100 32Z" fill="white"/>
<path d="M100 21.5C92.7402 21.5 86.7109 26.5859 84.9063 33.3125C83.0606 32.5537 81.1123 32 79 32C70.3662 32 63.25 39.1162 63.25 47.75V104.188L58.6562 99.5938C52.5449 93.4824 42.4551 93.4824 36.3438 99.5938C30.2324 105.705 30.2324 115.795 36.3438 121.906L71.9453 157.508C78.1182 163.66 86.6494 168.5 96.7188 168.5H121C141.241 168.5 157.75 151.991 157.75 131.75V68.75C157.75 60.1162 150.634 53 142 53C140.154 53 138.411 53.3896 136.75 53.9844V47.75C136.75 39.1162 129.634 32 121 32C118.888 32 116.939 32.5537 115.094 33.3125C113.289 26.5859 107.26 21.5 100 21.5ZM100 32C102.974 32 105.25 34.2764 105.25 37.25V89.75H115.75V47.75C115.75 44.7764 118.026 42.5 121 42.5C123.974 42.5 126.25 44.7764 126.25 47.75V89.75H136.75V68.75C136.75 65.7764 139.026 63.5 142 63.5C144.974 63.5 147.25 65.7764 147.25 68.75V131.75C147.25 146.311 135.561 158 121 158H96.7188C90.0332 158 84.291 154.739 79.4922 149.961L43.7266 114.523C41.6348 112.432 41.6348 109.068 43.7266 106.977C45.8184 104.885 49.1816 104.885 51.2734 106.977L64.7266 120.594L73.75 129.617V47.75C73.75 44.7764 76.0264 42.5 79 42.5C81.9736 42.5 84.25 44.7764 84.25 47.75V89.75H94.75V37.25C94.75 34.2764 97.0264 32 100 32Z" fill="url(#paint2_linear_2_20)"/>
<defs>
<linearGradient id="paint0_linear_2_20" x1="100" y1="0" x2="100" y2="300" gradientUnits="userSpaceOnUse">
<stop stop-color="#B1B3B3"/>
<stop offset="1" stop-color="#4C4D4D"/>
</linearGradient>
<linearGradient id="paint1_linear_2_20" x1="24.3256" y1="189" x2="184.326" y2="189" gradientUnits="userSpaceOnUse">
<stop stop-color="#999999"/>
<stop offset="0.5" stop-color="white"/>
<stop offset="0.99" stop-color="#999999"/>
</linearGradient>
<linearGradient id="paint2_linear_2_20" x1="94.7551" y1="21.5" x2="94.7551" y2="168.5" gradientUnits="userSpaceOnUse">
<stop stop-color="#DADCDC"/>
<stop offset="1" stop-color="#808080"/>
</linearGradient>
</defs>
</svg>
