<svg width="200" height="300" viewBox="0 0 200 300" fill="none" xmlns="http://www.w3.org/2000/svg">
<rect x="3" y="3" width="194" height="294" rx="24" fill="#242424" stroke="url(#paint0_linear_15_1024)" stroke-width="6"/>
<path d="M22 188H182" stroke="url(#paint1_linear_15_1024)"/>
<g clip-path="url(#clip0_15_1024)">
<path d="M57.0881 69.8789C56.9854 69.9406 56.8932 69.9918 56.7908 70.0532C53.8787 62.8548 48.2648 55.7079 48.2648 55.7079L51.946 52.9034C55.0888 54.7593 61.0157 60.4348 63.8149 63.4907C62.1691 66.0031 59.9283 68.1461 57.0881 69.8789Z" fill="url(#paint2_linear_15_1024)"/>
<path d="M16.2113 144.445C16.7599 140.887 16.8984 118.37 41.4716 98.6053C46.6498 93.4117 47.3215 87.9054 47.2187 82.4809C47.1676 79.8969 47.3625 79.7174 47.3625 79.7174C47.3162 78.9739 47.788 78.2973 48.4906 78.1024C48.4906 78.1024 48.7829 77.9075 51.3669 76.9743C55.9505 75.313 67.0759 67.8225 70.2649 59.7786C70.998 57.9329 71.3569 55.318 71.3569 55.318C71.6184 54.2569 72.5464 53.5133 73.6128 53.5133H77.5605H129.773H163.493L163.657 51.3188L175.485 46.8281H180.586V53.5137H184.001V67.5308H178.899V74.4471H147.763C140.242 74.4471 134.853 87.3004 133.044 97.0824C132.798 98.3949 132.664 99.3741 132.664 99.3741C132.049 101.902 130.598 103.276 128.225 103.276C128.225 103.276 126.025 103.276 122.688 103.276L116.033 114.837C114.172 118.072 110.788 120.051 107.138 120.051C107.107 120.051 107.071 120.051 107.045 120.051H79.7136C66.2398 120.051 62.2718 127.803 61.1746 144.999C61.1746 148.552 56.4476 151.172 53.715 151.172C50.9873 151.172 21.8612 151.172 18.9442 151.172C16.0318 151.172 15.6676 147.993 16.2113 144.445ZM114.115 65.1621H87.609C86.1068 65.1621 84.8918 66.4133 84.8918 67.9613C84.8918 69.5045 86.1068 70.7557 87.609 70.7557H114.115C115.617 70.7557 116.832 69.5045 116.832 67.9613C116.832 66.4133 115.617 65.1621 114.115 65.1621ZM114.115 80.8199H87.609C86.1068 80.8199 84.8918 82.071 84.8918 83.6142C84.8918 85.1574 86.1068 86.4085 87.609 86.4085H114.115C115.617 86.4085 116.832 85.1574 116.832 83.6142C116.832 82.071 115.617 80.8199 114.115 80.8199ZM107.055 114.724H107.071H107.137C108.952 114.724 110.644 113.74 111.567 112.125L116.658 103.276C108.639 103.276 98.5037 103.276 93.3561 103.276C94.1816 105.368 95.3557 107.613 96.8578 109.156C97.75 110.074 95.9607 112.227 94.4635 111.305C93.7098 110.843 90.085 109.679 87.6395 104.147C84.476 105.839 81.6512 109.869 80.3951 114.724H107.055V114.724Z" fill="url(#paint3_linear_15_1024)"/>
</g>
<defs>
<linearGradient id="paint0_linear_15_1024" x1="100" y1="0" x2="100" y2="300" gradientUnits="userSpaceOnUse">
<stop stop-color="#D57E3C"/>
<stop offset="1" stop-color="#673D1D"/>
</linearGradient>
<linearGradient id="paint1_linear_15_1024" x1="24.3256" y1="189" x2="184.326" y2="189" gradientUnits="userSpaceOnUse">
<stop stop-color="#68321D"/>
<stop offset="0.508" stop-color="#D5673C"/>
<stop offset="0.99" stop-color="#68321D"/>
</linearGradient>
<linearGradient id="paint2_linear_15_1024" x1="56.0399" y1="52.9034" x2="56.0399" y2="70.0532" gradientUnits="userSpaceOnUse">
<stop stop-color="#D57E3C"/>
<stop offset="1" stop-color="#673D1D"/>
</linearGradient>
<linearGradient id="paint3_linear_15_1024" x1="99.9999" y1="46.8281" x2="99.9999" y2="151.172" gradientUnits="userSpaceOnUse">
<stop stop-color="#D57E3C"/>
<stop offset="1" stop-color="#673D1D"/>
</linearGradient>
<clipPath id="clip0_15_1024">
<rect width="168" height="168" fill="white" transform="matrix(-1 0 0 1 184 15)"/>
</clipPath>
</defs>
</svg>
