<svg width="200" height="300" viewBox="0 0 200 300" fill="none" xmlns="http://www.w3.org/2000/svg">
<rect x="3" y="3" width="194" height="294" rx="24" fill="#242424" stroke="url(#paint0_linear_15_984)" stroke-width="6"/>
<path d="M22 188H182" stroke="url(#paint1_linear_15_984)"/>
<path d="M59.2598 14.6406C66.0332 27.902 75.9277 44.125 74.8652 58.4687C81.6387 61.4238 88.2793 64.6113 94.6211 67.9648C95.6504 60.1289 95.5508 51.8613 94.6211 43.4609C84.6934 31.7502 71.6777 20.7268 59.2598 14.6406ZM24.0977 15.5205C29.7223 23.7416 33.9125 33.3174 33.275 42.8965C45.1982 46.6816 57.2676 51.0312 68.9883 55.9453C68.3906 46.0508 64.2402 37.2652 60.2559 29.2566C48.9668 22.8717 35.6291 18.6184 24.0977 15.5205ZM151.93 22.9049C159.6 37.4744 164.846 54.5176 163.65 61.623C160.297 56.7754 154.32 44.2578 134.299 38.8689C147.912 52.5254 156.877 77.2617 154.486 84.5C149.539 72.3809 141.57 66.2051 127.758 60.9258C133.967 69.0273 138.217 79.6523 139.811 90.1113C149.539 95.8887 158.139 102.529 165.742 109.203C168.93 108.937 171.984 111.66 173.014 114.051C173.943 116.408 174.143 119.164 173.545 122.119C172.615 125.141 171.354 127.896 169.395 129.855C167.602 137.758 165.775 144 162.355 150.143L142.998 155.09C142.234 166.146 121.881 162.229 115.971 158.443C108.367 153.562 95.7168 141.941 97.1777 131.516C87.416 130.354 77.5547 127 69.7188 121.82C75.9609 135.234 82.7012 142.705 95.1523 146.789C88.1133 149.711 62.7793 142.539 48.2363 129.955C54.9766 149.545 67.8926 154.592 73.0391 157.58C66 159.273 48.6016 155.289 33.5074 148.682C68.6895 186.367 175.139 165.715 175.139 165.715C175.139 165.715 193.367 56.4102 151.93 22.9049ZM99.8008 36.827C101.527 48.3418 101.959 59.9629 100.166 70.9863C110.127 77.1621 114.676 79.8848 121.482 84.5996C117.996 61.5898 109.695 49.8027 99.8008 36.827ZM20.8604 45.4199C28.4107 64.4453 28.3543 80.7812 30.8711 97.2832C49.2988 102.031 68.291 111.361 84.5273 119.695C89.0098 105.916 97.5762 92.4355 104.947 80.7812C80.6426 65.8398 49.7969 53.9199 20.8604 45.4199ZM40.4834 58.6348C48.5684 67.2012 55.5742 76.5976 57.002 86.5918C53.3828 93.0664 43.2061 94.5937 37.4951 94.7598L37.3822 88.7832C41.8348 88.3516 47.6287 88.75 50.7598 85.2969C49.498 77.8926 44.7766 70.4883 36.499 63.084L40.4834 58.6348ZM74.998 73.2109C81.4727 79.5527 84.5606 87.1894 85.8223 95.125C82.2363 102.994 71.5781 104.754 66.166 104.223L66.8301 98.3125C74.1348 99.1426 78.1523 96.9844 79.6133 94.3945C78.4844 88.2188 77.1562 82.9394 71.0801 77.7266L74.998 73.2109ZM109.994 84.0019C102.457 95.9551 93.9902 109.502 89.9063 122.451C92.6953 123.846 95.3848 125.24 97.9414 126.568C100.963 112.822 110.326 100.836 118.361 89.8457C115.705 87.8535 112.916 85.8945 109.994 84.0019ZM125.932 89.4805C117.066 102.098 106.408 115.08 103.652 128.727L117.697 129.723C121.516 123.646 126.928 122.75 133.502 122.053C134.764 125.207 142.301 130.984 144.857 132.479C146.484 131.781 148.012 130.818 149.705 129.723C152.229 134.604 156.379 138.389 159.865 141.709C161.094 138.787 162.023 135.666 162.754 132.479C160.131 132.246 157.508 129.59 156.645 127.631C155.682 125.273 155.516 122.484 156.113 119.562C156.977 116.74 158.205 113.951 159.965 112.125C150.236 103.791 139.047 95.7559 125.932 89.4805ZM164.182 116.076C163.285 117.006 162.422 118.533 162.023 120.426C161.857 121.986 161.393 126.104 163.617 126.568C165.875 126.07 167.17 123.248 167.635 121.256C168.033 119.363 167.834 117.67 167.402 116.541C166.506 114.582 165.277 115.047 164.182 116.076ZM131.344 128.959C128.023 129.025 124.172 130.088 123.574 132.777C125.301 138.887 132.539 142.539 136.855 145.992C136.922 142.805 137.188 139.152 138.947 135.799C136.059 133.707 133.635 131.25 131.344 128.959ZM103.752 134.736C105.611 139.617 108.4 143.17 111.887 147.52C116.469 146.424 118.959 143.967 121.117 141.377C119.258 139.352 117.797 137.559 116.436 135.633L103.752 134.736ZM147.713 137.758C146.617 138.256 145.422 138.687 144.127 138.986C143.098 141.576 143.131 145.162 142.865 148.947L155.283 145.76C152.66 143.402 149.771 140.846 147.713 137.758ZM125.068 145.893C123.109 148.084 120.486 150.508 116.768 152.135C121.018 155.92 138.018 157.348 136.557 154.094C132.041 151.437 128.156 148.848 125.068 145.893Z" fill="url(#paint2_linear_15_984)"/>
<defs>
<linearGradient id="paint0_linear_15_984" x1="100" y1="0" x2="100" y2="300" gradientUnits="userSpaceOnUse">
<stop stop-color="#3ED3A6"/>
<stop offset="1" stop-color="#424A4A"/>
</linearGradient>
<linearGradient id="paint1_linear_15_984" x1="24.3256" y1="189" x2="184.326" y2="189" gradientUnits="userSpaceOnUse">
<stop stop-color="#424A4A"/>
<stop offset="0.508" stop-color="#3FD4CD"/>
<stop offset="0.99" stop-color="#424A4A"/>
</linearGradient>
<linearGradient id="paint2_linear_15_984" x1="99.996" y1="14.6406" x2="99.996" y2="171.362" gradientUnits="userSpaceOnUse">
<stop stop-color="#3ED3A6"/>
<stop offset="1" stop-color="#424A4A"/>
</linearGradient>
</defs>
</svg>
