<svg width="200" height="300" viewBox="0 0 200 300" fill="none" xmlns="http://www.w3.org/2000/svg">
<rect x="3" y="3" width="194" height="294" rx="24" fill="#242424" stroke="url(#paint0_linear_15_997)" stroke-width="6"/>
<path d="M22 188H182" stroke="url(#paint1_linear_15_997)"/>
<path d="M30.2569 14.8321C23.8221 15.101 20.0987 18.6029 20.2023 24.887L26.7659 35.1069C28.2368 34.7041 29.8737 33.8325 31.4967 32.6714L45.5994 52.5717C39.9489 59.4879 35.2207 67.3272 31.4183 76.0915L40.2337 84.9076C43.9774 77.0717 48.413 70.024 53.4878 63.7028L123.487 162.474L178.872 173.501L167.844 118.116L69.0481 48.0989C75.6578 42.7506 82.9409 38.1679 90.8466 34.2937L82.0302 25.4783C72.9969 29.3973 64.9498 34.3024 57.8799 40.1846L38.0397 26.1234C39.1829 24.5221 40.0525 22.8911 40.4775 21.3947L30.2575 14.8321H30.2569ZM163.348 43.6965V43.6992L163.349 43.6965H163.348ZM163.348 43.6992L154.042 85.1931L145.703 58.4337L139.691 81.8974L130.772 65.4154L130.578 84.6127L173.239 115.057L178.281 143.949L177.893 81.8974L166.452 95.0834L163.349 43.6995L163.348 43.6992ZM63.4235 52.9894L137.209 118.19L145.724 140.353L123.561 131.838L58.3633 58.0562C59.9936 56.3038 61.682 54.6164 63.4228 52.9894H63.4235ZM74.1497 118.159V118.16H74.1514L74.1497 118.159ZM74.1514 118.16L83.4576 125.722L71.4347 127.079L90.6328 133.478L55.5351 134.836L93.7353 143.95L60.1895 150.155L102.462 158.687L80.1618 173.231L149.388 173.813L120.496 168.771L85.7854 118.742L74.1521 118.16H74.1514Z" fill="url(#paint2_linear_15_997)"/>
<defs>
<linearGradient id="paint0_linear_15_997" x1="100" y1="0" x2="100" y2="300" gradientUnits="userSpaceOnUse">
<stop stop-color="#3ED3A6"/>
<stop offset="1" stop-color="#424A4A"/>
</linearGradient>
<linearGradient id="paint1_linear_15_997" x1="24.3256" y1="189" x2="184.326" y2="189" gradientUnits="userSpaceOnUse">
<stop stop-color="#424A4A"/>
<stop offset="0.508" stop-color="#3FD4CD"/>
<stop offset="0.99" stop-color="#424A4A"/>
</linearGradient>
<linearGradient id="paint2_linear_15_997" x1="99.536" y1="14.8321" x2="99.536" y2="173.813" gradientUnits="userSpaceOnUse">
<stop stop-color="#3ED3A6"/>
<stop offset="1" stop-color="#424A4A"/>
</linearGradient>
</defs>
</svg>
