<svg width="200" height="300" viewBox="0 0 200 300" fill="none" xmlns="http://www.w3.org/2000/svg">
<rect x="3" y="3" width="194" height="294" rx="24" fill="url(#paint0_diamond_20_23)" stroke="url(#paint1_linear_20_23)" stroke-width="6"/>
<path d="M22 188H182" stroke="url(#paint2_linear_20_23)"/>
<path d="M22 188H182" stroke="url(#paint3_linear_20_23)"/>
<path d="M157.765 18.1455L158.639 21.992L164.19 17.5027L157.765 18.1455ZM87.1145 125.505C88.0232 124.767 88.7649 123.845 89.2906 122.799C89.8162 121.752 90.1139 120.607 90.1639 119.437C90.214 118.267 90.0152 117.1 89.5808 116.013C89.1464 114.926 88.4862 113.944 87.6439 113.13L89.758 111.353C90.0055 111.604 90.2427 111.869 90.4695 112.147C92.2003 114.28 93.0732 116.981 92.9175 119.724C92.7619 122.466 91.5889 125.051 89.628 126.974C87.6671 128.897 85.0594 130.02 82.3148 130.122C79.5702 130.224 76.8861 129.299 74.7877 127.527C75.2758 126.681 75.7502 125.879 76.2108 125.12C77.6741 126.493 79.5854 127.288 81.5904 127.359C83.5954 127.43 85.5581 126.771 87.1145 125.505ZM80.8927 118.813L84.4402 121.446L79.1017 120.655C79.3011 120.377 79.4936 120.112 79.6827 119.868L80.8927 118.813ZM107.324 91.1958L96.5539 77.9098L101.8 73.668L112.569 86.9539L107.324 91.1958ZM154.72 52.7817L143.95 39.4958L149.199 35.2436L159.969 48.5261L154.72 52.7817ZM140.341 43.7823L149.247 54.7823C140.028 62.4067 127.883 72.458 115.931 82.382L106.736 71.0383L140.341 43.7823ZM53.4545 126.193L56.892 126.592L68.1774 103.952C69.9769 105.535 72.3002 106.394 74.6966 106.361C77.0931 106.328 79.392 105.406 81.1475 103.775C82.903 102.143 83.9899 99.9174 84.1975 97.5297C84.4051 95.142 83.7186 92.7623 82.2711 90.852L83.8249 89.5905L92.9445 82.193L102.274 93.7017C90.992 103.096 81.0989 111.381 75.678 116.045C66.6992 127.262 46.6311 172.348 42.7433 176.497C38.0236 174.889 33.5411 162.706 24.1808 157.522C27.3227 151.108 53.4545 126.193 53.4545 126.193ZM64.8155 87.0708C65.3311 87.7961 66.7714 89.068 67.6961 89.068H67.7167C67.837 89.068 68.1602 89.1264 68.5692 88.5008C71.027 84.7195 74.7567 82.8598 77.2523 84.1111L76.0183 86.5861C75.4098 86.2801 74.1277 86.6892 72.7939 87.8339L77.8642 94.0901C78.36 94.7004 78.6731 95.4383 78.7674 96.2189C78.8618 96.9994 78.7335 97.7907 78.3975 98.5015C78.0615 99.2123 77.5313 99.8136 76.8682 100.236C76.2051 100.658 75.4361 100.885 74.6499 100.889C73.8637 100.893 73.0924 100.675 72.4248 100.259C71.7573 99.8441 71.2208 99.2484 70.8773 98.5412C70.5338 97.8341 70.3972 97.0442 70.4833 96.2627C70.5694 95.4812 70.8747 94.74 71.3639 94.1245L69.3014 91.567C68.8334 91.8096 68.3159 91.9414 67.7889 91.952H67.7099C64.9186 91.952 62.612 88.7345 62.5914 88.7036L64.8155 87.0708ZM154.135 32.6002L170.12 19.6305L173.922 24.333L157.941 37.2889L154.135 32.6002ZM175.819 33.0367L162.942 43.4558L160.973 41.0255L173.836 30.5961L175.819 33.0367Z" fill="url(#paint4_linear_20_23)"/>
<defs>
<radialGradient id="paint0_diamond_20_23" cx="0" cy="0" r="1" gradientUnits="userSpaceOnUse" gradientTransform="translate(100 103) rotate(90) scale(167 111.333)">
<stop stop-color="#C34529"/>
<stop offset="0.13" stop-color="#A23D27"/>
<stop offset="0.295" stop-color="#923423"/>
<stop offset="0.89" stop-color="#661E18"/>
</radialGradient>
<linearGradient id="paint1_linear_20_23" x1="100" y1="0" x2="100" y2="300" gradientUnits="userSpaceOnUse">
<stop stop-color="#DADCDC"/>
<stop offset="1" stop-color="#808080"/>
</linearGradient>
<linearGradient id="paint2_linear_20_23" x1="24.3256" y1="189" x2="184.326" y2="189" gradientUnits="userSpaceOnUse">
<stop stop-color="#135D15"/>
<stop offset="0.508" stop-color="#2ECE33"/>
<stop offset="0.99" stop-color="#135D15"/>
</linearGradient>
<linearGradient id="paint3_linear_20_23" x1="24.3256" y1="189" x2="184.326" y2="189" gradientUnits="userSpaceOnUse">
<stop stop-color="#999999"/>
<stop offset="0.5" stop-color="white"/>
<stop offset="0.99" stop-color="#999999"/>
</linearGradient>
<linearGradient id="paint4_linear_20_23" x1="100" y1="17.5027" x2="100" y2="176.497" gradientUnits="userSpaceOnUse">
<stop stop-color="#DADCDC"/>
<stop offset="0.678" stop-color="#B4B4B4"/>
<stop offset="1" stop-color="#888888"/>
</linearGradient>
</defs>
</svg>
