<svg width="200" height="300" viewBox="0 0 200 300" fill="none" xmlns="http://www.w3.org/2000/svg">
<rect x="3" y="3" width="194" height="294" rx="24" fill="url(#paint0_diamond_10_880)" stroke="url(#paint1_linear_10_880)" stroke-width="6"/>
<path d="M22 188H182" stroke="url(#paint2_linear_10_880)"/>
<path d="M22 188H182" stroke="url(#paint3_linear_10_880)"/>
<path d="M169.894 129.518C169.658 111.036 162.283 93.6981 149.128 80.6984C137.527 69.2353 122.604 62.3122 106.557 60.8263C106.952 59.9375 107.173 58.9547 107.173 57.9191C107.173 53.9572 103.962 50.7459 100 50.7459C96.0384 50.7459 92.8271 53.9575 92.8271 57.9191C92.8271 58.9541 93.0481 59.9372 93.4431 60.8263C77.3962 62.3122 62.4731 69.2353 50.8724 80.6984C37.7175 93.6978 30.3428 111.036 30.1068 129.518L30.0437 134.478H169.957L169.894 129.518ZM40.1699 124.682C43.0884 94.2828 68.9509 70.3169 99.9999 70.3169C131.049 70.3169 156.912 94.2828 159.83 124.682H40.1699Z" fill="url(#paint4_linear_10_880)"/>
<path d="M180 139.458H20V149.254H180V139.458Z" fill="url(#paint5_linear_10_880)"/>
<path d="M50.5018 115.217L59.9884 117.66C60.0346 117.48 64.7968 99.6131 80.3834 92.8281L76.4737 83.8463C56.5518 92.5181 50.74 114.294 50.5018 115.217Z" fill="url(#paint6_linear_10_880)"/>
<defs>
<radialGradient id="paint0_diamond_10_880" cx="0" cy="0" r="1" gradientUnits="userSpaceOnUse" gradientTransform="translate(100 103) rotate(90) scale(167 111.333)">
<stop stop-color="#31CC36"/>
<stop offset="0.13" stop-color="#27A22B"/>
<stop offset="0.295" stop-color="#239227"/>
<stop offset="0.89" stop-color="#18661B"/>
</radialGradient>
<linearGradient id="paint1_linear_10_880" x1="100" y1="0" x2="100" y2="300" gradientUnits="userSpaceOnUse">
<stop stop-color="#DADCDC"/>
<stop offset="1" stop-color="#808080"/>
</linearGradient>
<linearGradient id="paint2_linear_10_880" x1="24.3256" y1="189" x2="184.326" y2="189" gradientUnits="userSpaceOnUse">
<stop stop-color="#135D15"/>
<stop offset="0.508" stop-color="#2ECE33"/>
<stop offset="0.99" stop-color="#135D15"/>
</linearGradient>
<linearGradient id="paint3_linear_10_880" x1="24.3256" y1="189" x2="184.326" y2="189" gradientUnits="userSpaceOnUse">
<stop stop-color="#999999"/>
<stop offset="0.5" stop-color="white"/>
<stop offset="0.99" stop-color="#999999"/>
</linearGradient>
<linearGradient id="paint4_linear_10_880" x1="100.001" y1="50.7459" x2="100.001" y2="134.478" gradientUnits="userSpaceOnUse">
<stop stop-color="#DADCDC"/>
<stop offset="1" stop-color="#888888"/>
</linearGradient>
<linearGradient id="paint5_linear_10_880" x1="100" y1="139.458" x2="100" y2="149.254" gradientUnits="userSpaceOnUse">
<stop stop-color="#DADCDC"/>
<stop offset="1" stop-color="#888888"/>
</linearGradient>
<linearGradient id="paint6_linear_10_880" x1="65.4426" y1="83.8463" x2="65.4426" y2="117.66" gradientUnits="userSpaceOnUse">
<stop stop-color="#DADCDC"/>
<stop offset="1" stop-color="#888888"/>
</linearGradient>
</defs>
</svg>
