<svg width="216" height="300" viewBox="0 0 216 300" fill="none" xmlns="http://www.w3.org/2000/svg">
<rect x="2.5" y="2.5" width="195" height="295" rx="24.5" fill="#282828" stroke="url(#paint0_linear_38_2376)" stroke-width="5"/>
<rect x="10.5" y="2.5" width="195" height="295" rx="24.5" fill="#282828" stroke="url(#paint1_linear_38_2376)" stroke-width="5"/>
<rect x="20.5" y="4.5" width="191" height="291" rx="22.5" fill="#282828" stroke="url(#paint2_linear_38_2376)" stroke-width="9"/>
<rect x="29.5" y="13.5" width="173" height="274" rx="14.5" fill="#282828" stroke="url(#paint3_linear_38_2376)"/>
<mask id="mask0_38_2376" style="mask-type:alpha" maskUnits="userSpaceOnUse" x="30" y="13" width="174" height="275">
<rect x="30.5" y="13.5" width="173" height="274" rx="16.5" fill="#282224" stroke="url(#paint4_linear_38_2376)"/>
</mask>
<g mask="url(#mask0_38_2376)">
<path d="M169.378 175.875L170.782 181.858C170.834 182.083 170.971 182.232 171.123 182.232C171.276 182.232 171.412 182.083 171.465 181.858L172.869 175.875C174.005 171.032 176.434 167.215 179.515 165.429L183.32 163.223C183.463 163.14 183.559 162.925 183.559 162.686C183.559 162.446 183.463 162.232 183.32 162.149L179.514 159.942C176.434 158.156 174.005 154.339 172.869 149.496L171.465 143.514C171.412 143.289 171.276 143.14 171.123 143.14C170.971 143.14 170.834 143.289 170.782 143.514L169.378 149.496C168.242 154.339 165.813 158.156 162.732 159.942L158.926 162.149C158.783 162.232 158.688 162.446 158.688 162.686C158.688 162.925 158.783 163.14 158.926 163.223L162.732 165.429C165.813 167.215 168.242 171.032 169.378 175.875Z" fill="url(#paint5_linear_38_2376)" fill-opacity="0.35"/>
<path d="M200.235 201.143L196.429 198.937C193.348 197.151 190.919 193.333 189.783 188.491L188.38 182.509C188.327 182.284 188.19 182.134 188.038 182.134C187.885 182.134 187.749 182.284 187.696 182.509L186.292 188.49C185.156 193.333 182.728 197.151 179.647 198.937L175.841 201.143C175.698 201.226 175.603 201.44 175.603 201.68C175.603 201.919 175.698 202.134 175.841 202.217L179.647 204.423C182.728 206.209 185.156 210.027 186.292 214.869L187.696 220.852C187.749 221.077 187.885 221.226 188.038 221.226C188.19 221.226 188.327 221.077 188.38 220.852L189.783 214.869C190.919 210.027 193.348 206.209 196.429 204.423L200.235 202.217C200.378 202.134 200.473 201.919 200.473 201.68C200.473 201.44 200.378 201.226 200.235 201.143Z" fill="url(#paint6_linear_38_2376)" fill-opacity="0.35"/>
<path d="M219.932 175.555L217.345 174.056C215.252 172.842 213.601 170.248 212.829 166.957L211.875 162.891C211.839 162.738 211.746 162.637 211.643 162.637C211.539 162.637 211.446 162.738 211.41 162.891L210.457 166.956C209.685 170.248 208.034 172.842 205.94 174.056L203.354 175.555C203.256 175.611 203.192 175.757 203.192 175.92C203.192 176.083 203.256 176.229 203.354 176.285L205.94 177.784C208.034 178.998 209.685 181.593 210.457 184.884L211.41 188.95C211.446 189.102 211.539 189.204 211.643 189.204C211.746 189.204 211.839 189.102 211.875 188.95L212.829 184.884C213.601 181.592 215.251 178.998 217.345 177.784L219.932 176.285C220.029 176.229 220.094 176.083 220.094 175.92C220.094 175.757 220.029 175.611 219.932 175.555Z" fill="url(#paint7_linear_38_2376)" fill-opacity="0.35"/>
<path d="M213.666 229.076L211.862 228.03C210.402 227.183 209.25 225.373 208.712 223.078L208.046 220.243C208.021 220.136 207.957 220.065 207.884 220.065C207.812 220.065 207.747 220.136 207.722 220.243L207.057 223.078C206.518 225.374 205.367 227.183 203.907 228.03L202.102 229.076C202.034 229.115 201.989 229.217 201.989 229.33C201.989 229.444 202.034 229.546 202.102 229.585L203.906 230.631C205.367 231.478 206.518 233.288 207.057 235.583L207.722 238.419C207.747 238.526 207.812 238.596 207.884 238.596C207.957 238.596 208.022 238.526 208.046 238.419L208.712 235.583C209.251 233.288 210.402 231.478 211.863 230.631L213.667 229.585C213.734 229.546 213.78 229.444 213.78 229.33C213.78 229.217 213.734 229.115 213.666 229.076Z" fill="url(#paint8_linear_38_2376)" fill-opacity="0.35"/>
<path d="M200.36 147.542L198.556 146.496C197.095 145.65 195.944 143.84 195.406 141.545L194.74 138.709C194.715 138.602 194.65 138.531 194.578 138.531C194.506 138.531 194.441 138.602 194.416 138.709L193.751 141.544C193.212 143.84 192.061 145.65 190.6 146.496L188.796 147.542C188.728 147.581 188.683 147.683 188.683 147.797C188.683 147.91 188.728 148.012 188.796 148.051L190.6 149.097C192.061 149.944 193.212 151.754 193.751 154.05L194.416 156.885C194.441 156.992 194.506 157.063 194.578 157.063C194.65 157.063 194.715 156.992 194.74 156.885L195.406 154.049C195.944 151.753 197.095 149.944 198.556 149.098L200.36 148.051C200.428 148.012 200.473 147.911 200.473 147.797C200.473 147.683 200.428 147.581 200.36 147.542Z" fill="url(#paint9_linear_38_2376)" fill-opacity="0.35"/>
<path d="M178.23 223.246L175.96 221.931C174.123 220.866 172.675 218.59 171.997 215.702L171.16 212.135C171.129 212.001 171.047 211.911 170.957 211.911C170.866 211.911 170.784 212.001 170.753 212.135L169.916 215.701C169.239 218.589 167.79 220.866 165.953 221.931L163.684 223.246C163.598 223.295 163.542 223.423 163.542 223.566C163.542 223.709 163.599 223.837 163.684 223.886L165.953 225.202C167.79 226.267 169.238 228.543 169.916 231.431L170.753 234.998C170.784 235.132 170.866 235.221 170.957 235.221C171.047 235.221 171.129 235.132 171.16 234.998L171.997 231.431C172.675 228.543 174.123 226.267 175.96 225.202L178.23 223.886C178.315 223.837 178.371 223.709 178.371 223.566C178.371 223.423 178.315 223.295 178.23 223.246Z" fill="url(#paint10_linear_38_2376)" fill-opacity="0.35"/>
<path d="M107.403 175.875L108.806 181.858C108.859 182.083 108.996 182.232 109.148 182.232C109.301 182.232 109.437 182.083 109.49 181.858L110.893 175.875C112.03 171.032 114.458 167.215 117.539 165.429L121.345 163.223C121.488 163.14 121.583 162.925 121.583 162.686C121.583 162.446 121.488 162.232 121.345 162.149L117.539 159.942C114.458 158.156 112.029 154.339 110.893 149.496L109.49 143.514C109.437 143.289 109.301 143.14 109.148 143.14C108.996 143.14 108.859 143.289 108.806 143.514L107.403 149.496C106.267 154.339 103.838 158.156 100.757 159.942L96.9509 162.149C96.8078 162.232 96.7128 162.446 96.7128 162.686C96.7128 162.925 96.8078 163.14 96.9509 163.223L100.757 165.429C103.838 167.215 106.267 171.032 107.403 175.875Z" fill="url(#paint11_linear_38_2376)" fill-opacity="0.35"/>
<path d="M138.259 201.143L134.454 198.937C131.373 197.151 128.944 193.333 127.808 188.491L126.404 182.509C126.352 182.284 126.215 182.134 126.063 182.134C125.91 182.134 125.774 182.284 125.721 182.509L124.317 188.49C123.181 193.333 120.752 197.151 117.671 198.937L113.866 201.143C113.723 201.226 113.628 201.44 113.628 201.68C113.628 201.919 113.723 202.134 113.866 202.217L117.672 204.423C120.752 206.209 123.181 210.027 124.317 214.869L125.721 220.852C125.774 221.077 125.91 221.226 126.063 221.226C126.215 221.226 126.352 221.077 126.404 220.852L127.808 214.869C128.944 210.027 131.373 206.209 134.454 204.423L138.26 202.217C138.403 202.134 138.498 201.919 138.498 201.68C138.498 201.44 138.403 201.226 138.259 201.143Z" fill="url(#paint12_linear_38_2376)" fill-opacity="0.35"/>
<path d="M157.957 175.555L155.37 174.056C153.276 172.842 151.626 170.248 150.854 166.957L149.9 162.891C149.864 162.738 149.771 162.637 149.667 162.637C149.564 162.637 149.471 162.738 149.435 162.891L148.481 166.956C147.709 170.248 146.059 172.842 143.965 174.056L141.378 175.555C141.281 175.611 141.216 175.757 141.216 175.92C141.216 176.083 141.281 176.229 141.378 176.285L143.965 177.784C146.059 178.998 147.709 181.593 148.481 184.884L149.435 188.95C149.471 189.102 149.564 189.204 149.667 189.204C149.771 189.204 149.864 189.102 149.9 188.95L150.854 184.884C151.626 181.592 153.276 178.998 155.37 177.784L157.957 176.285C158.054 176.229 158.119 176.083 158.119 175.92C158.119 175.757 158.054 175.611 157.957 175.555Z" fill="url(#paint13_linear_38_2376)" fill-opacity="0.35"/>
<path d="M151.691 229.076L149.887 228.03C148.426 227.183 147.275 225.373 146.736 223.078L146.071 220.243C146.046 220.136 145.981 220.065 145.909 220.065C145.836 220.065 145.772 220.136 145.747 220.243L145.081 223.078C144.543 225.374 143.391 227.183 141.931 228.03L140.127 229.076C140.059 229.115 140.014 229.217 140.014 229.33C140.014 229.444 140.059 229.546 140.127 229.585L141.931 230.631C143.392 231.478 144.543 233.288 145.081 235.583L145.747 238.419C145.772 238.526 145.837 238.596 145.909 238.596C145.981 238.596 146.046 238.526 146.071 238.419L146.737 235.583C147.275 233.288 148.426 231.478 149.887 230.631L151.691 229.585C151.759 229.546 151.804 229.444 151.804 229.33C151.804 229.217 151.759 229.115 151.691 229.076Z" fill="url(#paint14_linear_38_2376)" fill-opacity="0.35"/>
<path d="M138.385 147.542L136.58 146.496C135.12 145.65 133.969 143.84 133.43 141.545L132.765 138.709C132.74 138.602 132.675 138.531 132.603 138.531C132.531 138.531 132.466 138.602 132.441 138.709L131.776 141.544C131.237 143.84 130.085 145.65 128.625 146.496L126.821 147.542C126.753 147.581 126.708 147.683 126.708 147.797C126.708 147.91 126.753 148.012 126.821 148.051L128.625 149.097C130.085 149.944 131.237 151.754 131.776 154.05L132.441 156.885C132.466 156.992 132.531 157.063 132.603 157.063C132.675 157.063 132.74 156.992 132.765 156.885L133.43 154.049C133.969 151.753 135.12 149.944 136.581 149.098L138.385 148.051C138.453 148.012 138.498 147.911 138.498 147.797C138.498 147.683 138.453 147.581 138.385 147.542Z" fill="url(#paint15_linear_38_2376)" fill-opacity="0.35"/>
<path d="M116.254 223.246L113.985 221.931C112.148 220.866 110.7 218.59 110.022 215.702L109.185 212.135C109.153 212.001 109.072 211.911 108.981 211.911C108.89 211.911 108.809 212.001 108.777 212.135L107.941 215.701C107.263 218.589 105.815 220.866 103.978 221.931L101.709 223.246C101.623 223.295 101.567 223.423 101.567 223.566C101.567 223.709 101.623 223.837 101.709 223.886L103.978 225.202C105.815 226.267 107.263 228.543 107.941 231.431L108.777 234.998C108.809 235.132 108.89 235.221 108.981 235.221C109.072 235.221 109.154 235.132 109.185 234.998L110.022 231.431C110.699 228.543 112.147 226.267 113.985 225.202L116.254 223.886C116.34 223.837 116.396 223.709 116.396 223.566C116.396 223.423 116.34 223.295 116.254 223.246Z" fill="url(#paint16_linear_38_2376)" fill-opacity="0.35"/>
<path d="M45.4275 175.875L46.8311 181.858C46.8839 182.083 47.0203 182.232 47.1728 182.232C47.3253 182.232 47.4618 182.083 47.5145 181.858L48.9182 175.875C50.0544 171.032 52.4832 167.215 55.564 165.429L59.3699 163.223C59.5129 163.14 59.608 162.925 59.608 162.686C59.608 162.446 59.5129 162.232 59.3699 162.149L55.5638 159.942C52.483 158.156 50.0542 154.339 48.9182 149.496L47.5145 143.514C47.4618 143.289 47.3253 143.14 47.1728 143.14C47.0203 143.14 46.8839 143.289 46.8311 143.514L45.4275 149.496C44.2913 154.339 41.8627 158.156 38.7816 159.942L34.9756 162.149C34.8325 162.232 34.7375 162.446 34.7375 162.686C34.7375 162.925 34.8325 163.14 34.9756 163.223L38.7814 165.429C41.8625 167.215 44.2913 171.032 45.4275 175.875Z" fill="url(#paint17_linear_38_2376)" fill-opacity="0.35"/>
<path d="M76.284 201.143L72.4784 198.937C69.3973 197.151 66.9686 193.333 65.8326 188.491L64.4289 182.509C64.3762 182.284 64.2397 182.134 64.0872 182.134C63.9347 182.134 63.7983 182.284 63.7455 182.509L62.3418 188.49C61.2056 193.333 58.7769 197.151 55.696 198.937L51.8902 201.143C51.7471 201.226 51.6521 201.44 51.6521 201.68C51.6521 201.919 51.7471 202.134 51.8902 202.217L55.6963 204.423C58.7771 206.209 61.2056 210.027 62.3418 214.869L63.7455 220.852C63.7983 221.077 63.9347 221.226 64.0872 221.226C64.2397 221.226 64.3762 221.077 64.4289 220.852L65.8326 214.869C66.9688 210.027 69.3973 206.209 72.4782 204.423L76.2842 202.217C76.4273 202.134 76.5223 201.919 76.5223 201.68C76.5223 201.44 76.4271 201.226 76.284 201.143Z" fill="url(#paint18_linear_38_2376)" fill-opacity="0.35"/>
<path d="M95.9816 175.555L93.395 174.056C91.3012 172.842 89.6507 170.248 88.8785 166.957L87.9246 162.891C87.8886 162.738 87.7959 162.637 87.6923 162.637C87.5887 162.637 87.496 162.738 87.46 162.891L86.5063 166.956C85.7341 170.248 84.0836 172.842 81.9896 174.056L79.4032 175.555C79.3061 175.611 79.2413 175.757 79.2413 175.92C79.2413 176.083 79.3061 176.229 79.4032 176.285L81.9899 177.784C84.0836 178.998 85.7341 181.593 86.5063 184.884L87.46 188.95C87.496 189.102 87.5887 189.204 87.6923 189.204C87.7959 189.204 87.8886 189.102 87.9246 188.95L88.8785 184.884C89.6507 181.592 91.301 178.998 93.395 177.784L95.9816 176.285C96.0788 176.229 96.1435 176.083 96.1435 175.92C96.1435 175.757 96.0788 175.611 95.9816 175.555Z" fill="url(#paint19_linear_38_2376)" fill-opacity="0.35"/>
<path d="M89.7158 229.076L87.9114 228.03C86.4509 227.183 85.2997 225.373 84.7611 223.078L84.0955 220.243C84.0706 220.136 84.0058 220.065 83.9335 220.065C83.8613 220.065 83.7965 220.136 83.7716 220.243L83.106 223.078C82.5674 225.374 81.4162 227.183 79.9559 228.03L78.1515 229.076C78.0837 229.115 78.0387 229.217 78.0387 229.33C78.0387 229.444 78.0837 229.546 78.1515 229.585L79.9557 230.631C81.4164 231.478 82.5676 233.288 83.1062 235.583L83.7718 238.419C83.7967 238.526 83.8615 238.596 83.9338 238.596C84.006 238.596 84.0708 238.526 84.0957 238.419L84.7613 235.583C85.2999 233.288 86.4511 231.478 87.9118 230.631L89.716 229.585C89.7838 229.546 89.8288 229.444 89.8288 229.33C89.8288 229.217 89.7838 229.115 89.7158 229.076Z" fill="url(#paint20_linear_38_2376)" fill-opacity="0.35"/>
<path d="M76.4096 147.542L74.6052 146.496C73.1447 145.65 71.9935 143.84 71.4551 141.545L70.7895 138.709C70.7646 138.602 70.6998 138.531 70.6275 138.531C70.5553 138.531 70.4905 138.602 70.4656 138.709L69.8002 141.544C69.2616 143.84 68.1102 145.65 66.6497 146.496L64.8453 147.542C64.7775 147.581 64.7325 147.683 64.7325 147.797C64.7325 147.91 64.7775 148.012 64.8453 148.051L66.6495 149.097C68.1102 149.944 69.2616 151.754 69.8002 154.05L70.4656 156.885C70.4905 156.992 70.5553 157.063 70.6275 157.063C70.6998 157.063 70.7646 156.992 70.7895 156.885L71.4551 154.049C71.9937 151.753 73.1449 149.944 74.6056 149.098L76.4098 148.051C76.4776 148.012 76.5226 147.911 76.5226 147.797C76.5226 147.683 76.4776 147.581 76.4096 147.542Z" fill="url(#paint21_linear_38_2376)" fill-opacity="0.35"/>
<path d="M54.2789 223.246L52.0095 221.931C50.1726 220.866 48.7243 218.59 48.0465 215.702L47.2097 212.135C47.1782 212.001 47.0969 211.911 47.0059 211.911C46.915 211.911 46.8337 212.001 46.8022 212.135L45.9654 215.701C45.288 218.589 43.8397 220.866 42.0023 221.931L39.7334 223.246C39.6478 223.295 39.5914 223.423 39.5914 223.566C39.5914 223.709 39.648 223.837 39.7334 223.886L42.0025 225.202C43.8395 226.267 45.2878 228.543 45.9654 231.431L46.8022 234.998C46.8337 235.132 46.915 235.221 47.0059 235.221C47.0969 235.221 47.1784 235.132 47.2097 234.998L48.0467 231.431C48.7241 228.543 50.1722 226.267 52.0093 225.202L54.2789 223.886C54.3643 223.837 54.4209 223.709 54.4209 223.566C54.4209 223.423 54.3645 223.295 54.2789 223.246Z" fill="url(#paint22_linear_38_2376)" fill-opacity="0.35"/>
<path d="M33.9214 177.322L31.3347 175.823C29.241 174.609 27.5904 172.015 26.8182 168.724L25.8644 164.658C25.8283 164.505 25.7357 164.404 25.6321 164.404C25.5285 164.404 25.4358 164.505 25.3998 164.658L24.4461 168.723C23.6739 172.015 22.0233 174.609 19.9294 175.823L17.343 177.322C17.2458 177.378 17.181 177.524 17.181 177.687C17.181 177.85 17.2458 177.996 17.343 178.052L19.9296 179.551C22.0233 180.765 23.6739 183.36 24.4461 186.651L25.3998 190.717C25.4358 190.869 25.5285 190.971 25.6321 190.971C25.7357 190.971 25.8283 190.869 25.8644 190.717L26.8182 186.651C27.5904 183.359 29.2408 180.765 31.3347 179.551L33.9214 178.052C34.0185 177.996 34.0833 177.85 34.0833 177.687C34.0833 177.524 34.0185 177.378 33.9214 177.322Z" fill="url(#paint23_linear_38_2376)" fill-opacity="0.35"/>
<path d="M169.378 276.514L170.782 282.496C170.834 282.721 170.971 282.87 171.123 282.87C171.276 282.87 171.412 282.721 171.465 282.496L172.869 276.514C174.005 271.671 176.434 267.853 179.515 266.067L183.32 263.861C183.463 263.778 183.559 263.564 183.559 263.324C183.559 263.084 183.463 262.87 183.32 262.787L179.514 260.581C176.434 258.795 174.005 254.977 172.869 250.135L171.465 244.153C171.412 243.928 171.276 243.778 171.123 243.778C170.971 243.778 170.834 243.928 170.782 244.153L169.378 250.135C168.242 254.977 165.813 258.795 162.732 260.581L158.926 262.787C158.783 262.87 158.688 263.084 158.688 263.324C158.688 263.564 158.783 263.778 158.926 263.861L162.732 266.067C165.813 267.853 168.242 271.67 169.378 276.514Z" fill="url(#paint24_linear_38_2376)" fill-opacity="0.35"/>
<path d="M200.235 301.781L196.429 299.575C193.348 297.789 190.919 293.971 189.783 289.129L188.38 283.147C188.327 282.922 188.19 282.772 188.038 282.772C187.885 282.772 187.749 282.922 187.696 283.147L186.292 289.129C185.156 293.971 182.728 297.789 179.647 299.575L175.841 301.781C175.698 301.864 175.603 302.078 175.603 302.318C175.603 302.558 175.698 302.772 175.841 302.855L179.647 305.062C182.728 306.848 185.156 310.665 186.292 315.507L187.696 321.49C187.749 321.715 187.885 321.864 188.038 321.864C188.19 321.864 188.327 321.715 188.38 321.49L189.783 315.507C190.919 310.665 193.348 306.847 196.429 305.062L200.235 302.855C200.378 302.772 200.473 302.558 200.473 302.318C200.473 302.078 200.378 301.864 200.235 301.781Z" fill="url(#paint25_linear_38_2376)" fill-opacity="0.35"/>
<path d="M219.932 276.193L217.345 274.694C215.252 273.48 213.601 270.886 212.829 267.595L211.875 263.529C211.839 263.376 211.746 263.275 211.643 263.275C211.539 263.275 211.446 263.376 211.41 263.529L210.457 267.594C209.685 270.886 208.034 273.48 205.94 274.694L203.354 276.193C203.256 276.249 203.192 276.395 203.192 276.558C203.192 276.721 203.256 276.867 203.354 276.923L205.94 278.422C208.034 279.636 209.685 282.231 210.457 285.522L211.41 289.588C211.446 289.741 211.539 289.842 211.643 289.842C211.746 289.842 211.839 289.741 211.875 289.588L212.829 285.522C213.601 282.23 215.251 279.636 217.345 278.422L219.932 276.923C220.029 276.867 220.094 276.721 220.094 276.558C220.094 276.395 220.029 276.249 219.932 276.193Z" fill="url(#paint26_linear_38_2376)" fill-opacity="0.35"/>
<path d="M200.36 248.18L198.556 247.135C197.095 246.288 195.944 244.478 195.406 242.183L194.74 239.347C194.715 239.24 194.65 239.17 194.578 239.17C194.506 239.17 194.441 239.24 194.416 239.347L193.751 242.182C193.212 244.478 192.061 246.288 190.6 247.134L188.796 248.18C188.728 248.219 188.683 248.321 188.683 248.435C188.683 248.548 188.728 248.65 188.796 248.689L190.6 249.735C192.061 250.582 193.212 252.392 193.751 254.688L194.416 257.523C194.441 257.63 194.506 257.701 194.578 257.701C194.65 257.701 194.715 257.63 194.74 257.523L195.406 254.688C195.944 252.392 197.095 250.582 198.556 249.736L200.36 248.69C200.428 248.65 200.473 248.549 200.473 248.435C200.473 248.321 200.428 248.22 200.36 248.18Z" fill="url(#paint27_linear_38_2376)" fill-opacity="0.35"/>
<path d="M107.403 276.514L108.806 282.496C108.859 282.721 108.996 282.87 109.148 282.87C109.301 282.87 109.437 282.721 109.49 282.496L110.893 276.514C112.03 271.671 114.458 267.853 117.539 266.067L121.345 263.861C121.488 263.778 121.583 263.564 121.583 263.324C121.583 263.084 121.488 262.87 121.345 262.787L117.539 260.581C114.458 258.795 112.029 254.977 110.893 250.135L109.49 244.153C109.437 243.928 109.301 243.778 109.148 243.778C108.996 243.778 108.859 243.928 108.806 244.153L107.403 250.135C106.267 254.977 103.838 258.795 100.757 260.581L96.9509 262.787C96.8078 262.87 96.7128 263.084 96.7128 263.324C96.7128 263.564 96.8078 263.778 96.9509 263.861L100.757 266.067C103.838 267.853 106.267 271.67 107.403 276.514Z" fill="url(#paint28_linear_38_2376)" fill-opacity="0.35"/>
<path d="M138.259 301.781L134.454 299.575C131.373 297.789 128.944 293.971 127.808 289.129L126.404 283.147C126.352 282.922 126.215 282.772 126.063 282.772C125.91 282.772 125.774 282.922 125.721 283.147L124.317 289.129C123.181 293.971 120.752 297.789 117.671 299.575L113.866 301.781C113.723 301.864 113.628 302.078 113.628 302.318C113.628 302.558 113.723 302.772 113.866 302.855L117.672 305.062C120.752 306.848 123.181 310.665 124.317 315.507L125.721 321.49C125.774 321.715 125.91 321.864 126.063 321.864C126.215 321.864 126.352 321.715 126.404 321.49L127.808 315.507C128.944 310.665 131.373 306.847 134.454 305.062L138.26 302.855C138.403 302.772 138.498 302.558 138.498 302.318C138.498 302.078 138.403 301.864 138.259 301.781Z" fill="url(#paint29_linear_38_2376)" fill-opacity="0.35"/>
<path d="M157.957 276.193L155.37 274.694C153.276 273.48 151.626 270.886 150.854 267.595L149.9 263.529C149.864 263.376 149.771 263.275 149.667 263.275C149.564 263.275 149.471 263.376 149.435 263.529L148.481 267.594C147.709 270.886 146.059 273.48 143.965 274.694L141.378 276.193C141.281 276.249 141.216 276.395 141.216 276.558C141.216 276.721 141.281 276.867 141.378 276.923L143.965 278.422C146.059 279.636 147.709 282.231 148.481 285.522L149.435 289.588C149.471 289.741 149.564 289.842 149.667 289.842C149.771 289.842 149.864 289.741 149.9 289.588L150.854 285.522C151.626 282.23 153.276 279.636 155.37 278.422L157.957 276.923C158.054 276.867 158.119 276.721 158.119 276.558C158.119 276.395 158.054 276.249 157.957 276.193Z" fill="url(#paint30_linear_38_2376)" fill-opacity="0.35"/>
<path d="M138.385 248.18L136.58 247.135C135.12 246.288 133.969 244.478 133.43 242.183L132.765 239.347C132.74 239.24 132.675 239.17 132.603 239.17C132.531 239.17 132.466 239.24 132.441 239.347L131.776 242.182C131.237 244.478 130.085 246.288 128.625 247.134L126.821 248.18C126.753 248.219 126.708 248.321 126.708 248.435C126.708 248.548 126.753 248.65 126.821 248.689L128.625 249.735C130.085 250.582 131.237 252.392 131.776 254.688L132.441 257.523C132.466 257.63 132.531 257.701 132.603 257.701C132.675 257.701 132.74 257.63 132.765 257.523L133.43 254.688C133.969 252.392 135.12 250.582 136.581 249.736L138.385 248.69C138.453 248.65 138.498 248.549 138.498 248.435C138.498 248.321 138.453 248.22 138.385 248.18Z" fill="url(#paint31_linear_38_2376)" fill-opacity="0.35"/>
<path d="M45.4275 276.514L46.8311 282.496C46.8839 282.721 47.0203 282.87 47.1728 282.87C47.3253 282.87 47.4618 282.721 47.5145 282.496L48.9182 276.514C50.0544 271.671 52.4832 267.853 55.564 266.067L59.3699 263.861C59.5129 263.778 59.608 263.564 59.608 263.324C59.608 263.084 59.5129 262.87 59.3699 262.787L55.5638 260.581C52.483 258.795 50.0542 254.977 48.9182 250.135L47.5145 244.153C47.4618 243.928 47.3253 243.778 47.1728 243.778C47.0203 243.778 46.8839 243.928 46.8311 244.153L45.4275 250.135C44.2913 254.977 41.8627 258.795 38.7816 260.581L34.9756 262.787C34.8325 262.87 34.7375 263.084 34.7375 263.324C34.7375 263.564 34.8325 263.778 34.9756 263.861L38.7814 266.067C41.8625 267.853 44.2913 271.67 45.4275 276.514Z" fill="url(#paint32_linear_38_2376)" fill-opacity="0.35"/>
<path d="M76.284 301.781L72.4784 299.575C69.3973 297.789 66.9686 293.971 65.8326 289.129L64.4289 283.147C64.3762 282.922 64.2397 282.772 64.0872 282.772C63.9347 282.772 63.7983 282.922 63.7455 283.147L62.3418 289.129C61.2056 293.971 58.7769 297.789 55.696 299.575L51.8902 301.781C51.7471 301.864 51.6521 302.078 51.6521 302.318C51.6521 302.558 51.7471 302.772 51.8902 302.855L55.6963 305.062C58.7771 306.848 61.2056 310.665 62.3418 315.507L63.7455 321.49C63.7983 321.715 63.9347 321.864 64.0872 321.864C64.2397 321.864 64.3762 321.715 64.4289 321.49L65.8326 315.507C66.9688 310.665 69.3973 306.847 72.4782 305.062L76.2842 302.855C76.4273 302.772 76.5223 302.558 76.5223 302.318C76.5223 302.078 76.4271 301.864 76.284 301.781Z" fill="url(#paint33_linear_38_2376)" fill-opacity="0.35"/>
<path d="M95.9816 276.193L93.395 274.694C91.3012 273.48 89.6507 270.886 88.8785 267.595L87.9246 263.529C87.8886 263.376 87.7959 263.275 87.6923 263.275C87.5887 263.275 87.496 263.376 87.46 263.529L86.5063 267.594C85.7341 270.886 84.0836 273.48 81.9896 274.694L79.4032 276.193C79.3061 276.249 79.2413 276.395 79.2413 276.558C79.2413 276.721 79.3061 276.867 79.4032 276.923L81.9899 278.422C84.0836 279.636 85.7341 282.231 86.5063 285.522L87.46 289.588C87.496 289.741 87.5887 289.842 87.6923 289.842C87.7959 289.842 87.8886 289.741 87.9246 289.588L88.8785 285.522C89.6507 282.23 91.301 279.636 93.395 278.422L95.9816 276.923C96.0788 276.867 96.1435 276.721 96.1435 276.558C96.1435 276.395 96.0788 276.249 95.9816 276.193Z" fill="url(#paint34_linear_38_2376)" fill-opacity="0.35"/>
<path d="M76.4096 248.18L74.6052 247.135C73.1447 246.288 71.9935 244.478 71.4551 242.183L70.7895 239.347C70.7646 239.24 70.6998 239.17 70.6275 239.17C70.5553 239.17 70.4905 239.24 70.4656 239.347L69.8002 242.182C69.2616 244.478 68.1102 246.288 66.6497 247.134L64.8453 248.18C64.7775 248.219 64.7325 248.321 64.7325 248.435C64.7325 248.548 64.7775 248.65 64.8453 248.689L66.6495 249.735C68.1102 250.582 69.2616 252.392 69.8002 254.688L70.4656 257.523C70.4905 257.63 70.5553 257.701 70.6275 257.701C70.6998 257.701 70.7646 257.63 70.7895 257.523L71.4551 254.688C71.9937 252.392 73.1449 250.582 74.6056 249.736L76.4098 248.69C76.4776 248.65 76.5226 248.549 76.5226 248.435C76.5226 248.321 76.4776 248.22 76.4096 248.18Z" fill="url(#paint35_linear_38_2376)" fill-opacity="0.35"/>
<path d="M33.9214 277.96L31.3347 276.461C29.241 275.247 27.5904 272.653 26.8182 269.362L25.8644 265.296C25.8283 265.143 25.7357 265.042 25.6321 265.042C25.5285 265.042 25.4358 265.143 25.3998 265.296L24.4461 269.361C23.6739 272.653 22.0233 275.247 19.9294 276.461L17.343 277.96C17.2458 278.016 17.181 278.162 17.181 278.325C17.181 278.488 17.2458 278.634 17.343 278.69L19.9296 280.189C22.0233 281.403 23.6739 283.998 24.4461 287.289L25.3998 291.355C25.4358 291.507 25.5285 291.609 25.6321 291.609C25.7357 291.609 25.8283 291.507 25.8644 291.355L26.8182 287.289C27.5904 283.997 29.2408 281.403 31.3347 280.189L33.9214 278.69C34.0185 278.634 34.0833 278.488 34.0833 278.325C34.0833 278.162 34.0185 278.016 33.9214 277.96Z" fill="url(#paint36_linear_38_2376)" fill-opacity="0.35"/>
<path d="M171.055 73.5599L172.459 79.5421C172.512 79.7673 172.648 79.9167 172.801 79.9167C172.953 79.9167 173.09 79.7673 173.142 79.5421L174.546 73.5599C175.682 68.717 178.111 64.8993 181.192 63.1137L184.998 60.9074C185.141 60.8244 185.236 60.61 185.236 60.3703C185.236 60.1306 185.141 59.9161 184.998 59.8332L181.192 57.6268C178.111 55.8409 175.682 52.0236 174.546 47.181L173.142 41.1988C173.09 40.9739 172.953 40.8246 172.801 40.8246C172.648 40.8246 172.512 40.9739 172.459 41.1988L171.055 47.181C169.919 52.0236 167.491 55.8409 164.41 57.6268L160.603 59.8332C160.46 59.9161 160.365 60.1306 160.365 60.3703C160.365 60.61 160.46 60.8244 160.603 60.9074L164.409 63.1137C167.49 64.8993 169.919 68.7166 171.055 73.5599Z" fill="url(#paint37_linear_38_2376)" fill-opacity="0.35"/>
<path d="M201.912 98.8271L198.106 96.621C195.025 94.8351 192.596 91.0178 191.46 86.1752L190.057 80.193C190.004 79.9681 189.868 79.8188 189.715 79.8188C189.563 79.8188 189.426 79.9681 189.373 80.193L187.97 86.1749C186.834 91.0178 184.405 94.8351 181.324 96.621L177.518 98.8271C177.375 98.91 177.28 99.1244 177.28 99.3641C177.28 99.6039 177.375 99.8183 177.518 99.9012L181.324 102.108C184.405 103.894 186.834 107.711 187.97 112.554L189.373 118.536C189.426 118.761 189.563 118.911 189.715 118.911C189.868 118.911 190.004 118.761 190.057 118.536L191.46 112.554C192.597 107.711 195.025 103.894 198.106 102.108L201.912 99.9012C202.055 99.8183 202.15 99.6039 202.15 99.3641C202.15 99.1244 202.055 98.91 201.912 98.8271Z" fill="url(#paint38_linear_38_2376)" fill-opacity="0.35"/>
<path d="M215.344 126.76L213.539 125.714C212.079 124.867 210.927 123.058 210.389 120.763L209.723 117.927C209.698 117.821 209.634 117.75 209.561 117.75C209.489 117.75 209.424 117.821 209.399 117.927L208.734 120.763C208.195 123.058 207.044 124.868 205.584 125.714L203.779 126.76C203.711 126.799 203.666 126.901 203.666 127.015C203.666 127.128 203.711 127.23 203.779 127.269L205.583 128.316C207.044 129.162 208.195 130.972 208.734 133.268L209.4 136.104C209.424 136.21 209.489 136.281 209.562 136.281C209.634 136.281 209.699 136.21 209.723 136.104L210.389 133.268C210.928 130.972 212.079 129.162 213.54 128.316L215.344 127.269C215.412 127.23 215.457 127.128 215.457 127.015C215.457 126.901 215.412 126.799 215.344 126.76Z" fill="url(#paint39_linear_38_2376)" fill-opacity="0.35"/>
<path d="M202.037 45.2269L200.233 44.181C198.772 43.3344 197.621 41.5249 197.083 39.2292L196.417 36.3937C196.392 36.2868 196.328 36.216 196.255 36.216C196.183 36.216 196.118 36.2868 196.093 36.3933L195.428 39.2285C194.889 41.5242 193.738 43.3341 192.277 44.1807L190.473 45.2265C190.405 45.2657 190.36 45.3675 190.36 45.4811C190.36 45.5947 190.405 45.6965 190.473 45.7357L192.277 46.7819C193.738 47.6285 194.889 49.4383 195.428 51.7344L196.093 54.5699C196.118 54.6764 196.183 54.7472 196.255 54.7472C196.328 54.7472 196.392 54.6764 196.417 54.5699L197.083 51.734C197.621 49.438 198.773 47.6285 200.233 46.7822L202.038 45.736C202.105 45.6969 202.15 45.5951 202.15 45.4814C202.15 45.3678 202.105 45.266 202.037 45.2269Z" fill="url(#paint40_linear_38_2376)" fill-opacity="0.35"/>
<path d="M179.907 120.93L177.637 119.615C175.8 118.551 174.352 116.274 173.674 113.386L172.837 109.819C172.806 109.685 172.725 109.596 172.634 109.596C172.543 109.596 172.461 109.685 172.43 109.819L171.593 113.386C170.916 116.274 169.467 118.55 167.63 119.615L165.361 120.93C165.275 120.979 165.219 121.108 165.219 121.25C165.219 121.393 165.276 121.522 165.361 121.571L167.63 122.886C169.467 123.951 170.915 126.228 171.593 129.115L172.43 132.682C172.461 132.817 172.543 132.906 172.634 132.906C172.725 132.906 172.806 132.817 172.837 132.682L173.674 129.115C174.352 126.228 175.8 123.951 177.637 122.886L179.907 121.571C179.992 121.522 180.049 121.393 180.049 121.25C180.049 121.108 179.992 120.979 179.907 120.93Z" fill="url(#paint41_linear_38_2376)" fill-opacity="0.35"/>
<path d="M109.08 73.5599L110.484 79.5421C110.536 79.7673 110.673 79.9167 110.825 79.9167C110.978 79.9167 111.114 79.7673 111.167 79.5421L112.571 73.5599C113.707 68.717 116.136 64.8993 119.216 63.1137L123.022 60.9074C123.165 60.8244 123.26 60.61 123.26 60.3703C123.26 60.1306 123.165 59.9161 123.022 59.8332L119.216 57.6268C116.135 55.8409 113.707 52.0236 112.571 47.181L111.167 41.1988C111.114 40.9739 110.978 40.8246 110.825 40.8246C110.673 40.8246 110.536 40.9739 110.484 41.1988L109.08 47.181C107.944 52.0236 105.515 55.8409 102.434 57.6268L98.628 59.8332C98.485 59.9161 98.39 60.1306 98.39 60.3703C98.39 60.61 98.485 60.8244 98.628 60.9074L102.434 63.1137C105.515 64.8993 107.944 68.7166 109.08 73.5599Z" fill="url(#paint42_linear_38_2376)" fill-opacity="0.35"/>
<path d="M139.937 98.8271L136.131 96.621C133.05 94.8351 130.621 91.0178 129.485 86.1752L128.081 80.193C128.029 79.9681 127.892 79.8188 127.74 79.8188C127.587 79.8188 127.451 79.9681 127.398 80.193L125.994 86.1749C124.858 91.0178 122.429 94.8351 119.349 96.621L115.543 98.8271C115.4 98.91 115.305 99.1244 115.305 99.3641C115.305 99.6039 115.4 99.8183 115.543 99.9012L119.349 102.108C122.43 103.894 124.858 107.711 125.994 112.554L127.398 118.536C127.451 118.761 127.587 118.911 127.74 118.911C127.892 118.911 128.029 118.761 128.081 118.536L129.485 112.554C130.621 107.711 133.05 103.894 136.131 102.108L139.937 99.9012C140.08 99.8183 140.175 99.6039 140.175 99.3641C140.175 99.1244 140.08 98.91 139.937 98.8271Z" fill="url(#paint43_linear_38_2376)" fill-opacity="0.35"/>
<path d="M159.634 73.2395L157.047 71.7401C154.954 70.5264 153.303 67.9319 152.531 64.6409L151.577 60.5755C151.541 60.4228 151.448 60.3209 151.345 60.3209C151.241 60.3209 151.148 60.4228 151.112 60.5755L150.159 64.6406C149.386 67.9319 147.736 70.5264 145.642 71.7401L143.056 73.2395C142.958 73.2958 142.894 73.4414 142.894 73.6043C142.894 73.7671 142.958 73.9131 143.056 73.9694L145.642 75.4684C147.736 76.6825 149.386 79.277 150.159 82.568L151.112 86.6341C151.148 86.7868 151.241 86.8886 151.345 86.8886C151.448 86.8886 151.541 86.7868 151.577 86.6341L152.531 82.568C153.303 79.2766 154.953 76.6825 157.047 75.4688L159.634 73.9694C159.731 73.9131 159.796 73.7671 159.796 73.6043C159.796 73.4414 159.731 73.2958 159.634 73.2395Z" fill="url(#paint44_linear_38_2376)" fill-opacity="0.35"/>
<path d="M153.368 126.76L151.564 125.714C150.103 124.867 148.952 123.058 148.413 120.763L147.748 117.927C147.723 117.821 147.658 117.75 147.586 117.75C147.514 117.75 147.449 117.821 147.424 117.927L146.758 120.763C146.22 123.058 145.069 124.868 143.608 125.714L141.804 126.76C141.736 126.799 141.691 126.901 141.691 127.015C141.691 127.128 141.736 127.23 141.804 127.269L143.608 128.316C145.069 129.162 146.22 130.972 146.759 133.268L147.424 136.104C147.449 136.21 147.514 136.281 147.586 136.281C147.658 136.281 147.723 136.21 147.748 136.104L148.414 133.268C148.952 130.972 150.104 129.162 151.564 128.316L153.368 127.269C153.436 127.23 153.481 127.128 153.481 127.015C153.481 126.901 153.436 126.799 153.368 126.76Z" fill="url(#paint45_linear_38_2376)" fill-opacity="0.35"/>
<path d="M140.062 45.2269L138.258 44.181C136.797 43.3344 135.646 41.5249 135.108 39.2292L134.442 36.3937C134.417 36.2868 134.352 36.216 134.28 36.216C134.208 36.216 134.143 36.2868 134.118 36.3933L133.453 39.2285C132.914 41.5242 131.763 43.3341 130.302 44.1807L128.498 45.2265C128.43 45.2657 128.385 45.3675 128.385 45.4811C128.385 45.5947 128.43 45.6965 128.498 45.7357L130.302 46.7819C131.763 47.6285 132.914 49.4383 133.453 51.7344L134.118 54.5699C134.143 54.6764 134.208 54.7472 134.28 54.7472C134.352 54.7472 134.417 54.6764 134.442 54.5699L135.108 51.734C135.646 49.438 136.797 47.6285 138.258 46.7822L140.062 45.736C140.13 45.6969 140.175 45.5951 140.175 45.4814C140.175 45.3678 140.13 45.266 140.062 45.2269Z" fill="url(#paint46_linear_38_2376)" fill-opacity="0.35"/>
<path d="M117.931 120.93L115.662 119.615C113.825 118.551 112.377 116.274 111.699 113.386L110.862 109.819C110.831 109.685 110.749 109.596 110.658 109.596C110.567 109.596 110.486 109.685 110.455 109.819L109.618 113.386C108.94 116.274 107.492 118.55 105.655 119.615L103.386 120.93C103.3 120.979 103.244 121.108 103.244 121.25C103.244 121.393 103.3 121.522 103.386 121.571L105.655 122.886C107.492 123.951 108.94 126.228 109.618 129.115L110.455 132.682C110.486 132.817 110.567 132.906 110.658 132.906C110.749 132.906 110.831 132.817 110.862 132.682L111.699 129.115C112.377 126.228 113.825 123.951 115.662 122.886L117.931 121.571C118.017 121.522 118.073 121.393 118.073 121.25C118.073 121.108 118.017 120.979 117.931 120.93Z" fill="url(#paint47_linear_38_2376)" fill-opacity="0.35"/>
<path d="M47.1047 73.5599L48.5084 79.5421C48.5611 79.7673 48.6976 79.9167 48.8501 79.9167C49.0026 79.9167 49.139 79.7673 49.1918 79.5421L50.5954 73.5599C51.7316 68.717 54.1604 64.8993 57.2413 63.1137L61.0471 60.9074C61.1902 60.8244 61.2852 60.61 61.2852 60.3703C61.2852 60.1306 61.1902 59.9161 61.0471 59.8332L57.241 57.6268C54.1602 55.8409 51.7314 52.0236 50.5954 47.181L49.1918 41.1988C49.139 40.9739 49.0026 40.8246 48.8501 40.8246C48.6976 40.8246 48.5611 40.9739 48.5084 41.1988L47.1047 47.181C45.9685 52.0236 43.5399 55.8409 40.4589 57.6268L36.6528 59.8332C36.5098 59.9161 36.4147 60.1306 36.4147 60.3703C36.4147 60.61 36.5098 60.8244 36.6528 60.9074L40.4587 63.1137C43.5397 64.8993 45.9685 68.7166 47.1047 73.5599Z" fill="url(#paint48_linear_38_2376)" fill-opacity="0.35"/>
<path d="M77.9614 98.8271L74.1558 96.621C71.0747 94.8351 68.6459 91.0178 67.51 86.1752L66.1063 80.193C66.0535 79.9681 65.9171 79.8188 65.7646 79.8188C65.6121 79.8188 65.4757 79.9681 65.4229 80.193L64.0192 86.1749C62.883 91.0178 60.4543 94.8351 57.3734 96.621L53.5676 98.8271C53.4245 98.91 53.3295 99.1244 53.3295 99.3641C53.3295 99.6039 53.4245 99.8183 53.5676 99.9012L57.3736 102.108C60.4545 103.894 62.883 107.711 64.0192 112.554L65.4229 118.536C65.4757 118.761 65.6121 118.911 65.7646 118.911C65.9171 118.911 66.0535 118.761 66.1063 118.536L67.51 112.554C68.6462 107.711 71.0747 103.894 74.1556 102.108L77.9616 99.9012C78.1047 99.8183 78.1997 99.6039 78.1997 99.3641C78.1997 99.1244 78.1045 98.91 77.9614 98.8271Z" fill="url(#paint49_linear_38_2376)" fill-opacity="0.35"/>
<path d="M97.6588 73.2395L95.0722 71.7401C92.9785 70.5264 91.3279 67.9319 90.5557 64.6409L89.6018 60.5755C89.5658 60.4228 89.4731 60.3209 89.3695 60.3209C89.2659 60.3209 89.1733 60.4228 89.1372 60.5755L88.1836 64.6406C87.4114 67.9319 85.7608 70.5264 83.6669 71.7401L81.0805 73.2395C80.9833 73.2958 80.9185 73.4414 80.9185 73.6043C80.9185 73.7671 80.9833 73.9131 81.0805 73.9694L83.6671 75.4684C85.7608 76.6825 87.4114 79.277 88.1836 82.568L89.1372 86.6341C89.1733 86.7868 89.2659 86.8886 89.3695 86.8886C89.4731 86.8886 89.5658 86.7868 89.6018 86.6341L90.5557 82.568C91.3279 79.2766 92.9783 76.6825 95.0722 75.4688L97.6588 73.9694C97.756 73.9131 97.8208 73.7671 97.8208 73.6043C97.8208 73.4414 97.756 73.2958 97.6588 73.2395Z" fill="url(#paint50_linear_38_2376)" fill-opacity="0.35"/>
<path d="M91.3929 126.76L89.5885 125.714C88.128 124.867 86.9768 123.058 86.4382 120.763L85.7726 117.927C85.7477 117.821 85.683 117.75 85.6107 117.75C85.5384 117.75 85.4736 117.821 85.4487 117.927L84.7831 120.763C84.2445 123.058 83.0933 124.868 81.633 125.714L79.8286 126.76C79.7609 126.799 79.7158 126.901 79.7158 127.015C79.7158 127.128 79.7609 127.23 79.8286 127.269L81.6328 128.316C83.0935 129.162 84.2447 130.972 84.7833 133.268L85.4489 136.104C85.4738 136.21 85.5386 136.281 85.6109 136.281C85.6832 136.281 85.7479 136.21 85.7728 136.104L86.4384 133.268C86.977 130.972 88.1282 129.162 89.589 128.316L91.3931 127.269C91.4609 127.23 91.5059 127.128 91.5059 127.015C91.5059 126.901 91.4609 126.799 91.3929 126.76Z" fill="url(#paint51_linear_38_2376)" fill-opacity="0.35"/>
<path d="M78.0868 45.2269L76.2824 44.181C74.8219 43.3344 73.6707 41.5249 73.1323 39.2292L72.4667 36.3937C72.4418 36.2868 72.377 36.216 72.3047 36.216C72.2324 36.216 72.1677 36.2868 72.1428 36.3933L71.4774 39.2285C70.9388 41.5242 69.7874 43.3341 68.3269 44.1807L66.5225 45.2265C66.4547 45.2657 66.4097 45.3675 66.4097 45.4811C66.4097 45.5947 66.4547 45.6965 66.5225 45.7357L68.3266 46.7819C69.7874 47.6285 70.9388 49.4383 71.4774 51.7344L72.1428 54.5699C72.1677 54.6764 72.2324 54.7472 72.3047 54.7472C72.377 54.7472 72.4418 54.6764 72.4667 54.5699L73.1323 51.734C73.6709 49.438 74.8221 47.6285 76.2828 46.7822L78.087 45.736C78.1547 45.6969 78.1998 45.5951 78.1998 45.4814C78.1998 45.3678 78.1548 45.266 78.0868 45.2269Z" fill="url(#paint52_linear_38_2376)" fill-opacity="0.35"/>
<path d="M55.9561 120.93L53.6867 119.615C51.8497 118.551 50.4014 116.274 49.7236 113.386L48.8868 109.819C48.8553 109.685 48.774 109.596 48.6831 109.596C48.5921 109.596 48.5108 109.685 48.4793 109.819L47.6425 113.386C46.9651 116.274 45.5169 118.55 43.6795 119.615L41.4105 120.93C41.3249 120.979 41.2685 121.108 41.2685 121.25C41.2685 121.393 41.3251 121.522 41.4105 121.571L43.6797 122.886C45.5166 123.951 46.9649 126.228 47.6425 129.115L48.4793 132.682C48.5108 132.817 48.5921 132.906 48.6831 132.906C48.774 132.906 48.8555 132.817 48.8868 132.682L49.7238 129.115C50.4012 126.228 51.8493 123.951 53.6865 122.886L55.9561 121.571C56.0414 121.522 56.0981 121.393 56.0981 121.25C56.0981 121.108 56.0416 120.979 55.9561 120.93Z" fill="url(#paint53_linear_38_2376)" fill-opacity="0.35"/>
<path d="M35.5987 75.0064L33.012 73.5071C30.9183 72.2933 29.2677 69.6989 28.4955 66.4079L27.5417 62.3424C27.5056 62.1897 27.413 62.0879 27.3094 62.0879C27.2058 62.0879 27.1131 62.1897 27.0771 62.3424L26.1234 66.4076C25.3512 69.6989 23.7006 72.2933 21.6067 73.5071L19.0203 75.0064C18.9231 75.0627 18.8583 75.2084 18.8583 75.3712C18.8583 75.5341 18.9231 75.6801 19.0203 75.7364L21.6069 77.2354C23.7006 78.4495 25.3512 81.0439 26.1234 84.3349L27.0771 88.401C27.1131 88.5538 27.2058 88.6556 27.3094 88.6556C27.413 88.6556 27.5056 88.5538 27.5417 88.401L28.4955 84.3349C29.2677 81.0436 30.9181 78.4495 33.012 77.2357L35.5987 75.7364C35.6958 75.6801 35.7606 75.5341 35.7606 75.3712C35.7606 75.2084 35.6958 75.0627 35.5987 75.0064Z" fill="url(#paint54_linear_38_2376)" fill-opacity="0.35"/>
<path d="M200.235 -1.81115L196.429 -4.01718C193.348 -5.8031 190.919 -9.6204 189.783 -14.463L188.38 -20.4452C188.327 -20.6701 188.19 -20.8194 188.038 -20.8194C187.885 -20.8194 187.749 -20.6701 187.696 -20.4452L186.292 -14.4633C185.156 -9.6204 182.728 -5.8031 179.647 -4.01718L175.841 -1.81115C175.698 -1.72821 175.603 -1.51378 175.603 -1.27406C175.603 -1.03434 175.698 -0.819908 175.841 -0.736967L179.647 1.46973C182.728 3.25565 185.156 7.07295 186.292 11.9155L187.696 17.8981C187.749 18.123 187.885 18.2723 188.038 18.2723C188.19 18.2723 188.327 18.123 188.38 17.8981L189.783 11.9155C190.919 7.07295 193.348 3.25532 196.429 1.46973L200.235 -0.736967C200.378 -0.819908 200.473 -1.03434 200.473 -1.27406C200.473 -1.51378 200.378 -1.72821 200.235 -1.81115Z" fill="url(#paint55_linear_38_2376)" fill-opacity="0.35"/>
<path d="M213.666 26.1221L211.862 25.0759C210.402 24.2293 209.25 22.4197 208.712 20.1244L208.046 17.2889C208.021 17.1823 207.957 17.1115 207.884 17.1115C207.812 17.1115 207.747 17.1823 207.722 17.2889L207.057 20.1244C206.518 22.4201 205.367 24.2296 203.907 25.0759L202.102 26.1221C202.034 26.1612 201.989 26.263 201.989 26.3766C201.989 26.4902 202.034 26.5921 202.102 26.6312L203.906 27.6774C205.367 28.524 206.518 30.3338 207.057 32.6295L207.722 35.4654C207.747 35.5719 207.812 35.6427 207.884 35.6427C207.957 35.6427 208.022 35.5719 208.046 35.4654L208.712 32.6295C209.251 30.3338 210.402 28.524 211.863 27.6774L213.667 26.6312C213.734 26.5921 213.78 26.4902 213.78 26.3766C213.78 26.263 213.734 26.1612 213.666 26.1221Z" fill="url(#paint56_linear_38_2376)" fill-opacity="0.35"/>
<path d="M178.23 20.292L175.96 18.9771C174.123 17.9123 172.675 15.6358 171.997 12.7481L171.16 9.18094C171.129 9.04709 171.047 8.95775 170.957 8.95775C170.866 8.95775 170.784 9.04709 170.753 9.18094L169.916 12.7477C169.239 15.6355 167.79 17.912 165.953 18.9771L163.684 20.292C163.598 20.3412 163.542 20.4693 163.542 20.6123C163.542 20.7552 163.599 20.8834 163.684 20.9326L165.953 22.2482C167.79 23.3129 169.238 25.5894 169.916 28.4772L170.753 32.0443C170.784 32.1785 170.866 32.2675 170.957 32.2675C171.047 32.2675 171.129 32.1785 171.16 32.0443L171.997 28.4768C172.675 25.5894 174.123 23.3133 175.96 22.2482L178.23 20.9326C178.315 20.8834 178.371 20.7552 178.371 20.6123C178.371 20.4693 178.315 20.3412 178.23 20.292Z" fill="url(#paint57_linear_38_2376)" fill-opacity="0.35"/>
<path d="M138.259 -1.81115L134.454 -4.01718C131.373 -5.8031 128.944 -9.6204 127.808 -14.463L126.404 -20.4452C126.352 -20.6701 126.215 -20.8194 126.063 -20.8194C125.91 -20.8194 125.774 -20.6701 125.721 -20.4452L124.317 -14.4633C123.181 -9.6204 120.752 -5.8031 117.671 -4.01718L113.866 -1.81115C113.723 -1.72821 113.628 -1.51378 113.628 -1.27406C113.628 -1.03434 113.723 -0.819908 113.866 -0.736967L117.672 1.46973C120.752 3.25565 123.181 7.07295 124.317 11.9155L125.721 17.8981C125.774 18.123 125.91 18.2723 126.063 18.2723C126.215 18.2723 126.352 18.123 126.404 17.8981L127.808 11.9155C128.944 7.07295 131.373 3.25532 134.454 1.46973L138.26 -0.736967C138.403 -0.819908 138.498 -1.03434 138.498 -1.27406C138.498 -1.51378 138.403 -1.72821 138.259 -1.81115Z" fill="url(#paint58_linear_38_2376)" fill-opacity="0.35"/>
<path d="M151.691 26.1221L149.887 25.0759C148.426 24.2293 147.275 22.4197 146.736 20.1244L146.071 17.2889C146.046 17.1823 145.981 17.1115 145.909 17.1115C145.836 17.1115 145.772 17.1823 145.747 17.2889L145.081 20.1244C144.543 22.4201 143.391 24.2296 141.931 25.0759L140.127 26.1221C140.059 26.1612 140.014 26.263 140.014 26.3766C140.014 26.4902 140.059 26.5921 140.127 26.6312L141.931 27.6774C143.392 28.524 144.543 30.3338 145.081 32.6295L145.747 35.4654C145.772 35.5719 145.837 35.6427 145.909 35.6427C145.981 35.6427 146.046 35.5719 146.071 35.4654L146.737 32.6295C147.275 30.3338 148.426 28.524 149.887 27.6774L151.691 26.6312C151.759 26.5921 151.804 26.4902 151.804 26.3766C151.804 26.263 151.759 26.1612 151.691 26.1221Z" fill="url(#paint59_linear_38_2376)" fill-opacity="0.35"/>
<path d="M116.254 20.292L113.985 18.9771C112.148 17.9123 110.7 15.6358 110.022 12.7481L109.185 9.18094C109.153 9.04709 109.072 8.95775 108.981 8.95775C108.89 8.95775 108.809 9.04709 108.777 9.18094L107.941 12.7477C107.263 15.6355 105.815 17.912 103.978 18.9771L101.709 20.292C101.623 20.3412 101.567 20.4693 101.567 20.6123C101.567 20.7552 101.623 20.8834 101.709 20.9326L103.978 22.2482C105.815 23.3129 107.263 25.5894 107.941 28.4772L108.777 32.0443C108.809 32.1785 108.89 32.2675 108.981 32.2675C109.072 32.2675 109.154 32.1785 109.185 32.0443L110.022 28.4768C110.699 25.5894 112.147 23.3133 113.985 22.2482L116.254 20.9326C116.34 20.8834 116.396 20.7552 116.396 20.6123C116.396 20.4693 116.34 20.3412 116.254 20.292Z" fill="url(#paint60_linear_38_2376)" fill-opacity="0.35"/>
<path d="M76.284 -1.81115L72.4784 -4.01718C69.3973 -5.8031 66.9686 -9.6204 65.8326 -14.463L64.4289 -20.4452C64.3762 -20.6701 64.2397 -20.8194 64.0872 -20.8194C63.9347 -20.8194 63.7983 -20.6701 63.7455 -20.4452L62.3418 -14.4633C61.2056 -9.6204 58.7769 -5.8031 55.696 -4.01718L51.8902 -1.81115C51.7471 -1.72821 51.6521 -1.51378 51.6521 -1.27406C51.6521 -1.03434 51.7471 -0.819908 51.8902 -0.736967L55.6963 1.46973C58.7771 3.25565 61.2056 7.07295 62.3418 11.9155L63.7455 17.8981C63.7983 18.123 63.9347 18.2723 64.0872 18.2723C64.2397 18.2723 64.3762 18.123 64.4289 17.8981L65.8326 11.9155C66.9688 7.07295 69.3973 3.25532 72.4782 1.46973L76.2842 -0.736967C76.4273 -0.819908 76.5223 -1.03434 76.5223 -1.27406C76.5223 -1.51378 76.4271 -1.72821 76.284 -1.81115Z" fill="url(#paint61_linear_38_2376)" fill-opacity="0.35"/>
<path d="M89.7158 26.1221L87.9114 25.0759C86.4509 24.2293 85.2997 22.4197 84.7611 20.1244L84.0955 17.2889C84.0706 17.1823 84.0058 17.1115 83.9335 17.1115C83.8613 17.1115 83.7965 17.1823 83.7716 17.2889L83.106 20.1244C82.5674 22.4201 81.4162 24.2296 79.9559 25.0759L78.1515 26.1221C78.0837 26.1612 78.0387 26.263 78.0387 26.3766C78.0387 26.4902 78.0837 26.5921 78.1515 26.6312L79.9557 27.6774C81.4164 28.524 82.5676 30.3338 83.1062 32.6295L83.7718 35.4654C83.7967 35.5719 83.8615 35.6427 83.9338 35.6427C84.006 35.6427 84.0708 35.5719 84.0957 35.4654L84.7613 32.6295C85.2999 30.3338 86.4511 28.524 87.9118 27.6774L89.716 26.6312C89.7838 26.5921 89.8288 26.4902 89.8288 26.3766C89.8288 26.263 89.7838 26.1612 89.7158 26.1221Z" fill="url(#paint62_linear_38_2376)" fill-opacity="0.35"/>
<path d="M54.2789 20.292L52.0095 18.9771C50.1726 17.9123 48.7243 15.6358 48.0465 12.7481L47.2097 9.18094C47.1782 9.04709 47.0969 8.95775 47.0059 8.95775C46.915 8.95775 46.8337 9.04709 46.8022 9.18094L45.9654 12.7477C45.288 15.6355 43.8397 17.912 42.0023 18.9771L39.7334 20.292C39.6478 20.3412 39.5914 20.4693 39.5914 20.6123C39.5914 20.7552 39.648 20.8834 39.7334 20.9326L42.0025 22.2482C43.8395 23.3129 45.2878 25.5894 45.9654 28.4772L46.8022 32.0443C46.8337 32.1785 46.915 32.2675 47.0059 32.2675C47.0969 32.2675 47.1784 32.1785 47.2097 32.0443L48.0467 28.4768C48.7241 25.5894 50.1722 23.3133 52.0093 22.2482L54.2789 20.9326C54.3643 20.8834 54.4209 20.7552 54.4209 20.6123C54.4209 20.4693 54.3645 20.3412 54.2789 20.292Z" fill="url(#paint63_linear_38_2376)" fill-opacity="0.35"/>
</g>
<path d="M163.5 81.5C175.537 100.071 173.615 146.275 150.279 169.604C130.878 189 125 192 103.5 184.5" fill="#167C8B"/>
<path d="M68 224.5C55.9647 205.924 57.3849 154.731 80.7182 131.398C105 110 110 107.5 130.5 117.5" fill="#167C8B"/>
<path d="M117.346 191.614C107.269 191.614 97.2555 187.407 87.3579 178.984C85.1721 177.123 84.9084 173.846 86.7679 171.663C88.6315 169.477 91.9058 169.215 94.0891 171.073C105.075 180.424 122.475 190.06 146.606 165.931C167.766 144.779 170.621 101.371 159.785 84.6491C158.224 82.2434 158.91 79.0272 161.318 77.4668C163.726 75.9064 166.94 76.5901 168.5 79C182.164 100.081 178.902 148.336 153.952 173.275C141.728 185.497 129.491 191.614 117.346 191.614Z" fill="url(#paint64_linear_38_2376)"/>
<path d="M142.257 123.543C149.861 135.281 145.122 154.881 130.38 169.628C115.633 184.37 103.197 181.948 92.7487 173.051" fill="#282224"/>
<path d="M107.537 187.39C100.723 187.39 93.9523 184.6 87.383 179.007C85.1972 177.148 84.9335 173.869 86.7951 171.688C88.6545 169.503 91.9351 169.241 94.1142 171.1C101.018 176.973 110.735 181.929 124.709 167.957C137.45 155.211 142.262 138.191 135.898 128.369C134.34 125.961 135.028 122.745 137.434 121.185C139.839 119.628 143.058 120.314 144.618 122.72C153.732 136.789 148.447 158.903 132.053 175.301C124 183.351 115.734 187.39 107.537 187.39Z" fill="url(#paint65_linear_38_2376)"/>
<path d="M67.9308 228.335C66.2294 228.335 64.5632 227.502 63.5678 225.964C49.9099 204.886 52.1017 152.668 77.0449 127.726C99.4119 105.368 121.819 103.45 143.643 122.017C145.829 123.877 146.093 127.155 144.233 129.338C142.372 131.526 139.095 131.788 136.912 129.928C125.926 120.58 108.533 110.94 84.3912 135.071C63.2374 156.227 61.4528 203.598 72.2854 220.318C73.8458 222.726 73.16 225.942 70.7522 227.5C69.8776 228.065 68.8991 228.335 67.9308 228.335Z" fill="url(#paint66_linear_38_2376)"/>
<path d="M90.7487 175.459C83.1365 163.72 87.8754 144.125 102.618 129.378C117.369 114.632 129.805 117.054 140.253 125.95" fill="#282224"/>
<path d="M90.7529 180.652C89.0535 180.652 87.3853 179.819 86.3899 178.284C77.2672 164.217 82.5486 142.105 98.9446 125.705C113.697 110.956 129.144 109.67 143.619 121.994C145.804 123.854 146.068 127.132 144.207 129.314C142.347 131.499 139.065 131.759 136.887 129.902C129.984 124.026 120.263 119.077 106.289 133.049C93.5474 145.797 88.7399 162.812 95.1056 172.631C96.666 175.037 95.9802 178.255 93.5745 179.815C92.7015 180.382 91.723 180.652 90.7529 180.652Z" fill="url(#paint67_linear_38_2376)"/>
<defs>
<linearGradient id="paint0_linear_38_2376" x1="100" y1="0" x2="100" y2="300" gradientUnits="userSpaceOnUse">
<stop stop-color="#6DBECB"/>
<stop offset="1" stop-color="#406E75"/>
</linearGradient>
<linearGradient id="paint1_linear_38_2376" x1="108" y1="0" x2="108" y2="300" gradientUnits="userSpaceOnUse">
<stop stop-color="#6DBECB"/>
<stop offset="1" stop-color="#406E75"/>
</linearGradient>
<linearGradient id="paint2_linear_38_2376" x1="116" y1="0" x2="116" y2="300" gradientUnits="userSpaceOnUse">
<stop stop-color="#6DBECB"/>
<stop offset="1" stop-color="#406E75"/>
</linearGradient>
<linearGradient id="paint3_linear_38_2376" x1="116" y1="13" x2="116" y2="288" gradientUnits="userSpaceOnUse">
<stop stop-color="#6DBECB"/>
<stop offset="1" stop-color="#406E75"/>
</linearGradient>
<linearGradient id="paint4_linear_38_2376" x1="117" y1="13" x2="117" y2="288" gradientUnits="userSpaceOnUse">
<stop stop-color="#6DBECB"/>
<stop offset="1" stop-color="#406E75"/>
</linearGradient>
<linearGradient id="paint5_linear_38_2376" x1="171.123" y1="143.14" x2="171.123" y2="182.232" gradientUnits="userSpaceOnUse">
<stop stop-color="white"/>
<stop offset="1" stop-color="#999999"/>
</linearGradient>
<linearGradient id="paint6_linear_38_2376" x1="188.038" y1="182.134" x2="188.038" y2="221.226" gradientUnits="userSpaceOnUse">
<stop stop-color="white"/>
<stop offset="1" stop-color="#999999"/>
</linearGradient>
<linearGradient id="paint7_linear_38_2376" x1="211.643" y1="162.637" x2="211.643" y2="189.204" gradientUnits="userSpaceOnUse">
<stop stop-color="white"/>
<stop offset="1" stop-color="#999999"/>
</linearGradient>
<linearGradient id="paint8_linear_38_2376" x1="207.884" y1="220.065" x2="207.884" y2="238.596" gradientUnits="userSpaceOnUse">
<stop stop-color="white"/>
<stop offset="1" stop-color="#999999"/>
</linearGradient>
<linearGradient id="paint9_linear_38_2376" x1="194.578" y1="138.531" x2="194.578" y2="157.063" gradientUnits="userSpaceOnUse">
<stop stop-color="white"/>
<stop offset="1" stop-color="#999999"/>
</linearGradient>
<linearGradient id="paint10_linear_38_2376" x1="170.957" y1="211.911" x2="170.957" y2="235.221" gradientUnits="userSpaceOnUse">
<stop stop-color="white"/>
<stop offset="1" stop-color="#999999"/>
</linearGradient>
<linearGradient id="paint11_linear_38_2376" x1="109.148" y1="143.14" x2="109.148" y2="182.232" gradientUnits="userSpaceOnUse">
<stop stop-color="white"/>
<stop offset="1" stop-color="#999999"/>
</linearGradient>
<linearGradient id="paint12_linear_38_2376" x1="126.063" y1="182.134" x2="126.063" y2="221.226" gradientUnits="userSpaceOnUse">
<stop stop-color="white"/>
<stop offset="1" stop-color="#999999"/>
</linearGradient>
<linearGradient id="paint13_linear_38_2376" x1="149.668" y1="162.637" x2="149.668" y2="189.204" gradientUnits="userSpaceOnUse">
<stop stop-color="white"/>
<stop offset="1" stop-color="#999999"/>
</linearGradient>
<linearGradient id="paint14_linear_38_2376" x1="145.909" y1="220.065" x2="145.909" y2="238.596" gradientUnits="userSpaceOnUse">
<stop stop-color="white"/>
<stop offset="1" stop-color="#999999"/>
</linearGradient>
<linearGradient id="paint15_linear_38_2376" x1="132.603" y1="138.531" x2="132.603" y2="157.063" gradientUnits="userSpaceOnUse">
<stop stop-color="white"/>
<stop offset="1" stop-color="#999999"/>
</linearGradient>
<linearGradient id="paint16_linear_38_2376" x1="108.981" y1="211.911" x2="108.981" y2="235.221" gradientUnits="userSpaceOnUse">
<stop stop-color="white"/>
<stop offset="1" stop-color="#999999"/>
</linearGradient>
<linearGradient id="paint17_linear_38_2376" x1="47.1727" y1="143.14" x2="47.1727" y2="182.232" gradientUnits="userSpaceOnUse">
<stop stop-color="white"/>
<stop offset="1" stop-color="#999999"/>
</linearGradient>
<linearGradient id="paint18_linear_38_2376" x1="64.0872" y1="182.134" x2="64.0872" y2="221.226" gradientUnits="userSpaceOnUse">
<stop stop-color="white"/>
<stop offset="1" stop-color="#999999"/>
</linearGradient>
<linearGradient id="paint19_linear_38_2376" x1="87.6924" y1="162.637" x2="87.6924" y2="189.204" gradientUnits="userSpaceOnUse">
<stop stop-color="white"/>
<stop offset="1" stop-color="#999999"/>
</linearGradient>
<linearGradient id="paint20_linear_38_2376" x1="83.9338" y1="220.065" x2="83.9338" y2="238.596" gradientUnits="userSpaceOnUse">
<stop stop-color="white"/>
<stop offset="1" stop-color="#999999"/>
</linearGradient>
<linearGradient id="paint21_linear_38_2376" x1="70.6275" y1="138.531" x2="70.6275" y2="157.063" gradientUnits="userSpaceOnUse">
<stop stop-color="white"/>
<stop offset="1" stop-color="#999999"/>
</linearGradient>
<linearGradient id="paint22_linear_38_2376" x1="47.0062" y1="211.911" x2="47.0062" y2="235.221" gradientUnits="userSpaceOnUse">
<stop stop-color="white"/>
<stop offset="1" stop-color="#999999"/>
</linearGradient>
<linearGradient id="paint23_linear_38_2376" x1="25.6322" y1="164.404" x2="25.6322" y2="190.971" gradientUnits="userSpaceOnUse">
<stop stop-color="white"/>
<stop offset="1" stop-color="#999999"/>
</linearGradient>
<linearGradient id="paint24_linear_38_2376" x1="171.123" y1="243.778" x2="171.123" y2="282.87" gradientUnits="userSpaceOnUse">
<stop stop-color="white"/>
<stop offset="1" stop-color="#999999"/>
</linearGradient>
<linearGradient id="paint25_linear_38_2376" x1="188.038" y1="282.772" x2="188.038" y2="321.864" gradientUnits="userSpaceOnUse">
<stop stop-color="white"/>
<stop offset="1" stop-color="#999999"/>
</linearGradient>
<linearGradient id="paint26_linear_38_2376" x1="211.643" y1="263.275" x2="211.643" y2="289.842" gradientUnits="userSpaceOnUse">
<stop stop-color="white"/>
<stop offset="1" stop-color="#999999"/>
</linearGradient>
<linearGradient id="paint27_linear_38_2376" x1="194.578" y1="239.17" x2="194.578" y2="257.701" gradientUnits="userSpaceOnUse">
<stop stop-color="white"/>
<stop offset="1" stop-color="#999999"/>
</linearGradient>
<linearGradient id="paint28_linear_38_2376" x1="109.148" y1="243.778" x2="109.148" y2="282.87" gradientUnits="userSpaceOnUse">
<stop stop-color="white"/>
<stop offset="1" stop-color="#999999"/>
</linearGradient>
<linearGradient id="paint29_linear_38_2376" x1="126.063" y1="282.772" x2="126.063" y2="321.864" gradientUnits="userSpaceOnUse">
<stop stop-color="white"/>
<stop offset="1" stop-color="#999999"/>
</linearGradient>
<linearGradient id="paint30_linear_38_2376" x1="149.668" y1="263.275" x2="149.668" y2="289.842" gradientUnits="userSpaceOnUse">
<stop stop-color="white"/>
<stop offset="1" stop-color="#999999"/>
</linearGradient>
<linearGradient id="paint31_linear_38_2376" x1="132.603" y1="239.17" x2="132.603" y2="257.701" gradientUnits="userSpaceOnUse">
<stop stop-color="white"/>
<stop offset="1" stop-color="#999999"/>
</linearGradient>
<linearGradient id="paint32_linear_38_2376" x1="47.1727" y1="243.778" x2="47.1727" y2="282.87" gradientUnits="userSpaceOnUse">
<stop stop-color="white"/>
<stop offset="1" stop-color="#999999"/>
</linearGradient>
<linearGradient id="paint33_linear_38_2376" x1="64.0872" y1="282.772" x2="64.0872" y2="321.864" gradientUnits="userSpaceOnUse">
<stop stop-color="white"/>
<stop offset="1" stop-color="#999999"/>
</linearGradient>
<linearGradient id="paint34_linear_38_2376" x1="87.6924" y1="263.275" x2="87.6924" y2="289.842" gradientUnits="userSpaceOnUse">
<stop stop-color="white"/>
<stop offset="1" stop-color="#999999"/>
</linearGradient>
<linearGradient id="paint35_linear_38_2376" x1="70.6275" y1="239.17" x2="70.6275" y2="257.701" gradientUnits="userSpaceOnUse">
<stop stop-color="white"/>
<stop offset="1" stop-color="#999999"/>
</linearGradient>
<linearGradient id="paint36_linear_38_2376" x1="25.6322" y1="265.042" x2="25.6322" y2="291.609" gradientUnits="userSpaceOnUse">
<stop stop-color="white"/>
<stop offset="1" stop-color="#999999"/>
</linearGradient>
<linearGradient id="paint37_linear_38_2376" x1="172.801" y1="40.8246" x2="172.801" y2="79.9167" gradientUnits="userSpaceOnUse">
<stop stop-color="white"/>
<stop offset="1" stop-color="#999999"/>
</linearGradient>
<linearGradient id="paint38_linear_38_2376" x1="189.715" y1="79.8188" x2="189.715" y2="118.911" gradientUnits="userSpaceOnUse">
<stop stop-color="white"/>
<stop offset="1" stop-color="#999999"/>
</linearGradient>
<linearGradient id="paint39_linear_38_2376" x1="209.562" y1="117.75" x2="209.562" y2="136.281" gradientUnits="userSpaceOnUse">
<stop stop-color="white"/>
<stop offset="1" stop-color="#999999"/>
</linearGradient>
<linearGradient id="paint40_linear_38_2376" x1="196.255" y1="36.216" x2="196.255" y2="54.7472" gradientUnits="userSpaceOnUse">
<stop stop-color="white"/>
<stop offset="1" stop-color="#999999"/>
</linearGradient>
<linearGradient id="paint41_linear_38_2376" x1="172.634" y1="109.596" x2="172.634" y2="132.906" gradientUnits="userSpaceOnUse">
<stop stop-color="white"/>
<stop offset="1" stop-color="#999999"/>
</linearGradient>
<linearGradient id="paint42_linear_38_2376" x1="110.825" y1="40.8246" x2="110.825" y2="79.9167" gradientUnits="userSpaceOnUse">
<stop stop-color="white"/>
<stop offset="1" stop-color="#999999"/>
</linearGradient>
<linearGradient id="paint43_linear_38_2376" x1="127.74" y1="79.8188" x2="127.74" y2="118.911" gradientUnits="userSpaceOnUse">
<stop stop-color="white"/>
<stop offset="1" stop-color="#999999"/>
</linearGradient>
<linearGradient id="paint44_linear_38_2376" x1="151.345" y1="60.3209" x2="151.345" y2="86.8886" gradientUnits="userSpaceOnUse">
<stop stop-color="white"/>
<stop offset="1" stop-color="#999999"/>
</linearGradient>
<linearGradient id="paint45_linear_38_2376" x1="147.586" y1="117.75" x2="147.586" y2="136.281" gradientUnits="userSpaceOnUse">
<stop stop-color="white"/>
<stop offset="1" stop-color="#999999"/>
</linearGradient>
<linearGradient id="paint46_linear_38_2376" x1="134.28" y1="36.216" x2="134.28" y2="54.7472" gradientUnits="userSpaceOnUse">
<stop stop-color="white"/>
<stop offset="1" stop-color="#999999"/>
</linearGradient>
<linearGradient id="paint47_linear_38_2376" x1="110.659" y1="109.596" x2="110.659" y2="132.906" gradientUnits="userSpaceOnUse">
<stop stop-color="white"/>
<stop offset="1" stop-color="#999999"/>
</linearGradient>
<linearGradient id="paint48_linear_38_2376" x1="48.85" y1="40.8246" x2="48.85" y2="79.9167" gradientUnits="userSpaceOnUse">
<stop stop-color="white"/>
<stop offset="1" stop-color="#999999"/>
</linearGradient>
<linearGradient id="paint49_linear_38_2376" x1="65.7646" y1="79.8188" x2="65.7646" y2="118.911" gradientUnits="userSpaceOnUse">
<stop stop-color="white"/>
<stop offset="1" stop-color="#999999"/>
</linearGradient>
<linearGradient id="paint50_linear_38_2376" x1="89.3697" y1="60.3209" x2="89.3697" y2="86.8886" gradientUnits="userSpaceOnUse">
<stop stop-color="white"/>
<stop offset="1" stop-color="#999999"/>
</linearGradient>
<linearGradient id="paint51_linear_38_2376" x1="85.6109" y1="117.75" x2="85.6109" y2="136.281" gradientUnits="userSpaceOnUse">
<stop stop-color="white"/>
<stop offset="1" stop-color="#999999"/>
</linearGradient>
<linearGradient id="paint52_linear_38_2376" x1="72.3047" y1="36.216" x2="72.3047" y2="54.7472" gradientUnits="userSpaceOnUse">
<stop stop-color="white"/>
<stop offset="1" stop-color="#999999"/>
</linearGradient>
<linearGradient id="paint53_linear_38_2376" x1="48.6833" y1="109.596" x2="48.6833" y2="132.906" gradientUnits="userSpaceOnUse">
<stop stop-color="white"/>
<stop offset="1" stop-color="#999999"/>
</linearGradient>
<linearGradient id="paint54_linear_38_2376" x1="27.3095" y1="62.0879" x2="27.3095" y2="88.6556" gradientUnits="userSpaceOnUse">
<stop stop-color="white"/>
<stop offset="1" stop-color="#999999"/>
</linearGradient>
<linearGradient id="paint55_linear_38_2376" x1="188.038" y1="-20.8194" x2="188.038" y2="18.2723" gradientUnits="userSpaceOnUse">
<stop stop-color="white"/>
<stop offset="1" stop-color="#999999"/>
</linearGradient>
<linearGradient id="paint56_linear_38_2376" x1="207.884" y1="17.1115" x2="207.884" y2="35.6427" gradientUnits="userSpaceOnUse">
<stop stop-color="white"/>
<stop offset="1" stop-color="#999999"/>
</linearGradient>
<linearGradient id="paint57_linear_38_2376" x1="170.957" y1="8.95775" x2="170.957" y2="32.2675" gradientUnits="userSpaceOnUse">
<stop stop-color="white"/>
<stop offset="1" stop-color="#999999"/>
</linearGradient>
<linearGradient id="paint58_linear_38_2376" x1="126.063" y1="-20.8194" x2="126.063" y2="18.2723" gradientUnits="userSpaceOnUse">
<stop stop-color="white"/>
<stop offset="1" stop-color="#999999"/>
</linearGradient>
<linearGradient id="paint59_linear_38_2376" x1="145.909" y1="17.1115" x2="145.909" y2="35.6427" gradientUnits="userSpaceOnUse">
<stop stop-color="white"/>
<stop offset="1" stop-color="#999999"/>
</linearGradient>
<linearGradient id="paint60_linear_38_2376" x1="108.981" y1="8.95775" x2="108.981" y2="32.2675" gradientUnits="userSpaceOnUse">
<stop stop-color="white"/>
<stop offset="1" stop-color="#999999"/>
</linearGradient>
<linearGradient id="paint61_linear_38_2376" x1="64.0872" y1="-20.8194" x2="64.0872" y2="18.2723" gradientUnits="userSpaceOnUse">
<stop stop-color="white"/>
<stop offset="1" stop-color="#999999"/>
</linearGradient>
<linearGradient id="paint62_linear_38_2376" x1="83.9338" y1="17.1115" x2="83.9338" y2="35.6427" gradientUnits="userSpaceOnUse">
<stop stop-color="white"/>
<stop offset="1" stop-color="#999999"/>
</linearGradient>
<linearGradient id="paint63_linear_38_2376" x1="47.0062" y1="8.95775" x2="47.0062" y2="32.2675" gradientUnits="userSpaceOnUse">
<stop stop-color="white"/>
<stop offset="1" stop-color="#999999"/>
</linearGradient>
<linearGradient id="paint64_linear_38_2376" x1="131.006" y1="76.6299" x2="131.006" y2="191.614" gradientUnits="userSpaceOnUse">
<stop stop-color="#5DA3AF"/>
<stop offset="1" stop-color="#6DBECB"/>
</linearGradient>
<linearGradient id="paint65_linear_38_2376" x1="117.305" y1="120.351" x2="117.305" y2="187.39" gradientUnits="userSpaceOnUse">
<stop stop-color="#5DA3AF"/>
<stop offset="1" stop-color="#6DBECB"/>
</linearGradient>
<linearGradient id="paint66_linear_38_2376" x1="100.35" y1="109.391" x2="100.35" y2="228.335" gradientUnits="userSpaceOnUse">
<stop stop-color="#5DA3AF"/>
<stop offset="1" stop-color="#6DBECB"/>
</linearGradient>
<linearGradient id="paint67_linear_38_2376" x1="113.697" y1="113.611" x2="113.697" y2="180.652" gradientUnits="userSpaceOnUse">
<stop stop-color="#5DA3AF"/>
<stop offset="1" stop-color="#6DBECB"/>
</linearGradient>
</defs>
</svg>
