<svg width="200" height="300" viewBox="0 0 200 300" fill="none" xmlns="http://www.w3.org/2000/svg">
<rect x="3" y="3" width="194" height="294" rx="24" fill="#242424" stroke="url(#paint0_linear_13_959)" stroke-width="6"/>
<path d="M22 188H182" stroke="url(#paint1_linear_13_959)"/>
<path d="M134.791 147.504C134.77 147.492 134.75 147.48 134.73 147.469L134.775 147.3L134.471 147.314C132.431 146.102 130.643 145.277 129.954 144.415C126.811 140.491 127.575 134.659 131.66 131.387C135.744 128.117 141.603 128.646 144.745 132.57C145.492 133.503 145.783 135.762 146.444 138.283C146.523 138.176 146.598 138.069 146.674 137.961L179.654 136.821L151.666 118.888L151.48 119.567C149.744 121.073 148.431 122.448 147.42 122.817C142.7 124.546 137.413 121.966 135.614 117.051C133.813 112.138 136.181 106.753 140.901 105.023C142.024 104.611 144.263 105.056 146.867 105.231C146.735 105.044 146.601 104.857 146.466 104.673L155.569 72.9657L146.741 80.2044L48.9896 24.4241L137.247 87.9897L130.059 93.8829C130.026 93.8754 129.994 93.8673 129.961 93.8589L129.993 93.9372L129.864 94.0414L130.106 94.2005C131.046 96.3823 132.009 98.1035 132.061 99.2059C132.298 104.227 128.253 108.5 123.026 108.747C117.799 108.993 113.369 105.123 113.131 100.101C113.076 98.9075 114.166 96.9093 115.112 94.481C114.991 94.5199 114.871 94.5635 114.75 94.6038L20.3456 18.5425L99.4988 107.098L99.8979 106.779C102.223 106.57 104.121 106.212 105.17 106.505C110.012 107.856 112.796 113.039 111.388 118.079C109.979 123.118 104.914 126.108 100.072 124.756C98.92 124.435 97.3628 122.769 95.3539 121.106C95.3515 121.287 95.3587 121.467 95.3597 121.648L87.4081 127.855L20.3456 37.9974L77.9326 135.254L69.3482 141.955L102.532 140.012L102.374 139.593C102.894 137.306 103.136 135.377 103.739 134.464C106.515 130.274 112.303 129.217 116.665 132.108C121.028 134.997 122.315 140.737 119.539 144.928C118.879 145.926 116.814 146.895 114.614 148.296C114.772 148.35 114.933 148.395 115.091 148.445L126.367 179.457L134.709 147.532C134.738 147.525 134.764 147.515 134.791 147.504ZM121.523 124.73C119.201 123.203 118.557 120.081 120.084 117.759C121.612 115.436 124.733 114.792 127.055 116.319C129.377 117.846 130.021 120.967 128.494 123.29C126.966 125.612 123.846 126.258 121.523 124.73Z" fill="url(#paint2_linear_13_959)"/>
<defs>
<linearGradient id="paint0_linear_13_959" x1="100" y1="0" x2="100" y2="300" gradientUnits="userSpaceOnUse">
<stop stop-color="#E97451"/>
<stop offset="1" stop-color="#424A4A"/>
</linearGradient>
<linearGradient id="paint1_linear_13_959" x1="24.3256" y1="189" x2="184.326" y2="189" gradientUnits="userSpaceOnUse">
<stop stop-color="#424A4A"/>
<stop offset="0.508" stop-color="#E97451"/>
<stop offset="0.99" stop-color="#424A4A"/>
</linearGradient>
<linearGradient id="paint2_linear_13_959" x1="100" y1="18.5425" x2="100" y2="179.457" gradientUnits="userSpaceOnUse">
<stop stop-color="#E97451"/>
<stop offset="1" stop-color="#424A4A"/>
</linearGradient>
</defs>
</svg>
