<svg width="200" height="300" viewBox="0 0 200 300" fill="none" xmlns="http://www.w3.org/2000/svg">
<rect x="3" y="3" width="194" height="294" rx="24" fill="#242424" stroke="url(#paint0_linear_12_931)" stroke-width="6"/>
<path d="M22 188H182" stroke="url(#paint1_linear_12_931)"/>
<path d="M69.2313 20.9313C68.3444 20.9322 67.4575 20.9703 66.575 21.0453C59.5125 21.6453 52.5988 24.5484 47.4041 29.3538C42.3041 34.0713 38.9028 40.7516 39.0634 48.5569C40.2744 48.5163 41.8803 48.4681 43.7031 48.4328C44.0384 48.4266 44.3556 48.4244 44.6863 48.4194C44.5606 42.2859 47.1231 37.2769 51.2238 33.4834C55.405 29.6156 61.2238 27.145 67.0509 26.65C72.8375 26.1584 78.5406 27.5766 82.8778 31.1888C84.5569 30.2378 86.3384 29.6856 88.0659 29.4669C88.4009 29.4244 88.7331 29.3956 89.0634 29.3741C88.2884 28.5022 87.4659 27.6959 86.5978 26.9631C81.6472 22.7866 75.4372 20.9288 69.2306 20.9319L69.2313 20.9313ZM90.5053 34.7694C89.5722 34.7872 88.6522 34.9569 87.7422 35.2309C87.3972 35.3113 87.0588 35.4113 86.7266 35.5347C86.7347 35.5472 86.7422 35.5603 86.75 35.5722C85.6656 36.0034 84.6197 36.6144 83.7213 37.5566C82.6275 38.7044 81.8222 40.6503 82.2547 42.5559L82.2841 42.685L82.2981 42.73C86.0053 39.5791 90.945 38.1166 95.5619 38.155C95.6556 38.1556 95.7481 38.1625 95.8416 38.1644L95.8203 37.8931L95.6353 37.4638C94.7903 35.5031 92.9238 34.9488 91.5384 34.8106C91.1925 34.7763 90.8478 34.7625 90.5047 34.7691L90.5053 34.7694ZM106.769 41.4063C104.816 41.4344 102.894 41.5856 100.996 41.8369L100.814 42.0056L102.288 47.35C103.75 47.1719 105.222 47.06 106.704 47.0328C107.204 47.0234 107.706 47.0234 108.209 47.0328C119.588 47.2384 131.988 52.0547 146.357 65.6056L151.337 62.5984C135.732 47.5609 121.552 41.6484 108.311 41.4091C107.795 41.3997 107.281 41.3981 106.768 41.4059L106.769 41.4063ZM90.4281 44.7172C88.3344 45.4306 86.3897 46.5434 85.005 47.9819L85.6331 51.2875C87.1331 48.9794 88.7269 46.7844 90.4284 44.7172H90.4281ZM96.2397 46.5775C94.7866 48.2081 93.4038 49.9556 92.0844 51.8081C93.8231 51.4028 95.6178 51.1878 97.4244 51.1425C97.3925 50.9375 97.3609 50.7325 97.3306 50.5306L96.24 46.5775H96.2397ZM79.4375 48.8125C76.1188 50.4306 72.8563 52.2156 69.635 54.0713L74.24 56.7728L74.1681 56.7581C74.3681 56.8684 74.5969 56.9791 74.7163 57.0791C74.8813 57.2175 74.9991 57.3384 75.0953 57.4509C76.9069 56.4447 78.7178 55.4784 80.5303 54.5675L79.4375 48.8125ZM45.2163 54.0488C44.7131 54.0544 44.3366 54.0466 43.8113 54.0566C41.2466 54.1066 39.3894 54.1784 38.6222 54.2059C37.9259 54.8038 36.6716 55.9209 35.1353 57.6991C33.0634 60.0959 31.3328 63.1984 31.3566 64.9878C31.3863 67.2222 32.5222 71.0128 34.3991 74.4341C36.2763 77.8553 38.9016 80.9566 41.2334 82.3797C41.2341 82.3797 42.0397 82.6709 43.2688 82.7141C44.4981 82.7572 46.1363 82.6453 47.9688 82.3891C51.6338 81.8766 56.0913 80.8031 60.1928 79.5094C62.9009 78.6547 65.2747 77.7109 67.3491 76.7875C61.9044 75.83 56.4772 73.0669 52.22 69.5063C49.1116 66.9069 46.5994 63.8469 45.4375 60.3488C44.775 58.3525 44.6809 56.1559 45.2163 54.0488ZM98.3819 56.735C94.0681 56.6981 90.0484 57.8394 87.1456 60.2881C87.2363 60.6738 87.3281 61.0506 87.4184 61.4431C89.7978 71.7956 91.7206 84.3219 90.5009 91.8325C88.75 102.613 80.6456 118.283 72.9291 130.928C68.2759 138.553 63.8241 145.08 60.9988 149.098C64.1456 149.093 67.5041 149.951 70.7131 151.367C74.1769 152.895 77.4547 155.082 79.8475 157.903C80.3056 158.443 80.7319 159.017 81.1163 159.618C81.5413 158.572 81.9213 157.632 82.4788 156.273C84.2106 152.045 86.5613 146.444 89.3475 140.451C94.9209 128.466 102.387 114.872 109.552 107.957C117.368 100.413 132.968 92.5063 146.46 86.7588C148.465 85.9047 150.414 85.1013 152.297 84.3416C150.88 79.79 148.028 76.1159 144.517 72.5425C144.323 72.6519 144.133 72.7613 143.936 72.8713C132.852 79.0731 119.174 84.8128 110.511 84.1097C109.453 84.0241 107.749 82.8644 106.753 81.4722C103.03 76.2722 100.12 65.9056 98.3819 56.735ZM65.15 57.9625C65.1109 58.0069 65.0891 58.0438 65.0488 58.0894C63.9838 59.2925 62.5519 60.7384 61.0253 62.1756C59.5925 63.5247 58.0953 64.8425 56.7391 65.9147C61.3053 69.3709 67.6281 71.6941 72.2203 71.5084C72.2453 70.4178 72.1828 69.1169 72.0422 67.8178C71.8272 65.8406 71.4525 63.8366 71.0997 62.4281C70.9622 61.8806 70.8475 61.5416 70.7466 61.2438L65.1503 57.9625H65.15ZM165.886 59.5875C165.21 59.5938 164.511 59.7444 163.916 60.0919L163.782 60.1706L163.657 60.2634C163.657 60.2634 162.76 60.9272 161.188 62.0266C165.754 66.5372 168.293 72.0734 170.007 77.7334L171.355 77.2781L171.341 77.2819C172.585 76.8953 173.587 75.7488 173.929 74.81C174.303 73.7844 174.302 72.8991 174.235 72.0119C174.102 70.2381 173.565 68.4072 172.83 66.6128C172.094 64.8184 171.186 63.1172 169.988 61.7363C169.39 61.0456 168.725 60.4019 167.719 59.9456C167.216 59.7175 166.562 59.5806 165.887 59.5875H165.886ZM154.215 67.4319L149.879 70.0497C151.561 71.8666 153.151 73.8106 154.513 75.9559C154.954 73.2828 154.999 70.5522 154.215 67.4316V67.4319ZM160.279 69.7616C160.637 73.5366 160.117 76.9472 159.363 80.0897L164.275 78.4241C163.264 75.2803 162.016 72.3669 160.279 69.7616ZM60.9219 154.723C60.7831 154.723 60.6475 154.727 60.5156 154.733C58.4056 154.831 57.6666 155.313 57.3375 156.199L56.6463 158.063C56.6878 159.348 57.0066 160.604 57.5319 161.713C58.6881 164.156 60.685 166.137 63.0731 167.527C65.4613 168.917 68.3019 169.728 71.2341 169.37C73.4772 169.097 75.7288 168.038 77.5413 166.208C77.5925 164.682 76.9328 163.163 75.5569 161.541C73.9075 159.596 71.2606 157.756 68.4428 156.513C65.8009 155.348 62.9997 154.717 60.9209 154.723L60.9219 154.723Z" fill="url(#paint2_linear_12_931)"/>
<defs>
<linearGradient id="paint0_linear_12_931" x1="100" y1="0" x2="100" y2="300" gradientUnits="userSpaceOnUse">
<stop stop-color="#E97451"/>
<stop offset="1" stop-color="#424A4A"/>
</linearGradient>
<linearGradient id="paint1_linear_12_931" x1="24.3256" y1="189" x2="184.326" y2="189" gradientUnits="userSpaceOnUse">
<stop stop-color="#424A4A"/>
<stop offset="0.508" stop-color="#E97451"/>
<stop offset="0.99" stop-color="#424A4A"/>
</linearGradient>
<linearGradient id="paint2_linear_12_931" x1="102.813" y1="20.9313" x2="102.813" y2="169.454" gradientUnits="userSpaceOnUse">
<stop stop-color="#E97451"/>
<stop offset="1" stop-color="#424A4A"/>
</linearGradient>
</defs>
</svg>
