<svg width="208" height="300" viewBox="0 0 208 300" fill="none" xmlns="http://www.w3.org/2000/svg">
<rect x="2.5" y="2.5" width="195" height="295" rx="24.5" fill="#282828" stroke="url(#paint0_linear_38_2803)" stroke-width="5"/>
<rect x="12.5" y="4.5" width="191" height="291" rx="22.5" fill="#282828" stroke="url(#paint1_linear_38_2803)" stroke-width="9"/>
<rect x="21.5" y="13.5" width="173" height="274" rx="14.5" fill="#282828" stroke="url(#paint2_linear_38_2803)"/>
<mask id="mask0_38_2803" style="mask-type:alpha" maskUnits="userSpaceOnUse" x="21" y="13" width="174" height="275">
<rect x="21.5" y="13.5" width="173" height="274" rx="16.5" fill="#282224" stroke="url(#paint3_linear_38_2803)"/>
</mask>
<g mask="url(#mask0_38_2803)">
<path d="M160.378 175.875L161.782 181.858C161.834 182.083 161.971 182.232 162.123 182.232C162.276 182.232 162.412 182.083 162.465 181.858L163.869 175.875C165.005 171.032 167.434 167.215 170.515 165.429L174.32 163.223C174.463 163.14 174.559 162.926 174.559 162.686C174.559 162.446 174.463 162.232 174.32 162.149L170.514 159.942C167.434 158.156 165.005 154.339 163.869 149.497L162.465 143.514C162.412 143.289 162.276 143.14 162.123 143.14C161.971 143.14 161.834 143.289 161.782 143.514L160.378 149.497C159.242 154.339 156.813 158.156 153.732 159.942L149.926 162.149C149.783 162.232 149.688 162.446 149.688 162.686C149.688 162.926 149.783 163.14 149.926 163.223L153.732 165.429C156.813 167.215 159.242 171.032 160.378 175.875Z" fill="url(#paint4_linear_38_2803)" fill-opacity="0.35"/>
<path d="M191.235 201.143L187.429 198.937C184.348 197.151 181.919 193.333 180.783 188.491L179.38 182.509C179.327 182.284 179.19 182.134 179.038 182.134C178.885 182.134 178.749 182.284 178.696 182.509L177.292 188.49C176.156 193.333 173.728 197.151 170.647 198.937L166.841 201.143C166.698 201.226 166.603 201.44 166.603 201.68C166.603 201.919 166.698 202.134 166.841 202.217L170.647 204.423C173.728 206.209 176.156 210.027 177.292 214.869L178.696 220.852C178.749 221.077 178.885 221.226 179.038 221.226C179.19 221.226 179.327 221.077 179.38 220.852L180.783 214.869C181.919 210.027 184.348 206.209 187.429 204.423L191.235 202.217C191.378 202.134 191.473 201.919 191.473 201.68C191.473 201.44 191.378 201.226 191.235 201.143Z" fill="url(#paint5_linear_38_2803)" fill-opacity="0.35"/>
<path d="M210.932 175.555L208.345 174.056C206.252 172.842 204.601 170.248 203.829 166.957L202.875 162.891C202.839 162.738 202.746 162.637 202.643 162.637C202.539 162.637 202.446 162.738 202.41 162.891L201.457 166.956C200.685 170.248 199.034 172.842 196.94 174.056L194.354 175.555C194.256 175.611 194.192 175.757 194.192 175.92C194.192 176.083 194.256 176.229 194.354 176.285L196.94 177.784C199.034 178.998 200.685 181.593 201.457 184.884L202.41 188.95C202.446 189.102 202.539 189.204 202.643 189.204C202.746 189.204 202.839 189.102 202.875 188.95L203.829 184.884C204.601 181.592 206.251 178.998 208.345 177.784L210.932 176.285C211.029 176.229 211.094 176.083 211.094 175.92C211.094 175.757 211.029 175.611 210.932 175.555Z" fill="url(#paint6_linear_38_2803)" fill-opacity="0.35"/>
<path d="M204.666 229.076L202.862 228.03C201.402 227.183 200.25 225.373 199.712 223.078L199.046 220.243C199.021 220.136 198.957 220.065 198.884 220.065C198.812 220.065 198.747 220.136 198.722 220.243L198.057 223.078C197.518 225.374 196.367 227.183 194.907 228.03L193.102 229.076C193.034 229.115 192.989 229.217 192.989 229.33C192.989 229.444 193.034 229.546 193.102 229.585L194.906 230.631C196.367 231.478 197.518 233.288 198.057 235.583L198.722 238.419C198.747 238.526 198.812 238.596 198.884 238.596C198.957 238.596 199.022 238.526 199.046 238.419L199.712 235.583C200.251 233.288 201.402 231.478 202.863 230.631L204.667 229.585C204.734 229.546 204.78 229.444 204.78 229.33C204.78 229.217 204.734 229.115 204.666 229.076Z" fill="url(#paint7_linear_38_2803)" fill-opacity="0.35"/>
<path d="M191.36 147.542L189.556 146.496C188.095 145.65 186.944 143.84 186.406 141.545L185.74 138.709C185.715 138.602 185.65 138.531 185.578 138.531C185.506 138.531 185.441 138.602 185.416 138.709L184.751 141.544C184.212 143.84 183.061 145.65 181.6 146.496L179.796 147.542C179.728 147.581 179.683 147.683 179.683 147.797C179.683 147.91 179.728 148.012 179.796 148.051L181.6 149.097C183.061 149.944 184.212 151.754 184.751 154.05L185.416 156.885C185.441 156.992 185.506 157.063 185.578 157.063C185.65 157.063 185.715 156.992 185.74 156.885L186.406 154.049C186.944 151.753 188.095 149.944 189.556 149.098L191.36 148.051C191.428 148.012 191.473 147.91 191.473 147.797C191.473 147.683 191.428 147.581 191.36 147.542Z" fill="url(#paint8_linear_38_2803)" fill-opacity="0.35"/>
<path d="M169.23 223.246L166.96 221.931C165.123 220.866 163.675 218.59 162.997 215.702L162.16 212.135C162.129 212.001 162.047 211.911 161.957 211.911C161.866 211.911 161.784 212.001 161.753 212.135L160.916 215.701C160.239 218.589 158.79 220.866 156.953 221.931L154.684 223.246C154.598 223.295 154.542 223.423 154.542 223.566C154.542 223.709 154.599 223.837 154.684 223.886L156.953 225.202C158.79 226.267 160.238 228.543 160.916 231.431L161.753 234.998C161.784 235.132 161.866 235.221 161.957 235.221C162.047 235.221 162.129 235.132 162.16 234.998L162.997 231.431C163.675 228.543 165.123 226.267 166.96 225.202L169.23 223.886C169.315 223.837 169.371 223.709 169.371 223.566C169.371 223.423 169.315 223.295 169.23 223.246Z" fill="url(#paint9_linear_38_2803)" fill-opacity="0.35"/>
<path d="M98.4027 175.875L99.8064 181.858C99.8592 182.083 99.9956 182.232 100.148 182.232C100.301 182.232 100.437 182.083 100.49 181.858L101.893 175.875C103.03 171.032 105.458 167.215 108.539 165.429L112.345 163.223C112.488 163.14 112.583 162.926 112.583 162.686C112.583 162.446 112.488 162.232 112.345 162.149L108.539 159.942C105.458 158.156 103.029 154.339 101.893 149.497L100.49 143.514C100.437 143.289 100.301 143.14 100.148 143.14C99.9956 143.14 99.8592 143.289 99.8064 143.514L98.4027 149.497C97.2665 154.339 94.838 158.156 91.7569 159.942L87.9509 162.149C87.8078 162.232 87.7128 162.446 87.7128 162.686C87.7128 162.926 87.8078 163.14 87.9509 163.223L91.7567 165.429C94.8378 167.215 97.2665 171.032 98.4027 175.875Z" fill="url(#paint10_linear_38_2803)" fill-opacity="0.35"/>
<path d="M129.259 201.143L125.454 198.937C122.373 197.151 119.944 193.333 118.808 188.491L117.404 182.509C117.352 182.284 117.215 182.134 117.063 182.134C116.91 182.134 116.774 182.284 116.721 182.509L115.317 188.49C114.181 193.333 111.752 197.151 108.671 198.937L104.866 201.143C104.723 201.226 104.628 201.44 104.628 201.68C104.628 201.919 104.723 202.134 104.866 202.217L108.672 204.423C111.752 206.209 114.181 210.027 115.317 214.869L116.721 220.852C116.774 221.077 116.91 221.226 117.063 221.226C117.215 221.226 117.352 221.077 117.404 220.852L118.808 214.869C119.944 210.027 122.373 206.209 125.454 204.423L129.26 202.217C129.403 202.134 129.498 201.919 129.498 201.68C129.498 201.44 129.403 201.226 129.259 201.143Z" fill="url(#paint11_linear_38_2803)" fill-opacity="0.35"/>
<path d="M148.957 175.555L146.37 174.056C144.276 172.842 142.626 170.248 141.854 166.957L140.9 162.891C140.864 162.738 140.771 162.637 140.667 162.637C140.564 162.637 140.471 162.738 140.435 162.891L139.481 166.956C138.709 170.248 137.059 172.842 134.965 174.056L132.378 175.555C132.281 175.611 132.216 175.757 132.216 175.92C132.216 176.083 132.281 176.229 132.378 176.285L134.965 177.784C137.059 178.998 138.709 181.593 139.481 184.884L140.435 188.95C140.471 189.102 140.564 189.204 140.667 189.204C140.771 189.204 140.864 189.102 140.9 188.95L141.854 184.884C142.626 181.592 144.276 178.998 146.37 177.784L148.957 176.285C149.054 176.229 149.119 176.083 149.119 175.92C149.119 175.757 149.054 175.611 148.957 175.555Z" fill="url(#paint12_linear_38_2803)" fill-opacity="0.35"/>
<path d="M142.691 229.076L140.887 228.03C139.426 227.183 138.275 225.373 137.736 223.078L137.071 220.243C137.046 220.136 136.981 220.065 136.909 220.065C136.836 220.065 136.772 220.136 136.747 220.243L136.081 223.078C135.543 225.374 134.391 227.183 132.931 228.03L131.127 229.076C131.059 229.115 131.014 229.217 131.014 229.33C131.014 229.444 131.059 229.546 131.127 229.585L132.931 230.631C134.392 231.478 135.543 233.288 136.081 235.583L136.747 238.419C136.772 238.526 136.837 238.596 136.909 238.596C136.981 238.596 137.046 238.526 137.071 238.419L137.737 235.583C138.275 233.288 139.426 231.478 140.887 230.631L142.691 229.585C142.759 229.546 142.804 229.444 142.804 229.33C142.804 229.217 142.759 229.115 142.691 229.076Z" fill="url(#paint13_linear_38_2803)" fill-opacity="0.35"/>
<path d="M129.385 147.542L127.58 146.496C126.12 145.65 124.969 143.84 124.43 141.545L123.765 138.709C123.74 138.602 123.675 138.531 123.603 138.531C123.531 138.531 123.466 138.602 123.441 138.709L122.776 141.544C122.237 143.84 121.085 145.65 119.625 146.496L117.821 147.542C117.753 147.581 117.708 147.683 117.708 147.797C117.708 147.91 117.753 148.012 117.821 148.051L119.625 149.097C121.085 149.944 122.237 151.754 122.776 154.05L123.441 156.885C123.466 156.992 123.531 157.063 123.603 157.063C123.675 157.063 123.74 156.992 123.765 156.885L124.43 154.049C124.969 151.753 126.12 149.944 127.581 149.098L129.385 148.051C129.453 148.012 129.498 147.91 129.498 147.797C129.498 147.683 129.453 147.581 129.385 147.542Z" fill="url(#paint14_linear_38_2803)" fill-opacity="0.35"/>
<path d="M107.254 223.246L104.985 221.931C103.148 220.866 101.7 218.59 101.022 215.702L100.185 212.135C100.153 212.001 100.072 211.911 99.9812 211.911C99.8902 211.911 99.8089 212.001 99.7774 212.135L98.9406 215.701C98.2632 218.589 96.8149 220.866 94.9776 221.931L92.7086 223.246C92.623 223.295 92.5666 223.423 92.5666 223.566C92.5666 223.709 92.6232 223.837 92.7086 223.886L94.9778 225.202C96.8147 226.267 98.263 228.543 98.9406 231.431L99.7774 234.998C99.8089 235.132 99.8902 235.221 99.9812 235.221C100.072 235.221 100.154 235.132 100.185 234.998L101.022 231.431C101.699 228.543 103.147 226.267 104.985 225.202L107.254 223.886C107.34 223.837 107.396 223.709 107.396 223.566C107.396 223.423 107.34 223.295 107.254 223.246Z" fill="url(#paint15_linear_38_2803)" fill-opacity="0.35"/>
<path d="M36.4275 175.875L37.8311 181.858C37.8839 182.083 38.0203 182.232 38.1728 182.232C38.3253 182.232 38.4618 182.083 38.5145 181.858L39.9182 175.875C41.0544 171.032 43.4832 167.215 46.564 165.429L50.3699 163.223C50.5129 163.14 50.608 162.926 50.608 162.686C50.608 162.446 50.5129 162.232 50.3699 162.149L46.5638 159.942C43.483 158.156 41.0542 154.339 39.9182 149.497L38.5145 143.514C38.4618 143.289 38.3253 143.14 38.1728 143.14C38.0203 143.14 37.8839 143.289 37.8311 143.514L36.4275 149.497C35.2913 154.339 32.8627 158.156 29.7816 159.942L25.9756 162.149C25.8325 162.232 25.7375 162.446 25.7375 162.686C25.7375 162.926 25.8325 163.14 25.9756 163.223L29.7814 165.429C32.8625 167.215 35.2913 171.032 36.4275 175.875Z" fill="url(#paint16_linear_38_2803)" fill-opacity="0.35"/>
<path d="M67.284 201.143L63.4784 198.937C60.3973 197.151 57.9686 193.333 56.8326 188.491L55.4289 182.509C55.3762 182.284 55.2397 182.134 55.0872 182.134C54.9347 182.134 54.7983 182.284 54.7455 182.509L53.3418 188.49C52.2056 193.333 49.7769 197.151 46.696 198.937L42.8902 201.143C42.7471 201.226 42.6521 201.44 42.6521 201.68C42.6521 201.919 42.7471 202.134 42.8902 202.217L46.6963 204.423C49.7771 206.209 52.2056 210.027 53.3418 214.869L54.7455 220.852C54.7983 221.077 54.9347 221.226 55.0872 221.226C55.2397 221.226 55.3762 221.077 55.4289 220.852L56.8326 214.869C57.9688 210.027 60.3973 206.209 63.4782 204.423L67.2842 202.217C67.4273 202.134 67.5223 201.919 67.5223 201.68C67.5223 201.44 67.4271 201.226 67.284 201.143Z" fill="url(#paint17_linear_38_2803)" fill-opacity="0.35"/>
<path d="M86.9816 175.555L84.395 174.056C82.3012 172.842 80.6507 170.248 79.8785 166.957L78.9246 162.891C78.8886 162.738 78.7959 162.637 78.6923 162.637C78.5887 162.637 78.496 162.738 78.46 162.891L77.5063 166.956C76.7341 170.248 75.0836 172.842 72.9896 174.056L70.4032 175.555C70.3061 175.611 70.2413 175.757 70.2413 175.92C70.2413 176.083 70.3061 176.229 70.4032 176.285L72.9899 177.784C75.0836 178.998 76.7341 181.593 77.5063 184.884L78.46 188.95C78.496 189.102 78.5887 189.204 78.6923 189.204C78.7959 189.204 78.8886 189.102 78.9246 188.95L79.8785 184.884C80.6507 181.592 82.301 178.998 84.395 177.784L86.9816 176.285C87.0788 176.229 87.1435 176.083 87.1435 175.92C87.1435 175.757 87.0788 175.611 86.9816 175.555Z" fill="url(#paint18_linear_38_2803)" fill-opacity="0.35"/>
<path d="M80.7158 229.076L78.9114 228.03C77.4509 227.183 76.2997 225.373 75.7611 223.078L75.0955 220.243C75.0706 220.136 75.0058 220.065 74.9335 220.065C74.8613 220.065 74.7965 220.136 74.7716 220.243L74.106 223.078C73.5674 225.374 72.4162 227.183 70.9559 228.03L69.1515 229.076C69.0837 229.115 69.0387 229.217 69.0387 229.33C69.0387 229.444 69.0837 229.546 69.1515 229.585L70.9557 230.631C72.4164 231.478 73.5676 233.288 74.1062 235.583L74.7718 238.419C74.7967 238.526 74.8615 238.596 74.9338 238.596C75.006 238.596 75.0708 238.526 75.0957 238.419L75.7613 235.583C76.2999 233.288 77.4511 231.478 78.9118 230.631L80.716 229.585C80.7838 229.546 80.8288 229.444 80.8288 229.33C80.8288 229.217 80.7838 229.115 80.7158 229.076Z" fill="url(#paint19_linear_38_2803)" fill-opacity="0.35"/>
<path d="M67.4096 147.542L65.6052 146.496C64.1447 145.65 62.9935 143.84 62.4551 141.545L61.7895 138.709C61.7646 138.602 61.6998 138.531 61.6275 138.531C61.5553 138.531 61.4905 138.602 61.4656 138.709L60.8002 141.544C60.2616 143.84 59.1102 145.65 57.6497 146.496L55.8453 147.542C55.7775 147.581 55.7325 147.683 55.7325 147.797C55.7325 147.91 55.7775 148.012 55.8453 148.051L57.6495 149.097C59.1102 149.944 60.2616 151.754 60.8002 154.05L61.4656 156.885C61.4905 156.992 61.5553 157.063 61.6275 157.063C61.6998 157.063 61.7646 156.992 61.7895 156.885L62.4551 154.049C62.9937 151.753 64.1449 149.944 65.6056 149.098L67.4098 148.051C67.4776 148.012 67.5226 147.91 67.5226 147.797C67.5226 147.683 67.4776 147.581 67.4096 147.542Z" fill="url(#paint20_linear_38_2803)" fill-opacity="0.35"/>
<path d="M45.2789 223.246L43.0095 221.931C41.1726 220.866 39.7243 218.59 39.0465 215.702L38.2097 212.135C38.1782 212.001 38.0969 211.911 38.0059 211.911C37.915 211.911 37.8337 212.001 37.8022 212.135L36.9654 215.701C36.288 218.589 34.8397 220.866 33.0023 221.931L30.7334 223.246C30.6478 223.295 30.5914 223.423 30.5914 223.566C30.5914 223.709 30.648 223.837 30.7334 223.886L33.0025 225.202C34.8395 226.267 36.2878 228.543 36.9654 231.431L37.8022 234.998C37.8337 235.132 37.915 235.221 38.0059 235.221C38.0969 235.221 38.1784 235.132 38.2097 234.998L39.0467 231.431C39.7241 228.543 41.1722 226.267 43.0093 225.202L45.2789 223.886C45.3643 223.837 45.4209 223.709 45.4209 223.566C45.4209 223.423 45.3645 223.295 45.2789 223.246Z" fill="url(#paint21_linear_38_2803)" fill-opacity="0.35"/>
<path d="M24.9214 177.322L22.3347 175.823C20.241 174.609 18.5904 172.015 17.8182 168.724L16.8644 164.658C16.8283 164.505 16.7357 164.404 16.6321 164.404C16.5285 164.404 16.4358 164.505 16.3998 164.658L15.4461 168.723C14.6739 172.015 13.0233 174.609 10.9294 175.823L8.34298 177.322C8.24581 177.378 8.18103 177.524 8.18103 177.687C8.18103 177.85 8.24581 177.996 8.34298 178.052L10.9296 179.551C13.0233 180.765 14.6739 183.36 15.4461 186.651L16.3998 190.717C16.4358 190.869 16.5285 190.971 16.6321 190.971C16.7357 190.971 16.8283 190.869 16.8644 190.717L17.8182 186.651C18.5904 183.359 20.2408 180.765 22.3347 179.551L24.9214 178.052C25.0185 177.996 25.0833 177.85 25.0833 177.687C25.0833 177.524 25.0185 177.378 24.9214 177.322Z" fill="url(#paint22_linear_38_2803)" fill-opacity="0.35"/>
<path d="M160.378 276.514L161.782 282.496C161.834 282.721 161.971 282.87 162.123 282.87C162.276 282.87 162.412 282.721 162.465 282.496L163.869 276.514C165.005 271.671 167.434 267.853 170.515 266.067L174.32 263.861C174.463 263.778 174.559 263.564 174.559 263.324C174.559 263.084 174.463 262.87 174.32 262.787L170.514 260.581C167.434 258.795 165.005 254.977 163.869 250.135L162.465 244.153C162.412 243.928 162.276 243.778 162.123 243.778C161.971 243.778 161.834 243.928 161.782 244.153L160.378 250.135C159.242 254.977 156.813 258.795 153.732 260.581L149.926 262.787C149.783 262.87 149.688 263.084 149.688 263.324C149.688 263.564 149.783 263.778 149.926 263.861L153.732 266.067C156.813 267.853 159.242 271.67 160.378 276.514Z" fill="url(#paint23_linear_38_2803)" fill-opacity="0.35"/>
<path d="M191.235 301.781L187.429 299.575C184.348 297.789 181.919 293.971 180.783 289.129L179.38 283.147C179.327 282.922 179.19 282.772 179.038 282.772C178.885 282.772 178.749 282.922 178.696 283.147L177.292 289.129C176.156 293.971 173.728 297.789 170.647 299.575L166.841 301.781C166.698 301.864 166.603 302.078 166.603 302.318C166.603 302.558 166.698 302.772 166.841 302.855L170.647 305.062C173.728 306.848 176.156 310.665 177.292 315.507L178.696 321.49C178.749 321.715 178.885 321.864 179.038 321.864C179.19 321.864 179.327 321.715 179.38 321.49L180.783 315.507C181.919 310.665 184.348 306.847 187.429 305.062L191.235 302.855C191.378 302.772 191.473 302.558 191.473 302.318C191.473 302.078 191.378 301.864 191.235 301.781Z" fill="url(#paint24_linear_38_2803)" fill-opacity="0.35"/>
<path d="M210.932 276.193L208.345 274.694C206.252 273.48 204.601 270.886 203.829 267.595L202.875 263.529C202.839 263.377 202.746 263.275 202.643 263.275C202.539 263.275 202.446 263.377 202.41 263.529L201.457 267.594C200.685 270.886 199.034 273.48 196.94 274.694L194.354 276.193C194.256 276.25 194.192 276.395 194.192 276.558C194.192 276.721 194.256 276.867 194.354 276.923L196.94 278.422C199.034 279.636 200.685 282.231 201.457 285.522L202.41 289.588C202.446 289.741 202.539 289.842 202.643 289.842C202.746 289.842 202.839 289.741 202.875 289.588L203.829 285.522C204.601 282.23 206.251 279.636 208.345 278.423L210.932 276.923C211.029 276.867 211.094 276.721 211.094 276.558C211.094 276.395 211.029 276.25 210.932 276.193Z" fill="url(#paint25_linear_38_2803)" fill-opacity="0.35"/>
<path d="M191.36 248.18L189.556 247.135C188.095 246.288 186.944 244.479 186.406 242.183L185.74 239.347C185.715 239.24 185.65 239.17 185.578 239.17C185.506 239.17 185.441 239.24 185.416 239.347L184.751 242.182C184.212 244.478 183.061 246.288 181.6 247.134L179.796 248.18C179.728 248.219 179.683 248.321 179.683 248.435C179.683 248.548 179.728 248.65 179.796 248.689L181.6 249.735C183.061 250.582 184.212 252.392 184.751 254.688L185.416 257.523C185.441 257.63 185.506 257.701 185.578 257.701C185.65 257.701 185.715 257.63 185.74 257.523L186.406 254.688C186.944 252.392 188.095 250.582 189.556 249.736L191.36 248.69C191.428 248.65 191.473 248.549 191.473 248.435C191.473 248.321 191.428 248.22 191.36 248.18Z" fill="url(#paint26_linear_38_2803)" fill-opacity="0.35"/>
<path d="M98.4027 276.514L99.8064 282.496C99.8592 282.721 99.9956 282.87 100.148 282.87C100.301 282.87 100.437 282.721 100.49 282.496L101.893 276.514C103.03 271.671 105.458 267.853 108.539 266.067L112.345 263.861C112.488 263.778 112.583 263.564 112.583 263.324C112.583 263.084 112.488 262.87 112.345 262.787L108.539 260.581C105.458 258.795 103.029 254.977 101.893 250.135L100.49 244.153C100.437 243.928 100.301 243.778 100.148 243.778C99.9956 243.778 99.8592 243.928 99.8064 244.153L98.4027 250.135C97.2665 254.977 94.838 258.795 91.7569 260.581L87.9509 262.787C87.8078 262.87 87.7128 263.084 87.7128 263.324C87.7128 263.564 87.8078 263.778 87.9509 263.861L91.7567 266.067C94.8378 267.853 97.2665 271.67 98.4027 276.514Z" fill="url(#paint27_linear_38_2803)" fill-opacity="0.35"/>
<path d="M129.259 301.781L125.454 299.575C122.373 297.789 119.944 293.971 118.808 289.129L117.404 283.147C117.352 282.922 117.215 282.772 117.063 282.772C116.91 282.772 116.774 282.922 116.721 283.147L115.317 289.129C114.181 293.971 111.752 297.789 108.671 299.575L104.866 301.781C104.723 301.864 104.628 302.078 104.628 302.318C104.628 302.558 104.723 302.772 104.866 302.855L108.672 305.062C111.752 306.848 114.181 310.665 115.317 315.507L116.721 321.49C116.774 321.715 116.91 321.864 117.063 321.864C117.215 321.864 117.352 321.715 117.404 321.49L118.808 315.507C119.944 310.665 122.373 306.847 125.454 305.062L129.26 302.855C129.403 302.772 129.498 302.558 129.498 302.318C129.498 302.078 129.403 301.864 129.259 301.781Z" fill="url(#paint28_linear_38_2803)" fill-opacity="0.35"/>
<path d="M148.957 276.193L146.37 274.694C144.276 273.48 142.626 270.886 141.854 267.595L140.9 263.529C140.864 263.377 140.771 263.275 140.667 263.275C140.564 263.275 140.471 263.377 140.435 263.529L139.481 267.594C138.709 270.886 137.059 273.48 134.965 274.694L132.378 276.193C132.281 276.25 132.216 276.395 132.216 276.558C132.216 276.721 132.281 276.867 132.378 276.923L134.965 278.422C137.059 279.636 138.709 282.231 139.481 285.522L140.435 289.588C140.471 289.741 140.564 289.842 140.667 289.842C140.771 289.842 140.864 289.741 140.9 289.588L141.854 285.522C142.626 282.23 144.276 279.636 146.37 278.423L148.957 276.923C149.054 276.867 149.119 276.721 149.119 276.558C149.119 276.395 149.054 276.25 148.957 276.193Z" fill="url(#paint29_linear_38_2803)" fill-opacity="0.35"/>
<path d="M129.385 248.18L127.58 247.135C126.12 246.288 124.969 244.479 124.43 242.183L123.765 239.347C123.74 239.24 123.675 239.17 123.603 239.17C123.531 239.17 123.466 239.24 123.441 239.347L122.776 242.182C122.237 244.478 121.085 246.288 119.625 247.134L117.821 248.18C117.753 248.219 117.708 248.321 117.708 248.435C117.708 248.548 117.753 248.65 117.821 248.689L119.625 249.735C121.085 250.582 122.237 252.392 122.776 254.688L123.441 257.523C123.466 257.63 123.531 257.701 123.603 257.701C123.675 257.701 123.74 257.63 123.765 257.523L124.43 254.688C124.969 252.392 126.12 250.582 127.581 249.736L129.385 248.69C129.453 248.65 129.498 248.549 129.498 248.435C129.498 248.321 129.453 248.22 129.385 248.18Z" fill="url(#paint30_linear_38_2803)" fill-opacity="0.35"/>
<path d="M36.4275 276.514L37.8311 282.496C37.8839 282.721 38.0203 282.87 38.1728 282.87C38.3253 282.87 38.4618 282.721 38.5145 282.496L39.9182 276.514C41.0544 271.671 43.4832 267.853 46.564 266.067L50.3699 263.861C50.5129 263.778 50.608 263.564 50.608 263.324C50.608 263.084 50.5129 262.87 50.3699 262.787L46.5638 260.581C43.483 258.795 41.0542 254.977 39.9182 250.135L38.5145 244.153C38.4618 243.928 38.3253 243.778 38.1728 243.778C38.0203 243.778 37.8839 243.928 37.8311 244.153L36.4275 250.135C35.2913 254.977 32.8627 258.795 29.7816 260.581L25.9756 262.787C25.8325 262.87 25.7375 263.084 25.7375 263.324C25.7375 263.564 25.8325 263.778 25.9756 263.861L29.7814 266.067C32.8625 267.853 35.2913 271.67 36.4275 276.514Z" fill="url(#paint31_linear_38_2803)" fill-opacity="0.35"/>
<path d="M67.284 301.781L63.4784 299.575C60.3973 297.789 57.9686 293.971 56.8326 289.129L55.4289 283.147C55.3762 282.922 55.2397 282.772 55.0872 282.772C54.9347 282.772 54.7983 282.922 54.7455 283.147L53.3418 289.129C52.2056 293.971 49.7769 297.789 46.696 299.575L42.8902 301.781C42.7471 301.864 42.6521 302.078 42.6521 302.318C42.6521 302.558 42.7471 302.772 42.8902 302.855L46.6963 305.062C49.7771 306.848 52.2056 310.665 53.3418 315.507L54.7455 321.49C54.7983 321.715 54.9347 321.864 55.0872 321.864C55.2397 321.864 55.3762 321.715 55.4289 321.49L56.8326 315.507C57.9688 310.665 60.3973 306.847 63.4782 305.062L67.2842 302.855C67.4273 302.772 67.5223 302.558 67.5223 302.318C67.5223 302.078 67.4271 301.864 67.284 301.781Z" fill="url(#paint32_linear_38_2803)" fill-opacity="0.35"/>
<path d="M86.9816 276.193L84.395 274.694C82.3012 273.48 80.6507 270.886 79.8785 267.595L78.9246 263.529C78.8886 263.377 78.7959 263.275 78.6923 263.275C78.5887 263.275 78.496 263.377 78.46 263.529L77.5063 267.594C76.7341 270.886 75.0836 273.48 72.9896 274.694L70.4032 276.193C70.3061 276.25 70.2413 276.395 70.2413 276.558C70.2413 276.721 70.3061 276.867 70.4032 276.923L72.9899 278.422C75.0836 279.636 76.7341 282.231 77.5063 285.522L78.46 289.588C78.496 289.741 78.5887 289.842 78.6923 289.842C78.7959 289.842 78.8886 289.741 78.9246 289.588L79.8785 285.522C80.6507 282.23 82.301 279.636 84.395 278.423L86.9816 276.923C87.0788 276.867 87.1435 276.721 87.1435 276.558C87.1435 276.395 87.0788 276.25 86.9816 276.193Z" fill="url(#paint33_linear_38_2803)" fill-opacity="0.35"/>
<path d="M67.4096 248.18L65.6052 247.135C64.1447 246.288 62.9935 244.479 62.4551 242.183L61.7895 239.347C61.7646 239.24 61.6998 239.17 61.6275 239.17C61.5553 239.17 61.4905 239.24 61.4656 239.347L60.8002 242.182C60.2616 244.478 59.1102 246.288 57.6497 247.134L55.8453 248.18C55.7775 248.219 55.7325 248.321 55.7325 248.435C55.7325 248.548 55.7775 248.65 55.8453 248.689L57.6495 249.735C59.1102 250.582 60.2616 252.392 60.8002 254.688L61.4656 257.523C61.4905 257.63 61.5553 257.701 61.6275 257.701C61.6998 257.701 61.7646 257.63 61.7895 257.523L62.4551 254.688C62.9937 252.392 64.1449 250.582 65.6056 249.736L67.4098 248.69C67.4776 248.65 67.5226 248.549 67.5226 248.435C67.5226 248.321 67.4776 248.22 67.4096 248.18Z" fill="url(#paint34_linear_38_2803)" fill-opacity="0.35"/>
<path d="M24.9214 277.96L22.3347 276.461C20.241 275.247 18.5904 272.653 17.8182 269.362L16.8644 265.296C16.8283 265.143 16.7357 265.042 16.6321 265.042C16.5285 265.042 16.4358 265.143 16.3998 265.296L15.4461 269.361C14.6739 272.653 13.0233 275.247 10.9294 276.461L8.34298 277.96C8.24581 278.016 8.18103 278.162 8.18103 278.325C8.18103 278.488 8.24581 278.634 8.34298 278.69L10.9296 280.189C13.0233 281.403 14.6739 283.998 15.4461 287.289L16.3998 291.355C16.4358 291.507 16.5285 291.609 16.6321 291.609C16.7357 291.609 16.8283 291.507 16.8644 291.355L17.8182 287.289C18.5904 283.997 20.2408 281.403 22.3347 280.189L24.9214 278.69C25.0185 278.634 25.0833 278.488 25.0833 278.325C25.0833 278.162 25.0185 278.016 24.9214 277.96Z" fill="url(#paint35_linear_38_2803)" fill-opacity="0.35"/>
<path d="M162.055 73.5599L163.459 79.5421C163.512 79.7673 163.648 79.9167 163.801 79.9167C163.953 79.9167 164.09 79.7673 164.142 79.5421L165.546 73.5599C166.682 68.717 169.111 64.8993 172.192 63.1137L175.998 60.9074C176.141 60.8244 176.236 60.61 176.236 60.3703C176.236 60.1306 176.141 59.9161 175.998 59.8332L172.192 57.6268C169.111 55.8409 166.682 52.0236 165.546 47.181L164.142 41.1988C164.09 40.9739 163.953 40.8246 163.801 40.8246C163.648 40.8246 163.512 40.9739 163.459 41.1988L162.055 47.181C160.919 52.0236 158.491 55.8409 155.41 57.6268L151.603 59.8332C151.46 59.9161 151.365 60.1306 151.365 60.3703C151.365 60.61 151.46 60.8244 151.603 60.9074L155.409 63.1137C158.49 64.8993 160.919 68.7166 162.055 73.5599Z" fill="url(#paint36_linear_38_2803)" fill-opacity="0.35"/>
<path d="M192.912 98.8271L189.106 96.621C186.025 94.8351 183.596 91.0178 182.46 86.1752L181.057 80.193C181.004 79.9681 180.868 79.8188 180.715 79.8188C180.563 79.8188 180.426 79.9681 180.373 80.193L178.97 86.1749C177.834 91.0178 175.405 94.8351 172.324 96.621L168.518 98.8271C168.375 98.91 168.28 99.1244 168.28 99.3642C168.28 99.6039 168.375 99.8183 168.518 99.9013L172.324 102.108C175.405 103.894 177.834 107.711 178.97 112.554L180.373 118.536C180.426 118.761 180.563 118.911 180.715 118.911C180.868 118.911 181.004 118.761 181.057 118.536L182.46 112.554C183.597 107.711 186.025 103.894 189.106 102.108L192.912 99.9013C193.055 99.8183 193.15 99.6039 193.15 99.3642C193.15 99.1244 193.055 98.91 192.912 98.8271Z" fill="url(#paint37_linear_38_2803)" fill-opacity="0.35"/>
<path d="M206.344 126.76L204.539 125.714C203.079 124.867 201.927 123.058 201.389 120.763L200.723 117.927C200.698 117.82 200.634 117.75 200.561 117.75C200.489 117.75 200.424 117.82 200.399 117.927L199.734 120.763C199.195 123.058 198.044 124.868 196.584 125.714L194.779 126.76C194.711 126.799 194.666 126.901 194.666 127.015C194.666 127.128 194.711 127.23 194.779 127.269L196.583 128.316C198.044 129.162 199.195 130.972 199.734 133.268L200.4 136.104C200.424 136.21 200.489 136.281 200.562 136.281C200.634 136.281 200.699 136.21 200.723 136.104L201.389 133.268C201.928 130.972 203.079 129.162 204.54 128.316L206.344 127.269C206.412 127.23 206.457 127.128 206.457 127.015C206.457 126.901 206.412 126.799 206.344 126.76Z" fill="url(#paint38_linear_38_2803)" fill-opacity="0.35"/>
<path d="M193.037 45.2269L191.233 44.181C189.772 43.3344 188.621 41.5249 188.083 39.2292L187.417 36.3937C187.392 36.2868 187.328 36.216 187.255 36.216C187.183 36.216 187.118 36.2868 187.093 36.3933L186.428 39.2285C185.889 41.5242 184.738 43.3341 183.277 44.1807L181.473 45.2265C181.405 45.2657 181.36 45.3675 181.36 45.4811C181.36 45.5947 181.405 45.6965 181.473 45.7357L183.277 46.7819C184.738 47.6285 185.889 49.4383 186.428 51.7344L187.093 54.5699C187.118 54.6764 187.183 54.7472 187.255 54.7472C187.328 54.7472 187.392 54.6764 187.417 54.5699L188.083 51.734C188.621 49.438 189.773 47.6285 191.233 46.7822L193.038 45.736C193.105 45.6969 193.15 45.5951 193.15 45.4814C193.15 45.3678 193.105 45.266 193.037 45.2269Z" fill="url(#paint39_linear_38_2803)" fill-opacity="0.35"/>
<path d="M170.907 120.93L168.637 119.615C166.8 118.551 165.352 116.274 164.674 113.386L163.837 109.819C163.806 109.685 163.725 109.596 163.634 109.596C163.543 109.596 163.461 109.685 163.43 109.819L162.593 113.386C161.916 116.274 160.467 118.55 158.63 119.615L156.361 120.93C156.275 120.979 156.219 121.108 156.219 121.25C156.219 121.393 156.276 121.522 156.361 121.571L158.63 122.886C160.467 123.951 161.915 126.228 162.593 129.115L163.43 132.682C163.461 132.817 163.543 132.906 163.634 132.906C163.725 132.906 163.806 132.817 163.837 132.682L164.674 129.115C165.352 126.228 166.8 123.951 168.637 122.886L170.907 121.571C170.992 121.522 171.049 121.393 171.049 121.25C171.049 121.108 170.992 120.979 170.907 120.93Z" fill="url(#paint40_linear_38_2803)" fill-opacity="0.35"/>
<path d="M100.08 73.5599L101.484 79.5421C101.536 79.7673 101.673 79.9167 101.825 79.9167C101.978 79.9167 102.114 79.7673 102.167 79.5421L103.571 73.5599C104.707 68.717 107.136 64.8993 110.216 63.1137L114.022 60.9074C114.165 60.8244 114.26 60.61 114.26 60.3703C114.26 60.1306 114.165 59.9161 114.022 59.8332L110.216 57.6268C107.135 55.8409 104.707 52.0236 103.571 47.181L102.167 41.1988C102.114 40.9739 101.978 40.8246 101.825 40.8246C101.673 40.8246 101.536 40.9739 101.484 41.1988L100.08 47.181C98.9437 52.0236 96.5152 55.8409 93.4341 57.6268L89.628 59.8332C89.485 59.9161 89.39 60.1306 89.39 60.3703C89.39 60.61 89.485 60.8244 89.628 60.9074L93.4339 63.1137C96.515 64.8993 98.9437 68.7166 100.08 73.5599Z" fill="url(#paint41_linear_38_2803)" fill-opacity="0.35"/>
<path d="M130.937 98.8271L127.131 96.621C124.05 94.8351 121.621 91.0178 120.485 86.1752L119.081 80.193C119.029 79.9681 118.892 79.8188 118.74 79.8188C118.587 79.8188 118.451 79.9681 118.398 80.193L116.994 86.1749C115.858 91.0178 113.429 94.8351 110.349 96.621L106.543 98.8271C106.4 98.91 106.305 99.1244 106.305 99.3642C106.305 99.6039 106.4 99.8183 106.543 99.9013L110.349 102.108C113.43 103.894 115.858 107.711 116.994 112.554L118.398 118.536C118.451 118.761 118.587 118.911 118.74 118.911C118.892 118.911 119.029 118.761 119.081 118.536L120.485 112.554C121.621 107.711 124.05 103.894 127.131 102.108L130.937 99.9013C131.08 99.8183 131.175 99.6039 131.175 99.3642C131.175 99.1244 131.08 98.91 130.937 98.8271Z" fill="url(#paint42_linear_38_2803)" fill-opacity="0.35"/>
<path d="M150.634 73.2395L148.047 71.7401C145.954 70.5264 144.303 67.932 143.531 64.641L142.577 60.5755C142.541 60.4228 142.448 60.321 142.345 60.321C142.241 60.321 142.148 60.4228 142.112 60.5755L141.159 64.6406C140.386 67.932 138.736 70.5264 136.642 71.7401L134.056 73.2395C133.958 73.2958 133.894 73.4414 133.894 73.6043C133.894 73.7671 133.958 73.9131 134.056 73.9694L136.642 75.4684C138.736 76.6825 140.386 79.277 141.159 82.568L142.112 86.6341C142.148 86.7868 142.241 86.8886 142.345 86.8886C142.448 86.8886 142.541 86.7868 142.577 86.6341L143.531 82.568C144.303 79.2766 145.953 76.6825 148.047 75.4688L150.634 73.9694C150.731 73.9131 150.796 73.7671 150.796 73.6043C150.796 73.4414 150.731 73.2958 150.634 73.2395Z" fill="url(#paint43_linear_38_2803)" fill-opacity="0.35"/>
<path d="M144.368 126.76L142.564 125.714C141.103 124.867 139.952 123.058 139.413 120.763L138.748 117.927C138.723 117.82 138.658 117.75 138.586 117.75C138.514 117.75 138.449 117.82 138.424 117.927L137.758 120.763C137.22 123.058 136.069 124.868 134.608 125.714L132.804 126.76C132.736 126.799 132.691 126.901 132.691 127.015C132.691 127.128 132.736 127.23 132.804 127.269L134.608 128.316C136.069 129.162 137.22 130.972 137.759 133.268L138.424 136.104C138.449 136.21 138.514 136.281 138.586 136.281C138.658 136.281 138.723 136.21 138.748 136.104L139.414 133.268C139.952 130.972 141.104 129.162 142.564 128.316L144.368 127.269C144.436 127.23 144.481 127.128 144.481 127.015C144.481 126.901 144.436 126.799 144.368 126.76Z" fill="url(#paint44_linear_38_2803)" fill-opacity="0.35"/>
<path d="M131.062 45.2269L129.258 44.181C127.797 43.3344 126.646 41.5249 126.108 39.2292L125.442 36.3937C125.417 36.2868 125.352 36.216 125.28 36.216C125.208 36.216 125.143 36.2868 125.118 36.3933L124.453 39.2285C123.914 41.5242 122.763 43.3341 121.302 44.1807L119.498 45.2265C119.43 45.2657 119.385 45.3675 119.385 45.4811C119.385 45.5947 119.43 45.6965 119.498 45.7357L121.302 46.7819C122.763 47.6285 123.914 49.4383 124.453 51.7344L125.118 54.5699C125.143 54.6764 125.208 54.7472 125.28 54.7472C125.352 54.7472 125.417 54.6764 125.442 54.5699L126.108 51.734C126.646 49.438 127.797 47.6285 129.258 46.7822L131.062 45.736C131.13 45.6969 131.175 45.5951 131.175 45.4814C131.175 45.3678 131.13 45.266 131.062 45.2269Z" fill="url(#paint45_linear_38_2803)" fill-opacity="0.35"/>
<path d="M108.931 120.93L106.662 119.615C104.825 118.551 103.377 116.274 102.699 113.386L101.862 109.819C101.831 109.685 101.749 109.596 101.658 109.596C101.567 109.596 101.486 109.685 101.455 109.819L100.618 113.386C99.9405 116.274 98.4922 118.55 96.6548 119.615L94.3858 120.93C94.3002 120.979 94.2438 121.108 94.2438 121.25C94.2438 121.393 94.3005 121.522 94.3858 121.571L96.655 122.886C98.492 123.951 99.9403 126.228 100.618 129.115L101.455 132.682C101.486 132.817 101.567 132.906 101.658 132.906C101.749 132.906 101.831 132.817 101.862 132.682L102.699 129.115C103.377 126.228 104.825 123.951 106.662 122.886L108.931 121.571C109.017 121.522 109.073 121.393 109.073 121.25C109.073 121.108 109.017 120.979 108.931 120.93Z" fill="url(#paint46_linear_38_2803)" fill-opacity="0.35"/>
<path d="M38.1047 73.5599L39.5084 79.5421C39.5611 79.7673 39.6976 79.9167 39.8501 79.9167C40.0026 79.9167 40.139 79.7673 40.1918 79.5421L41.5954 73.5599C42.7316 68.717 45.1604 64.8993 48.2413 63.1137L52.0471 60.9074C52.1902 60.8244 52.2852 60.61 52.2852 60.3703C52.2852 60.1306 52.1902 59.9161 52.0471 59.8332L48.241 57.6268C45.1602 55.8409 42.7314 52.0236 41.5954 47.181L40.1918 41.1988C40.139 40.9739 40.0026 40.8246 39.8501 40.8246C39.6976 40.8246 39.5611 40.9739 39.5084 41.1988L38.1047 47.181C36.9685 52.0236 34.5399 55.8409 31.4589 57.6268L27.6528 59.8332C27.5098 59.9161 27.4147 60.1306 27.4147 60.3703C27.4147 60.61 27.5098 60.8244 27.6528 60.9074L31.4587 63.1137C34.5397 64.8993 36.9685 68.7166 38.1047 73.5599Z" fill="url(#paint47_linear_38_2803)" fill-opacity="0.35"/>
<path d="M68.9614 98.8271L65.1558 96.621C62.0747 94.8351 59.6459 91.0178 58.51 86.1752L57.1063 80.193C57.0535 79.9681 56.9171 79.8188 56.7646 79.8188C56.6121 79.8188 56.4757 79.9681 56.4229 80.193L55.0192 86.1749C53.883 91.0178 51.4543 94.8351 48.3734 96.621L44.5676 98.8271C44.4245 98.91 44.3295 99.1244 44.3295 99.3642C44.3295 99.6039 44.4245 99.8183 44.5676 99.9013L48.3736 102.108C51.4545 103.894 53.883 107.711 55.0192 112.554L56.4229 118.536C56.4757 118.761 56.6121 118.911 56.7646 118.911C56.9171 118.911 57.0535 118.761 57.1063 118.536L58.51 112.554C59.6462 107.711 62.0747 103.894 65.1556 102.108L68.9616 99.9013C69.1047 99.8183 69.1997 99.6039 69.1997 99.3642C69.1997 99.1244 69.1045 98.91 68.9614 98.8271Z" fill="url(#paint48_linear_38_2803)" fill-opacity="0.35"/>
<path d="M88.6588 73.2395L86.0722 71.7401C83.9785 70.5264 82.3279 67.932 81.5557 64.641L80.6018 60.5755C80.5658 60.4228 80.4731 60.321 80.3695 60.321C80.2659 60.321 80.1733 60.4228 80.1372 60.5755L79.1836 64.6406C78.4114 67.932 76.7608 70.5264 74.6669 71.7401L72.0805 73.2395C71.9833 73.2958 71.9185 73.4414 71.9185 73.6043C71.9185 73.7671 71.9833 73.9131 72.0805 73.9694L74.6671 75.4684C76.7608 76.6825 78.4114 79.277 79.1836 82.568L80.1372 86.6341C80.1733 86.7868 80.2659 86.8886 80.3695 86.8886C80.4731 86.8886 80.5658 86.7868 80.6018 86.6341L81.5557 82.568C82.3279 79.2766 83.9783 76.6825 86.0722 75.4688L88.6588 73.9694C88.756 73.9131 88.8208 73.7671 88.8208 73.6043C88.8208 73.4414 88.756 73.2958 88.6588 73.2395Z" fill="url(#paint49_linear_38_2803)" fill-opacity="0.35"/>
<path d="M82.3929 126.76L80.5885 125.714C79.128 124.867 77.9768 123.058 77.4382 120.763L76.7726 117.927C76.7477 117.82 76.683 117.75 76.6107 117.75C76.5384 117.75 76.4736 117.82 76.4487 117.927L75.7831 120.763C75.2445 123.058 74.0933 124.868 72.633 125.714L70.8286 126.76C70.7609 126.799 70.7158 126.901 70.7158 127.015C70.7158 127.128 70.7609 127.23 70.8286 127.269L72.6328 128.316C74.0935 129.162 75.2447 130.972 75.7833 133.268L76.4489 136.104C76.4738 136.21 76.5386 136.281 76.6109 136.281C76.6832 136.281 76.7479 136.21 76.7728 136.104L77.4384 133.268C77.977 130.972 79.1282 129.162 80.589 128.316L82.3931 127.269C82.4609 127.23 82.5059 127.128 82.5059 127.015C82.5059 126.901 82.4609 126.799 82.3929 126.76Z" fill="url(#paint50_linear_38_2803)" fill-opacity="0.35"/>
<path d="M69.0868 45.2269L67.2824 44.181C65.8219 43.3344 64.6707 41.5249 64.1323 39.2292L63.4667 36.3937C63.4418 36.2868 63.377 36.216 63.3047 36.216C63.2324 36.216 63.1677 36.2868 63.1428 36.3933L62.4774 39.2285C61.9388 41.5242 60.7874 43.3341 59.3269 44.1807L57.5225 45.2265C57.4547 45.2657 57.4097 45.3675 57.4097 45.4811C57.4097 45.5947 57.4547 45.6965 57.5225 45.7357L59.3266 46.7819C60.7874 47.6285 61.9388 49.4383 62.4774 51.7344L63.1428 54.5699C63.1677 54.6764 63.2324 54.7472 63.3047 54.7472C63.377 54.7472 63.4418 54.6764 63.4667 54.5699L64.1323 51.734C64.6709 49.438 65.8221 47.6285 67.2828 46.7822L69.087 45.736C69.1547 45.6969 69.1998 45.5951 69.1998 45.4814C69.1998 45.3678 69.1548 45.266 69.0868 45.2269Z" fill="url(#paint51_linear_38_2803)" fill-opacity="0.35"/>
<path d="M46.9561 120.93L44.6867 119.615C42.8497 118.551 41.4014 116.274 40.7236 113.386L39.8868 109.819C39.8553 109.685 39.774 109.596 39.6831 109.596C39.5921 109.596 39.5108 109.685 39.4793 109.819L38.6425 113.386C37.9651 116.274 36.5169 118.55 34.6795 119.615L32.4105 120.93C32.3249 120.979 32.2685 121.108 32.2685 121.25C32.2685 121.393 32.3251 121.522 32.4105 121.571L34.6797 122.886C36.5166 123.951 37.9649 126.228 38.6425 129.115L39.4793 132.682C39.5108 132.817 39.5921 132.906 39.6831 132.906C39.774 132.906 39.8555 132.817 39.8868 132.682L40.7238 129.115C41.4012 126.228 42.8493 123.951 44.6865 122.886L46.9561 121.571C47.0414 121.522 47.0981 121.393 47.0981 121.25C47.0981 121.108 47.0416 120.979 46.9561 120.93Z" fill="url(#paint52_linear_38_2803)" fill-opacity="0.35"/>
<path d="M26.5987 75.0064L24.012 73.5071C21.9183 72.2933 20.2677 69.6989 19.4955 66.4079L18.5417 62.3424C18.5056 62.1897 18.413 62.0879 18.3094 62.0879C18.2058 62.0879 18.1131 62.1897 18.0771 62.3424L17.1234 66.4076C16.3512 69.6989 14.7006 72.2933 12.6067 73.5071L10.0203 75.0064C9.92312 75.0627 9.85834 75.2084 9.85834 75.3712C9.85834 75.5341 9.92312 75.6801 10.0203 75.7364L12.6069 77.2354C14.7006 78.4495 16.3512 81.0439 17.1234 84.3349L18.0771 88.401C18.1131 88.5538 18.2058 88.6556 18.3094 88.6556C18.413 88.6556 18.5056 88.5538 18.5417 88.401L19.4955 84.3349C20.2677 81.0436 21.9181 78.4495 24.012 77.2357L26.5987 75.7364C26.6958 75.6801 26.7606 75.5341 26.7606 75.3712C26.7606 75.2084 26.6958 75.0627 26.5987 75.0064Z" fill="url(#paint53_linear_38_2803)" fill-opacity="0.35"/>
<path d="M191.235 -1.81115L187.429 -4.01717C184.348 -5.80309 181.919 -9.6204 180.783 -14.463L179.38 -20.4452C179.327 -20.6701 179.19 -20.8194 179.038 -20.8194C178.885 -20.8194 178.749 -20.6701 178.696 -20.4452L177.292 -14.4633C176.156 -9.62039 173.728 -5.80309 170.647 -4.01717L166.841 -1.81115C166.698 -1.7282 166.603 -1.51377 166.603 -1.27405C166.603 -1.03433 166.698 -0.8199 166.841 -0.736959L170.647 1.46974C173.728 3.25566 176.156 7.07296 177.292 11.9156L178.696 17.8981C178.749 18.123 178.885 18.2723 179.038 18.2723C179.19 18.2723 179.327 18.123 179.38 17.8981L180.783 11.9156C181.919 7.07296 184.348 3.25533 187.429 1.46974L191.235 -0.736959C191.378 -0.8199 191.473 -1.03433 191.473 -1.27405C191.473 -1.51377 191.378 -1.7282 191.235 -1.81115Z" fill="url(#paint54_linear_38_2803)" fill-opacity="0.35"/>
<path d="M204.666 26.1221L202.862 25.0759C201.402 24.2293 200.25 22.4197 199.712 20.1244L199.046 17.2889C199.021 17.1823 198.957 17.1115 198.884 17.1115C198.812 17.1115 198.747 17.1823 198.722 17.2889L198.057 20.1244C197.518 22.4201 196.367 24.2296 194.907 25.0759L193.102 26.1221C193.034 26.1612 192.989 26.263 192.989 26.3766C192.989 26.4902 193.034 26.5921 193.102 26.6312L194.906 27.6774C196.367 28.524 197.518 30.3338 198.057 32.6295L198.722 35.4654C198.747 35.5719 198.812 35.6427 198.884 35.6427C198.957 35.6427 199.022 35.5719 199.046 35.4654L199.712 32.6295C200.251 30.3338 201.402 28.524 202.863 27.6774L204.667 26.6312C204.734 26.5921 204.78 26.4902 204.78 26.3766C204.78 26.263 204.734 26.1612 204.666 26.1221Z" fill="url(#paint55_linear_38_2803)" fill-opacity="0.35"/>
<path d="M169.23 20.292L166.96 18.9771C165.123 17.9123 163.675 15.6358 162.997 12.7481L162.16 9.18096C162.129 9.04711 162.047 8.95776 161.957 8.95776C161.866 8.95776 161.784 9.04711 161.753 9.18096L160.916 12.7478C160.239 15.6355 158.79 17.912 156.953 18.9771L154.684 20.292C154.598 20.3412 154.542 20.4693 154.542 20.6123C154.542 20.7553 154.599 20.8834 154.684 20.9326L156.953 22.2482C158.79 23.3129 160.238 25.5894 160.916 28.4772L161.753 32.0443C161.784 32.1785 161.866 32.2675 161.957 32.2675C162.047 32.2675 162.129 32.1785 162.16 32.0443L162.997 28.4768C163.675 25.5894 165.123 23.3133 166.96 22.2482L169.23 20.9326C169.315 20.8834 169.371 20.7553 169.371 20.6123C169.371 20.4693 169.315 20.3412 169.23 20.292Z" fill="url(#paint56_linear_38_2803)" fill-opacity="0.35"/>
<path d="M129.259 -1.81115L125.454 -4.01717C122.373 -5.80309 119.944 -9.6204 118.808 -14.463L117.404 -20.4452C117.352 -20.6701 117.215 -20.8194 117.063 -20.8194C116.91 -20.8194 116.774 -20.6701 116.721 -20.4452L115.317 -14.4633C114.181 -9.62039 111.752 -5.80309 108.671 -4.01717L104.866 -1.81115C104.723 -1.7282 104.628 -1.51377 104.628 -1.27405C104.628 -1.03433 104.723 -0.8199 104.866 -0.736959L108.672 1.46974C111.752 3.25566 114.181 7.07296 115.317 11.9156L116.721 17.8981C116.774 18.123 116.91 18.2723 117.063 18.2723C117.215 18.2723 117.352 18.123 117.404 17.8981L118.808 11.9156C119.944 7.07296 122.373 3.25533 125.454 1.46974L129.26 -0.736959C129.403 -0.8199 129.498 -1.03433 129.498 -1.27405C129.498 -1.51377 129.403 -1.7282 129.259 -1.81115Z" fill="url(#paint57_linear_38_2803)" fill-opacity="0.35"/>
<path d="M142.691 26.1221L140.887 25.0759C139.426 24.2293 138.275 22.4197 137.736 20.1244L137.071 17.2889C137.046 17.1823 136.981 17.1115 136.909 17.1115C136.836 17.1115 136.772 17.1823 136.747 17.2889L136.081 20.1244C135.543 22.4201 134.391 24.2296 132.931 25.0759L131.127 26.1221C131.059 26.1612 131.014 26.263 131.014 26.3766C131.014 26.4902 131.059 26.5921 131.127 26.6312L132.931 27.6774C134.392 28.524 135.543 30.3338 136.081 32.6295L136.747 35.4654C136.772 35.5719 136.837 35.6427 136.909 35.6427C136.981 35.6427 137.046 35.5719 137.071 35.4654L137.737 32.6295C138.275 30.3338 139.426 28.524 140.887 27.6774L142.691 26.6312C142.759 26.5921 142.804 26.4902 142.804 26.3766C142.804 26.263 142.759 26.1612 142.691 26.1221Z" fill="url(#paint58_linear_38_2803)" fill-opacity="0.35"/>
<path d="M107.254 20.292L104.985 18.9771C103.148 17.9123 101.7 15.6358 101.022 12.7481L100.185 9.18096C100.153 9.04711 100.072 8.95776 99.9812 8.95776C99.8902 8.95776 99.8089 9.04711 99.7774 9.18096L98.9406 12.7478C98.2632 15.6355 96.8149 17.912 94.9776 18.9771L92.7086 20.292C92.623 20.3412 92.5666 20.4693 92.5666 20.6123C92.5666 20.7553 92.6232 20.8834 92.7086 20.9326L94.9778 22.2482C96.8147 23.3129 98.263 25.5894 98.9406 28.4772L99.7774 32.0443C99.8089 32.1785 99.8902 32.2675 99.9812 32.2675C100.072 32.2675 100.154 32.1785 100.185 32.0443L101.022 28.4768C101.699 25.5894 103.147 23.3133 104.985 22.2482L107.254 20.9326C107.34 20.8834 107.396 20.7553 107.396 20.6123C107.396 20.4693 107.34 20.3412 107.254 20.292Z" fill="url(#paint59_linear_38_2803)" fill-opacity="0.35"/>
<path d="M67.284 -1.81115L63.4784 -4.01717C60.3973 -5.80309 57.9686 -9.6204 56.8326 -14.463L55.4289 -20.4452C55.3762 -20.6701 55.2397 -20.8194 55.0872 -20.8194C54.9347 -20.8194 54.7983 -20.6701 54.7455 -20.4452L53.3418 -14.4633C52.2056 -9.62039 49.7769 -5.80309 46.696 -4.01717L42.8902 -1.81115C42.7471 -1.7282 42.6521 -1.51377 42.6521 -1.27405C42.6521 -1.03433 42.7471 -0.8199 42.8902 -0.736959L46.6963 1.46974C49.7771 3.25566 52.2056 7.07296 53.3418 11.9156L54.7455 17.8981C54.7983 18.123 54.9347 18.2723 55.0872 18.2723C55.2397 18.2723 55.3762 18.123 55.4289 17.8981L56.8326 11.9156C57.9688 7.07296 60.3973 3.25533 63.4782 1.46974L67.2842 -0.736959C67.4273 -0.8199 67.5223 -1.03433 67.5223 -1.27405C67.5223 -1.51377 67.4271 -1.7282 67.284 -1.81115Z" fill="url(#paint60_linear_38_2803)" fill-opacity="0.35"/>
<path d="M80.7158 26.1221L78.9114 25.0759C77.4509 24.2293 76.2997 22.4197 75.7611 20.1244L75.0955 17.2889C75.0706 17.1823 75.0058 17.1115 74.9335 17.1115C74.8613 17.1115 74.7965 17.1823 74.7716 17.2889L74.106 20.1244C73.5674 22.4201 72.4162 24.2296 70.9559 25.0759L69.1515 26.1221C69.0837 26.1612 69.0387 26.263 69.0387 26.3766C69.0387 26.4902 69.0837 26.5921 69.1515 26.6312L70.9557 27.6774C72.4164 28.524 73.5676 30.3338 74.1062 32.6295L74.7718 35.4654C74.7967 35.5719 74.8615 35.6427 74.9338 35.6427C75.006 35.6427 75.0708 35.5719 75.0957 35.4654L75.7613 32.6295C76.2999 30.3338 77.4511 28.524 78.9118 27.6774L80.716 26.6312C80.7838 26.5921 80.8288 26.4902 80.8288 26.3766C80.8288 26.263 80.7838 26.1612 80.7158 26.1221Z" fill="url(#paint61_linear_38_2803)" fill-opacity="0.35"/>
<path d="M45.2789 20.292L43.0095 18.9771C41.1726 17.9123 39.7243 15.6358 39.0465 12.7481L38.2097 9.18096C38.1782 9.04711 38.0969 8.95776 38.0059 8.95776C37.915 8.95776 37.8337 9.04711 37.8022 9.18096L36.9654 12.7478C36.288 15.6355 34.8397 17.912 33.0023 18.9771L30.7334 20.292C30.6478 20.3412 30.5914 20.4693 30.5914 20.6123C30.5914 20.7553 30.648 20.8834 30.7334 20.9326L33.0025 22.2482C34.8395 23.3129 36.2878 25.5894 36.9654 28.4772L37.8022 32.0443C37.8337 32.1785 37.915 32.2675 38.0059 32.2675C38.0969 32.2675 38.1784 32.1785 38.2097 32.0443L39.0467 28.4768C39.7241 25.5894 41.1722 23.3133 43.0093 22.2482L45.2789 20.9326C45.3643 20.8834 45.4209 20.7553 45.4209 20.6123C45.4209 20.4693 45.3645 20.3412 45.2789 20.292Z" fill="url(#paint62_linear_38_2803)" fill-opacity="0.35"/>
</g>
<path d="M155.5 81.5C167.537 100.071 165.615 146.275 142.279 169.604C122.878 189 117 192 95.5 184.5" fill="#167C8B"/>
<path d="M60 224.5C47.9647 205.924 49.3849 154.731 72.7182 131.398C97 110 102 107.5 122.5 117.5" fill="#167C8B"/>
<path d="M109.346 191.614C99.2694 191.614 89.2555 187.407 79.3579 178.984C77.1721 177.123 76.9084 173.846 78.7679 171.663C80.6315 169.477 83.9058 169.215 86.0891 171.073C97.0753 180.424 114.475 190.06 138.606 165.931C159.766 144.779 162.621 101.371 151.785 84.6491C150.224 82.2434 150.91 79.0272 153.318 77.4668C155.726 75.9064 158.94 76.5901 160.5 79C174.164 100.081 170.902 148.336 145.952 173.275C133.728 185.497 121.491 191.614 109.346 191.614Z" fill="url(#paint63_linear_38_2803)"/>
<path d="M134.257 123.543C141.861 135.281 137.122 154.881 122.38 169.628C107.633 184.37 95.1968 181.948 84.7487 173.051" fill="#282224"/>
<path d="M99.5374 187.39C92.7231 187.39 85.9523 184.6 79.383 179.007C77.1972 177.148 76.9335 173.869 78.7951 171.688C80.6545 169.503 83.9351 169.241 86.1142 171.1C93.018 176.973 102.735 181.929 116.709 167.957C129.45 155.211 134.262 138.191 127.898 128.369C126.34 125.961 127.028 122.745 129.434 121.185C131.839 119.628 135.058 120.314 136.618 122.72C145.732 136.789 140.447 158.903 124.053 175.301C116 183.351 107.734 187.39 99.5374 187.39Z" fill="url(#paint64_linear_38_2803)"/>
<path d="M59.9308 228.335C58.2294 228.335 56.5632 227.502 55.5678 225.964C41.9099 204.885 44.1017 152.668 69.0449 127.726C91.4119 105.368 113.819 103.45 135.643 122.017C137.829 123.877 138.093 127.155 136.233 129.338C134.372 131.526 131.095 131.788 128.912 129.928C117.926 120.58 100.533 110.94 76.3912 135.071C55.2374 156.227 53.4528 203.598 64.2854 220.318C65.8458 222.726 65.16 225.942 62.7522 227.5C61.8776 228.065 60.8991 228.335 59.9308 228.335Z" fill="url(#paint65_linear_38_2803)"/>
<path d="M82.7487 175.459C75.1365 163.72 79.8754 144.125 94.6179 129.378C109.369 114.632 121.805 117.054 132.253 125.95" fill="#282224"/>
<path d="M82.7529 180.652C81.0535 180.652 79.3853 179.819 78.3899 178.284C69.2672 164.217 74.5486 142.105 90.9446 125.705C105.697 110.956 121.144 109.67 135.619 121.994C137.804 123.854 138.068 127.132 136.207 129.314C134.347 131.499 131.065 131.759 128.887 129.902C121.984 124.026 112.263 119.077 98.289 133.049C85.5474 145.797 80.7399 162.812 87.1056 172.631C88.666 175.037 87.9802 178.255 85.5745 179.815C84.7015 180.382 83.723 180.652 82.7529 180.652Z" fill="url(#paint66_linear_38_2803)"/>
<defs>
<linearGradient id="paint0_linear_38_2803" x1="100" y1="0" x2="100" y2="300" gradientUnits="userSpaceOnUse">
<stop stop-color="#6DBECB"/>
<stop offset="1" stop-color="#406E75"/>
</linearGradient>
<linearGradient id="paint1_linear_38_2803" x1="108" y1="0" x2="108" y2="300" gradientUnits="userSpaceOnUse">
<stop stop-color="#6DBECB"/>
<stop offset="1" stop-color="#406E75"/>
</linearGradient>
<linearGradient id="paint2_linear_38_2803" x1="108" y1="13" x2="108" y2="288" gradientUnits="userSpaceOnUse">
<stop stop-color="#6DBECB"/>
<stop offset="1" stop-color="#406E75"/>
</linearGradient>
<linearGradient id="paint3_linear_38_2803" x1="108" y1="13" x2="108" y2="288" gradientUnits="userSpaceOnUse">
<stop stop-color="#6DBECB"/>
<stop offset="1" stop-color="#406E75"/>
</linearGradient>
<linearGradient id="paint4_linear_38_2803" x1="162.123" y1="143.14" x2="162.123" y2="182.232" gradientUnits="userSpaceOnUse">
<stop stop-color="white"/>
<stop offset="1" stop-color="#999999"/>
</linearGradient>
<linearGradient id="paint5_linear_38_2803" x1="179.038" y1="182.134" x2="179.038" y2="221.226" gradientUnits="userSpaceOnUse">
<stop stop-color="white"/>
<stop offset="1" stop-color="#999999"/>
</linearGradient>
<linearGradient id="paint6_linear_38_2803" x1="202.643" y1="162.637" x2="202.643" y2="189.204" gradientUnits="userSpaceOnUse">
<stop stop-color="white"/>
<stop offset="1" stop-color="#999999"/>
</linearGradient>
<linearGradient id="paint7_linear_38_2803" x1="198.884" y1="220.065" x2="198.884" y2="238.596" gradientUnits="userSpaceOnUse">
<stop stop-color="white"/>
<stop offset="1" stop-color="#999999"/>
</linearGradient>
<linearGradient id="paint8_linear_38_2803" x1="185.578" y1="138.531" x2="185.578" y2="157.063" gradientUnits="userSpaceOnUse">
<stop stop-color="white"/>
<stop offset="1" stop-color="#999999"/>
</linearGradient>
<linearGradient id="paint9_linear_38_2803" x1="161.957" y1="211.911" x2="161.957" y2="235.221" gradientUnits="userSpaceOnUse">
<stop stop-color="white"/>
<stop offset="1" stop-color="#999999"/>
</linearGradient>
<linearGradient id="paint10_linear_38_2803" x1="100.148" y1="143.14" x2="100.148" y2="182.232" gradientUnits="userSpaceOnUse">
<stop stop-color="white"/>
<stop offset="1" stop-color="#999999"/>
</linearGradient>
<linearGradient id="paint11_linear_38_2803" x1="117.063" y1="182.134" x2="117.063" y2="221.226" gradientUnits="userSpaceOnUse">
<stop stop-color="white"/>
<stop offset="1" stop-color="#999999"/>
</linearGradient>
<linearGradient id="paint12_linear_38_2803" x1="140.668" y1="162.637" x2="140.668" y2="189.204" gradientUnits="userSpaceOnUse">
<stop stop-color="white"/>
<stop offset="1" stop-color="#999999"/>
</linearGradient>
<linearGradient id="paint13_linear_38_2803" x1="136.909" y1="220.065" x2="136.909" y2="238.596" gradientUnits="userSpaceOnUse">
<stop stop-color="white"/>
<stop offset="1" stop-color="#999999"/>
</linearGradient>
<linearGradient id="paint14_linear_38_2803" x1="123.603" y1="138.531" x2="123.603" y2="157.063" gradientUnits="userSpaceOnUse">
<stop stop-color="white"/>
<stop offset="1" stop-color="#999999"/>
</linearGradient>
<linearGradient id="paint15_linear_38_2803" x1="99.9814" y1="211.911" x2="99.9814" y2="235.221" gradientUnits="userSpaceOnUse">
<stop stop-color="white"/>
<stop offset="1" stop-color="#999999"/>
</linearGradient>
<linearGradient id="paint16_linear_38_2803" x1="38.1727" y1="143.14" x2="38.1727" y2="182.232" gradientUnits="userSpaceOnUse">
<stop stop-color="white"/>
<stop offset="1" stop-color="#999999"/>
</linearGradient>
<linearGradient id="paint17_linear_38_2803" x1="55.0872" y1="182.134" x2="55.0872" y2="221.226" gradientUnits="userSpaceOnUse">
<stop stop-color="white"/>
<stop offset="1" stop-color="#999999"/>
</linearGradient>
<linearGradient id="paint18_linear_38_2803" x1="78.6924" y1="162.637" x2="78.6924" y2="189.204" gradientUnits="userSpaceOnUse">
<stop stop-color="white"/>
<stop offset="1" stop-color="#999999"/>
</linearGradient>
<linearGradient id="paint19_linear_38_2803" x1="74.9338" y1="220.065" x2="74.9338" y2="238.596" gradientUnits="userSpaceOnUse">
<stop stop-color="white"/>
<stop offset="1" stop-color="#999999"/>
</linearGradient>
<linearGradient id="paint20_linear_38_2803" x1="61.6275" y1="138.531" x2="61.6275" y2="157.063" gradientUnits="userSpaceOnUse">
<stop stop-color="white"/>
<stop offset="1" stop-color="#999999"/>
</linearGradient>
<linearGradient id="paint21_linear_38_2803" x1="38.0062" y1="211.911" x2="38.0062" y2="235.221" gradientUnits="userSpaceOnUse">
<stop stop-color="white"/>
<stop offset="1" stop-color="#999999"/>
</linearGradient>
<linearGradient id="paint22_linear_38_2803" x1="16.6322" y1="164.404" x2="16.6322" y2="190.971" gradientUnits="userSpaceOnUse">
<stop stop-color="white"/>
<stop offset="1" stop-color="#999999"/>
</linearGradient>
<linearGradient id="paint23_linear_38_2803" x1="162.123" y1="243.778" x2="162.123" y2="282.87" gradientUnits="userSpaceOnUse">
<stop stop-color="white"/>
<stop offset="1" stop-color="#999999"/>
</linearGradient>
<linearGradient id="paint24_linear_38_2803" x1="179.038" y1="282.772" x2="179.038" y2="321.864" gradientUnits="userSpaceOnUse">
<stop stop-color="white"/>
<stop offset="1" stop-color="#999999"/>
</linearGradient>
<linearGradient id="paint25_linear_38_2803" x1="202.643" y1="263.275" x2="202.643" y2="289.842" gradientUnits="userSpaceOnUse">
<stop stop-color="white"/>
<stop offset="1" stop-color="#999999"/>
</linearGradient>
<linearGradient id="paint26_linear_38_2803" x1="185.578" y1="239.17" x2="185.578" y2="257.701" gradientUnits="userSpaceOnUse">
<stop stop-color="white"/>
<stop offset="1" stop-color="#999999"/>
</linearGradient>
<linearGradient id="paint27_linear_38_2803" x1="100.148" y1="243.778" x2="100.148" y2="282.87" gradientUnits="userSpaceOnUse">
<stop stop-color="white"/>
<stop offset="1" stop-color="#999999"/>
</linearGradient>
<linearGradient id="paint28_linear_38_2803" x1="117.063" y1="282.772" x2="117.063" y2="321.864" gradientUnits="userSpaceOnUse">
<stop stop-color="white"/>
<stop offset="1" stop-color="#999999"/>
</linearGradient>
<linearGradient id="paint29_linear_38_2803" x1="140.668" y1="263.275" x2="140.668" y2="289.842" gradientUnits="userSpaceOnUse">
<stop stop-color="white"/>
<stop offset="1" stop-color="#999999"/>
</linearGradient>
<linearGradient id="paint30_linear_38_2803" x1="123.603" y1="239.17" x2="123.603" y2="257.701" gradientUnits="userSpaceOnUse">
<stop stop-color="white"/>
<stop offset="1" stop-color="#999999"/>
</linearGradient>
<linearGradient id="paint31_linear_38_2803" x1="38.1727" y1="243.778" x2="38.1727" y2="282.87" gradientUnits="userSpaceOnUse">
<stop stop-color="white"/>
<stop offset="1" stop-color="#999999"/>
</linearGradient>
<linearGradient id="paint32_linear_38_2803" x1="55.0872" y1="282.772" x2="55.0872" y2="321.864" gradientUnits="userSpaceOnUse">
<stop stop-color="white"/>
<stop offset="1" stop-color="#999999"/>
</linearGradient>
<linearGradient id="paint33_linear_38_2803" x1="78.6924" y1="263.275" x2="78.6924" y2="289.842" gradientUnits="userSpaceOnUse">
<stop stop-color="white"/>
<stop offset="1" stop-color="#999999"/>
</linearGradient>
<linearGradient id="paint34_linear_38_2803" x1="61.6275" y1="239.17" x2="61.6275" y2="257.701" gradientUnits="userSpaceOnUse">
<stop stop-color="white"/>
<stop offset="1" stop-color="#999999"/>
</linearGradient>
<linearGradient id="paint35_linear_38_2803" x1="16.6322" y1="265.042" x2="16.6322" y2="291.609" gradientUnits="userSpaceOnUse">
<stop stop-color="white"/>
<stop offset="1" stop-color="#999999"/>
</linearGradient>
<linearGradient id="paint36_linear_38_2803" x1="163.801" y1="40.8246" x2="163.801" y2="79.9167" gradientUnits="userSpaceOnUse">
<stop stop-color="white"/>
<stop offset="1" stop-color="#999999"/>
</linearGradient>
<linearGradient id="paint37_linear_38_2803" x1="180.715" y1="79.8188" x2="180.715" y2="118.911" gradientUnits="userSpaceOnUse">
<stop stop-color="white"/>
<stop offset="1" stop-color="#999999"/>
</linearGradient>
<linearGradient id="paint38_linear_38_2803" x1="200.562" y1="117.75" x2="200.562" y2="136.281" gradientUnits="userSpaceOnUse">
<stop stop-color="white"/>
<stop offset="1" stop-color="#999999"/>
</linearGradient>
<linearGradient id="paint39_linear_38_2803" x1="187.255" y1="36.216" x2="187.255" y2="54.7472" gradientUnits="userSpaceOnUse">
<stop stop-color="white"/>
<stop offset="1" stop-color="#999999"/>
</linearGradient>
<linearGradient id="paint40_linear_38_2803" x1="163.634" y1="109.596" x2="163.634" y2="132.906" gradientUnits="userSpaceOnUse">
<stop stop-color="white"/>
<stop offset="1" stop-color="#999999"/>
</linearGradient>
<linearGradient id="paint41_linear_38_2803" x1="101.825" y1="40.8246" x2="101.825" y2="79.9167" gradientUnits="userSpaceOnUse">
<stop stop-color="white"/>
<stop offset="1" stop-color="#999999"/>
</linearGradient>
<linearGradient id="paint42_linear_38_2803" x1="118.74" y1="79.8188" x2="118.74" y2="118.911" gradientUnits="userSpaceOnUse">
<stop stop-color="white"/>
<stop offset="1" stop-color="#999999"/>
</linearGradient>
<linearGradient id="paint43_linear_38_2803" x1="142.345" y1="60.321" x2="142.345" y2="86.8886" gradientUnits="userSpaceOnUse">
<stop stop-color="white"/>
<stop offset="1" stop-color="#999999"/>
</linearGradient>
<linearGradient id="paint44_linear_38_2803" x1="138.586" y1="117.75" x2="138.586" y2="136.281" gradientUnits="userSpaceOnUse">
<stop stop-color="white"/>
<stop offset="1" stop-color="#999999"/>
</linearGradient>
<linearGradient id="paint45_linear_38_2803" x1="125.28" y1="36.216" x2="125.28" y2="54.7472" gradientUnits="userSpaceOnUse">
<stop stop-color="white"/>
<stop offset="1" stop-color="#999999"/>
</linearGradient>
<linearGradient id="paint46_linear_38_2803" x1="101.659" y1="109.596" x2="101.659" y2="132.906" gradientUnits="userSpaceOnUse">
<stop stop-color="white"/>
<stop offset="1" stop-color="#999999"/>
</linearGradient>
<linearGradient id="paint47_linear_38_2803" x1="39.85" y1="40.8246" x2="39.85" y2="79.9167" gradientUnits="userSpaceOnUse">
<stop stop-color="white"/>
<stop offset="1" stop-color="#999999"/>
</linearGradient>
<linearGradient id="paint48_linear_38_2803" x1="56.7646" y1="79.8188" x2="56.7646" y2="118.911" gradientUnits="userSpaceOnUse">
<stop stop-color="white"/>
<stop offset="1" stop-color="#999999"/>
</linearGradient>
<linearGradient id="paint49_linear_38_2803" x1="80.3697" y1="60.321" x2="80.3697" y2="86.8886" gradientUnits="userSpaceOnUse">
<stop stop-color="white"/>
<stop offset="1" stop-color="#999999"/>
</linearGradient>
<linearGradient id="paint50_linear_38_2803" x1="76.6109" y1="117.75" x2="76.6109" y2="136.281" gradientUnits="userSpaceOnUse">
<stop stop-color="white"/>
<stop offset="1" stop-color="#999999"/>
</linearGradient>
<linearGradient id="paint51_linear_38_2803" x1="63.3047" y1="36.216" x2="63.3047" y2="54.7472" gradientUnits="userSpaceOnUse">
<stop stop-color="white"/>
<stop offset="1" stop-color="#999999"/>
</linearGradient>
<linearGradient id="paint52_linear_38_2803" x1="39.6833" y1="109.596" x2="39.6833" y2="132.906" gradientUnits="userSpaceOnUse">
<stop stop-color="white"/>
<stop offset="1" stop-color="#999999"/>
</linearGradient>
<linearGradient id="paint53_linear_38_2803" x1="18.3095" y1="62.0879" x2="18.3095" y2="88.6556" gradientUnits="userSpaceOnUse">
<stop stop-color="white"/>
<stop offset="1" stop-color="#999999"/>
</linearGradient>
<linearGradient id="paint54_linear_38_2803" x1="179.038" y1="-20.8194" x2="179.038" y2="18.2723" gradientUnits="userSpaceOnUse">
<stop stop-color="white"/>
<stop offset="1" stop-color="#999999"/>
</linearGradient>
<linearGradient id="paint55_linear_38_2803" x1="198.884" y1="17.1115" x2="198.884" y2="35.6427" gradientUnits="userSpaceOnUse">
<stop stop-color="white"/>
<stop offset="1" stop-color="#999999"/>
</linearGradient>
<linearGradient id="paint56_linear_38_2803" x1="161.957" y1="8.95776" x2="161.957" y2="32.2675" gradientUnits="userSpaceOnUse">
<stop stop-color="white"/>
<stop offset="1" stop-color="#999999"/>
</linearGradient>
<linearGradient id="paint57_linear_38_2803" x1="117.063" y1="-20.8194" x2="117.063" y2="18.2723" gradientUnits="userSpaceOnUse">
<stop stop-color="white"/>
<stop offset="1" stop-color="#999999"/>
</linearGradient>
<linearGradient id="paint58_linear_38_2803" x1="136.909" y1="17.1115" x2="136.909" y2="35.6427" gradientUnits="userSpaceOnUse">
<stop stop-color="white"/>
<stop offset="1" stop-color="#999999"/>
</linearGradient>
<linearGradient id="paint59_linear_38_2803" x1="99.9814" y1="8.95776" x2="99.9814" y2="32.2675" gradientUnits="userSpaceOnUse">
<stop stop-color="white"/>
<stop offset="1" stop-color="#999999"/>
</linearGradient>
<linearGradient id="paint60_linear_38_2803" x1="55.0872" y1="-20.8194" x2="55.0872" y2="18.2723" gradientUnits="userSpaceOnUse">
<stop stop-color="white"/>
<stop offset="1" stop-color="#999999"/>
</linearGradient>
<linearGradient id="paint61_linear_38_2803" x1="74.9338" y1="17.1115" x2="74.9338" y2="35.6427" gradientUnits="userSpaceOnUse">
<stop stop-color="white"/>
<stop offset="1" stop-color="#999999"/>
</linearGradient>
<linearGradient id="paint62_linear_38_2803" x1="38.0062" y1="8.95776" x2="38.0062" y2="32.2675" gradientUnits="userSpaceOnUse">
<stop stop-color="white"/>
<stop offset="1" stop-color="#999999"/>
</linearGradient>
<linearGradient id="paint63_linear_38_2803" x1="123.006" y1="76.6299" x2="123.006" y2="191.614" gradientUnits="userSpaceOnUse">
<stop stop-color="#5DA3AF"/>
<stop offset="1" stop-color="#6DBECB"/>
</linearGradient>
<linearGradient id="paint64_linear_38_2803" x1="109.305" y1="120.351" x2="109.305" y2="187.39" gradientUnits="userSpaceOnUse">
<stop stop-color="#5DA3AF"/>
<stop offset="1" stop-color="#6DBECB"/>
</linearGradient>
<linearGradient id="paint65_linear_38_2803" x1="92.3497" y1="109.391" x2="92.3497" y2="228.335" gradientUnits="userSpaceOnUse">
<stop stop-color="#5DA3AF"/>
<stop offset="1" stop-color="#6DBECB"/>
</linearGradient>
<linearGradient id="paint66_linear_38_2803" x1="105.697" y1="113.611" x2="105.697" y2="180.652" gradientUnits="userSpaceOnUse">
<stop stop-color="#5DA3AF"/>
<stop offset="1" stop-color="#6DBECB"/>
</linearGradient>
</defs>
</svg>
