<svg width="200" height="300" viewBox="0 0 200 300" fill="none" xmlns="http://www.w3.org/2000/svg">
<rect x="3" y="3" width="194" height="294" rx="24" fill="#242424" stroke="url(#paint0_linear_9_280)" stroke-width="6"/>
<path d="M22 188H182" stroke="url(#paint1_linear_9_280)"/>
<path d="M77.8828 47.5859C73.5352 47.5039 69.9258 48.4063 67.7109 49.0625C67.6494 49.0625 67.6084 49.0625 67.5469 49.0625L54.4219 53.1641C39.0205 57.9014 28.5 72.1748 28.5 88.2734V116C28.5 136.241 45.0088 152.75 65.25 152.75H117.258C123.656 152.894 129.85 149.141 132.352 142.906C133.931 138.948 133.705 134.785 132.188 131.094C135.407 129.392 138.135 126.644 139.57 123.055C141.211 118.933 140.944 114.544 139.242 110.75H159.75C168.384 110.75 175.5 103.634 175.5 95C175.5 86.3662 168.384 79.25 159.75 79.25H151.711L153.844 78.5938C162.108 76.0918 166.846 67.1709 164.344 58.9063C161.842 50.6416 152.921 45.9043 144.656 48.4063L100.359 62.0234C99.9697 61.0391 99.5186 59.9727 98.8828 58.9063C96.2578 54.5176 90.9463 49.5547 82.4766 48.0781C80.8975 47.8115 79.3389 47.6064 77.8828 47.5859ZM149.906 58.25C151.957 58.4756 153.7 59.8906 154.336 62.0234C155.197 64.8535 153.557 67.7246 150.727 68.5859L114.797 79.4141L116.602 85.3203V89.75H159.75C162.724 89.75 165 92.0264 165 95C165 97.9736 162.724 100.25 159.75 100.25H125.133L111.352 94.8359C109.362 94.0361 107.312 93.6465 105.281 93.6875L102.492 72.1953L147.773 58.4141C148.491 58.1885 149.229 58.168 149.906 58.25ZM77.7188 58.4141C78.7236 58.4141 79.7695 58.4141 80.6719 58.5781C86.3115 59.5625 88.4854 62.0234 89.8594 64.3203C91.2334 66.6172 91.3359 68.2578 91.3359 68.2578C91.3359 68.3604 91.3359 68.4834 91.3359 68.5859L95.7656 102.383C95.8066 102.547 95.8682 102.711 95.9297 102.875C96.5859 105.644 94.9248 108.289 92.1562 108.945C90.4541 109.355 89.5928 109.13 88.7109 108.617C87.8291 108.104 86.7422 107.018 85.9219 104.68L79.3594 79.25C78.9492 77.6914 77.8418 76.4199 76.3857 75.7842C74.9092 75.1484 73.2275 75.21 71.8125 75.9688L63.1172 80.7266C60.5742 82.1211 59.6514 85.3203 61.0664 87.8633C62.4609 90.4063 65.6602 91.3291 68.2031 89.9141L70.8281 88.4375L75.9141 107.797C75.9551 107.961 76.0166 108.125 76.0781 108.289C77.4932 112.35 79.9131 115.61 83.2969 117.641C86.0654 119.302 89.2852 119.938 92.4844 119.609C90.8232 121.147 89.4492 123.116 88.5469 125.352C86.1475 131.36 87.665 137.964 91.9922 142.25H65.25C50.6895 142.25 39 130.561 39 116V88.2734C39 76.7275 46.5059 66.5762 57.5391 63.1719L70.6641 59.2344C71.7305 58.9063 74.7246 58.4141 77.7188 58.4141ZM106.266 104.352C106.655 104.413 107.024 104.352 107.414 104.516L126.938 112.391C129.686 113.498 130.998 116.369 129.891 119.117C128.783 121.865 125.748 123.178 123 122.07L103.477 114.359C103.189 114.257 103.066 114.011 102.82 113.867C104.892 111.201 106.225 107.838 106.266 104.352ZM102.984 126.008C103.682 126.008 104.42 126.069 105.117 126.336L112.172 129.125L119.062 131.914L119.719 132.078C122.467 133.186 123.779 136.221 122.672 138.969C121.872 140.979 120.088 142.147 118.078 142.25C118.017 142.25 117.976 142.25 117.914 142.25C117.217 142.271 116.479 142.188 115.781 141.922L101.18 136.016C98.4316 134.908 97.1191 131.873 98.2266 129.125C98.7803 127.751 99.7852 126.869 101.016 126.336C101.631 126.069 102.287 126.008 102.984 126.008Z" fill="url(#paint2_linear_9_280)"/>
<defs>
<linearGradient id="paint0_linear_9_280" x1="100" y1="0" x2="100" y2="300" gradientUnits="userSpaceOnUse">
<stop stop-color="#B1B3B3"/>
<stop offset="1" stop-color="#4C4D4D"/>
</linearGradient>
<linearGradient id="paint1_linear_9_280" x1="24.3256" y1="189" x2="184.326" y2="189" gradientUnits="userSpaceOnUse">
<stop stop-color="#999999"/>
<stop offset="0.5" stop-color="white"/>
<stop offset="0.99" stop-color="#999999"/>
</linearGradient>
<linearGradient id="paint2_linear_9_280" x1="102" y1="47.5807" x2="102" y2="152.754" gradientUnits="userSpaceOnUse">
<stop stop-color="#DADCDC"/>
<stop offset="1" stop-color="#808080"/>
</linearGradient>
</defs>
</svg>
