<svg width="290" height="129" viewBox="0 0 290 129" fill="none" xmlns="http://www.w3.org/2000/svg">
<g id="header">
<path id="Vector 9" d="M21.2809 103.008L125.512 110.266L129.285 110.256L267.944 119.306L265.033 89.6066L174.045 96.9296L258.854 71.7048L231.884 38.2991L166.472 86.5764L213.029 18.4371L157.028 0.37972L147.139 86.6295L129.285 0.379726L81.0286 12.3798L129.229 89.9794L59.2765 30.2852L39.0688 55.3326L125.476 97.0629L26.8747 79.4149L21.2809 103.008Z" fill="url(#paint0_radial_209_59)"/>
<g id="ribbon">
<g id="left">
<path id="Vector 3" d="M12.8532 84.7941H57.39C59.5991 84.7941 61.39 86.585 61.39 88.7941V124.75C61.39 126.959 59.5991 128.75 57.39 128.75H12.8532C8.9273 128.75 7.35077 123.684 10.5833 121.456L27.1117 110.066C29.4186 108.476 29.4186 105.068 27.1117 103.478L10.5833 92.0877C7.35077 89.86 8.9273 84.7941 12.8532 84.7941Z" fill="#335D63"/>
<path id="Vector 4" d="M12.8532 83H57.39C59.5991 83 61.39 84.7909 61.39 87V122.956C61.39 125.165 59.5991 126.956 57.39 126.956H12.8532C8.9273 126.956 7.35077 121.89 10.5833 119.662L27.1117 108.272C29.4186 106.682 29.4186 103.274 27.1117 101.684L10.5833 90.2936C7.35077 88.0659 8.9273 83 12.8532 83Z" fill="url(#paint1_linear_209_59)"/>
</g>
<g id="right">
<path id="Vector 5" d="M277.147 84.0442H232.609C230.4 84.0442 228.609 85.835 228.609 88.0442V124C228.609 126.209 230.4 128 232.609 128H277.147C281.073 128 282.649 122.934 279.417 120.706L262.888 109.316C260.581 107.726 260.581 104.318 262.888 102.729L279.417 91.3378C282.649 89.1101 281.073 84.0442 277.147 84.0442Z" fill="#335D63"/>
<path id="Vector 6" d="M277.147 82.2501H232.609C230.4 82.2501 228.609 84.0409 228.609 86.2501V122.206C228.609 124.415 230.4 126.206 232.609 126.206H277.147C281.073 126.206 282.649 121.14 279.417 118.912L262.888 107.522C260.581 105.932 260.581 102.524 262.888 100.934L279.417 89.5437C282.649 87.3159 281.073 82.2501 277.147 82.2501Z" fill="url(#paint2_linear_209_59)"/>
</g>
<path id="Vector 7" d="M60.8828 123.066V114.544V111.853H42.9121V112.302L60.8828 123.066Z" fill="#335D63"/>
<path id="Vector 8" d="M228.609 123.066V114.544V111.853L246.58 110.508C246.58 110.508 247.329 109.162 247.329 110.507L228.609 123.066Z" fill="#335D63"/>
<g id="top">
<rect id="Rectangle 40" x="36.9219" y="68.7942" width="214.151" height="45.75" rx="12" fill="#3B676E"/>
<rect id="Rectangle 41" x="36.9219" y="67.0001" width="214.151" height="45.75" rx="12" fill="url(#paint3_linear_209_59)"/>
</g>
</g>
<g id="COMPLETE" filter="url(#filter0_d_209_59)">
<text fill="white" xml:space="preserve" style="white-space: pre" font-family="Ubuntu" font-size="19" font-weight="bold" letter-spacing="0em"><tspan x="90" y="102.059">COMPLETE</tspan></text>
<text stroke="#335D63" xml:space="preserve" style="white-space: pre" font-family="Ubuntu" font-size="19" font-weight="bold" letter-spacing="0em"><tspan x="90" y="102.059">COMPLETE</tspan></text>
</g>
<text id="GAME" fill="#335D63" xml:space="preserve" style="white-space: pre" font-family="Inter" font-size="12" font-weight="900" letter-spacing="-0.04em"><tspan x="127" y="83.8637">GAME</tspan></text>
</g>
<defs>
<filter id="filter0_d_209_59" x="90.95" y="88.529" width="99.9263" height="15.737" filterUnits="userSpaceOnUse" color-interpolation-filters="sRGB">
<feFlood flood-opacity="0" result="BackgroundImageFix"/>
<feColorMatrix in="SourceAlpha" type="matrix" values="0 0 0 0 0 0 0 0 0 0 0 0 0 0 0 0 0 0 127 0" result="hardAlpha"/>
<feOffset dy="2"/>
<feComposite in2="hardAlpha" operator="out"/>
<feColorMatrix type="matrix" values="0 0 0 0 0.2 0 0 0 0 0.364706 0 0 0 0 0.388235 0 0 0 1 0"/>
<feBlend mode="normal" in2="BackgroundImageFix" result="effect1_dropShadow_209_59"/>
<feBlend mode="normal" in="SourceGraphic" in2="effect1_dropShadow_209_59" result="shape"/>
</filter>
<radialGradient id="paint0_radial_209_59" cx="0" cy="0" r="1" gradientUnits="userSpaceOnUse" gradientTransform="translate(144.486 65.1815) rotate(89.8427) scale(54.4633 123.309)">
<stop stop-color="#FFEE37" stop-opacity="0.56"/>
<stop offset="1" stop-color="#FFF8AC" stop-opacity="0"/>
</radialGradient>
<linearGradient id="paint1_linear_209_59" x1="30.695" y1="83" x2="30.695" y2="126.956" gradientUnits="userSpaceOnUse">
<stop stop-color="#6DBECB"/>
<stop offset="1" stop-color="#406E75"/>
</linearGradient>
<linearGradient id="paint2_linear_209_59" x1="259.305" y1="82.2501" x2="259.305" y2="126.206" gradientUnits="userSpaceOnUse">
<stop stop-color="#6DBECB"/>
<stop offset="1" stop-color="#406E75"/>
</linearGradient>
<linearGradient id="paint3_linear_209_59" x1="143.997" y1="67.0001" x2="143.997" y2="112.75" gradientUnits="userSpaceOnUse">
<stop stop-color="#6DBECB"/>
<stop offset="1" stop-color="#406E75"/>
</linearGradient>
</defs>
</svg>
