<svg width="150" height="150" viewBox="0 0 150 150" fill="none" xmlns="http://www.w3.org/2000/svg">
<path fill-rule="evenodd" clip-rule="evenodd" d="M7.8125 54.3131C7.8125 32.4337 25.4518 14.6881 47.25 14.6881C58.1046 14.6881 67.9038 19.1005 75.0019 26.2176C82.1156 19.0984 91.9513 14.6881 102.75 14.6881C124.548 14.6881 142.188 32.4337 142.188 54.3131C142.188 77.7475 131.317 96.2513 118.339 109.548C105.427 122.778 90.1469 131.164 80.4106 134.492C78.6962 135.093 76.7331 135.313 75 135.313C73.2669 135.313 71.3038 135.093 69.5894 134.492C59.8534 131.164 44.5731 122.778 31.6611 109.548C18.6833 96.2513 7.8125 77.7475 7.8125 54.3131Z" fill="url(#paint0_linear_62_17)"/>
<path fill-rule="evenodd" clip-rule="evenodd" d="M123.278 64.0956C125.748 64.8706 127.123 67.5013 126.348 69.9713C121.049 86.8588 110.178 100.16 98.8632 109.818C96.8945 111.498 93.9357 111.264 92.2545 109.295C90.5739 107.326 90.8076 104.368 92.777 102.687C103.184 93.8031 112.779 81.8988 117.403 67.165C118.178 64.695 120.808 63.3206 123.278 64.0956Z" fill="#D7D7D7"/>
<defs>
<linearGradient id="paint0_linear_62_17" x1="14.5" y1="19.5" x2="120" y2="108.5" gradientUnits="userSpaceOnUse">
<stop stop-color="#18661B"/>
<stop offset="0.397285" stop-color="#239227"/>
<stop offset="1" stop-color="#31CC36"/>
</linearGradient>
</defs>
</svg>
