<svg width="395" height="340" viewBox="0 0 395 340" fill="none" xmlns="http://www.w3.org/2000/svg">
<rect x="206.734" y="5.59796" width="194" height="294" rx="24" transform="rotate(13 206.734 5.59796)" fill="#242424"/>
<rect x="206.734" y="5.59796" width="194" height="294" rx="24" transform="rotate(13 206.734 5.59796)" fill="#F0F0F0"/>
<rect x="206.734" y="5.59796" width="194" height="294" rx="24" transform="rotate(13 206.734 5.59796)" stroke="#F0F0F0" stroke-width="6"/>
<rect x="206.734" y="5.59796" width="194" height="294" rx="24" transform="rotate(13 206.734 5.59796)" stroke="#242424" stroke-width="6"/>
<path d="M183.631 190.13L339.53 226.123" stroke="#242424"/>
<g clip-path="url(#clip0_72_265)">
<path d="M244.391 82.9299C244.277 82.967 244.176 82.9961 244.062 83.0328C242.844 75.3639 238.982 67.1373 238.982 67.1373L243.199 65.2328C245.844 67.7481 250.342 74.6114 252.382 78.2186C250.214 80.2965 247.548 81.8804 244.391 82.9299Z" fill="#242424"/>
<path d="M187.788 146.39C189.123 143.046 194.323 121.137 222.713 107.407C228.926 103.511 230.819 98.2974 231.94 92.9888C232.471 90.4595 232.701 90.3285 232.701 90.3285C232.824 89.5936 233.435 89.0405 234.164 89.0086C234.164 89.0086 234.493 88.8845 237.22 88.5565C242.06 87.9688 254.585 83.1731 259.502 76.0526C260.632 74.4191 261.57 71.9521 261.57 71.9521C262.063 70.9769 263.134 70.4612 264.174 70.7011L268.02 71.5891L318.894 83.3344L351.75 90.9197L352.403 88.8183L364.938 87.1034L369.909 88.251L368.405 94.7652L371.732 95.5333L368.579 109.191L363.608 108.044L362.052 114.783L331.714 107.778C324.386 106.087 316.244 117.398 312.28 126.523C311.745 127.746 311.395 128.67 311.395 128.67C310.227 130.995 308.504 132.007 306.192 131.473C306.192 131.473 304.048 130.978 300.796 130.228L291.712 139.995C289.17 142.729 285.428 143.896 281.871 143.075C281.841 143.068 281.806 143.06 281.782 143.054L255.15 136.906C242.022 133.875 236.412 140.536 231.474 157.044C230.675 160.506 225.48 161.995 222.817 161.381C220.16 160.767 191.78 154.215 188.938 153.559C186.1 152.904 186.46 149.725 187.788 146.39ZM301.017 91.1624L275.191 85.1997C273.727 84.8618 272.262 85.8076 271.913 87.316C271.566 88.8196 272.469 90.312 273.932 90.6499L299.759 96.6125C301.223 96.9505 302.688 96.0047 303.035 94.5011C303.384 92.9927 302.481 91.5003 301.017 91.1624ZM297.495 106.419L271.668 100.456C270.205 100.118 268.739 101.064 268.392 102.568C268.045 104.071 268.948 105.564 270.411 105.902L296.238 111.864C297.702 112.202 299.167 111.256 299.514 109.753C299.861 108.249 298.959 106.757 297.495 106.419ZM282.989 137.866L283.004 137.87L283.069 137.885C284.838 138.293 286.708 137.714 287.97 136.348L294.922 128.871C287.108 127.067 277.232 124.787 272.217 123.629C272.551 125.853 273.189 128.306 274.306 130.147C274.969 131.242 272.741 132.937 271.49 131.702C270.859 131.083 267.589 129.133 266.451 123.193C262.988 124.129 259.329 127.421 257.013 131.869L282.989 137.866L282.989 137.866Z" fill="#242424"/>
</g>
<rect x="6.21738" y="48.712" width="191" height="291" rx="22.5" transform="rotate(-13 6.21738 48.712)" fill="#282828" stroke="#E5E5E5" stroke-width="9"/>
<rect x="17.0113" y="55.4568" width="173" height="274" rx="14.5" transform="rotate(-13 17.0113 55.4568)" stroke="#E5E5E5"/>
<g clip-path="url(#clip1_72_265)">
<path d="M162.874 91.6358C178.78 107.023 187.3 152.475 169.811 180.456C155.27 203.719 150.217 207.964 127.581 205.493" fill="#D5D5D5"/>
<path d="M101.989 252.454C86.0837 237.061 75.9516 186.86 93.4379 158.876C112.284 132.565 116.593 129.004 138.818 134.136" fill="white"/>
<path d="M101.989 252.454C86.0837 237.061 75.9516 186.86 93.4379 158.876C112.284 132.565 116.593 129.004 138.818 134.136" fill="white"/>
<path d="M101.989 252.454C86.0837 237.061 75.9516 186.86 93.4379 158.876C112.284 132.565 116.593 129.004 138.818 134.136" fill="#D5D5D5"/>
<path d="M142.672 209.244C132.854 211.511 122.151 209.664 110.612 203.684C108.064 202.362 107.07 199.229 108.39 196.683C109.714 194.135 112.846 193.143 115.391 194.462C128.199 201.102 147.32 206.576 165.405 177.638C181.265 152.268 174.282 109.331 159.962 95.4747C157.9 93.4816 157.845 90.1936 159.84 88.1316C161.835 86.0696 165.12 86.0127 167.183 88.0098C185.239 105.477 192.915 153.229 174.215 183.141C165.054 197.8 154.507 206.512 142.672 209.244Z" fill="#ECECEC"/>
<path d="M151.633 137.315C161.682 147.042 161.474 167.205 150.427 184.89C139.374 202.572 126.712 203.009 114.53 196.691" fill="#282224"/>
<path d="M132.165 207.335C125.526 208.868 118.301 207.673 110.642 203.701C108.094 202.381 107.099 199.246 108.422 196.702C109.743 194.154 112.88 193.161 115.422 194.483C123.47 198.652 134.052 201.295 144.525 184.538C154.073 169.252 154.933 151.586 146.522 143.447C144.462 141.451 144.409 138.163 146.402 136.102C148.396 134.044 151.686 133.988 153.748 135.981C165.793 147.64 165.618 170.376 153.333 190.041C147.298 199.697 140.151 205.492 132.165 207.335Z" fill="#ECECEC"/>
<path d="M102.785 256.141C101.127 256.523 99.3158 256.086 98.0001 254.812C79.9505 237.346 70.3396 185.973 89.033 156.06C105.797 129.243 127.198 122.334 152.64 135.516C155.188 136.836 156.183 139.971 154.862 142.517C153.54 145.067 150.407 146.059 147.861 144.739C135.054 138.101 115.937 132.621 97.8431 161.564C81.9905 186.936 90.9078 233.494 105.224 247.349C107.286 249.344 107.341 252.632 105.346 254.692C104.621 255.439 103.728 255.923 102.785 256.141Z" fill="#ECECEC"/>
<path d="M113.123 199.486C103.065 189.761 103.275 169.602 114.322 151.917C125.377 134.23 138.04 133.793 150.221 140.111" fill="#282224"/>
<path d="M114.295 204.546C112.64 204.929 110.827 204.492 109.511 203.22C97.4581 191.565 97.6301 168.832 109.917 149.164C120.974 131.475 135.735 126.747 152.611 135.499C155.159 136.82 156.153 139.955 154.83 142.499C153.51 145.047 150.37 146.038 147.831 144.718C139.783 140.546 129.198 137.911 118.725 154.668C109.178 169.956 108.321 187.616 116.732 195.751C118.794 197.744 118.849 201.034 116.856 203.096C116.133 203.845 115.241 204.328 114.295 204.546Z" fill="#ECECEC"/>
</g>
<defs>
<clipPath id="clip0_72_265">
<rect width="168" height="168" fill="white" transform="matrix(-0.97437 -0.224951 -0.224951 0.97437 380.395 58.0065)"/>
</clipPath>
<clipPath id="clip1_72_265">
<rect width="129" height="157" fill="white" transform="translate(51.7947 110.544) rotate(-13)"/>
</clipPath>
</defs>
</svg>
